<svg viewBox="0 0 600.0 727.0" xmlns="http://www.w3.org/2000/svg" width="600.0" height="727.0">
<defs><style>.state{fill:#dde1e6}.state path{stroke:#fff;stroke-width:0.8}</style></defs>
<g class="state">
<path class="ao" d="M 300.37,349.55 L 295.69,352.85 L 296.09,357.57 L 293.90,358.04 L 292.43,352.34 L 298.30,348.01 L 300.37,349.55 Z M 382.36,396.95 L 382.33,413.23 L 367.40,413.33 L 367.86,438.70 L 368.69,441.32 L 377.95,449.54 L 358.12,452.54 L 344.64,450.83 L 340.44,447.64 L 307.48,447.71 L 300.58,444.24 L 296.42,446.17 L 290.36,446.45 L 290.42,435.33 L 292.42,432.84 L 296.44,416.70 L 299.69,411.59 L 304.32,407.81 L 306.20,398.35 L 299.81,383.01 L 302.52,380.26 L 302.67,377.84 L 294.57,360.57 L 301.21,358.78 L 325.65,359.11 L 327.65,361.11 L 329.81,369.39 L 334.29,375.79 L 347.54,374.78 L 348.95,368.54 L 351.57,367.34 L 356.95,366.83 L 357.08,369.55 L 365.91,369.83 L 366.15,386.22 L 369.62,392.25 L 369.26,398.86 L 381.36,398.03 L 382.36,396.95 Z"/>
<path class="bf" d="M 208.76,231.38 L 199.73,230.05 L 197.26,231.88 L 180.68,231.34 L 181.16,243.37 L 177.72,239.78 L 167.17,241.17 L 160.41,235.72 L 162.18,224.97 L 168.65,221.05 L 168.26,218.47 L 170.17,217.53 L 169.40,215.02 L 170.74,213.57 L 177.13,213.77 L 177.53,210.84 L 179.77,210.92 L 182.51,206.43 L 186.08,206.89 L 187.13,204.65 L 196.97,199.88 L 203.62,201.11 L 203.21,204.34 L 205.21,208.41 L 211.02,213.17 L 209.42,213.12 L 209.41,215.61 L 213.76,218.75 L 217.59,218.14 L 218.63,219.50 L 217.47,220.89 L 219.96,224.44 L 219.19,226.02 L 216.89,228.12 L 212.72,227.90 L 208.76,231.38 Z"/>
<path class="bi" d="M 431.93,332.70 L 431.03,336.27 L 433.64,337.10 L 433.71,339.29 L 425.11,348.19 L 420.46,334.69 L 425.49,335.67 L 427.24,332.24 L 431.93,332.70 Z"/>
<path class="bj" d="M 214.19,267.75 L 215.36,267.16 L 213.50,261.87 L 214.02,246.23 L 212.41,243.85 L 211.99,239.00 L 207.85,236.23 L 207.91,233.55 L 212.72,227.90 L 216.89,228.12 L 219.77,224.88 L 219.79,221.94 L 223.09,220.69 L 229.04,225.98 L 228.23,228.29 L 230.84,234.33 L 224.90,245.97 L 222.86,246.24 L 222.35,266.59 L 214.19,267.75 Z"/>
<path class="bw" d="M 392.08,450.75 L 398.93,464.61 L 406.53,469.11 L 407.30,472.14 L 410.45,472.56 L 410.23,476.86 L 412.82,480.82 L 420.43,482.78 L 420.56,484.58 L 422.99,486.00 L 414.30,490.07 L 405.83,497.31 L 403.95,502.77 L 397.00,506.96 L 393.47,515.00 L 385.10,515.24 L 376.20,511.45 L 374.17,512.86 L 372.06,518.50 L 365.26,524.46 L 357.66,524.30 L 358.47,516.69 L 355.75,510.27 L 352.36,507.20 L 352.33,484.43 L 359.81,484.43 L 359.84,454.91 L 376.73,452.38 L 379.60,456.03 L 384.45,452.57 L 392.08,450.75 Z"/>
<path class="cd" d="M 432.11,376.71 L 419.47,378.72 L 419.26,381.01 L 415.73,384.36 L 417.46,388.98 L 417.52,395.39 L 415.40,401.63 L 416.35,404.16 L 420.72,408.29 L 423.89,408.83 L 424.07,407.37 L 426.22,406.81 L 426.07,416.70 L 424.41,415.24 L 421.08,416.37 L 415.82,409.60 L 409.20,407.11 L 406.39,402.37 L 403.86,405.34 L 397.86,404.76 L 392.77,402.71 L 392.31,399.56 L 385.45,401.13 L 385.36,398.92 L 382.36,396.95 L 369.66,399.42 L 369.62,392.25 L 366.15,386.22 L 365.91,369.83 L 357.08,369.55 L 356.95,366.83 L 351.57,367.34 L 348.95,368.54 L 347.54,374.78 L 334.29,375.79 L 329.81,369.39 L 327.65,361.11 L 325.65,359.11 L 299.85,358.63 L 296.17,359.90 L 293.90,358.04 L 296.09,357.57 L 295.69,352.85 L 298.54,350.32 L 300.85,349.32 L 302.94,351.08 L 304.79,350.20 L 305.22,348.19 L 310.04,347.02 L 310.44,351.03 L 312.68,351.41 L 322.32,342.99 L 324.04,337.44 L 324.02,331.02 L 329.02,323.85 L 335.59,318.76 L 338.00,299.47 L 342.13,289.75 L 341.72,282.55 L 345.49,277.77 L 350.14,276.03 L 356.71,281.01 L 370.73,283.48 L 374.06,279.03 L 378.22,279.49 L 385.02,276.99 L 390.63,277.19 L 394.09,274.59 L 403.85,276.48 L 406.05,275.45 L 414.16,281.85 L 418.19,280.69 L 421.93,281.54 L 425.33,280.07 L 434.50,288.54 L 433.25,296.14 L 437.27,298.37 L 427.34,308.46 L 425.38,315.53 L 422.70,318.61 L 425.08,318.44 L 424.58,325.07 L 420.49,327.03 L 419.11,333.06 L 421.93,337.62 L 421.01,352.71 L 423.04,356.97 L 421.69,360.15 L 424.28,365.58 L 428.87,369.71 L 432.11,376.71 Z"/>
<path class="cf" d="M 383.72,249.16 L 384.80,252.01 L 389.03,253.18 L 391.64,255.68 L 392.23,258.57 L 400.38,264.58 L 401.53,268.86 L 406.27,271.48 L 408.22,276.12 L 394.09,274.59 L 390.63,277.19 L 385.02,276.99 L 378.22,279.49 L 374.06,279.03 L 370.73,283.48 L 356.71,281.01 L 354.21,278.24 L 348.75,275.99 L 341.92,281.89 L 342.05,288.43 L 333.63,286.86 L 327.00,288.23 L 323.78,297.54 L 322.88,292.73 L 315.84,285.80 L 315.35,282.35 L 312.85,279.95 L 311.99,270.41 L 310.66,268.73 L 312.91,267.27 L 318.49,257.84 L 322.08,257.96 L 326.50,255.24 L 328.31,257.63 L 334.81,254.35 L 341.70,253.87 L 345.80,249.23 L 344.14,247.45 L 357.26,244.31 L 367.88,232.68 L 374.03,231.94 L 379.95,240.33 L 379.13,248.01 L 383.72,249.16 Z"/>
<path class="cg" d="M 285.75,344.12 L 288.56,341.14 L 291.39,342.24 L 291.80,339.62 L 288.82,335.99 L 289.33,332.26 L 295.65,332.17 L 295.55,329.15 L 296.74,328.38 L 299.76,332.04 L 303.32,332.66 L 305.34,330.73 L 307.30,333.38 L 310.24,328.85 L 310.92,318.94 L 306.29,316.16 L 306.97,311.96 L 310.58,307.84 L 308.71,304.31 L 301.45,305.23 L 302.03,298.35 L 311.70,298.07 L 322.85,302.01 L 327.00,288.23 L 333.22,286.88 L 338.66,288.27 L 341.21,287.48 L 342.13,289.75 L 338.00,299.47 L 335.59,318.76 L 329.02,323.85 L 324.02,331.02 L 323.50,340.71 L 321.44,344.26 L 312.68,351.41 L 310.44,351.03 L 310.04,347.02 L 305.22,348.19 L 304.79,350.20 L 302.94,351.08 L 298.30,348.01 L 292.43,352.34 L 285.75,344.12 Z"/>
<path class="ci" d="M 178.75,275.98 L 177.55,276.09 L 178.75,275.98 Z M 141.84,237.74 L 145.55,235.62 L 149.17,237.89 L 149.67,236.36 L 151.61,236.31 L 151.90,233.96 L 153.63,234.70 L 154.86,233.44 L 155.94,237.44 L 160.16,235.62 L 163.60,237.13 L 167.17,241.17 L 177.72,239.78 L 181.69,242.94 L 183.12,252.63 L 180.98,254.74 L 177.57,264.48 L 179.42,271.57 L 180.96,272.41 L 180.79,275.79 L 177.90,274.27 L 176.79,275.96 L 170.97,274.61 L 162.22,275.36 L 163.88,275.96 L 157.47,276.87 L 145.20,281.85 L 145.88,270.59 L 143.30,269.58 L 142.61,267.61 L 137.23,265.54 L 139.50,261.96 L 138.11,257.57 L 140.03,257.59 L 141.70,253.62 L 139.84,252.29 L 139.99,250.76 L 144.17,251.10 L 142.14,248.24 L 143.44,245.99 L 142.55,243.44 L 140.74,242.83 L 140.60,239.19 L 141.84,237.74 Z"/>
<path class="cm" d="M 266.37,278.80 L 269.70,270.01 L 275.59,263.63 L 281.81,261.33 L 286.56,265.98 L 291.25,260.93 L 290.54,259.75 L 294.05,252.07 L 298.18,248.00 L 305.09,232.30 L 311.56,227.55 L 312.01,222.48 L 308.83,220.69 L 307.83,215.33 L 310.82,215.77 L 315.49,224.83 L 315.87,234.02 L 319.80,238.92 L 309.18,239.14 L 307.18,241.34 L 315.75,249.98 L 319.07,256.21 L 313.10,266.99 L 310.59,269.09 L 311.99,270.41 L 312.68,279.47 L 315.35,282.35 L 315.34,284.90 L 322.88,292.73 L 323.42,301.65 L 311.70,298.07 L 288.98,297.30 L 277.09,298.31 L 275.74,297.28 L 276.60,290.23 L 273.90,286.02 L 275.28,285.61 L 274.90,284.07 L 272.92,285.08 L 269.72,283.81 L 269.10,280.32 L 267.16,279.43 L 266.51,280.53 L 266.37,278.80 Z"/>
<path class="cv" d="M 12.55,185.18 L 11.29,184.05 L 13.57,183.37 L 12.55,185.18 Z M 25.54,200.36 L 23.57,200.72 L 23.25,197.86 L 25.54,200.36 Z M 14.68,186.19 L 13.13,186.08 L 14.68,186.19 Z M 29.50,190.75 L 31.06,192.27 L 29.19,192.26 L 29.50,190.75 Z M 19.03,201.54 L 17.61,200.58 L 18.87,200.27 L 19.03,201.54 Z M 20.69,187.73 L 18.93,188.75 L 18.36,187.76 L 20.69,187.73 Z M 29.72,187.44 L 29.38,186.01 L 29.72,187.44 Z M 27.51,199.36 L 27.30,197.90 L 27.51,199.36 Z"/>
<path class="dj" d="M 527.46,227.49 L 525.03,231.33 L 516.56,231.48 L 516.52,226.06 L 521.47,219.63 L 523.38,220.72 L 526.49,218.19 L 528.47,222.94 L 522.01,226.93 L 527.46,227.49 Z"/>
<path class="dz" d="M 266.53,15.10 L 263.75,19.02 L 265.16,31.24 L 264.04,35.55 L 258.53,41.51 L 258.43,43.76 L 264.70,55.36 L 270.05,59.55 L 273.62,75.76 L 272.05,76.75 L 275.78,84.88 L 276.36,106.57 L 272.90,110.63 L 277.25,117.44 L 279.17,123.59 L 288.59,125.88 L 292.05,132.44 L 258.29,153.94 L 245.91,165.11 L 226.49,168.83 L 225.36,167.74 L 226.49,165.66 L 225.54,162.15 L 215.18,158.29 L 210.75,154.39 L 210.60,152.09 L 136.63,101.03 L 136.67,89.07 L 139.78,86.57 L 148.23,81.06 L 152.04,81.50 L 153.21,79.32 L 160.97,78.13 L 164.59,73.70 L 174.38,69.34 L 173.13,67.28 L 173.62,62.94 L 179.27,61.66 L 180.43,59.53 L 192.75,59.24 L 193.96,56.03 L 191.07,53.20 L 189.34,48.41 L 188.47,35.39 L 185.28,32.15 L 189.38,31.43 L 198.77,25.15 L 201.62,25.42 L 204.33,22.36 L 211.44,19.02 L 230.42,15.48 L 237.79,15.48 L 241.84,17.81 L 250.80,13.70 L 254.12,15.26 L 256.46,14.80 L 256.20,13.63 L 261.52,15.86 L 266.53,15.10 Z"/>
<path class="eg" d="M 479.48,144.85 L 438.56,144.86 L 438.31,143.18 L 436.87,144.87 L 389.99,144.86 L 389.99,84.84 L 387.90,76.01 L 389.85,71.84 L 389.03,66.08 L 391.27,63.25 L 393.01,64.51 L 396.86,63.55 L 420.78,70.51 L 435.92,63.71 L 441.98,64.25 L 443.84,66.02 L 442.01,64.77 L 441.10,66.45 L 443.58,68.21 L 444.45,66.44 L 447.36,68.42 L 459.36,66.18 L 464.68,82.29 L 459.53,96.97 L 452.21,90.12 L 447.08,77.98 L 445.53,80.96 L 449.58,90.14 L 454.46,95.84 L 457.56,106.41 L 466.86,124.55 L 471.30,128.98 L 469.19,130.29 L 470.65,137.12 L 479.48,144.85 Z"/>
<path class="eh" d="M 74.01,149.52 L 90.96,148.87 L 94.95,142.31 L 97.43,131.01 L 101.80,128.63 L 104.21,124.59 L 108.42,121.61 L 111.21,111.94 L 113.79,110.99 L 116.65,106.54 L 116.24,104.44 L 121.02,103.28 L 128.09,104.72 L 131.14,102.71 L 135.79,102.43 L 135.62,97.89 L 136.63,97.89 L 136.64,111.90 L 111.54,111.90 L 111.49,132.85 L 107.00,134.46 L 102.99,138.15 L 104.02,150.22 L 74.30,150.26 L 73.67,154.48 L 74.01,149.52 Z"/>
<path class="er" d="M 476.87,206.20 L 476.14,199.39 L 479.80,190.29 L 480.52,184.30 L 483.54,184.28 L 484.57,182.21 L 489.88,180.15 L 492.56,176.83 L 497.75,193.23 L 501.41,199.45 L 502.00,196.75 L 504.56,200.31 L 511.88,203.38 L 515.51,208.33 L 519.93,211.39 L 521.09,214.29 L 526.49,218.19 L 523.38,220.72 L 520.93,220.05 L 509.20,207.33 L 504.09,204.66 L 496.99,204.47 L 495.68,203.32 L 491.22,204.87 L 487.10,201.57 L 484.75,207.04 L 482.39,204.67 L 476.87,206.20 Z M 504.09,194.99 L 506.03,195.90 L 502.84,195.64 L 502.70,193.48 L 504.09,194.99 Z"/>
<path class="et" d="M 467.42,273.23 L 463.22,264.39 L 457.14,257.95 L 450.44,254.59 L 452.46,250.90 L 458.58,249.79 L 459.95,234.94 L 462.18,232.24 L 463.68,233.27 L 464.88,232.36 L 466.24,225.06 L 470.44,218.84 L 473.73,218.05 L 476.87,206.20 L 482.39,204.67 L 484.75,207.04 L 487.10,201.57 L 491.22,204.87 L 496.06,203.32 L 496.99,204.47 L 504.09,204.66 L 509.20,207.33 L 520.93,220.05 L 516.52,226.06 L 516.56,231.48 L 525.03,231.33 L 523.02,234.39 L 524.41,237.43 L 533.01,246.54 L 555.55,254.24 L 563.07,254.24 L 540.21,277.61 L 530.00,278.04 L 524.53,282.05 L 517.21,284.67 L 511.61,284.78 L 508.79,282.44 L 501.84,285.62 L 499.22,288.60 L 488.62,287.15 L 479.74,281.39 L 473.09,280.97 L 471.14,278.40 L 471.00,274.35 L 467.42,273.23 Z"/>
<path class="ga" d="M 302.03,298.35 L 301.45,305.23 L 308.71,304.31 L 310.58,307.84 L 306.97,311.96 L 306.29,316.16 L 310.92,318.94 L 310.24,328.85 L 307.30,333.38 L 305.34,330.73 L 303.32,332.66 L 299.76,332.04 L 296.74,328.38 L 295.55,329.15 L 295.65,332.17 L 289.33,332.26 L 288.82,335.99 L 291.80,339.62 L 291.39,342.24 L 288.56,341.14 L 285.75,344.12 L 275.43,333.59 L 277.71,333.82 L 274.42,332.45 L 269.99,324.48 L 272.12,326.91 L 273.49,326.33 L 271.94,326.03 L 272.33,324.60 L 270.20,324.40 L 267.48,319.08 L 269.31,319.81 L 271.95,317.27 L 272.39,312.04 L 275.71,314.29 L 277.25,313.16 L 273.83,312.40 L 272.16,310.47 L 274.37,310.29 L 274.16,306.86 L 287.29,307.10 L 287.39,297.31 L 302.03,298.35 Z"/>
<path class="gh" d="M 201.46,230.44 L 201.33,233.83 L 204.85,236.75 L 203.74,243.08 L 205.94,243.57 L 204.78,248.44 L 207.15,251.52 L 205.94,262.94 L 210.92,268.71 L 209.13,270.82 L 203.94,271.22 L 186.91,278.74 L 178.54,276.28 L 180.79,275.79 L 181.25,273.68 L 179.42,271.57 L 177.63,263.27 L 180.98,254.74 L 183.12,252.63 L 181.31,246.27 L 180.68,231.34 L 197.26,231.88 L 199.73,230.05 L 201.46,230.44 Z"/>
<path class="gm" d="M 77.33,211.39 L 85.25,211.40 L 88.27,209.65 L 97.92,212.78 L 94.76,214.11 L 87.95,211.63 L 82.96,213.42 L 82.81,214.73 L 75.82,215.44 L 75.35,213.30 L 76.52,212.26 L 78.45,213.85 L 85.87,212.32 L 78.91,213.28 L 77.33,211.39 Z"/>
<path class="gn" d="M 124.59,250.53 L 121.36,251.67 L 122.95,248.99 L 121.52,244.22 L 117.65,239.15 L 108.45,239.76 L 103.93,245.82 L 101.94,246.24 L 100.86,243.41 L 98.94,242.53 L 98.95,239.53 L 93.40,237.08 L 90.77,231.85 L 88.70,232.59 L 91.47,227.42 L 98.63,225.68 L 97.00,222.27 L 98.81,221.24 L 98.65,218.45 L 108.66,221.03 L 116.26,220.53 L 115.41,222.12 L 116.90,223.53 L 119.70,222.07 L 121.38,224.42 L 124.65,222.01 L 128.57,223.41 L 131.55,221.68 L 131.27,220.07 L 133.92,220.55 L 135.58,226.16 L 138.77,228.51 L 136.75,231.25 L 139.23,231.40 L 139.76,235.26 L 141.88,236.85 L 140.74,242.83 L 142.55,243.44 L 143.44,245.99 L 142.14,248.24 L 144.17,251.10 L 140.19,250.55 L 139.84,252.29 L 141.70,253.62 L 140.22,257.33 L 136.81,256.59 L 135.08,259.82 L 133.36,260.17 L 130.75,258.66 L 130.34,251.59 L 128.36,250.13 L 124.59,250.53 Z"/>
<path class="gq" d="M 267.73,286.32 L 269.31,287.31 L 267.49,290.35 L 265.76,290.04 L 267.73,286.32 Z M 287.24,298.31 L 287.29,307.10 L 276.54,307.40 L 272.62,306.05 L 275.79,300.12 L 275.74,297.28 L 277.09,298.31 L 287.24,298.31 Z"/>
<path class="gw" d="M 76.20,220.91 L 87.61,218.41 L 98.65,218.45 L 98.81,221.24 L 97.00,222.27 L 98.63,225.68 L 91.47,227.42 L 88.76,231.78 L 88.68,230.24 L 87.42,231.09 L 85.48,228.18 L 88.54,226.74 L 85.31,225.77 L 88.50,223.88 L 82.00,225.29 L 82.16,224.12 L 79.09,223.25 L 79.72,221.82 L 76.20,220.91 Z M 80.70,230.87 L 79.78,230.46 L 81.06,229.81 L 80.70,230.87 Z M 82.30,227.75 L 81.83,226.73 L 82.30,227.75 Z M 81.66,224.55 L 81.27,225.49 L 80.41,224.59 L 81.66,224.55 Z"/>
<path class="ke" d="M 510.51,330.88 L 511.54,330.08 L 510.51,330.88 Z M 457.68,313.02 L 461.50,306.78 L 463.88,305.26 L 465.23,301.28 L 464.69,295.96 L 461.24,290.81 L 461.17,287.13 L 457.69,282.84 L 467.42,273.23 L 471.00,274.35 L 471.14,278.40 L 473.09,280.97 L 479.74,281.39 L 488.62,287.15 L 499.22,288.60 L 501.84,285.62 L 508.79,282.44 L 511.61,284.78 L 517.21,284.67 L 510.29,293.44 L 510.39,321.18 L 514.56,327.39 L 509.72,329.86 L 507.88,333.75 L 504.70,334.87 L 503.90,339.10 L 498.34,349.48 L 496.93,349.87 L 486.45,342.30 L 485.03,340.96 L 485.30,337.56 L 458.29,322.47 L 459.19,318.17 L 463.99,316.70 L 463.27,315.32 L 460.01,317.26 L 457.68,313.02 Z"/>
<path class="km" d="M 536.72,406.24 L 536.93,408.35 L 534.79,406.93 L 536.72,406.24 Z M 531.54,407.97 L 530.36,407.51 L 531.54,407.97 Z M 529.11,404.85 L 527.31,403.70 L 527.86,400.80 L 529.11,404.85 Z"/>
<path class="lr" d="M 115.37,262.52 L 121.85,256.05 L 124.59,250.53 L 129.25,250.62 L 131.47,256.47 L 130.75,258.66 L 135.08,259.82 L 137.41,256.67 L 139.54,261.25 L 137.23,265.54 L 142.61,267.61 L 143.30,269.58 L 145.88,270.59 L 145.20,281.85 L 133.25,276.54 L 115.37,262.52 Z"/>
<path class="ls" d="M 418.26,552.38 L 415.67,552.78 L 413.14,557.00 L 410.86,556.73 L 408.11,554.25 L 405.62,548.25 L 410.72,542.33 L 417.42,539.26 L 423.18,545.17 L 420.98,550.79 L 418.26,552.38 Z"/>
<path class="ly" d="M 273.62,75.76 L 278.87,70.92 L 278.11,64.94 L 279.31,62.99 L 288.57,56.51 L 288.57,49.64 L 294.40,52.54 L 301.96,52.04 L 316.20,56.72 L 320.19,65.27 L 336.18,69.66 L 345.91,75.44 L 350.35,73.50 L 353.34,69.34 L 351.95,61.81 L 352.74,59.24 L 360.50,53.28 L 368.97,52.00 L 375.77,54.68 L 377.24,58.29 L 389.76,60.60 L 391.27,63.25 L 389.03,66.08 L 389.85,71.84 L 387.90,76.01 L 389.99,84.84 L 389.98,160.93 L 382.46,160.98 L 382.46,164.98 L 322.28,133.03 L 308.97,139.78 L 303.44,135.21 L 292.05,132.44 L 288.59,125.88 L 279.69,124.10 L 272.90,110.63 L 276.18,107.23 L 276.45,104.74 L 275.34,100.65 L 276.61,96.79 L 275.89,85.42 L 272.05,76.75 L 273.62,75.76 Z"/>
<path class="ma" d="M 185.28,32.15 L 188.47,35.39 L 189.34,48.41 L 191.07,53.20 L 193.96,56.03 L 192.75,59.24 L 180.43,59.53 L 179.27,61.66 L 173.62,62.94 L 173.13,67.28 L 174.38,69.34 L 164.59,73.70 L 160.97,78.13 L 153.21,79.32 L 152.04,81.50 L 148.23,81.06 L 139.78,86.57 L 136.67,89.07 L 135.79,102.43 L 131.14,102.71 L 128.09,104.72 L 121.02,103.28 L 116.24,104.44 L 116.65,106.54 L 113.79,110.99 L 111.21,111.94 L 108.42,121.61 L 104.21,124.59 L 101.80,128.63 L 97.43,131.01 L 94.95,142.31 L 90.96,148.87 L 74.01,149.52 L 74.56,145.64 L 78.86,139.99 L 83.15,130.18 L 81.71,131.18 L 82.32,129.75 L 89.81,122.53 L 93.50,109.74 L 99.81,105.69 L 104.53,95.70 L 115.03,92.32 L 125.21,83.12 L 129.22,76.81 L 129.33,73.86 L 127.66,71.49 L 128.16,65.28 L 131.63,59.43 L 132.40,55.10 L 137.91,49.00 L 150.04,42.53 L 157.39,25.86 L 162.26,24.77 L 162.45,27.44 L 167.15,31.21 L 176.43,31.16 L 179.61,29.36 L 180.61,31.94 L 185.28,32.15 Z"/>
<path class="mg" d="M 574.82,408.94 L 577.82,413.88 L 581.61,430.00 L 581.34,433.74 L 579.68,436.31 L 577.48,432.40 L 575.76,432.90 L 577.08,440.46 L 574.15,446.39 L 573.50,455.05 L 557.05,507.29 L 553.67,510.30 L 541.53,513.57 L 533.40,509.02 L 530.65,503.26 L 531.04,496.91 L 527.60,487.55 L 529.38,479.22 L 531.63,477.78 L 536.18,467.68 L 536.51,463.74 L 533.43,454.67 L 532.98,447.58 L 536.30,442.15 L 536.72,438.34 L 549.37,434.59 L 551.19,436.05 L 551.76,432.84 L 555.28,430.54 L 556.46,432.22 L 558.36,427.01 L 559.21,426.60 L 559.31,428.91 L 561.54,426.00 L 562.97,426.28 L 561.53,423.93 L 563.20,420.75 L 562.79,418.44 L 565.16,418.88 L 569.23,415.39 L 570.16,412.08 L 569.16,409.24 L 572.32,406.22 L 574.82,408.94 Z M 565.81,416.13 L 564.68,415.33 L 565.81,416.13 Z M 577.81,443.73 L 578.46,442.10 L 577.81,443.73 Z"/>
<path class="ml" d="M 116.26,220.53 L 116.25,216.38 L 114.41,213.08 L 112.93,213.50 L 111.26,211.04 L 111.52,206.59 L 109.55,201.91 L 112.11,201.30 L 115.41,195.45 L 119.58,199.24 L 121.48,197.13 L 130.88,196.85 L 131.61,195.14 L 132.91,196.55 L 160.49,196.55 L 161.64,190.40 L 159.62,188.15 L 152.35,120.25 L 165.69,120.24 L 210.60,152.09 L 210.75,154.39 L 215.18,158.29 L 225.54,162.15 L 226.49,165.66 L 225.36,167.74 L 226.49,168.83 L 233.80,167.80 L 233.46,188.05 L 231.16,194.53 L 228.35,197.64 L 211.77,198.30 L 209.11,200.56 L 203.62,201.11 L 196.97,199.88 L 187.13,204.65 L 186.08,206.89 L 182.51,206.43 L 179.77,210.92 L 177.53,210.84 L 177.13,213.77 L 175.43,214.52 L 172.27,212.83 L 169.40,215.02 L 170.17,217.53 L 168.26,218.47 L 168.65,221.05 L 162.18,224.97 L 160.41,235.72 L 156.56,237.49 L 155.03,236.98 L 154.86,233.44 L 153.63,234.70 L 151.90,233.96 L 151.61,236.31 L 149.67,236.36 L 149.17,237.89 L 145.55,235.62 L 141.84,237.74 L 139.76,235.26 L 139.23,231.40 L 136.75,231.25 L 138.77,228.51 L 135.58,226.16 L 133.34,220.18 L 131.27,220.07 L 131.55,221.68 L 128.87,223.32 L 124.65,222.01 L 121.38,224.42 L 119.70,222.07 L 116.90,223.53 L 115.41,222.12 L 116.26,220.53 Z"/>
<path class="mr" d="M 78.75,163.30 L 78.98,162.02 L 78.75,163.30 Z M 109.55,201.91 L 102.59,195.61 L 101.06,192.15 L 97.60,191.45 L 92.60,187.47 L 79.76,188.45 L 77.53,193.88 L 81.21,175.10 L 79.96,168.91 L 77.69,166.05 L 79.26,164.85 L 78.21,165.16 L 79.98,159.12 L 74.97,152.22 L 73.67,154.48 L 74.30,150.26 L 104.02,150.22 L 102.99,138.15 L 107.00,134.46 L 111.49,132.85 L 111.54,111.90 L 136.64,111.90 L 136.63,101.03 L 165.69,120.24 L 152.35,120.25 L 159.62,188.15 L 161.64,190.40 L 160.49,196.55 L 132.91,196.55 L 131.61,195.14 L 130.88,196.85 L 121.48,197.13 L 119.58,199.24 L 115.41,195.45 L 112.11,201.30 L 109.55,201.91 Z"/>
<path class="mw" d="M 451.86,421.16 L 450.29,421.23 L 447.86,417.88 L 450.10,415.06 L 450.51,410.47 L 454.20,408.29 L 452.24,406.48 L 453.20,399.14 L 452.31,397.11 L 455.32,394.50 L 450.15,385.65 L 457.52,387.66 L 459.74,393.33 L 460.30,402.94 L 458.12,407.21 L 460.29,416.25 L 462.43,418.49 L 462.14,421.88 L 463.36,423.14 L 464.69,421.22 L 467.46,424.09 L 464.35,417.36 L 472.12,427.99 L 471.35,436.32 L 467.59,438.58 L 466.66,441.04 L 467.58,445.26 L 466.34,445.49 L 466.00,443.19 L 459.74,435.76 L 461.94,431.15 L 461.67,425.70 L 460.37,424.23 L 455.13,425.47 L 451.86,421.16 Z"/>
<path class="mz" d="M 437.46,487.70 L 446.05,478.74 L 446.52,473.60 L 450.29,468.18 L 448.09,459.85 L 450.29,455.23 L 449.95,442.23 L 437.07,436.83 L 430.85,436.47 L 429.51,428.76 L 451.86,421.16 L 455.13,425.47 L 460.69,424.36 L 462.05,429.93 L 459.74,435.76 L 466.00,443.19 L 465.88,445.11 L 467.45,445.42 L 466.66,441.04 L 468.10,437.90 L 471.08,437.10 L 472.12,427.99 L 464.35,417.36 L 463.14,407.15 L 465.09,402.37 L 472.26,401.42 L 475.22,403.35 L 480.29,402.28 L 483.26,403.38 L 487.38,400.19 L 491.68,401.10 L 497.92,398.87 L 506.52,393.83 L 507.63,395.33 L 506.06,400.48 L 507.40,410.50 L 506.32,413.19 L 507.31,413.20 L 507.89,425.24 L 508.86,424.33 L 509.38,426.64 L 507.24,432.53 L 501.45,438.95 L 501.86,440.06 L 496.14,444.28 L 484.31,448.99 L 479.99,452.33 L 475.96,458.49 L 471.82,460.27 L 465.00,466.80 L 462.76,465.91 L 463.18,472.10 L 467.41,481.60 L 467.77,487.65 L 468.83,485.37 L 469.46,486.89 L 468.19,499.12 L 469.48,499.34 L 467.32,504.33 L 450.05,513.13 L 447.26,517.43 L 449.21,519.64 L 450.01,518.09 L 449.49,524.53 L 443.67,524.45 L 442.22,515.50 L 442.71,504.58 L 437.46,487.70 Z"/>
<path class="na" d="M 377.95,449.54 L 388.13,448.57 L 392.08,450.75 L 384.45,452.57 L 379.95,455.94 L 376.73,452.38 L 359.84,454.91 L 359.81,484.43 L 352.33,484.43 L 352.36,538.14 L 346.20,542.32 L 338.23,541.75 L 333.30,540.26 L 332.63,536.59 L 330.35,534.55 L 325.77,539.57 L 320.29,534.00 L 317.04,528.13 L 311.12,502.45 L 310.83,488.08 L 290.61,452.40 L 290.36,446.45 L 296.42,446.17 L 300.58,444.24 L 307.48,447.71 L 340.44,447.64 L 344.64,450.83 L 358.12,452.54 L 377.95,449.54 Z"/>
<path class="ne" d="M 304.38,210.49 L 298.86,212.46 L 295.78,215.21 L 287.87,213.20 L 280.82,213.38 L 274.35,217.40 L 267.84,216.65 L 260.91,213.30 L 254.19,215.87 L 249.39,210.84 L 243.31,209.18 L 237.09,210.26 L 233.20,212.40 L 232.38,216.44 L 229.43,219.56 L 229.04,225.98 L 223.09,220.69 L 219.79,221.94 L 219.96,224.44 L 217.58,221.26 L 218.74,220.06 L 217.82,218.24 L 213.76,218.75 L 209.41,215.61 L 209.42,213.12 L 211.02,213.17 L 206.63,210.50 L 203.21,204.34 L 203.70,200.71 L 209.11,200.56 L 211.77,198.30 L 228.35,197.64 L 231.16,194.53 L 233.46,188.05 L 233.80,167.80 L 245.91,165.11 L 258.29,153.94 L 292.05,132.44 L 303.44,135.21 L 308.97,139.78 L 314.72,136.71 L 316.24,148.69 L 322.12,158.17 L 320.41,161.72 L 318.44,185.48 L 310.12,194.57 L 303.19,205.24 L 304.38,210.49 Z"/>
<path class="ng" d="M 256.93,281.34 L 255.72,281.52 L 256.93,281.34 Z M 304.38,210.49 L 307.83,215.33 L 308.83,220.69 L 312.01,222.48 L 311.68,227.24 L 305.09,232.30 L 301.32,242.31 L 299.29,243.36 L 297.80,248.55 L 295.33,249.69 L 290.54,259.75 L 291.25,260.93 L 287.79,265.34 L 285.57,265.92 L 281.81,261.33 L 280.35,262.74 L 278.32,261.84 L 270.17,269.32 L 266.37,278.80 L 263.95,277.65 L 264.40,280.29 L 256.80,280.36 L 255.24,279.09 L 255.83,280.62 L 254.09,281.55 L 252.92,279.03 L 253.61,281.68 L 251.50,280.91 L 248.44,282.40 L 244.04,279.61 L 242.35,274.99 L 243.75,273.36 L 241.11,272.92 L 243.05,272.32 L 240.46,272.10 L 235.33,266.75 L 228.22,266.29 L 229.96,264.86 L 222.35,266.59 L 222.86,246.24 L 224.90,245.97 L 230.46,235.65 L 229.95,230.72 L 228.23,228.29 L 229.56,225.47 L 229.43,219.56 L 235.26,210.93 L 243.31,209.18 L 249.39,210.84 L 254.19,215.87 L 260.91,213.30 L 267.84,216.65 L 274.35,217.40 L 280.82,213.38 L 287.87,213.20 L 295.78,215.21 L 298.86,212.46 L 304.38,210.49 Z"/>
<path class="rw" d="M 424.58,325.07 L 427.24,325.69 L 431.60,322.66 L 433.88,326.39 L 434.00,332.23 L 427.24,332.24 L 425.49,335.67 L 419.65,334.82 L 419.17,333.04 L 422.93,329.80 L 421.91,327.32 L 424.58,325.07 Z"/>
<path class="sd" d="M 458.46,243.09 L 456.90,242.75 L 457.17,237.59 L 451.32,233.27 L 451.85,221.97 L 448.25,221.93 L 448.36,223.57 L 443.36,223.59 L 445.37,225.87 L 445.99,230.64 L 436.46,240.73 L 433.45,241.03 L 427.79,236.86 L 424.80,238.48 L 423.80,240.75 L 420.09,242.08 L 419.07,244.13 L 413.08,244.11 L 411.82,242.02 L 402.62,242.92 L 396.14,235.76 L 390.64,236.73 L 386.61,247.47 L 383.72,249.16 L 379.13,248.01 L 379.95,240.33 L 374.03,231.94 L 374.50,228.68 L 372.01,226.88 L 370.21,218.56 L 366.24,217.55 L 369.27,213.39 L 368.36,209.75 L 371.61,206.94 L 370.43,203.92 L 374.57,199.16 L 374.59,196.26 L 375.87,194.94 L 382.39,194.79 L 382.46,160.98 L 389.98,160.93 L 389.99,144.86 L 436.87,144.87 L 438.31,143.18 L 438.56,144.86 L 479.48,144.85 L 482.40,152.04 L 481.90,159.98 L 484.00,170.37 L 492.56,176.83 L 489.88,180.15 L 484.57,182.21 L 483.54,184.28 L 480.52,184.30 L 479.80,190.29 L 476.14,199.39 L 476.87,206.20 L 473.87,217.81 L 470.44,218.84 L 466.24,225.06 L 464.88,232.36 L 463.68,233.27 L 462.18,232.24 L 460.46,233.94 L 458.46,243.09 Z"/>
<path class="sl" d="M 124.59,250.53 L 121.85,256.05 L 115.37,262.52 L 108.01,258.88 L 108.05,256.10 L 105.26,255.60 L 102.09,250.95 L 104.94,249.43 L 102.77,249.83 L 102.58,247.81 L 103.69,247.52 L 101.94,246.24 L 103.93,245.82 L 108.45,239.76 L 117.13,239.01 L 121.52,244.22 L 122.95,248.99 L 121.36,251.67 L 124.59,250.53 Z M 107.71,258.50 L 104.50,257.48 L 107.04,256.98 L 107.71,258.50 Z"/>
<path class="sn" d="M 109.55,201.91 L 111.52,206.59 L 111.26,211.04 L 112.93,213.50 L 114.82,213.69 L 116.31,219.95 L 109.48,221.12 L 98.65,218.45 L 87.61,218.41 L 76.20,220.91 L 75.84,219.60 L 78.23,218.95 L 75.78,218.80 L 76.68,214.75 L 82.81,214.73 L 82.96,213.42 L 87.95,211.63 L 94.76,214.11 L 97.92,212.78 L 88.27,209.65 L 85.25,211.40 L 77.33,211.39 L 75.79,208.93 L 76.91,207.88 L 75.60,208.16 L 72.77,203.22 L 70.00,202.33 L 75.21,198.13 L 79.76,188.45 L 89.39,187.29 L 94.36,188.06 L 97.60,191.45 L 100.32,191.55 L 102.59,195.61 L 109.55,201.91 Z"/>
<path class="so" d="M 514.56,327.39 L 510.39,321.18 L 510.39,293.23 L 518.26,283.46 L 524.04,282.29 L 530.00,278.04 L 540.21,277.61 L 563.07,254.24 L 570.30,243.17 L 570.30,229.34 L 579.12,227.26 L 584.25,223.77 L 587.73,224.95 L 586.06,235.58 L 587.27,234.74 L 588.71,236.02 L 585.29,236.41 L 584.50,243.35 L 563.05,280.75 L 548.57,295.99 L 535.64,304.16 L 529.13,309.95 L 514.56,327.39 Z"/>
<path class="ss" d="M 457.69,282.84 L 454.03,286.35 L 450.32,285.40 L 443.84,288.12 L 441.30,285.99 L 436.44,286.12 L 434.08,288.34 L 424.40,279.70 L 421.93,281.54 L 418.19,280.69 L 414.16,281.85 L 408.88,277.19 L 406.27,271.48 L 401.53,268.86 L 400.38,264.58 L 392.23,258.57 L 391.64,255.68 L 389.03,253.18 L 384.80,252.01 L 383.82,248.92 L 386.61,247.47 L 390.64,236.73 L 396.14,235.76 L 402.62,242.92 L 411.82,242.02 L 413.08,244.11 L 419.07,244.13 L 420.09,242.08 L 423.80,240.75 L 424.80,238.48 L 427.79,236.86 L 433.45,241.03 L 436.46,240.73 L 445.99,230.64 L 445.37,225.87 L 443.36,223.59 L 451.85,221.97 L 451.32,233.27 L 457.17,237.59 L 456.90,242.75 L 458.46,243.09 L 458.64,249.08 L 457.52,250.85 L 452.46,250.90 L 450.34,254.98 L 457.14,257.95 L 463.22,264.39 L 467.42,273.23 L 457.69,282.84 Z"/>
<path class="st" d="M 257.85,302.83 L 257.78,301.84 L 257.85,302.83 Z M 252.11,313.72 L 250.66,312.92 L 252.31,311.58 L 252.11,313.72 Z"/>
<path class="sz" d="M 442.43,517.04 L 443.67,524.45 L 442.51,528.39 L 435.77,526.75 L 433.71,521.21 L 435.96,517.23 L 438.17,515.24 L 442.43,517.04 Z"/>
<path class="td" d="M 382.46,164.98 L 382.39,194.79 L 375.87,194.94 L 374.59,196.26 L 374.57,199.16 L 370.43,203.92 L 371.61,206.94 L 368.36,209.75 L 369.27,213.39 L 366.24,217.55 L 370.21,218.56 L 372.01,226.88 L 374.50,228.68 L 374.03,231.94 L 371.27,231.35 L 365.84,234.06 L 365.17,236.76 L 355.08,245.64 L 344.65,247.08 L 345.80,249.23 L 341.70,253.87 L 334.81,254.35 L 328.31,257.63 L 326.50,255.24 L 322.08,257.96 L 318.49,257.84 L 319.01,255.83 L 315.75,249.98 L 307.18,241.34 L 309.18,239.14 L 319.80,238.92 L 315.87,234.02 L 315.49,224.83 L 313.72,219.78 L 310.82,215.77 L 307.83,215.33 L 304.38,210.49 L 303.19,205.24 L 310.12,194.57 L 318.44,185.48 L 320.41,161.72 L 322.12,158.17 L 316.24,148.69 L 314.72,136.71 L 322.28,133.03 L 382.46,164.98 Z"/>
<path class="tg" d="M 208.76,231.38 L 207.73,236.02 L 211.99,239.00 L 212.41,243.85 L 214.02,246.23 L 213.50,261.87 L 215.36,267.16 L 210.92,268.71 L 205.94,262.94 L 207.16,251.91 L 204.78,248.44 L 205.94,243.57 L 203.74,243.08 L 204.85,236.75 L 201.30,233.51 L 201.46,230.44 L 208.76,231.38 Z"/>
<path class="tn" d="M 288.57,49.64 L 288.57,56.51 L 279.31,62.99 L 278.11,64.94 L 278.87,70.92 L 273.62,75.76 L 270.05,59.55 L 264.70,55.36 L 258.43,43.76 L 258.53,41.51 L 264.04,35.55 L 265.16,31.24 L 263.75,19.02 L 266.53,15.10 L 274.89,11.29 L 275.97,13.23 L 278.72,12.56 L 280.35,17.03 L 285.17,13.82 L 285.72,15.69 L 280.83,22.24 L 284.80,27.27 L 285.67,30.90 L 277.61,41.73 L 279.54,44.71 L 282.61,45.06 L 282.68,46.64 L 284.45,45.63 L 286.29,49.03 L 288.57,49.64 Z M 286.86,35.37 L 285.70,36.03 L 286.86,35.37 Z M 284.45,44.76 L 282.68,44.61 L 282.85,43.25 L 284.45,44.76 Z"/>
<path class="tz" d="M 499.24,361.19 L 499.12,363.30 L 496.87,361.17 L 497.83,357.76 L 499.24,361.19 Z M 502.01,351.60 L 501.14,355.66 L 500.57,351.75 L 502.01,351.60 Z M 449.74,385.75 L 436.69,379.67 L 432.31,371.55 L 431.74,366.86 L 425.67,361.71 L 427.40,358.81 L 426.20,352.62 L 424.76,351.52 L 425.11,348.19 L 433.87,338.73 L 433.64,337.10 L 430.96,335.89 L 431.78,332.89 L 434.00,332.23 L 434.36,330.76 L 433.88,326.39 L 431.68,322.62 L 441.68,322.28 L 440.29,329.17 L 441.32,335.64 L 442.84,335.38 L 442.71,333.80 L 444.95,331.81 L 448.92,333.56 L 448.54,337.10 L 450.06,336.08 L 449.93,332.85 L 453.47,333.68 L 456.43,331.13 L 452.05,330.40 L 454.29,329.66 L 452.59,329.09 L 455.50,325.83 L 457.28,326.02 L 456.48,325.21 L 458.29,322.47 L 485.30,337.56 L 485.03,340.96 L 497.17,349.98 L 494.03,360.40 L 499.61,367.62 L 497.67,371.37 L 498.82,375.12 L 497.79,378.41 L 500.33,384.11 L 500.96,390.28 L 506.52,393.83 L 502.94,396.55 L 491.68,401.10 L 487.38,400.19 L 483.26,403.38 L 480.29,402.28 L 475.22,403.35 L 472.26,401.42 L 465.09,402.37 L 462.45,398.55 L 462.16,392.12 L 460.29,388.22 L 457.84,386.42 L 457.03,387.75 L 449.74,385.75 Z M 500.86,374.86 L 502.33,372.37 L 500.86,374.86 Z M 443.23,332.16 L 441.68,333.11 L 441.24,331.45 L 443.23,332.16 Z M 451.66,330.88 L 449.06,329.21 L 451.08,329.42 L 451.66,330.88 Z"/>
<path class="ug" d="M 441.17,322.17 L 430.87,322.63 L 427.70,325.52 L 424.58,325.07 L 427.34,308.46 L 431.36,305.30 L 432.24,306.79 L 438.30,300.36 L 438.87,296.55 L 437.27,298.37 L 433.25,296.14 L 434.08,288.34 L 436.44,286.12 L 441.30,285.99 L 443.84,288.12 L 450.32,285.40 L 454.03,286.35 L 457.69,282.84 L 461.17,287.13 L 461.24,290.81 L 464.69,295.96 L 465.22,301.68 L 463.88,305.26 L 461.50,306.78 L 457.68,313.02 L 453.98,312.99 L 452.40,311.15 L 450.03,313.82 L 447.69,312.72 L 442.44,315.62 L 441.17,322.17 Z M 453.15,313.00 L 451.73,313.50 L 453.15,313.00 Z M 445.06,317.57 L 443.81,318.58 L 443.31,316.54 L 445.06,317.57 Z"/>
<path class="za" d="M 422.99,486.00 L 437.46,487.70 L 442.57,503.89 L 442.43,517.04 L 438.42,515.27 L 436.85,516.08 L 433.81,520.86 L 433.84,523.99 L 437.36,527.82 L 440.88,528.42 L 442.51,528.39 L 442.78,524.26 L 449.49,524.53 L 445.64,538.54 L 437.82,546.11 L 429.94,559.97 L 411.67,578.47 L 402.28,584.36 L 396.20,584.63 L 394.46,587.33 L 390.16,586.77 L 387.09,588.60 L 371.73,587.10 L 365.97,590.40 L 356.49,591.23 L 352.66,594.18 L 343.71,590.32 L 343.11,587.76 L 341.22,588.00 L 340.93,590.17 L 340.71,584.45 L 336.33,576.44 L 339.90,573.55 L 339.04,566.78 L 325.77,539.57 L 328.09,538.15 L 328.99,535.38 L 330.35,534.55 L 332.63,536.59 L 333.30,540.26 L 346.83,542.00 L 349.04,539.20 L 352.36,538.14 L 352.36,507.20 L 355.75,510.27 L 358.47,516.69 L 357.66,524.30 L 365.26,524.46 L 372.06,518.50 L 375.52,511.65 L 388.24,515.86 L 393.47,515.00 L 397.00,506.96 L 403.95,502.77 L 405.83,497.31 L 414.30,490.07 L 422.99,486.00 Z M 486.90,715.75 L 484.89,715.35 L 486.90,715.75 Z M 418.26,552.38 L 420.98,550.79 L 423.18,545.17 L 417.42,539.26 L 410.72,542.33 L 405.62,548.25 L 408.11,554.25 L 410.86,556.73 L 413.14,557.00 L 415.67,552.78 L 418.26,552.38 Z"/>
<path class="zm" d="M 430.75,433.85 L 423.91,434.27 L 419.59,436.55 L 418.44,440.81 L 414.90,440.90 L 411.16,443.07 L 405.34,452.05 L 403.53,452.71 L 396.63,452.00 L 388.13,448.57 L 377.95,449.54 L 368.69,441.32 L 367.86,438.70 L 367.40,413.33 L 382.33,413.23 L 382.36,396.95 L 385.36,398.92 L 385.45,401.13 L 392.31,399.56 L 392.77,402.71 L 397.86,404.76 L 403.86,405.34 L 406.39,402.37 L 409.51,407.36 L 415.82,409.60 L 420.35,416.17 L 424.41,415.24 L 426.07,416.70 L 426.22,406.81 L 424.07,407.37 L 423.89,408.83 L 420.72,408.29 L 415.60,402.28 L 417.57,394.48 L 415.73,384.36 L 419.26,381.01 L 419.47,378.72 L 432.11,376.71 L 431.79,379.44 L 432.82,378.86 L 435.63,381.05 L 437.93,379.65 L 442.39,383.05 L 449.74,385.75 L 455.32,394.50 L 452.31,397.11 L 453.20,399.14 L 452.24,406.48 L 454.20,408.29 L 450.51,410.47 L 450.10,415.06 L 447.86,417.88 L 450.29,421.23 L 451.86,421.16 L 429.51,428.76 L 430.75,433.85 Z"/>
<path class="zw" d="M 437.46,487.70 L 422.99,486.00 L 420.56,484.58 L 420.43,482.78 L 412.82,480.82 L 410.23,476.86 L 410.45,472.56 L 407.30,472.14 L 406.53,469.11 L 398.93,464.61 L 392.08,450.75 L 405.77,452.04 L 413.59,443.40 L 419.72,442.04 L 418.44,440.81 L 419.59,436.55 L 425.73,433.86 L 430.75,433.85 L 431.06,436.61 L 437.07,436.83 L 449.95,442.23 L 450.29,455.23 L 448.09,459.85 L 450.29,468.18 L 446.52,473.60 L 446.05,478.74 L 437.46,487.70 Z"/>
</g>
</svg>