<svg viewBox="0 0 600.0 368.9" xmlns="http://www.w3.org/2000/svg" width="600.0" height="368.9">
<defs><style>.state{fill:#dde1e6}.state path{stroke:#fff;stroke-width:0.8}</style></defs>
<g class="state">
<path class="ae" d="M 97.02,147.21 L 96.23,150.72 L 94.32,151.39 L 94.42,150.21 L 93.33,150.30 L 92.03,153.38 L 92.73,154.65 L 90.14,154.40 L 86.07,160.42 L 74.84,154.29 L 72.79,146.54 L 73.37,145.56 L 74.01,147.86 L 77.70,148.39 L 83.20,151.00 L 85.88,150.88 L 96.79,144.80 L 97.02,147.21 Z M 81.00,149.10 L 80.43,148.69 L 81.67,148.49 L 81.00,149.10 Z M 83.55,150.56 L 82.20,150.08 L 83.55,150.56 Z M 86.50,150.18 L 85.96,149.81 L 86.50,150.18 Z"/>
<path class="af" d="M 158.55,101.57 L 163.18,103.33 L 164.35,105.09 L 168.23,103.89 L 169.59,105.35 L 170.83,103.28 L 173.69,103.72 L 174.16,101.99 L 177.39,99.80 L 178.76,100.86 L 178.46,102.88 L 179.69,103.16 L 178.31,107.07 L 178.84,109.47 L 186.61,106.80 L 187.96,107.26 L 187.53,108.14 L 190.54,107.68 L 192.62,109.00 L 190.42,109.05 L 191.00,109.86 L 188.76,110.54 L 181.29,109.72 L 176.48,112.08 L 177.17,117.22 L 173.76,120.04 L 173.64,122.58 L 168.65,121.80 L 169.48,125.81 L 165.93,126.51 L 164.16,129.28 L 163.78,131.86 L 161.65,133.02 L 158.76,131.47 L 155.87,132.40 L 156.38,133.39 L 155.00,133.66 L 152.31,132.86 L 149.63,134.70 L 147.66,139.45 L 137.86,139.32 L 130.71,137.23 L 124.23,132.82 L 130.03,128.78 L 130.09,126.23 L 126.66,124.57 L 127.86,120.80 L 127.98,116.39 L 130.16,114.62 L 128.67,113.42 L 129.28,111.11 L 131.30,110.50 L 130.93,109.30 L 132.90,108.06 L 134.81,104.46 L 137.49,106.22 L 138.42,107.98 L 140.11,108.01 L 141.89,107.48 L 142.76,105.55 L 146.59,105.70 L 149.08,104.59 L 151.38,100.92 L 154.52,101.09 L 155.78,99.69 L 158.55,101.57 Z"/>
<path class="am" d="M 79.20,59.42 L 78.27,56.97 L 76.25,55.43 L 76.75,53.59 L 77.87,52.76 L 77.80,50.44 L 83.75,52.36 L 84.08,53.37 L 83.49,53.50 L 84.80,55.48 L 83.57,56.10 L 84.63,59.32 L 82.77,59.57 L 85.08,63.15 L 83.65,66.24 L 82.20,65.71 L 82.44,61.83 L 79.20,59.42 Z"/>
<path class="az" d="M 79.26,59.75 L 80.30,59.60 L 80.36,60.77 L 82.52,61.97 L 82.20,65.71 L 80.17,63.97 L 79.26,59.75 Z M 91.45,72.56 L 90.37,72.21 L 89.10,69.09 L 90.56,68.80 L 90.35,67.43 L 91.50,67.04 L 90.91,65.13 L 83.65,66.24 L 85.08,63.15 L 82.77,59.57 L 83.99,59.89 L 84.75,59.04 L 83.60,56.74 L 83.66,55.94 L 84.80,55.48 L 83.49,53.50 L 84.08,53.37 L 83.75,52.36 L 85.11,52.10 L 88.74,55.97 L 89.68,55.27 L 88.78,52.68 L 90.19,51.99 L 91.98,56.37 L 93.49,57.56 L 97.91,56.17 L 98.66,62.19 L 100.90,66.14 L 97.72,65.25 L 95.24,69.00 L 92.26,70.61 L 91.45,72.56 Z"/>
<path class="bd" d="M 250.63,193.77 L 250.08,187.89 L 249.08,187.52 L 248.34,185.26 L 249.15,182.06 L 245.78,180.12 L 247.92,177.17 L 250.32,176.83 L 246.21,173.42 L 247.86,169.82 L 249.78,171.54 L 250.70,170.71 L 252.35,172.87 L 253.79,171.78 L 254.56,176.67 L 265.24,177.23 L 267.37,178.60 L 266.13,178.74 L 264.51,182.44 L 262.03,183.02 L 261.05,185.35 L 261.85,188.32 L 262.44,187.80 L 263.36,188.97 L 264.82,185.16 L 266.37,185.14 L 268.60,197.86 L 266.46,197.63 L 267.12,200.68 L 265.72,198.64 L 264.63,192.32 L 262.68,189.49 L 260.05,191.06 L 258.60,188.78 L 258.32,185.75 L 258.09,186.66 L 256.68,186.48 L 258.27,187.49 L 257.52,190.25 L 258.43,192.34 L 256.52,195.21 L 255.72,194.90 L 256.41,193.45 L 254.95,193.67 L 255.29,191.79 L 253.20,195.55 L 252.79,192.81 L 252.13,195.79 L 250.63,193.77 Z M 261.10,193.32 L 260.72,191.47 L 261.10,193.32 Z M 263.10,192.18 L 262.58,190.93 L 263.10,192.18 Z M 259.24,193.80 L 257.93,193.94 L 258.75,192.52 L 258.31,189.65 L 259.67,191.67 L 259.24,193.80 Z M 265.15,196.85 L 264.66,195.78 L 265.15,196.85 Z"/>
<path class="bh" d="M 72.12,136.11 L 72.24,134.17 L 72.12,136.11 Z"/>
<path class="bn" d="M 404.05,271.68 L 405.77,274.63 L 404.03,273.65 L 404.05,271.68 Z M 403.40,271.85 L 402.05,273.33 L 403.09,275.08 L 402.54,277.44 L 398.27,275.07 L 403.03,271.18 L 403.40,271.85 Z"/>
<path class="bt" d="M 263.00,163.53 L 262.84,164.60 L 265.16,165.97 L 264.81,168.28 L 257.00,168.19 L 254.24,169.19 L 250.83,168.30 L 249.42,166.64 L 252.94,162.00 L 255.27,160.68 L 256.98,161.03 L 257.01,161.89 L 261.30,161.87 L 263.03,162.66 L 263.00,163.53 Z"/>
<path class="cn" d="M 395.50,120.89 L 392.22,120.26 L 395.50,120.89 Z M 399.95,127.87 L 398.23,127.45 L 399.95,127.87 Z M 399.90,129.47 L 399.26,129.16 L 399.90,129.47 Z M 396.38,154.13 L 395.64,153.35 L 396.38,154.13 Z M 357.41,188.51 L 358.13,189.05 L 356.99,189.11 L 357.41,188.51 Z M 398.54,138.79 L 397.94,138.71 L 398.54,138.79 Z M 370.79,176.00 L 369.94,175.67 L 370.79,176.00 Z M 368.60,183.18 L 368.35,182.30 L 368.60,183.18 Z M 345.07,188.68 L 338.17,187.34 L 337.14,184.66 L 338.01,183.00 L 333.31,183.01 L 330.19,181.22 L 327.75,184.43 L 325.10,184.94 L 324.31,186.47 L 322.55,185.41 L 322.07,186.52 L 321.00,185.72 L 319.66,187.61 L 316.94,186.33 L 315.50,188.52 L 313.36,188.20 L 312.60,189.55 L 313.92,191.71 L 314.32,195.31 L 311.89,195.37 L 310.71,192.47 L 308.51,194.26 L 306.22,194.46 L 304.77,191.64 L 301.01,191.33 L 302.25,186.86 L 298.97,185.92 L 297.72,182.20 L 298.38,180.98 L 292.30,182.62 L 292.86,180.87 L 291.83,178.79 L 292.97,175.39 L 296.69,171.81 L 295.87,162.79 L 294.23,163.05 L 293.04,160.01 L 290.85,158.29 L 289.40,159.89 L 284.51,159.21 L 285.77,157.27 L 285.00,155.80 L 283.67,156.56 L 284.56,154.78 L 283.03,153.83 L 280.19,156.16 L 276.59,154.89 L 272.75,158.13 L 270.42,158.75 L 267.80,162.42 L 264.62,163.65 L 263.00,163.53 L 263.03,162.66 L 261.30,161.87 L 260.13,162.45 L 254.89,160.77 L 252.94,162.00 L 250.15,165.91 L 249.78,162.25 L 248.94,161.79 L 244.25,163.16 L 239.59,161.50 L 238.60,162.39 L 237.37,161.36 L 236.66,162.41 L 235.27,160.41 L 232.70,160.09 L 232.94,158.64 L 231.26,158.72 L 228.74,156.72 L 228.25,155.07 L 225.86,155.11 L 219.28,148.59 L 216.45,148.29 L 214.92,149.74 L 211.03,146.56 L 210.96,145.38 L 207.70,143.59 L 206.64,141.69 L 205.03,142.03 L 205.32,138.60 L 204.14,135.50 L 205.56,135.25 L 206.37,136.61 L 207.78,136.01 L 207.80,132.48 L 206.54,130.61 L 206.52,127.89 L 207.74,126.51 L 205.01,124.34 L 204.51,119.92 L 200.53,119.03 L 198.50,116.99 L 196.87,117.16 L 195.94,115.77 L 196.09,112.61 L 190.42,109.16 L 193.68,108.35 L 192.93,107.09 L 193.34,102.90 L 191.29,101.22 L 189.32,101.17 L 189.37,96.71 L 190.58,96.22 L 191.31,93.87 L 194.87,92.92 L 195.02,92.13 L 197.97,91.82 L 198.21,93.55 L 200.78,93.68 L 203.59,90.50 L 208.41,90.84 L 211.14,88.60 L 217.23,86.70 L 217.29,83.41 L 218.84,82.46 L 218.35,81.52 L 219.93,81.04 L 218.77,75.96 L 219.56,72.75 L 217.37,71.63 L 224.39,69.81 L 227.38,71.25 L 227.84,69.69 L 226.81,68.70 L 230.06,60.44 L 236.33,62.73 L 238.94,61.62 L 239.61,60.63 L 239.29,57.07 L 239.98,54.97 L 243.08,53.93 L 243.89,51.38 L 244.95,50.86 L 247.66,50.65 L 247.37,52.16 L 248.48,53.12 L 248.18,53.93 L 251.95,56.96 L 253.49,56.83 L 256.49,58.72 L 259.13,64.63 L 259.06,67.46 L 257.83,70.19 L 258.64,71.93 L 268.56,73.04 L 273.20,75.99 L 275.63,76.25 L 275.61,77.52 L 280.09,84.23 L 299.91,83.38 L 302.71,85.06 L 309.03,86.38 L 311.99,85.28 L 312.16,86.41 L 314.09,86.46 L 320.41,81.72 L 330.48,78.94 L 333.78,76.55 L 335.44,73.13 L 338.47,70.45 L 335.74,67.50 L 336.75,63.49 L 343.31,63.67 L 346.02,59.47 L 349.97,58.05 L 351.43,56.11 L 351.95,52.92 L 354.57,51.78 L 354.61,50.53 L 359.28,48.18 L 363.00,47.52 L 361.69,45.26 L 356.19,42.27 L 353.67,43.00 L 352.73,45.14 L 350.37,44.60 L 347.64,46.37 L 345.72,44.42 L 346.46,43.57 L 346.12,41.83 L 347.27,34.55 L 351.73,35.01 L 355.50,30.76 L 355.45,29.57 L 354.64,29.10 L 355.65,21.98 L 357.02,18.69 L 355.92,16.34 L 353.95,16.59 L 353.77,15.76 L 355.74,12.25 L 362.48,8.37 L 370.69,8.36 L 374.19,11.02 L 378.54,16.71 L 380.55,18.20 L 381.37,19.96 L 382.47,20.35 L 383.17,22.44 L 385.09,23.01 L 390.32,21.88 L 393.64,23.37 L 394.86,23.01 L 398.70,28.07 L 403.65,25.79 L 404.63,23.26 L 408.02,19.80 L 409.50,19.79 L 409.72,21.06 L 411.05,22.24 L 410.12,25.16 L 411.57,30.71 L 411.03,35.41 L 411.61,37.27 L 411.24,38.04 L 409.43,37.32 L 406.90,38.31 L 404.98,41.99 L 407.59,45.30 L 409.10,48.64 L 409.46,51.23 L 407.56,53.08 L 408.33,53.85 L 405.12,52.59 L 405.56,55.56 L 404.25,56.31 L 403.62,58.73 L 400.55,60.29 L 402.20,61.78 L 402.13,63.06 L 396.27,63.55 L 395.12,68.58 L 391.85,72.32 L 390.49,75.82 L 385.64,79.36 L 380.65,85.87 L 380.12,85.00 L 382.02,83.33 L 382.09,81.76 L 380.01,82.47 L 379.71,81.69 L 381.91,75.65 L 379.49,73.84 L 377.12,75.04 L 375.58,79.25 L 372.16,82.96 L 371.44,86.31 L 366.86,87.94 L 366.61,90.43 L 367.40,91.66 L 369.17,92.46 L 373.04,92.07 L 374.15,93.60 L 374.17,95.62 L 375.80,96.18 L 377.66,95.50 L 378.80,92.26 L 380.50,90.87 L 384.62,91.57 L 388.75,90.47 L 388.44,93.74 L 386.61,93.66 L 382.69,96.77 L 383.33,97.60 L 382.64,97.99 L 382.81,99.50 L 380.86,99.72 L 381.62,100.68 L 379.22,105.19 L 378.84,107.78 L 384.27,109.23 L 388.81,114.69 L 389.31,116.49 L 394.69,118.91 L 394.74,120.00 L 388.81,119.71 L 387.03,121.22 L 389.83,120.06 L 396.11,123.08 L 396.54,123.73 L 393.20,127.75 L 390.41,129.49 L 391.60,128.76 L 392.48,129.42 L 394.90,127.68 L 399.18,128.65 L 397.33,131.42 L 398.75,130.14 L 399.33,130.71 L 399.71,132.56 L 398.64,132.25 L 397.67,133.27 L 398.98,133.82 L 398.61,135.68 L 399.78,137.23 L 397.68,137.73 L 396.44,139.90 L 396.79,143.11 L 395.51,147.85 L 394.82,148.20 L 394.18,147.09 L 393.22,147.73 L 395.26,149.60 L 393.80,151.61 L 392.22,151.72 L 393.37,152.33 L 394.59,151.64 L 395.58,154.75 L 393.46,155.08 L 394.28,156.04 L 392.90,156.59 L 393.02,158.11 L 391.90,158.97 L 392.33,160.03 L 388.76,161.91 L 390.10,162.79 L 387.85,167.10 L 385.61,167.42 L 384.54,171.62 L 380.22,174.06 L 378.64,173.93 L 377.27,175.40 L 376.12,174.93 L 375.95,176.23 L 373.38,176.98 L 370.24,174.49 L 369.58,175.70 L 371.50,179.03 L 369.76,180.29 L 369.30,179.66 L 369.02,181.39 L 367.39,182.50 L 366.04,181.70 L 366.07,183.01 L 364.17,182.84 L 362.85,184.75 L 360.04,185.63 L 358.17,187.68 L 357.26,187.19 L 356.43,189.54 L 358.68,191.42 L 358.10,192.78 L 355.72,192.90 L 354.03,190.19 L 354.74,186.93 L 352.72,186.19 L 350.95,188.00 L 347.17,186.11 L 347.55,187.52 L 345.07,188.68 Z M 361.15,193.81 L 362.17,195.46 L 358.77,202.92 L 356.23,204.72 L 351.73,203.85 L 350.75,199.76 L 353.15,196.08 L 359.67,194.22 L 359.81,193.29 L 361.15,193.81 Z"/>
<path class="cy" d="M 23.97,54.85 L 28.24,58.79 L 23.07,57.99 L 21.74,56.15 L 21.93,54.86 L 22.25,54.26 L 23.97,54.85 Z"/>
<path class="ge" d="M 77.80,50.44 L 76.54,46.99 L 75.20,47.11 L 72.07,44.97 L 74.07,43.34 L 74.86,39.64 L 71.69,33.31 L 74.23,34.03 L 76.57,37.21 L 80.46,39.58 L 82.94,43.37 L 82.67,44.27 L 85.44,44.63 L 86.05,45.71 L 86.73,45.22 L 89.03,47.88 L 88.12,49.15 L 90.19,51.99 L 88.78,52.68 L 89.68,55.27 L 88.74,55.97 L 85.11,52.10 L 83.00,52.46 L 77.80,50.44 Z"/>
<path class="hk" d="M 373.38,176.98 L 375.07,177.19 L 373.20,177.84 L 373.38,176.98 Z M 374.82,178.28 L 374.24,177.98 L 374.82,178.28 Z M 373.69,178.57 L 372.88,178.60 L 373.75,177.87 L 373.69,178.57 Z"/>
<path class="id" d="M 301.66,310.07 L 304.69,312.89 L 304.20,315.49 L 299.19,310.50 L 301.66,310.07 Z M 313.96,329.52 L 311.72,328.65 L 310.05,326.16 L 310.39,324.67 L 312.00,324.42 L 314.52,328.50 L 313.96,329.52 Z M 436.11,353.05 L 436.26,354.98 L 431.24,355.65 L 432.62,354.96 L 431.95,352.93 L 433.77,350.76 L 436.11,351.05 L 436.11,353.05 Z M 427.39,352.14 L 429.53,353.37 L 426.61,357.32 L 425.53,355.62 L 420.92,353.90 L 427.39,352.14 Z M 357.53,323.17 L 360.41,327.87 L 363.40,328.07 L 362.99,331.42 L 358.45,330.56 L 356.42,326.68 L 352.14,326.46 L 353.74,323.17 L 355.42,323.92 L 356.51,322.27 L 357.53,323.17 Z M 469.78,313.58 L 469.77,317.71 L 471.55,318.45 L 468.88,321.73 L 467.89,314.71 L 468.76,312.78 L 469.78,313.58 Z M 468.01,319.24 L 465.85,320.34 L 465.20,316.68 L 466.95,315.04 L 468.01,319.24 Z M 365.62,287.84 L 364.32,288.00 L 365.05,287.21 L 363.43,286.45 L 364.62,284.78 L 365.62,287.84 Z M 372.73,329.17 L 372.04,330.82 L 370.61,330.16 L 369.20,331.23 L 368.78,327.07 L 372.42,327.25 L 372.73,329.17 Z M 532.43,259.61 L 535.53,258.58 L 539.32,259.27 L 536.95,261.08 L 534.98,259.55 L 532.43,259.61 Z M 535.63,264.70 L 544.32,261.76 L 540.81,264.24 L 535.63,264.70 Z M 504.62,268.22 L 507.65,267.87 L 508.10,269.16 L 504.07,268.99 L 506.15,270.38 L 501.82,270.86 L 504.62,268.22 Z M 486.08,262.25 L 485.22,262.72 L 484.16,261.41 L 485.63,258.80 L 486.08,262.25 Z M 493.23,284.51 L 489.89,286.34 L 488.57,285.91 L 489.45,283.79 L 493.23,284.51 Z M 482.60,294.22 L 480.70,291.66 L 482.60,294.22 Z M 480.88,290.32 L 482.80,289.81 L 480.77,291.24 L 477.19,292.10 L 480.88,290.32 Z M 474.38,292.21 L 476.83,292.47 L 471.73,295.24 L 470.88,294.56 L 470.97,293.16 L 474.38,292.21 Z M 529.12,314.85 L 527.80,315.42 L 527.07,313.40 L 528.59,308.42 L 529.92,311.67 L 529.12,314.85 Z M 499.83,324.74 L 498.46,327.37 L 494.26,329.25 L 494.59,326.75 L 499.83,324.74 Z M 486.82,333.20 L 490.83,333.07 L 486.70,335.48 L 485.92,334.35 L 486.82,333.20 Z M 509.08,275.32 L 507.65,275.54 L 506.25,274.10 L 508.23,272.93 L 509.08,275.32 Z M 294.03,287.64 L 300.31,287.33 L 304.88,291.73 L 305.39,293.63 L 314.50,298.34 L 319.95,303.89 L 322.34,305.12 L 321.77,303.36 L 323.09,303.12 L 326.13,306.27 L 329.65,307.41 L 332.39,310.83 L 336.00,311.47 L 336.57,312.97 L 333.89,314.58 L 338.54,312.08 L 340.80,313.19 L 341.72,314.59 L 339.70,316.39 L 340.09,318.78 L 342.14,320.49 L 346.30,320.86 L 348.01,325.64 L 350.36,327.06 L 349.61,330.45 L 351.43,328.71 L 354.15,328.34 L 359.04,332.31 L 358.29,335.79 L 360.02,350.30 L 357.11,348.94 L 355.54,350.52 L 352.41,349.47 L 352.54,352.06 L 330.39,336.79 L 325.28,331.39 L 320.61,322.76 L 316.04,317.70 L 312.66,316.09 L 308.32,307.04 L 302.58,304.47 L 301.68,301.54 L 297.57,297.39 L 294.31,296.15 L 287.84,290.20 L 286.36,287.77 L 286.70,285.90 L 294.03,287.64 Z M 476.36,340.41 L 465.69,346.40 L 458.14,348.27 L 457.14,347.41 L 457.00,345.44 L 461.42,342.72 L 467.58,343.16 L 470.71,341.21 L 473.41,341.55 L 476.10,338.25 L 475.58,336.88 L 477.16,338.06 L 476.36,340.41 Z M 459.91,351.50 L 466.73,354.74 L 464.71,356.78 L 458.03,355.03 L 454.10,355.48 L 453.24,354.64 L 454.47,353.27 L 459.91,351.50 Z M 446.10,348.04 L 450.54,346.55 L 452.42,349.12 L 448.38,351.25 L 447.70,350.14 L 442.60,354.06 L 437.83,355.41 L 437.24,352.15 L 439.11,350.43 L 445.11,351.30 L 446.59,349.87 L 442.57,347.86 L 444.89,346.98 L 446.10,348.04 Z M 467.94,276.42 L 466.38,280.49 L 462.77,282.91 L 457.90,283.38 L 443.50,288.01 L 441.69,290.30 L 442.49,295.49 L 447.73,299.24 L 450.58,298.10 L 452.14,294.16 L 454.72,294.00 L 461.16,289.33 L 463.17,290.02 L 463.31,291.49 L 460.25,291.87 L 457.69,297.17 L 452.92,300.96 L 460.76,305.32 L 462.04,306.90 L 462.03,309.79 L 466.66,311.27 L 467.52,313.25 L 463.12,315.81 L 463.27,317.80 L 460.30,318.29 L 459.09,314.06 L 453.40,311.99 L 452.83,306.92 L 450.22,307.20 L 448.36,309.71 L 450.95,314.07 L 452.87,323.43 L 454.73,325.95 L 449.23,327.83 L 447.39,326.32 L 446.53,317.72 L 444.54,314.76 L 440.59,315.20 L 438.78,311.14 L 440.24,309.09 L 440.61,305.25 L 439.81,298.67 L 440.61,296.91 L 441.76,297.76 L 439.55,293.33 L 440.82,285.97 L 443.02,286.03 L 444.94,282.30 L 456.24,281.63 L 462.65,279.33 L 466.99,272.10 L 468.84,272.72 L 467.94,276.42 Z M 370.93,349.72 L 377.57,350.40 L 380.51,353.32 L 392.28,352.02 L 394.23,347.97 L 396.89,349.21 L 406.17,348.77 L 408.84,352.53 L 410.46,352.89 L 417.40,351.01 L 419.90,351.51 L 420.80,355.64 L 422.73,357.76 L 413.06,356.72 L 401.47,359.55 L 385.73,358.65 L 378.74,360.55 L 366.43,359.88 L 366.50,357.69 L 357.84,356.87 L 359.30,357.00 L 362.27,350.58 L 367.43,350.96 L 368.66,349.42 L 370.93,349.72 Z M 375.44,296.27 L 376.10,298.74 L 382.23,302.23 L 389.96,299.58 L 393.23,295.34 L 396.03,294.63 L 400.61,295.63 L 402.00,294.02 L 405.64,292.98 L 406.73,289.33 L 406.04,287.79 L 407.95,285.56 L 407.01,283.45 L 408.78,282.10 L 408.27,274.96 L 409.09,273.77 L 416.29,271.84 L 419.31,272.02 L 418.84,272.75 L 421.30,274.47 L 417.21,276.07 L 425.35,282.01 L 424.22,284.21 L 433.17,288.29 L 430.79,290.11 L 426.56,289.51 L 427.24,290.67 L 425.73,295.36 L 427.74,301.39 L 424.57,305.29 L 423.20,304.49 L 423.77,306.20 L 421.61,309.84 L 422.93,310.39 L 422.45,311.97 L 424.28,312.53 L 424.43,313.90 L 423.18,314.53 L 423.86,316.69 L 422.89,317.17 L 423.79,318.22 L 422.71,321.68 L 415.69,327.44 L 413.33,322.68 L 412.30,323.40 L 411.96,322.08 L 408.28,324.48 L 407.27,322.99 L 405.66,323.72 L 403.24,322.22 L 402.08,325.09 L 396.71,327.88 L 394.72,323.91 L 390.14,326.13 L 389.72,325.14 L 385.72,326.38 L 381.78,316.09 L 376.68,314.10 L 377.17,312.90 L 375.31,311.68 L 375.63,308.91 L 373.31,307.29 L 372.74,300.16 L 375.44,296.27 Z M 484.78,270.85 L 485.67,270.59 L 486.30,266.52 L 488.55,264.43 L 489.75,267.06 L 488.10,270.26 L 493.03,271.71 L 487.12,272.43 L 486.97,273.67 L 488.80,276.63 L 492.97,279.32 L 487.11,277.28 L 484.06,271.14 L 482.34,269.87 L 481.88,265.36 L 483.36,262.39 L 483.36,264.83 L 485.25,267.41 L 483.93,270.08 L 484.78,270.85 Z M 505.74,287.66 L 511.28,287.13 L 514.16,288.99 L 514.60,290.85 L 507.46,290.19 L 505.54,291.91 L 501.35,292.13 L 499.82,294.29 L 496.78,293.49 L 496.23,296.10 L 495.41,294.50 L 496.46,291.57 L 505.74,287.66 Z M 488.96,296.16 L 492.20,297.55 L 491.07,300.07 L 488.69,301.06 L 484.88,300.08 L 484.33,298.09 L 488.96,296.16 Z M 490.99,337.58 L 492.70,337.69 L 491.90,339.27 L 493.03,342.24 L 490.72,346.73 L 485.96,349.68 L 484.73,344.89 L 490.99,337.58 Z M 543.37,290.92 L 544.92,294.57 L 543.39,295.61 L 540.86,294.80 L 541.32,292.87 L 540.12,292.51 L 541.49,289.76 L 543.37,290.92 Z M 544.29,295.98 L 544.20,299.09 L 542.75,299.68 L 541.00,295.70 L 544.29,295.98 Z M 574.12,294.69 L 569.15,298.24 L 569.09,291.87 L 572.63,288.59 L 574.94,289.71 L 574.12,294.69 Z M 569.84,253.74 L 591.64,291.64 L 582.65,289.37 L 582.41,287.35 L 578.94,291.38 L 577.44,290.58 L 576.14,293.31 L 575.17,288.73 L 572.04,287.82 L 574.39,286.06 L 570.14,286.41 L 571.45,285.10 L 567.27,283.40 L 565.29,280.64 L 564.15,280.98 L 564.55,279.76 L 563.18,280.76 L 562.25,279.40 L 556.05,278.77 L 542.32,282.12 L 538.20,281.43 L 539.00,280.00 L 533.29,281.91 L 530.59,280.75 L 530.35,277.80 L 529.46,280.80 L 530.14,284.01 L 527.70,286.31 L 524.62,282.24 L 518.65,281.38 L 523.08,279.34 L 524.84,276.00 L 528.32,275.68 L 528.15,272.03 L 519.15,277.27 L 516.81,276.56 L 515.12,274.30 L 509.33,275.97 L 509.37,271.99 L 514.60,266.12 L 524.69,264.07 L 528.03,266.82 L 528.15,269.31 L 530.31,272.46 L 533.33,274.75 L 533.46,272.56 L 536.90,275.73 L 539.48,275.60 L 541.92,271.66 L 542.85,265.94 L 546.24,262.96 L 545.75,261.31 L 548.55,257.24 L 562.37,256.03 L 569.84,253.74 Z M 576.67,294.21 L 574.41,294.81 L 575.36,293.23 L 576.67,294.21 Z M 327.26,303.74 L 327.54,305.50 L 326.24,306.01 L 325.48,304.30 L 327.26,303.74 Z M 332.51,309.88 L 331.14,307.51 L 332.51,309.88 Z M 332.54,306.94 L 329.55,306.39 L 332.54,306.94 Z M 336.42,310.90 L 333.00,310.66 L 332.92,309.21 L 336.42,310.90 Z M 337.17,310.02 L 334.21,308.60 L 337.17,310.02 Z M 338.18,311.95 L 337.44,311.06 L 338.18,311.95 Z M 339.10,311.05 L 338.53,309.84 L 339.10,311.05 Z M 342.19,307.37 L 342.62,308.51 L 342.19,307.37 Z M 345.60,306.64 L 345.90,309.01 L 344.86,307.79 L 343.74,308.18 L 345.60,306.64 Z M 348.10,315.07 L 349.09,315.86 L 346.05,315.46 L 346.45,314.09 L 348.10,315.07 Z M 346.35,316.34 L 347.20,317.06 L 345.96,318.47 L 345.12,317.35 L 346.35,316.34 Z M 341.76,317.10 L 340.05,317.40 L 340.48,316.51 L 341.76,317.10 Z M 379.96,315.85 L 378.54,316.77 L 378.25,314.93 L 379.98,314.93 L 379.96,315.85 Z M 415.03,347.88 L 410.51,349.82 L 407.63,349.45 L 408.29,348.08 L 415.50,346.14 L 416.41,346.73 L 415.03,347.88 Z M 531.37,263.43 L 530.20,263.04 L 531.37,263.43 Z M 485.12,279.80 L 484.42,280.26 L 483.89,278.82 L 484.86,278.47 L 485.12,279.80 Z M 486.57,278.02 L 487.48,279.64 L 489.57,280.15 L 489.05,280.87 L 487.11,281.12 L 485.43,279.71 L 485.19,278.69 L 486.57,278.02 Z M 532.98,297.37 L 532.60,293.23 L 532.98,297.37 Z M 532.12,297.39 L 531.53,298.12 L 530.36,296.41 L 532.12,297.39 Z M 498.93,296.25 L 496.87,297.27 L 498.46,295.30 L 498.93,296.25 Z M 472.29,254.79 L 470.82,252.03 L 472.30,253.11 L 472.29,254.79 Z M 467.06,260.70 L 465.35,259.42 L 467.06,260.70 Z M 527.13,318.15 L 528.56,316.09 L 527.13,318.15 Z M 519.71,318.65 L 519.16,319.54 L 517.86,318.32 L 519.71,318.65 Z M 507.41,324.89 L 509.47,324.59 L 507.41,324.89 Z M 506.26,279.18 L 507.37,280.66 L 506.56,281.55 L 503.10,281.79 L 506.26,279.18 Z M 337.40,351.28 L 335.58,350.46 L 337.40,351.28 Z M 322.96,337.73 L 321.22,335.32 L 322.96,337.73 Z M 321.23,335.03 L 320.07,335.66 L 319.70,333.79 L 321.23,335.03 Z M 318.65,332.71 L 317.08,332.31 L 316.71,330.85 L 318.65,332.71 Z M 308.78,322.02 L 307.83,322.11 L 307.63,318.76 L 309.16,320.25 L 308.78,322.02 Z M 295.01,305.01 L 290.27,302.44 L 291.33,301.99 L 295.01,305.01 Z M 464.60,321.61 L 462.73,320.96 L 463.00,319.57 L 464.60,321.61 Z M 462.68,292.84 L 463.29,294.10 L 464.15,292.76 L 465.06,293.86 L 463.38,295.60 L 462.59,293.77 L 461.62,296.02 L 460.87,293.55 L 462.68,292.84 Z M 453.02,291.05 L 452.01,292.19 L 453.02,291.05 Z M 456.81,330.27 L 455.41,327.02 L 456.81,330.27 Z M 424.84,344.42 L 423.76,343.93 L 425.68,343.71 L 424.84,344.42 Z M 425.37,322.81 L 424.37,324.35 L 423.28,322.24 L 424.09,318.98 L 425.37,322.81 Z M 482.80,355.33 L 481.76,354.58 L 484.56,351.42 L 485.29,352.50 L 482.80,355.33 Z M 485.41,335.10 L 484.99,336.75 L 483.39,336.72 L 484.81,334.39 L 485.41,335.10 Z M 482.95,335.58 L 481.24,338.36 L 479.07,338.87 L 479.53,336.86 L 482.95,335.58 Z M 479.23,337.52 L 477.43,338.45 L 478.30,336.97 L 479.23,337.52 Z M 343.82,309.31 L 342.93,308.81 L 343.82,309.31 Z M 347.32,313.69 L 345.98,312.80 L 347.32,313.69 Z M 351.19,295.50 L 350.58,294.36 L 351.19,295.50 Z M 375.77,319.55 L 374.77,319.41 L 375.77,319.55 Z M 364.32,330.75 L 363.32,330.45 L 364.32,330.75 Z M 405.62,341.16 L 404.75,341.32 L 405.62,341.16 Z M 357.61,356.30 L 356.71,356.26 L 357.61,356.30 Z M 300.47,306.38 L 299.02,305.61 L 300.47,306.38 Z M 287.11,284.57 L 286.23,284.16 L 287.11,284.57 Z M 466.13,295.22 L 465.28,294.16 L 466.13,295.22 Z M 469.20,310.71 L 468.42,311.79 L 467.33,310.80 L 469.20,310.71 Z M 454.97,348.41 L 454.22,346.38 L 454.97,348.41 Z M 429.56,355.97 L 428.60,355.83 L 429.56,355.97 Z M 419.74,271.90 L 421.52,272.10 L 419.74,271.90 Z M 421.30,277.06 L 420.40,276.36 L 421.30,277.06 Z M 478.42,320.55 L 477.73,320.13 L 478.42,320.55 Z M 460.10,335.05 L 458.99,334.69 L 460.10,335.05 Z M 441.69,349.69 L 440.90,348.59 L 441.98,348.03 L 441.69,349.69 Z M 425.42,320.05 L 425.50,321.20 L 425.42,320.05 Z M 532.13,285.59 L 530.27,285.49 L 532.13,285.59 Z M 507.13,272.44 L 504.59,274.58 L 507.13,272.44 Z M 504.88,271.72 L 503.84,271.89 L 504.88,271.72 Z M 497.78,272.45 L 495.82,271.70 L 497.78,272.45 Z M 485.16,276.46 L 484.69,275.65 L 485.16,276.46 Z M 486.09,281.36 L 485.18,280.63 L 486.09,281.36 Z M 501.30,294.36 L 500.39,294.50 L 501.30,294.36 Z M 500.43,295.00 L 499.54,295.74 L 500.43,295.00 Z M 472.09,255.90 L 471.26,255.13 L 472.09,255.90 Z M 467.34,265.72 L 466.91,264.88 L 467.34,265.72 Z M 530.93,308.02 L 529.26,308.14 L 530.93,308.02 Z M 510.34,316.89 L 509.33,316.95 L 510.34,316.89 Z M 503.63,322.89 L 503.04,322.32 L 503.63,322.89 Z M 484.44,350.16 L 484.34,348.97 L 484.44,350.16 Z M 474.97,355.61 L 473.71,355.78 L 475.41,354.39 L 474.97,355.61 Z M 545.96,295.10 L 546.03,294.23 L 545.96,295.10 Z M 546.03,297.44 L 546.03,296.49 L 546.03,297.44 Z M 495.37,292.52 L 494.61,293.30 L 495.37,292.52 Z M 494.00,295.73 L 493.22,295.86 L 494.00,295.73 Z M 477.47,339.54 L 478.45,338.68 L 477.47,339.54 Z"/>
<path class="il" d="M 30.40,69.89 L 29.28,72.10 L 26.50,73.77 L 25.54,72.31 L 23.61,73.41 L 22.68,74.92 L 23.39,75.82 L 21.10,76.75 L 23.58,77.61 L 15.88,85.21 L 18.25,75.92 L 20.20,75.20 L 26.76,69.67 L 27.86,70.41 L 30.40,69.89 Z"/>
<path class="in" d="M 149.47,172.46 L 152.26,172.50 L 152.93,170.74 L 157.64,172.56 L 163.80,172.53 L 163.24,165.54 L 160.93,163.75 L 161.79,160.69 L 159.07,158.85 L 159.63,156.91 L 164.58,153.06 L 166.06,155.06 L 171.23,154.70 L 174.14,151.00 L 176.95,150.02 L 179.93,145.70 L 181.99,145.20 L 182.69,143.49 L 186.47,140.91 L 186.77,136.79 L 190.47,135.26 L 187.90,133.38 L 188.02,132.00 L 186.68,131.73 L 185.51,129.30 L 186.42,127.77 L 185.85,126.53 L 187.22,125.57 L 185.84,124.65 L 185.64,123.01 L 186.58,121.71 L 188.12,121.36 L 193.91,123.65 L 197.86,122.98 L 203.49,119.71 L 204.51,119.92 L 205.17,124.61 L 207.74,126.51 L 206.52,127.89 L 206.54,130.61 L 207.80,132.48 L 207.78,136.01 L 206.37,136.61 L 205.56,135.25 L 204.14,135.50 L 205.32,138.60 L 204.98,141.91 L 206.64,141.69 L 208.13,144.01 L 210.96,145.38 L 211.03,146.56 L 214.53,149.03 L 211.55,151.04 L 209.56,155.61 L 221.30,163.60 L 223.85,164.57 L 227.65,164.17 L 232.84,168.39 L 234.42,167.98 L 235.43,169.28 L 245.83,170.79 L 246.66,168.99 L 245.86,166.80 L 246.69,162.51 L 249.78,162.25 L 250.15,165.91 L 249.42,166.64 L 251.33,168.57 L 254.24,169.19 L 257.00,168.19 L 264.81,168.28 L 265.16,165.97 L 262.84,164.60 L 263.00,163.53 L 267.26,162.80 L 270.42,158.75 L 272.75,158.13 L 276.59,154.89 L 280.19,156.16 L 283.03,153.83 L 284.56,154.78 L 283.67,156.56 L 285.00,155.80 L 285.77,157.27 L 284.51,159.21 L 289.40,159.89 L 289.57,161.37 L 287.57,163.37 L 288.80,165.78 L 286.98,164.77 L 284.47,165.31 L 279.67,169.11 L 279.84,172.05 L 277.39,176.02 L 278.07,177.43 L 275.54,183.80 L 271.59,182.95 L 271.95,187.93 L 270.98,188.50 L 271.05,192.80 L 269.89,194.14 L 268.92,193.40 L 268.22,194.25 L 266.37,185.14 L 264.82,185.16 L 263.36,188.97 L 262.44,187.80 L 261.85,188.32 L 261.08,185.78 L 262.03,183.02 L 264.51,182.44 L 266.13,178.74 L 267.29,178.38 L 265.24,177.23 L 254.56,176.67 L 253.79,171.78 L 252.35,172.87 L 250.70,170.71 L 249.78,171.54 L 247.63,169.86 L 247.95,170.89 L 246.21,173.42 L 250.32,176.83 L 247.92,177.17 L 245.78,180.12 L 249.15,182.06 L 248.34,185.26 L 249.08,187.52 L 250.08,187.89 L 250.61,196.14 L 249.64,195.64 L 249.07,196.50 L 248.59,193.59 L 248.27,196.08 L 245.95,196.17 L 246.37,193.46 L 245.13,192.18 L 246.19,193.56 L 245.10,195.13 L 239.55,198.16 L 240.05,201.08 L 238.84,203.14 L 236.04,205.30 L 231.06,205.84 L 230.67,206.70 L 232.02,206.60 L 224.73,213.50 L 215.17,219.42 L 214.41,222.33 L 209.17,223.12 L 207.25,226.17 L 205.55,225.24 L 203.58,226.08 L 201.94,229.47 L 202.42,238.46 L 201.73,237.10 L 201.16,237.65 L 202.54,239.17 L 197.78,250.36 L 198.58,251.11 L 198.00,256.08 L 195.02,256.14 L 192.46,259.87 L 192.76,261.25 L 194.90,262.31 L 189.21,262.17 L 186.65,266.09 L 183.31,267.47 L 178.44,261.97 L 178.09,255.97 L 175.79,247.30 L 172.53,239.89 L 171.18,228.69 L 167.46,216.99 L 167.14,204.76 L 168.16,202.84 L 167.18,202.35 L 167.44,201.18 L 168.31,201.45 L 167.38,200.81 L 167.22,198.20 L 169.15,193.90 L 168.51,189.46 L 171.24,188.36 L 168.38,188.15 L 169.42,186.83 L 168.55,186.65 L 168.88,185.70 L 170.20,185.54 L 167.17,184.79 L 167.44,185.82 L 166.02,187.02 L 166.80,188.77 L 165.25,190.54 L 159.91,191.81 L 157.34,190.74 L 151.52,181.52 L 152.08,180.84 L 153.00,181.87 L 157.70,181.28 L 159.77,178.87 L 155.42,179.78 L 153.44,178.87 L 150.96,176.46 L 150.34,174.22 L 152.38,173.14 L 149.49,173.89 L 149.47,172.46 Z M 278.16,278.95 L 276.76,277.91 L 277.67,276.58 L 278.16,278.95 Z M 277.13,275.89 L 276.34,276.14 L 277.13,275.89 Z M 275.32,272.90 L 274.67,272.16 L 275.32,272.90 Z M 275.83,271.83 L 275.55,270.86 L 275.83,271.83 Z M 269.48,257.55 L 268.61,256.45 L 269.47,255.59 L 269.48,257.55 Z M 270.42,252.80 L 270.11,252.08 L 270.42,252.80 Z M 270.56,251.91 L 269.46,250.02 L 270.82,247.98 L 271.01,241.57 L 272.10,240.49 L 270.56,251.91 Z M 272.12,249.01 L 272.39,249.79 L 272.12,249.01 Z"/>
<path class="iq" d="M 64.19,66.99 L 66.36,66.57 L 71.15,69.46 L 71.01,71.29 L 73.13,71.25 L 72.83,77.82 L 75.76,80.65 L 74.31,80.92 L 73.76,83.44 L 70.06,84.83 L 68.25,87.50 L 69.42,91.30 L 68.74,93.64 L 72.56,98.55 L 73.02,102.40 L 70.67,105.90 L 72.00,106.58 L 70.87,109.09 L 71.97,112.50 L 66.67,109.61 L 61.68,112.76 L 54.39,108.63 L 48.27,94.30 L 43.72,86.69 L 39.46,83.16 L 40.34,82.94 L 39.53,82.11 L 41.30,76.68 L 52.40,76.57 L 56.82,71.76 L 58.46,68.22 L 64.19,66.99 Z"/>
<path class="ir" d="M 98.81,140.69 L 97.38,141.41 L 94.33,140.64 L 96.95,139.86 L 98.81,140.69 Z M 108.50,85.86 L 111.79,86.41 L 115.50,84.55 L 122.82,86.26 L 123.03,87.68 L 126.06,90.42 L 129.91,92.54 L 132.66,98.22 L 135.88,99.57 L 134.72,105.01 L 132.90,108.06 L 130.93,109.30 L 131.30,110.50 L 129.28,111.11 L 128.68,113.03 L 130.16,114.62 L 128.10,116.00 L 127.86,120.80 L 126.66,124.57 L 130.09,126.23 L 130.03,128.78 L 124.23,132.82 L 126.84,140.83 L 130.26,143.49 L 128.82,148.46 L 131.12,149.88 L 129.77,152.12 L 126.36,151.63 L 123.14,152.54 L 120.42,157.41 L 119.46,157.68 L 115.83,154.70 L 115.12,155.18 L 109.09,152.66 L 101.95,148.15 L 102.38,142.63 L 101.58,140.51 L 98.90,139.47 L 91.20,140.21 L 87.46,137.54 L 83.81,131.02 L 80.47,128.24 L 78.83,114.17 L 76.31,114.05 L 75.03,110.74 L 73.53,112.63 L 71.67,111.93 L 70.87,109.09 L 72.00,106.58 L 70.67,105.90 L 73.02,102.40 L 72.56,98.55 L 68.74,93.64 L 69.42,91.30 L 68.25,87.50 L 70.06,84.83 L 73.76,83.44 L 74.31,80.92 L 75.76,80.65 L 72.83,77.82 L 72.83,73.25 L 73.66,70.78 L 73.18,69.69 L 73.88,68.44 L 72.92,66.96 L 74.83,65.26 L 74.40,64.73 L 75.74,59.59 L 77.17,60.05 L 78.70,58.78 L 80.17,63.97 L 82.39,65.85 L 83.88,66.36 L 90.91,65.13 L 91.50,67.04 L 90.35,67.43 L 90.56,68.80 L 89.10,69.09 L 90.37,72.21 L 91.45,72.56 L 90.61,76.59 L 94.06,79.59 L 96.49,84.41 L 100.41,86.72 L 107.15,87.66 L 107.73,88.51 L 108.50,85.86 Z"/>
<path class="jo" d="M 28.33,72.81 L 31.07,77.05 L 41.30,76.68 L 39.53,82.11 L 40.34,82.94 L 38.41,83.35 L 29.37,81.09 L 30.65,87.92 L 27.30,89.02 L 24.16,87.92 L 19.41,89.19 L 15.71,85.87 L 22.57,79.13 L 27.26,72.73 L 28.33,72.81 Z"/>
<path class="jp" d="M 432.63,79.27 L 431.81,79.14 L 432.63,79.27 Z M 447.35,62.31 L 446.37,61.31 L 446.70,59.72 L 447.59,60.74 L 447.35,62.31 Z M 443.02,85.38 L 441.98,85.86 L 442.71,84.04 L 443.02,85.38 Z M 434.65,112.60 L 433.41,112.43 L 434.47,111.96 L 434.65,112.60 Z M 435.77,111.34 L 435.26,109.08 L 435.77,111.34 Z M 428.29,104.11 L 427.38,102.84 L 427.98,102.46 L 428.29,104.11 Z M 421.13,96.38 L 420.47,95.54 L 421.13,96.38 Z M 421.08,95.09 L 420.66,93.38 L 421.08,95.09 Z M 421.38,103.89 L 422.58,104.14 L 421.86,104.71 L 421.38,103.89 Z M 429.09,102.65 L 428.45,102.71 L 429.09,102.65 Z M 437.48,22.54 L 436.80,22.11 L 437.48,22.54 Z M 438.77,23.10 L 438.02,23.00 L 438.77,23.10 Z M 440.64,40.50 L 440.51,39.64 L 440.64,40.50 Z M 440.32,85.57 L 439.58,85.72 L 440.32,85.57 Z M 422.94,102.92 L 422.48,101.45 L 422.94,102.92 Z M 423.83,100.36 L 423.86,99.56 L 423.83,100.36 Z M 423.97,97.30 L 423.43,96.91 L 423.97,97.30 Z M 434.22,90.61 L 433.82,90.95 L 434.22,90.61 Z M 433.36,91.99 L 434.14,91.81 L 433.36,91.99 Z M 427.99,107.51 L 428.01,106.76 L 427.99,107.51 Z M 491.16,105.17 L 490.54,104.89 L 491.16,105.17 Z M 449.68,22.78 L 453.09,21.84 L 454.06,18.73 L 455.21,22.17 L 456.88,23.36 L 458.24,21.97 L 456.36,25.57 L 453.58,28.05 L 453.56,33.50 L 447.36,33.64 L 445.08,36.41 L 442.81,36.40 L 442.98,37.91 L 447.05,38.54 L 445.35,39.45 L 444.95,41.86 L 444.10,42.23 L 443.22,40.07 L 441.35,38.92 L 440.65,37.47 L 441.62,34.68 L 440.57,33.15 L 443.91,31.38 L 441.98,25.14 L 439.22,21.11 L 439.80,20.10 L 449.68,22.78 Z M 429.78,95.59 L 431.86,94.65 L 431.93,96.51 L 433.41,95.95 L 434.64,97.53 L 434.18,100.14 L 435.16,105.81 L 434.00,106.14 L 434.50,106.96 L 433.32,108.87 L 432.22,105.39 L 431.62,106.47 L 432.57,108.26 L 430.27,107.95 L 430.58,106.71 L 429.04,104.58 L 429.73,101.25 L 428.91,100.40 L 426.93,99.28 L 427.36,100.96 L 428.34,101.39 L 427.04,101.56 L 426.30,103.02 L 424.93,100.82 L 426.62,101.28 L 424.16,100.14 L 427.26,94.84 L 429.78,95.59 Z M 440.86,86.63 L 442.02,86.23 L 443.35,87.95 L 442.49,91.71 L 439.72,91.51 L 438.69,92.88 L 438.14,96.66 L 436.54,96.46 L 435.08,94.16 L 433.76,95.29 L 435.42,92.51 L 435.67,90.05 L 437.04,90.34 L 439.06,86.97 L 440.86,86.63 Z M 448.46,40.36 L 449.14,39.77 L 450.86,42.91 L 453.27,44.14 L 456.18,47.68 L 457.10,53.36 L 455.97,55.56 L 458.81,60.18 L 459.54,65.08 L 461.96,66.75 L 460.98,68.61 L 461.45,70.32 L 460.22,72.61 L 459.18,70.90 L 459.45,69.02 L 458.29,69.24 L 458.99,71.89 L 457.07,72.19 L 457.18,76.06 L 456.41,74.06 L 455.47,73.98 L 454.78,77.50 L 450.52,79.83 L 450.87,78.53 L 449.43,79.52 L 448.41,78.17 L 448.27,80.44 L 450.35,81.45 L 448.69,83.18 L 447.86,87.65 L 444.43,86.32 L 443.67,85.05 L 444.12,82.90 L 441.17,83.51 L 436.02,88.68 L 432.71,90.10 L 433.13,92.71 L 431.06,92.43 L 427.97,94.26 L 427.42,92.11 L 428.75,91.39 L 432.47,83.36 L 440.55,78.07 L 441.65,78.82 L 443.65,77.34 L 444.00,76.22 L 443.06,74.64 L 443.93,70.52 L 442.93,67.26 L 444.35,65.69 L 443.78,68.38 L 445.94,69.40 L 448.77,65.14 L 450.36,59.02 L 449.93,54.56 L 448.96,50.64 L 448.12,49.73 L 447.06,49.92 L 447.14,47.84 L 445.92,46.04 L 446.57,44.63 L 445.94,42.67 L 446.86,42.35 L 448.23,43.78 L 449.36,42.81 L 448.95,41.09 L 447.30,41.74 L 447.11,40.33 L 448.46,40.36 Z M 418.44,151.92 L 418.03,153.02 L 418.44,151.92 Z M 417.02,153.77 L 416.00,153.93 L 417.02,153.77 Z M 423.25,148.83 L 422.28,148.47 L 423.25,148.83 Z M 432.05,134.43 L 430.50,138.26 L 430.42,134.87 L 431.57,133.32 L 432.05,134.43 Z M 433.08,127.88 L 432.33,127.18 L 433.08,127.88 Z M 434.03,124.67 L 432.71,125.00 L 434.40,122.74 L 434.03,124.67 Z M 433.69,125.41 L 432.95,125.23 L 433.69,125.41 Z"/>
<path class="kg" d="M 179.52,90.69 L 182.32,91.69 L 188.62,89.32 L 185.11,87.54 L 183.58,84.50 L 182.11,86.46 L 177.83,83.37 L 182.51,80.96 L 181.41,79.80 L 183.87,77.90 L 187.10,78.64 L 191.43,81.27 L 192.20,78.23 L 194.88,77.40 L 198.96,80.20 L 205.27,80.37 L 213.35,82.41 L 214.34,84.07 L 216.21,84.64 L 217.28,86.62 L 211.14,88.60 L 208.41,90.84 L 203.59,90.50 L 200.78,93.68 L 198.21,93.55 L 197.97,91.82 L 195.02,92.13 L 194.87,92.92 L 191.31,93.87 L 190.58,96.22 L 189.72,96.69 L 183.55,96.96 L 181.81,96.27 L 180.90,94.35 L 178.03,94.91 L 177.04,93.68 L 172.21,93.01 L 172.57,90.98 L 173.76,90.27 L 175.58,90.09 L 177.48,91.83 L 179.52,90.69 Z M 180.15,92.66 L 180.39,91.88 L 179.48,91.25 L 179.38,92.50 L 180.15,92.66 Z M 178.08,92.62 L 177.28,92.15 L 178.08,92.62 Z"/>
<path class="kh" d="M 349.48,225.79 L 349.05,229.16 L 351.21,232.70 L 351.86,238.36 L 346.19,242.13 L 346.36,243.61 L 343.39,244.41 L 345.90,248.86 L 343.45,248.13 L 339.59,249.20 L 338.83,251.50 L 336.57,252.56 L 333.26,251.62 L 331.76,252.43 L 332.25,250.41 L 330.99,249.10 L 329.06,250.71 L 328.49,247.64 L 324.14,241.28 L 322.54,236.54 L 323.74,236.13 L 325.87,232.07 L 335.11,229.76 L 342.46,231.46 L 341.61,229.21 L 342.80,228.26 L 344.18,227.45 L 346.75,228.43 L 349.48,225.79 Z"/>
<path class="kp" d="M 408.50,76.13 L 407.86,78.18 L 404.29,79.76 L 403.51,82.90 L 401.58,83.87 L 399.79,83.20 L 398.68,85.08 L 396.87,84.60 L 397.44,83.55 L 395.36,84.06 L 396.03,81.42 L 397.65,80.08 L 395.96,80.05 L 395.35,76.24 L 392.71,75.93 L 392.45,76.83 L 390.83,75.80 L 390.61,74.77 L 395.12,68.58 L 396.81,62.97 L 398.30,63.79 L 402.13,63.06 L 402.20,61.78 L 400.55,60.29 L 403.62,58.73 L 404.25,56.31 L 405.56,55.56 L 405.06,52.80 L 405.82,52.42 L 409.40,54.72 L 408.04,56.01 L 407.30,59.03 L 408.90,63.23 L 403.18,72.22 L 403.64,74.80 L 408.50,76.13 Z"/>
<path class="kr" d="M 403.51,82.90 L 404.29,79.76 L 407.86,78.18 L 408.50,76.13 L 415.66,82.01 L 417.67,86.88 L 418.50,87.12 L 418.71,91.39 L 416.10,92.95 L 416.29,94.17 L 413.23,94.95 L 413.69,96.08 L 412.25,96.09 L 412.64,97.97 L 411.87,97.81 L 411.76,96.67 L 409.74,99.96 L 407.98,98.62 L 409.01,97.37 L 408.32,97.65 L 407.17,96.24 L 407.64,92.02 L 405.02,88.42 L 403.59,88.54 L 404.42,86.90 L 406.27,87.20 L 406.45,86.48 L 403.51,82.90 Z M 417.62,94.03 L 416.48,94.12 L 417.11,93.02 L 417.62,94.03 Z M 414.92,95.10 L 414.30,95.76 L 413.86,95.15 L 414.92,95.10 Z M 408.43,100.15 L 407.85,99.97 L 408.54,99.13 L 408.43,100.15 Z M 403.16,83.29 L 403.17,84.00 L 402.50,83.34 L 403.16,83.29 Z M 405.13,89.51 L 404.51,89.08 L 405.13,89.51 Z M 407.50,98.49 L 406.58,98.08 L 407.50,98.49 Z M 410.99,105.60 L 410.16,105.43 L 410.58,104.43 L 412.77,103.26 L 412.99,104.15 L 410.99,105.60 Z"/>
<path class="kw" d="M 70.11,113.61 L 69.68,112.41 L 70.51,111.74 L 70.11,113.61 Z M 68.46,119.12 L 65.18,117.68 L 65.20,115.04 L 61.68,112.76 L 66.27,109.66 L 68.94,110.46 L 69.66,111.33 L 69.45,113.61 L 67.30,113.67 L 68.59,114.48 L 68.46,119.12 Z"/>
<path class="kz" d="M 109.78,43.70 L 109.63,42.53 L 109.78,43.70 Z M 119.56,44.56 L 119.24,44.08 L 119.56,44.56 Z M 181.52,80.31 L 173.75,83.13 L 170.93,85.46 L 170.60,86.76 L 169.54,86.34 L 168.80,83.25 L 164.05,82.23 L 164.26,77.86 L 162.42,77.35 L 164.02,72.39 L 162.76,72.70 L 160.52,67.55 L 158.59,67.93 L 149.46,65.69 L 147.25,60.05 L 140.76,51.87 L 143.73,49.99 L 141.37,50.15 L 140.44,51.48 L 130.27,51.02 L 123.67,69.26 L 121.60,68.65 L 120.69,64.55 L 118.71,61.71 L 114.48,61.12 L 111.72,62.10 L 114.02,57.46 L 110.20,53.53 L 110.85,52.04 L 110.65,47.88 L 109.20,45.71 L 110.08,45.15 L 113.83,47.27 L 112.78,44.58 L 115.07,43.04 L 121.19,45.67 L 120.19,43.89 L 122.65,41.33 L 123.73,37.95 L 122.01,36.49 L 120.52,36.81 L 117.86,34.09 L 110.48,34.34 L 109.70,35.06 L 108.11,33.01 L 108.17,32.06 L 109.73,32.52 L 109.16,26.78 L 106.37,25.31 L 106.75,22.57 L 105.86,21.09 L 106.90,19.24 L 108.74,18.06 L 108.89,16.03 L 113.10,12.62 L 114.49,16.50 L 116.00,16.77 L 117.09,13.20 L 123.92,11.99 L 126.31,10.59 L 127.49,12.59 L 130.72,12.54 L 131.36,14.14 L 133.78,15.10 L 135.45,18.33 L 135.81,21.40 L 137.00,19.09 L 139.55,22.52 L 142.96,21.23 L 145.79,22.98 L 147.44,22.38 L 149.07,23.09 L 151.90,27.29 L 154.25,26.00 L 156.89,27.71 L 158.62,27.29 L 159.89,25.04 L 155.93,20.34 L 159.68,19.20 L 159.52,17.21 L 160.87,15.91 L 164.21,16.72 L 161.85,14.40 L 163.29,13.47 L 161.70,12.43 L 163.13,10.56 L 165.19,11.60 L 173.75,11.49 L 175.65,12.24 L 177.26,11.03 L 186.07,11.14 L 186.46,10.17 L 189.13,9.46 L 192.62,11.50 L 194.51,11.07 L 195.15,15.20 L 194.45,17.25 L 198.04,17.30 L 198.49,19.54 L 199.25,18.59 L 201.02,19.90 L 202.52,19.56 L 201.03,21.31 L 201.11,22.78 L 202.73,22.09 L 204.21,23.07 L 208.22,20.32 L 212.99,19.03 L 212.18,20.58 L 211.44,20.44 L 211.54,21.18 L 215.46,25.89 L 221.03,40.26 L 223.85,37.70 L 225.13,38.38 L 224.83,39.57 L 225.91,39.73 L 226.07,40.93 L 229.59,41.28 L 232.64,40.05 L 234.58,41.37 L 235.71,44.35 L 237.96,45.44 L 238.69,47.89 L 241.98,48.66 L 243.76,47.22 L 243.55,48.38 L 245.92,51.02 L 244.10,51.16 L 243.08,53.93 L 240.21,54.59 L 239.29,57.07 L 239.61,60.63 L 238.94,61.62 L 236.33,62.73 L 230.06,60.44 L 226.81,68.70 L 227.84,69.69 L 227.38,71.25 L 224.39,69.81 L 217.37,71.63 L 219.56,72.75 L 218.77,75.96 L 219.93,81.04 L 218.35,81.52 L 218.84,82.46 L 217.47,83.07 L 217.21,85.92 L 213.35,82.41 L 205.27,80.37 L 198.96,80.20 L 194.88,77.40 L 192.20,78.23 L 191.43,81.27 L 185.20,77.94 L 183.19,78.03 L 181.52,80.31 Z M 149.08,51.21 L 150.84,50.91 L 152.62,48.99 L 150.88,49.74 L 149.47,47.44 L 149.82,48.36 L 149.12,48.56 L 148.43,48.68 L 148.31,47.55 L 147.11,47.88 L 147.22,49.12 L 149.32,49.68 L 149.08,51.21 Z M 145.36,50.06 L 145.88,49.10 L 144.96,48.61 L 145.36,50.06 Z"/>
<path class="la" d="M 315.50,188.52 L 318.62,191.94 L 319.29,191.14 L 320.05,191.72 L 319.85,194.01 L 321.39,195.85 L 324.19,196.52 L 326.33,194.86 L 328.98,196.10 L 328.06,197.36 L 331.23,199.21 L 329.83,201.62 L 326.97,201.73 L 326.55,203.83 L 333.48,206.40 L 333.52,207.75 L 341.97,214.45 L 343.20,216.82 L 344.20,216.52 L 347.51,218.59 L 346.53,220.12 L 349.64,222.65 L 349.06,226.68 L 346.13,228.61 L 344.18,227.45 L 342.80,228.26 L 341.61,229.21 L 342.46,231.46 L 337.81,230.63 L 337.35,229.88 L 338.81,228.26 L 338.63,222.28 L 333.62,218.53 L 332.90,213.98 L 327.61,209.11 L 324.14,209.11 L 321.32,212.74 L 318.16,210.98 L 313.78,215.43 L 312.38,215.12 L 313.47,207.32 L 312.73,204.27 L 308.64,204.20 L 308.96,201.50 L 307.69,200.25 L 306.74,201.05 L 306.90,199.23 L 308.96,197.54 L 309.13,195.39 L 311.11,193.45 L 311.89,195.37 L 314.64,194.96 L 312.60,189.55 L 313.50,188.14 L 315.50,188.52 Z"/>
<path class="lb" d="M 34.24,64.80 L 35.82,65.59 L 35.37,67.99 L 28.29,70.41 L 26.76,69.67 L 34.24,64.80 Z"/>
<path class="lk" d="M 198.33,260.13 L 197.77,259.47 L 198.33,260.13 Z M 197.45,263.41 L 196.76,263.02 L 197.45,263.41 Z M 198.51,259.09 L 200.03,259.34 L 202.39,262.06 L 205.68,267.82 L 208.00,274.74 L 206.19,279.70 L 200.58,281.85 L 196.99,280.46 L 196.02,276.33 L 196.00,268.34 L 196.47,269.17 L 198.96,260.50 L 200.85,261.25 L 198.51,259.09 Z"/>
<path class="mm" d="M 306.75,200.73 L 303.36,200.82 L 303.61,201.95 L 301.55,202.43 L 300.91,204.27 L 296.33,204.79 L 295.44,206.44 L 295.46,211.21 L 293.56,211.75 L 295.00,212.88 L 295.59,215.55 L 299.80,219.74 L 301.28,223.18 L 302.47,222.96 L 301.05,224.76 L 301.20,228.55 L 299.32,229.63 L 299.48,230.89 L 305.15,237.46 L 305.44,241.31 L 308.82,248.10 L 304.64,254.92 L 303.86,258.60 L 302.99,254.98 L 304.76,248.83 L 303.42,248.85 L 302.38,240.84 L 299.94,236.44 L 299.58,237.97 L 298.65,232.77 L 297.44,231.71 L 295.72,225.37 L 296.23,222.29 L 294.40,222.68 L 293.24,219.60 L 291.29,218.05 L 291.10,221.88 L 289.41,223.13 L 288.04,221.76 L 288.87,223.50 L 285.99,225.21 L 284.14,227.79 L 283.80,225.73 L 282.98,227.28 L 281.73,227.39 L 281.37,225.38 L 280.21,226.98 L 280.27,223.61 L 277.85,226.47 L 279.39,217.82 L 276.16,208.56 L 275.65,210.69 L 273.31,208.22 L 275.04,208.87 L 275.88,207.73 L 273.83,205.99 L 274.29,205.23 L 271.93,204.45 L 271.35,205.63 L 270.94,202.82 L 269.57,203.76 L 269.84,202.65 L 269.10,201.86 L 269.21,203.31 L 267.40,201.07 L 266.33,197.99 L 267.07,197.18 L 268.44,198.06 L 268.22,194.25 L 268.76,193.41 L 270.16,194.05 L 271.05,192.80 L 270.61,190.20 L 272.04,186.82 L 271.59,182.95 L 275.54,183.80 L 278.07,177.43 L 277.39,176.02 L 279.84,172.05 L 279.67,169.11 L 284.47,165.31 L 286.98,164.77 L 288.80,165.78 L 287.57,163.37 L 289.57,161.37 L 289.40,159.89 L 290.57,158.22 L 293.04,160.01 L 294.23,163.05 L 295.87,162.79 L 296.69,167.36 L 296.69,171.81 L 292.97,175.39 L 292.03,178.01 L 292.86,180.87 L 292.30,182.62 L 298.38,180.98 L 297.72,182.20 L 298.97,185.92 L 302.25,186.86 L 301.12,191.47 L 304.77,191.64 L 306.57,194.51 L 310.97,192.55 L 310.88,194.01 L 308.44,196.87 L 308.96,197.54 L 307.15,198.43 L 306.75,200.73 Z M 301.43,253.52 L 301.88,254.70 L 300.74,253.96 L 301.43,253.52 Z M 301.77,259.36 L 302.32,258.63 L 301.77,259.36 Z M 301.24,250.52 L 301.53,248.76 L 301.24,250.52 Z M 302.67,247.96 L 302.31,246.97 L 302.67,247.96 Z M 302.96,248.85 L 302.39,249.92 L 301.95,248.67 L 302.96,248.85 Z M 301.77,244.09 L 301.34,245.62 L 301.17,243.69 L 301.77,244.09 Z M 300.45,246.75 L 300.02,245.98 L 300.45,246.75 Z M 279.22,226.80 L 279.81,225.33 L 279.22,226.80 Z M 295.57,224.09 L 295.28,222.71 L 295.57,224.09 Z M 274.46,211.92 L 273.37,210.96 L 274.70,210.92 L 274.46,211.92 Z M 273.20,205.38 L 273.33,206.12 L 273.20,205.38 Z M 274.40,207.15 L 275.41,208.34 L 274.40,207.15 Z M 303.28,253.31 L 303.13,252.60 L 303.28,253.31 Z M 300.33,249.37 L 299.89,248.45 L 300.33,249.37 Z M 299.95,245.43 L 299.27,245.74 L 299.95,245.43 Z M 300.98,241.32 L 301.03,242.25 L 300.98,241.32 Z M 270.73,205.29 L 270.22,204.42 L 270.73,205.29 Z"/>
<path class="mn" d="M 247.66,50.65 L 249.02,49.12 L 252.24,48.90 L 255.55,45.71 L 263.44,41.43 L 266.05,42.77 L 270.01,42.88 L 271.40,45.71 L 276.44,45.57 L 281.04,46.65 L 283.88,43.37 L 283.88,42.12 L 282.13,39.44 L 282.64,37.22 L 285.20,33.34 L 296.47,36.32 L 297.59,40.39 L 301.34,42.00 L 304.03,41.87 L 308.24,39.48 L 312.91,39.59 L 314.99,41.00 L 317.37,40.80 L 317.83,42.33 L 320.40,43.66 L 327.82,43.14 L 334.55,39.51 L 338.63,34.33 L 342.95,35.32 L 345.93,34.06 L 347.27,34.55 L 346.12,41.83 L 346.46,43.57 L 345.72,44.42 L 346.40,45.66 L 347.64,46.37 L 350.37,44.60 L 352.73,45.14 L 353.67,43.00 L 356.19,42.27 L 361.69,45.26 L 363.00,47.18 L 354.61,50.53 L 354.57,51.78 L 351.95,52.92 L 351.43,56.11 L 349.97,58.05 L 346.02,59.47 L 343.31,63.67 L 336.75,63.49 L 335.74,67.50 L 338.47,70.45 L 335.44,73.13 L 333.78,76.55 L 330.10,79.11 L 320.41,81.72 L 314.09,86.46 L 312.16,86.41 L 311.99,85.28 L 309.03,86.38 L 302.71,85.06 L 299.91,83.38 L 280.09,84.23 L 275.61,77.52 L 275.63,76.25 L 273.20,75.99 L 268.56,73.04 L 258.64,71.93 L 257.83,70.19 L 259.06,67.46 L 259.13,64.63 L 256.55,58.83 L 253.49,56.83 L 251.95,56.96 L 248.18,53.93 L 248.48,53.12 L 247.37,52.16 L 247.66,50.65 Z"/>
<path class="my" d="M 314.82,278.62 L 315.50,277.12 L 320.42,279.20 L 321.18,282.74 L 323.60,280.84 L 325.07,281.43 L 326.56,278.48 L 327.60,278.58 L 333.04,282.64 L 335.76,286.74 L 337.11,297.18 L 339.67,299.00 L 343.39,305.89 L 341.53,304.69 L 341.75,305.71 L 338.72,306.93 L 324.17,299.12 L 323.94,296.89 L 319.93,292.98 L 314.82,278.62 Z M 419.31,272.02 L 412.84,272.60 L 408.27,274.96 L 408.78,282.10 L 407.01,283.45 L 407.95,285.56 L 406.04,287.79 L 406.73,289.33 L 405.64,292.98 L 402.00,294.02 L 400.61,295.63 L 396.03,294.63 L 393.23,295.34 L 389.96,299.58 L 382.23,302.23 L 375.18,297.45 L 375.44,296.27 L 377.19,297.57 L 385.89,298.05 L 384.50,297.32 L 384.62,291.76 L 385.90,291.81 L 386.39,288.96 L 394.30,284.70 L 398.00,275.24 L 402.54,277.44 L 403.09,275.08 L 402.05,273.33 L 403.40,271.85 L 404.64,274.69 L 405.91,274.51 L 404.05,271.68 L 406.15,269.92 L 404.88,268.28 L 407.20,266.42 L 410.13,257.14 L 410.81,259.30 L 412.15,256.70 L 415.88,258.67 L 416.03,262.27 L 418.61,260.47 L 419.56,261.37 L 419.02,262.50 L 421.01,261.29 L 426.90,262.25 L 426.66,263.98 L 421.87,266.13 L 421.71,267.18 L 424.57,269.15 L 419.72,270.81 L 419.31,272.02 Z M 342.02,297.73 L 341.67,296.91 L 342.02,297.73 Z M 316.53,285.31 L 316.16,284.31 L 316.53,285.31 Z M 313.22,278.65 L 312.73,279.90 L 312.06,279.04 L 313.22,278.65 Z M 411.90,255.55 L 412.29,254.31 L 411.90,255.55 Z M 385.53,291.68 L 384.73,289.65 L 385.53,291.68 Z M 421.08,271.40 L 419.74,271.90 L 421.08,271.40 Z"/>
<path class="np" d="M 246.53,162.92 L 246.12,170.54 L 242.47,170.82 L 241.21,169.75 L 239.70,170.34 L 235.43,169.28 L 234.79,168.06 L 232.62,168.29 L 230.30,166.71 L 230.03,165.33 L 227.65,164.17 L 223.85,164.57 L 221.30,163.60 L 209.50,155.39 L 212.63,149.96 L 218.44,148.33 L 225.86,155.11 L 228.25,155.07 L 228.74,156.72 L 231.26,158.72 L 232.94,158.64 L 232.70,160.09 L 235.27,160.41 L 236.66,162.41 L 237.37,161.36 L 238.60,162.39 L 239.59,161.50 L 242.00,162.98 L 246.53,162.92 Z"/>
<path class="om" d="M 98.84,178.67 L 100.41,176.55 L 98.84,178.67 Z M 64.67,187.03 L 64.12,172.91 L 80.44,173.46 L 87.35,164.46 L 86.53,160.13 L 87.21,158.49 L 90.14,154.40 L 92.73,154.65 L 92.03,153.38 L 93.33,150.30 L 94.42,150.21 L 94.32,151.39 L 96.23,150.72 L 97.81,156.93 L 104.66,161.88 L 106.31,167.25 L 107.92,168.62 L 107.34,170.07 L 97.96,177.31 L 96.72,176.79 L 96.81,175.87 L 94.73,177.15 L 93.02,179.81 L 92.33,183.38 L 87.05,183.07 L 83.48,186.25 L 78.77,185.38 L 75.20,188.77 L 70.22,187.08 L 64.67,187.03 Z M 97.02,147.21 L 96.79,144.80 L 98.65,143.81 L 97.02,147.21 Z"/>
<path class="ph" d="M 413.76,187.25 L 417.98,187.68 L 419.76,186.14 L 420.61,190.45 L 423.39,192.63 L 423.16,198.20 L 420.88,200.44 L 420.92,203.99 L 424.89,209.47 L 427.61,209.95 L 427.15,208.82 L 429.03,207.17 L 430.85,207.30 L 432.52,209.32 L 433.06,207.27 L 436.02,207.55 L 435.02,209.05 L 437.25,211.45 L 439.24,211.18 L 439.72,213.83 L 438.54,213.52 L 438.47,212.18 L 434.92,212.68 L 433.41,210.84 L 429.62,209.39 L 429.01,209.73 L 430.96,213.18 L 425.36,210.67 L 423.63,212.96 L 420.60,212.56 L 419.69,213.33 L 418.92,211.32 L 419.80,208.35 L 417.56,207.69 L 418.27,209.80 L 417.55,210.20 L 415.03,208.68 L 411.10,201.74 L 414.37,201.54 L 411.74,193.53 L 411.47,188.61 L 413.76,187.25 Z M 410.80,248.11 L 410.58,246.52 L 417.90,233.70 L 418.25,228.58 L 420.36,232.80 L 416.45,237.52 L 415.66,241.75 L 410.80,248.11 Z M 433.34,221.82 L 435.77,222.02 L 436.98,221.03 L 437.25,222.44 L 436.27,225.59 L 432.63,229.14 L 431.22,222.38 L 429.84,221.58 L 433.34,221.82 Z M 441.56,234.48 L 436.17,231.71 L 438.12,229.42 L 437.28,224.85 L 438.53,223.76 L 440.58,224.33 L 440.19,230.06 L 442.18,232.98 L 441.56,234.48 Z M 444.80,219.37 L 446.60,218.52 L 447.43,219.20 L 448.21,221.50 L 450.53,223.57 L 450.10,224.45 L 448.92,223.80 L 449.80,225.53 L 448.22,225.29 L 446.58,221.54 L 444.95,221.87 L 443.12,219.12 L 444.80,219.37 Z M 445.91,211.77 L 448.12,212.98 L 449.09,216.24 L 451.48,218.65 L 448.65,219.14 L 446.47,217.93 L 446.16,216.30 L 441.42,214.19 L 440.93,213.37 L 445.91,211.77 Z M 420.60,214.96 L 423.28,214.36 L 425.48,215.42 L 426.45,218.03 L 425.61,220.81 L 418.81,215.93 L 420.60,214.96 Z M 456.47,227.39 L 458.84,228.77 L 458.71,231.04 L 461.25,232.51 L 463.96,237.46 L 462.69,240.46 L 463.83,243.46 L 459.66,238.59 L 459.07,239.26 L 458.58,243.06 L 461.67,246.40 L 460.69,249.19 L 459.06,246.81 L 457.78,248.52 L 451.99,247.31 L 450.29,244.22 L 450.70,241.55 L 446.90,240.29 L 445.97,240.69 L 446.20,243.10 L 444.01,242.05 L 442.95,243.48 L 441.26,242.62 L 440.20,248.04 L 439.18,248.27 L 438.87,242.32 L 442.12,239.89 L 443.90,235.88 L 446.68,236.55 L 447.17,238.76 L 448.97,236.98 L 449.36,234.54 L 451.19,234.09 L 451.10,231.59 L 452.78,231.60 L 452.82,230.60 L 454.40,230.09 L 452.73,226.13 L 456.47,227.39 Z M 442.10,231.92 L 441.19,229.07 L 442.12,220.78 L 443.64,225.55 L 442.10,231.92 Z M 414.54,182.70 L 413.83,182.96 L 414.54,182.70 Z M 414.92,176.81 L 415.08,176.16 L 414.92,176.81 Z M 436.36,254.79 L 437.80,254.77 L 437.51,255.70 L 435.00,256.00 L 436.36,254.79 Z M 410.41,251.60 L 409.66,250.80 L 410.41,251.60 Z M 421.62,232.49 L 421.01,232.87 L 421.01,231.76 L 421.62,232.49 Z M 419.70,223.03 L 421.10,223.51 L 419.50,224.05 L 418.34,222.68 L 419.70,223.03 Z M 420.17,225.65 L 418.80,224.59 L 419.79,224.50 L 420.17,225.65 Z M 436.29,227.71 L 435.44,227.19 L 436.06,226.16 L 436.29,227.71 Z M 447.99,227.71 L 445.85,229.65 L 443.78,229.06 L 445.88,226.20 L 447.42,226.45 L 447.99,227.71 Z M 432.74,261.10 L 430.64,262.94 L 432.74,261.10 Z M 440.92,251.05 L 439.02,250.22 L 441.60,249.50 L 440.92,251.05 Z M 455.83,224.88 L 455.30,223.27 L 455.83,224.88 Z M 453.57,224.83 L 452.11,224.13 L 452.36,222.06 L 453.57,224.83 Z M 417.88,214.23 L 416.85,214.02 L 417.88,214.23 Z M 426.78,212.55 L 427.95,212.61 L 427.85,214.18 L 426.72,213.83 L 426.78,212.55 Z M 429.86,218.57 L 429.90,220.05 L 429.01,219.00 L 429.59,216.88 L 429.86,218.57 Z M 432.88,217.81 L 431.40,217.44 L 432.28,216.92 L 432.88,217.81 Z M 435.13,213.75 L 432.97,212.99 L 435.13,213.75 Z M 438.46,214.96 L 437.24,214.07 L 438.46,214.96 Z M 438.47,215.96 L 441.22,218.20 L 437.34,216.79 L 436.24,218.94 L 435.41,215.27 L 438.47,215.96 Z M 439.18,207.63 L 437.50,208.06 L 437.66,205.52 L 439.04,206.25 L 439.18,207.63 Z M 427.20,209.39 L 425.77,208.81 L 427.20,209.39 Z M 424.75,204.58 L 424.87,206.59 L 423.71,204.74 L 424.75,204.58 Z M 451.25,225.29 L 450.12,224.66 L 451.25,225.29 Z M 443.70,243.97 L 443.16,244.74 L 443.70,243.97 Z M 460.22,240.71 L 459.37,239.63 L 460.22,240.71 Z M 444.68,218.51 L 443.04,218.06 L 444.68,218.51 Z M 450.43,230.79 L 449.44,230.64 L 450.43,230.79 Z M 419.54,226.92 L 419.00,227.64 L 419.54,226.92 Z M 440.62,221.26 L 441.18,221.86 L 440.62,221.26 Z M 455.72,225.99 L 455.36,225.10 L 455.72,225.99 Z M 445.76,217.49 L 444.88,217.08 L 445.76,217.49 Z M 411.41,249.30 L 410.83,248.86 L 411.41,249.30 Z M 444.28,232.45 L 443.27,233.09 L 444.28,232.45 Z"/>
<path class="pk" d="M 199.24,118.28 L 200.05,121.30 L 197.86,122.98 L 193.91,123.65 L 188.12,121.36 L 186.58,121.71 L 185.64,123.01 L 185.84,124.65 L 187.22,125.57 L 185.85,126.53 L 186.42,127.77 L 185.51,129.30 L 186.68,131.73 L 188.02,132.00 L 187.90,133.38 L 190.56,134.93 L 186.77,136.79 L 186.47,140.91 L 182.69,143.49 L 181.99,145.20 L 179.93,145.70 L 176.95,150.02 L 174.14,151.00 L 171.23,154.70 L 166.06,155.06 L 164.58,153.06 L 159.63,156.91 L 159.07,158.85 L 161.79,160.69 L 160.93,163.75 L 163.24,165.54 L 163.80,172.53 L 157.64,172.56 L 152.93,170.74 L 152.26,172.50 L 149.11,172.95 L 146.42,171.30 L 145.85,166.69 L 143.77,165.62 L 144.21,163.72 L 142.94,161.35 L 141.90,161.69 L 143.41,162.33 L 134.63,161.52 L 132.15,159.65 L 129.24,159.91 L 120.30,157.46 L 123.14,152.54 L 126.36,151.63 L 129.77,152.12 L 131.14,149.74 L 128.84,148.55 L 130.26,143.49 L 126.84,140.83 L 124.23,132.82 L 130.71,137.23 L 137.86,139.32 L 147.93,139.36 L 149.63,134.70 L 152.31,132.86 L 155.00,133.66 L 156.38,133.39 L 155.87,132.40 L 158.76,131.47 L 161.65,133.02 L 163.78,131.86 L 164.16,129.28 L 165.93,126.51 L 169.48,125.81 L 168.65,121.80 L 173.64,122.58 L 173.76,120.04 L 177.17,117.22 L 177.01,113.72 L 176.20,112.45 L 180.87,109.83 L 193.46,110.50 L 196.24,112.89 L 195.94,115.77 L 196.76,117.05 L 198.50,116.99 L 199.24,118.28 Z"/>
<path class="ps" d="M 20.19,74.82 L 18.25,75.92 L 20.19,74.82 Z M 26.50,73.77 L 23.58,77.61 L 21.10,76.75 L 23.39,75.82 L 22.71,74.82 L 24.86,72.34 L 26.50,73.77 Z"/>
<path class="qa" d="M 72.41,143.61 L 70.72,142.48 L 71.77,138.76 L 75.56,136.01 L 76.28,137.75 L 74.85,142.05 L 72.41,143.61 Z"/>
<path class="sa" d="M 12.48,108.57 L 11.81,106.27 L 12.48,108.57 Z M 11.61,162.01 L 12.45,162.50 L 12.03,163.14 L 11.11,161.94 L 11.77,160.30 L 11.61,162.01 Z M 64.12,172.91 L 49.28,169.03 L 44.20,169.29 L 38.33,172.91 L 36.52,173.07 L 35.29,170.55 L 28.21,166.13 L 22.18,163.74 L 20.33,161.61 L 18.88,161.82 L 17.05,165.04 L 14.52,165.70 L 14.90,159.27 L 13.56,155.74 L 13.24,150.64 L 13.94,144.33 L 11.03,138.76 L 10.60,134.88 L 11.78,129.91 L 14.00,126.78 L 14.45,120.11 L 12.15,115.16 L 12.08,111.83 L 13.24,109.60 L 12.91,92.33 L 10.80,90.81 L 15.71,85.87 L 19.65,89.28 L 24.16,87.92 L 27.30,89.02 L 30.65,87.92 L 29.37,81.09 L 39.46,83.16 L 43.72,86.69 L 48.27,94.30 L 54.31,108.54 L 65.20,115.04 L 65.18,117.68 L 68.46,119.12 L 68.19,123.74 L 71.75,131.45 L 71.17,131.11 L 71.29,133.30 L 69.98,134.74 L 70.72,142.48 L 72.98,144.06 L 72.05,145.00 L 73.10,145.75 L 74.84,154.29 L 86.53,160.13 L 87.35,164.46 L 80.44,173.46 L 64.12,172.91 Z M 12.13,106.31 L 12.47,105.63 L 12.13,106.31 Z"/>
<path class="sg" d="M 341.72,306.49 L 339.76,306.80 L 341.72,306.49 Z"/>
<path class="sy" d="M 37.48,58.87 L 38.20,59.82 L 41.03,59.10 L 42.66,56.60 L 45.02,59.00 L 48.44,59.45 L 52.09,62.89 L 58.09,63.75 L 64.07,65.81 L 64.19,66.99 L 58.46,68.22 L 56.82,71.76 L 52.40,76.57 L 31.07,77.05 L 28.33,72.81 L 31.75,68.78 L 33.51,69.20 L 35.37,67.99 L 35.82,65.59 L 34.24,64.80 L 36.07,60.12 L 37.48,58.87 Z"/>
<path class="tj" d="M 163.35,103.66 L 166.95,98.90 L 166.20,97.32 L 166.91,95.04 L 164.18,92.86 L 164.75,91.65 L 166.09,91.12 L 168.93,92.22 L 171.56,89.83 L 170.31,89.14 L 172.87,89.53 L 173.00,87.58 L 173.81,86.68 L 175.08,87.54 L 178.16,86.15 L 179.20,88.04 L 177.36,89.48 L 179.42,90.94 L 177.48,91.83 L 175.58,90.09 L 173.76,90.27 L 172.57,90.98 L 172.21,93.01 L 177.04,93.68 L 178.03,94.91 L 180.90,94.35 L 181.81,96.27 L 183.55,96.96 L 189.37,96.71 L 189.32,101.17 L 191.29,101.22 L 193.29,102.59 L 192.93,107.09 L 193.68,108.35 L 192.62,109.00 L 190.54,107.68 L 187.92,108.24 L 187.96,107.26 L 186.61,106.80 L 178.84,109.47 L 178.31,107.07 L 179.69,103.16 L 178.46,102.88 L 178.76,100.86 L 177.39,99.80 L 174.16,101.99 L 173.69,103.72 L 170.83,103.28 L 169.59,105.35 L 168.23,103.89 L 164.35,105.09 L 163.35,103.66 Z M 179.04,86.85 L 178.72,86.37 L 179.04,86.85 Z M 178.08,92.62 L 177.28,92.15 L 178.08,92.62 Z"/>
<path class="tl" d="M 493.67,330.62 L 493.11,331.83 L 493.67,330.62 Z M 493.33,340.97 L 491.90,339.27 L 492.70,337.69 L 490.99,337.58 L 491.92,335.05 L 502.53,328.47 L 504.91,328.33 L 493.33,340.97 Z M 486.21,342.32 L 488.50,340.35 L 488.02,342.30 L 486.21,342.32 Z"/>
<path class="tm" d="M 108.20,77.53 L 108.56,76.02 L 108.20,77.53 Z M 123.67,69.26 L 127.43,70.93 L 128.88,67.64 L 128.40,68.69 L 129.19,69.82 L 131.16,69.79 L 131.22,67.23 L 133.28,66.13 L 134.61,67.62 L 133.97,65.58 L 135.83,65.37 L 137.91,68.57 L 140.07,69.88 L 139.53,71.03 L 140.23,72.19 L 139.17,74.08 L 145.56,77.72 L 146.13,84.01 L 149.96,89.53 L 156.03,96.14 L 159.59,98.25 L 158.55,101.57 L 155.78,99.69 L 154.52,101.09 L 151.38,100.92 L 149.08,104.59 L 146.59,105.70 L 142.76,105.55 L 141.89,107.48 L 138.42,107.98 L 137.49,106.22 L 134.81,104.46 L 135.79,99.16 L 132.66,98.22 L 129.91,92.54 L 126.06,90.42 L 123.03,87.68 L 122.82,86.26 L 115.50,84.55 L 111.79,86.41 L 108.50,85.86 L 111.37,77.95 L 111.24,76.44 L 109.27,75.35 L 110.23,73.79 L 111.50,74.64 L 111.75,72.70 L 110.04,71.57 L 109.80,72.69 L 109.89,69.19 L 111.91,66.38 L 114.59,69.63 L 116.56,70.14 L 116.61,69.37 L 118.04,69.69 L 118.48,68.74 L 117.07,65.68 L 117.15,62.34 L 113.84,61.84 L 111.89,65.45 L 111.72,62.10 L 114.48,61.12 L 118.71,61.71 L 120.69,64.55 L 121.60,68.65 L 123.67,69.26 Z"/>
<path class="tr" d="M 16.34,17.45 L 15.38,16.71 L 16.34,17.45 Z M 72.07,44.97 L 76.62,47.12 L 78.05,51.62 L 76.25,55.43 L 78.56,57.38 L 79.26,59.75 L 78.70,58.78 L 77.17,60.05 L 75.74,59.59 L 74.40,64.73 L 74.83,65.26 L 72.95,66.81 L 73.85,68.22 L 73.18,69.69 L 73.62,70.88 L 71.01,71.29 L 71.15,69.46 L 66.36,66.57 L 64.19,66.99 L 64.07,65.81 L 58.09,63.75 L 52.09,62.89 L 48.44,59.45 L 45.02,59.00 L 42.66,56.60 L 41.03,59.10 L 38.09,59.77 L 37.48,58.87 L 38.27,56.94 L 40.58,56.22 L 40.77,54.79 L 37.51,54.83 L 35.73,52.22 L 30.36,52.72 L 26.76,51.27 L 23.96,44.56 L 21.70,42.59 L 19.24,44.68 L 16.28,43.32 L 15.19,41.47 L 15.52,39.18 L 10.38,35.44 L 14.02,36.06 L 10.56,33.85 L 12.06,33.74 L 12.05,30.50 L 13.60,29.57 L 11.45,25.98 L 13.09,24.84 L 12.89,26.69 L 14.80,27.36 L 14.36,25.35 L 15.74,25.22 L 15.94,22.71 L 17.46,22.16 L 14.66,20.58 L 16.55,18.57 L 19.63,18.21 L 26.90,23.64 L 26.63,22.51 L 27.48,22.50 L 30.76,24.01 L 28.92,21.55 L 29.90,20.42 L 36.39,25.69 L 41.66,25.31 L 45.65,26.22 L 51.49,29.61 L 51.52,31.71 L 53.91,33.47 L 53.97,36.03 L 55.47,36.40 L 59.75,41.62 L 63.82,42.86 L 66.34,45.16 L 72.07,44.97 Z M 28.61,14.61 L 27.90,16.80 L 29.64,20.17 L 28.63,20.88 L 23.86,17.62 L 16.89,18.27 L 17.81,17.39 L 20.51,17.39 L 18.44,15.15 L 22.44,13.74 L 22.69,11.47 L 26.58,12.29 L 26.94,13.70 L 28.61,14.61 Z"/>
<path class="tw" d="M 406.54,166.78 L 406.39,170.59 L 401.41,165.77 L 400.73,162.85 L 402.66,154.48 L 404.79,152.41 L 406.83,153.42 L 407.44,163.37 L 406.54,166.78 Z M 391.32,160.89 L 390.93,161.48 L 391.32,160.89 Z"/>
<path class="uz" d="M 181.52,80.31 L 182.51,80.96 L 177.89,83.52 L 182.11,86.46 L 183.58,84.50 L 185.11,87.54 L 188.62,89.32 L 182.32,91.69 L 178.10,90.54 L 177.44,89.20 L 179.22,87.95 L 178.16,86.15 L 175.08,87.54 L 174.07,86.57 L 173.00,87.58 L 172.87,89.53 L 170.31,89.14 L 171.56,89.83 L 169.13,92.13 L 166.09,91.12 L 164.75,91.65 L 164.18,92.86 L 166.91,95.04 L 166.20,97.32 L 166.95,98.90 L 163.35,103.66 L 158.55,101.57 L 159.59,98.25 L 156.03,96.14 L 149.96,89.53 L 146.13,84.01 L 145.56,77.72 L 139.17,74.08 L 140.23,72.19 L 139.53,71.03 L 140.07,69.88 L 137.91,68.57 L 135.83,65.37 L 133.97,65.58 L 134.53,67.64 L 133.28,66.13 L 131.99,67.34 L 130.18,66.09 L 128.27,67.91 L 127.43,70.93 L 123.67,69.26 L 130.27,51.02 L 140.35,51.38 L 137.97,54.55 L 137.41,56.68 L 138.59,56.31 L 140.76,51.87 L 147.25,60.05 L 149.46,65.69 L 158.59,67.93 L 160.52,67.55 L 162.76,72.70 L 164.02,72.39 L 162.42,77.35 L 164.26,77.86 L 164.05,82.23 L 168.80,83.25 L 169.28,84.27 L 168.77,85.34 L 169.98,86.63 L 173.75,83.13 L 181.52,80.31 Z M 180.15,92.66 L 179.38,92.50 L 179.48,91.25 L 180.39,91.88 L 180.15,92.66 Z M 179.04,86.85 L 178.72,86.37 L 179.04,86.85 Z"/>
<path class="vn" d="M 334.56,252.97 L 334.60,255.06 L 333.38,253.25 L 334.56,252.97 Z M 345.07,188.68 L 342.50,190.37 L 341.60,192.38 L 339.16,192.52 L 339.75,193.88 L 338.99,196.46 L 336.62,198.79 L 335.63,204.31 L 341.04,209.07 L 340.56,210.26 L 349.52,216.65 L 350.53,216.41 L 355.67,220.82 L 359.87,228.65 L 362.03,235.44 L 361.27,234.72 L 360.75,235.43 L 361.74,239.23 L 360.93,242.98 L 352.39,250.04 L 350.71,248.81 L 350.64,250.34 L 348.67,250.31 L 349.68,251.12 L 348.05,251.38 L 350.01,252.11 L 349.21,253.75 L 346.29,252.13 L 349.29,255.01 L 348.28,255.68 L 344.79,253.66 L 347.25,256.79 L 343.77,259.14 L 342.00,262.15 L 340.07,262.63 L 339.61,256.79 L 340.71,254.64 L 336.57,252.56 L 338.83,251.50 L 339.59,249.20 L 343.45,248.13 L 345.90,248.86 L 343.39,244.41 L 346.36,243.61 L 346.19,242.13 L 351.75,238.76 L 351.21,232.70 L 349.05,229.16 L 349.64,222.65 L 346.53,220.12 L 347.51,218.59 L 344.20,216.52 L 343.20,216.82 L 341.97,214.45 L 333.52,207.75 L 333.48,206.40 L 326.55,203.83 L 326.97,201.73 L 329.83,201.62 L 331.23,199.21 L 328.06,197.36 L 328.98,196.10 L 326.33,194.86 L 324.19,196.52 L 321.39,195.85 L 319.85,194.01 L 320.05,191.72 L 319.29,191.14 L 318.62,191.94 L 315.50,188.52 L 316.94,186.33 L 319.66,187.61 L 321.12,185.67 L 324.31,186.47 L 325.10,184.94 L 327.75,184.43 L 330.19,181.22 L 333.31,183.01 L 338.01,183.00 L 337.14,184.66 L 338.17,187.34 L 345.07,188.68 Z M 340.24,193.35 L 339.79,192.81 L 340.24,193.35 Z M 343.52,190.56 L 342.65,191.40 L 343.52,190.56 Z M 343.40,192.18 L 342.81,192.41 L 343.40,192.18 Z M 341.13,193.57 L 340.46,193.27 L 341.13,193.57 Z"/>
<path class="ye" d="M 64.67,187.03 L 60.21,187.35 L 58.34,190.41 L 54.63,190.80 L 41.94,189.61 L 37.22,191.11 L 33.86,189.59 L 26.54,189.79 L 20.64,187.75 L 16.29,188.90 L 10.67,187.40 L 8.36,185.64 L 11.48,173.09 L 10.92,170.94 L 11.83,170.83 L 14.52,165.70 L 17.05,165.04 L 18.88,161.82 L 19.92,161.58 L 22.18,163.74 L 28.21,166.13 L 35.29,170.55 L 36.52,173.07 L 38.33,172.91 L 44.20,169.29 L 50.08,169.15 L 64.12,172.91 L 64.67,187.03 Z M 10.78,170.43 L 11.17,169.82 L 10.78,170.43 Z M 59.89,209.23 L 63.58,211.15 L 59.01,210.82 L 57.38,208.88 L 58.88,208.36 L 59.89,209.23 Z"/>
</g>
</svg>