<svg viewBox="0 0 900.0 432.8" xmlns="http://www.w3.org/2000/svg" width="900.0" height="432.8">
<defs><style>.state{fill:#dde1e6}.state path{stroke:#fff;stroke-width:0.8}</style></defs>
<g class="state">
<path class="ab" d="M 318.8,349.9 278.3,349.9 277.1,348.1 273.3,345.9 273.2,344.4 271.6,344.0 272.6,342.5 272.5,339.7 271.1,336.3 269.1,334.4 266.9,334.3 265.5,332.6 262.7,331.3 262.8,330.3 256.5,326.7 252.3,322.0 249.9,322.8 245.9,318.4 243.2,318.5 241.2,317.6 241.5,316.0 239.1,315.1 236.9,316.1 235.8,312.9 234.4,311.2 232.8,310.9 231.1,308.4 229.2,307.6 228.9,308.6 226.6,307.9 225.2,306.5 222.4,306.3 220.3,304.8 220.0,303.9 221.8,303.7 219.2,301.6 219.2,240.2 318.8,240.2 318.8,349.9 Z"><title>Alberta</title></path>
<path class="bc" d="M 219.2,240.2 219.2,301.6 221.8,303.7 220.0,303.9 220.3,304.8 222.4,306.3 225.2,306.5 226.6,307.9 228.9,308.6 229.2,307.6 231.1,308.4 232.8,310.9 234.4,311.2 235.8,312.9 236.9,316.1 239.1,315.1 241.5,316.0 241.2,317.6 243.2,318.5 245.9,318.4 249.9,322.8 252.3,322.0 256.5,326.7 262.8,330.3 262.7,331.3 265.5,332.6 266.9,334.3 269.1,334.4 271.1,336.3 272.5,339.7 272.6,342.5 271.6,344.0 273.2,344.4 273.3,345.9 278.5,349.7 191.4,349.9 189.7,349.1 188.5,349.9 188.5,348.5 187.5,348.5 187.0,347.2 189.8,346.9 190.5,345.8 189.2,346.6 186.6,346.4 187.4,343.0 186.1,344.1 186.0,345.2 184.0,345.9 179.1,343.8 179.4,342.5 181.2,344.0 183.5,343.0 181.7,343.3 180.6,342.5 180.3,340.0 181.5,339.0 181.1,338.4 179.9,338.0 180.7,339.1 179.5,341.1 176.5,342.1 174.5,341.8 171.6,339.7 168.8,335.7 170.8,333.5 170.8,331.2 168.8,334.7 164.6,334.9 164.0,333.4 163.0,335.2 158.5,334.9 155.0,334.0 160.4,332.8 154.3,333.1 155.7,331.5 154.2,331.2 154.3,329.3 153.1,330.7 148.9,331.2 142.4,328.4 142.6,326.5 145.3,323.8 152.5,322.9 146.1,322.8 142.8,325.1 141.0,323.2 140.9,321.7 142.2,320.0 140.9,320.0 141.5,318.0 145.1,316.4 147.1,316.0 152.3,319.3 147.5,315.4 150.0,312.7 149.4,311.5 148.8,313.4 141.2,317.4 138.5,322.0 135.9,318.4 139.1,316.8 139.0,315.4 140.1,314.5 136.8,316.3 139.0,310.9 135.9,311.7 135.0,311.2 134.3,308.6 128.7,306.3 127.8,304.7 129.3,303.1 131.0,303.0 130.5,304.4 134.1,305.8 138.2,305.8 140.2,307.2 137.4,305.2 134.4,305.2 132.8,304.4 131.9,302.5 134.2,301.4 132.5,300.8 130.0,301.6 127.5,303.6 127.0,305.8 123.9,307.5 120.5,304.5 116.2,302.8 118.7,300.3 119.2,298.7 123.3,297.7 118.7,298.2 115.3,295.8 116.1,293.5 124.0,285.4 122.6,285.7 121.6,284.5 120.8,287.6 119.1,289.5 118.7,289.0 119.7,286.5 118.7,283.8 119.4,280.6 119.0,279.4 115.5,278.9 114.8,277.8 112.2,276.7 103.9,274.1 101.4,274.2 101.0,272.2 98.6,271.6 99.4,269.9 96.3,269.3 97.4,268.2 85.5,256.8 85.7,256.1 81.5,253.1 76.8,251.2 75.4,249.4 70.3,247.3 69.1,245.8 69.3,244.4 65.0,242.3 56.6,244.2 57.4,244.9 55.2,245.6 55.2,247.4 54.1,248.7 51.7,248.7 45.5,251.2 44.7,251.1 45.0,250.3 44.0,248.0 33.6,242.5 32.9,241.2 29.4,240.2 219.2,240.2 Z M 117.5,289.8 119.2,287.1 118.1,283.5 119.3,281.2 118.4,283.2 119.4,287.2 117.5,289.8 Z M 117.5,289.8 117.6,290.6 116.1,291.9 113.9,292.3 117.5,289.8 Z M 110.4,295.2 110.6,293.7 112.0,293.9 110.4,295.2 Z M 93.1,298.7 94.0,299.3 96.6,299.0 98.0,300.5 97.9,301.5 94.3,303.5 97.8,303.2 98.3,299.7 103.0,298.6 99.6,307.3 94.5,308.0 92.2,306.9 95.4,306.5 91.2,304.9 89.2,302.2 88.7,300.0 89.2,298.4 93.1,298.7 Z M 117.2,300.4 115.8,301.6 113.4,300.6 113.0,301.5 112.5,300.8 115.1,299.1 117.2,300.4 Z M 121.1,308.3 114.4,304.6 115.7,303.8 120.1,305.6 122.0,307.5 121.1,308.3 Z M 127.9,308.8 126.3,308.6 127.2,306.7 127.9,308.8 Z M 134.0,310.6 134.4,314.8 132.7,317.0 132.1,312.3 130.5,313.2 127.7,310.1 129.2,307.2 133.2,308.9 134.0,310.6 Z M 102.1,308.0 103.1,308.9 103.3,310.7 99.9,311.2 105.1,312.9 103.7,314.2 105.3,315.7 107.0,315.8 106.4,316.9 108.2,317.0 108.5,317.8 107.4,318.4 98.0,312.1 97.1,310.6 98.2,310.0 94.2,308.6 102.1,308.0 Z M 126.4,310.1 124.4,308.2 126.4,310.1 Z M 130.2,314.9 129.9,315.3 128.0,313.9 126.9,312.0 129.6,313.3 130.2,314.9 Z M 135.8,315.9 135.1,316.1 135.1,313.0 137.0,312.1 135.8,315.9 Z M 109.3,320.3 108.6,319.8 108.6,318.4 109.5,319.0 109.3,320.3 Z M 140.3,325.2 138.6,324.8 138.1,323.5 139.5,322.9 140.3,325.2 Z M 147.5,333.5 164.6,336.7 171.1,344.5 179.4,347.6 181.1,349.0 184.4,354.0 185.2,352.8 186.5,355.2 183.6,356.6 170.7,353.3 168.0,351.8 170.9,349.5 171.3,347.7 170.1,349.7 164.5,350.5 161.1,348.9 163.0,348.0 161.1,347.1 159.9,347.3 160.1,345.8 154.0,345.6 154.0,343.9 158.1,343.1 154.2,342.6 152.6,341.1 150.4,340.4 148.3,341.1 147.0,338.5 146.0,339.3 144.8,338.2 140.9,338.6 141.1,336.9 139.9,336.4 140.4,335.4 143.1,335.1 144.6,335.8 144.2,334.5 144.8,334.0 142.0,333.8 142.2,334.5 138.9,334.9 136.0,332.9 136.5,331.9 140.3,331.3 147.5,333.5 Z M 167.6,338.9 165.8,336.8 166.4,335.7 168.7,337.7 167.6,338.9 Z M 169.6,339.6 169.5,337.7 170.3,339.0 169.6,339.6 Z M 153.0,343.8 150.1,342.7 150.2,341.5 152.1,341.4 153.0,343.8 Z M 177.8,344.5 172.9,342.3 175.2,342.6 177.8,344.5 Z M 158.5,346.3 158.8,347.2 157.1,346.9 157.4,346.0 158.5,346.3 Z M 185.6,350.9 182.4,348.9 185.6,350.9 Z M 185.0,352.3 184.2,352.3 183.5,350.6 185.0,352.3 Z"><title>British Columbia</title></path>
<path class="mb" d="M 528.5,271.6 504.3,286.9 482.0,302.5 466.7,311.7 466.6,349.9 404.8,349.9 398.5,281.9 398.5,240.2 470.5,240.2 470.3,247.5 469.5,249.3 468.6,249.5 475.3,253.0 474.9,257.2 476.9,252.8 486.3,252.9 493.8,266.9 492.0,269.7 490.1,270.9 493.5,269.8 495.1,269.7 494.5,270.4 509.1,267.6 528.5,271.6 Z"><title>Manitoba</title></path>
<path class="nb" d="M 776.7,379.6 772.2,381.6 770.7,380.2 771.1,381.6 769.2,383.3 758.2,387.4 756.0,386.5 756.8,385.5 755.2,386.3 755.6,387.4 752.7,388.7 752.0,388.2 748.4,389.0 747.3,388.1 744.0,388.1 742.4,386.9 742.8,383.7 739.1,382.4 739.1,368.9 734.8,366.3 728.9,367.7 726.6,366.8 732.9,364.5 733.4,360.5 736.0,360.5 736.0,359.8 741.0,359.8 743.5,361.2 753.5,359.2 758.6,360.7 761.0,363.1 767.0,361.3 766.6,361.8 770.0,362.5 767.9,366.1 763.8,368.7 768.7,369.1 768.0,370.9 768.8,372.7 769.8,373.0 770.5,376.2 771.6,377.3 778.3,378.2 778.7,378.6 776.7,379.6 Z M 772.2,360.2 771.1,360.7 771.8,359.7 772.2,360.2 Z M 771.9,360.9 770.2,362.2 770.4,361.1 771.9,360.9 Z M 749.5,392.8 748.1,393.4 749.1,391.6 749.5,392.8 Z"><title>New Brunswick</title></path>
<path class="nl" d="M 845.7,325.5 845.7,319.9 779.4,319.8 780.3,319.3 779.3,317.0 776.4,315.1 778.0,314.1 782.9,313.1 781.5,312.2 781.4,310.3 779.7,308.9 777.9,309.2 777.2,311.0 775.2,311.8 775.7,318.1 774.3,319.1 773.7,321.5 774.1,322.6 771.0,323.9 770.0,322.5 770.7,321.7 765.7,318.4 762.5,317.9 761.2,319.2 758.2,319.4 754.3,316.9 753.6,318.4 753.0,318.1 752.5,317.0 753.1,315.8 752.8,313.4 754.1,311.0 752.8,309.9 750.9,310.7 750.2,312.7 746.4,312.4 747.7,306.4 745.5,304.6 742.4,303.9 742.4,302.0 739.5,299.4 742.0,297.7 741.1,294.5 744.3,294.8 745.6,293.9 743.0,289.3 749.8,292.6 750.6,292.1 749.4,286.8 760.3,292.6 773.6,292.8 780.0,293.9 782.2,290.4 781.6,288.7 785.8,286.7 785.4,284.9 782.8,284.1 780.0,281.5 781.2,279.8 776.9,279.1 778.0,278.0 775.8,277.1 775.6,276.2 777.7,275.4 775.8,273.0 777.9,271.2 779.4,267.9 779.4,264.6 781.0,262.9 776.5,262.3 773.0,259.0 778.5,255.6 778.2,254.6 776.4,254.6 776.3,253.8 782.0,252.7 779.7,251.6 775.1,252.5 774.1,251.5 768.5,250.7 769.3,249.7 773.8,250.0 771.8,248.0 772.0,246.2 773.1,245.1 769.9,245.6 768.8,244.8 769.1,242.1 770.4,241.0 768.1,239.9 770.8,238.8 768.6,237.8 770.9,237.2 772.6,238.0 771.7,239.3 769.3,240.1 774.2,239.6 775.2,240.5 774.7,242.8 776.4,242.0 779.5,245.1 777.5,246.4 779.2,246.7 779.2,247.4 781.6,246.9 782.8,248.3 777.6,249.9 784.5,249.5 783.9,249.9 784.8,250.9 784.1,251.5 786.4,251.4 787.7,252.6 788.2,253.5 781.6,256.9 784.9,255.5 785.6,256.1 790.9,255.2 788.8,258.2 784.3,260.0 792.1,258.6 793.9,260.4 797.9,261.6 797.0,262.5 797.2,264.0 792.0,265.3 797.7,265.9 798.4,266.4 797.1,267.7 800.6,268.3 803.5,270.0 803.2,273.3 796.3,273.1 793.3,272.5 794.0,271.8 792.0,272.1 799.5,274.9 796.8,275.6 797.5,275.9 802.6,276.5 799.8,277.2 799.8,277.8 803.2,277.9 803.9,279.6 802.4,280.1 805.0,280.5 806.0,281.4 809.4,280.7 811.2,282.8 812.1,282.0 813.4,282.2 812.8,283.6 814.9,285.3 810.7,289.5 814.7,287.7 819.2,287.0 819.9,288.1 822.4,288.3 818.4,291.9 824.2,288.1 826.8,288.6 829.0,291.7 832.8,292.3 837.1,291.3 838.5,292.9 842.7,294.1 839.7,296.2 835.2,296.5 832.4,297.7 830.4,299.5 827.6,299.7 821.8,301.7 818.6,301.7 816.3,302.7 815.4,304.0 812.9,303.5 815.8,305.1 813.9,306.1 814.3,306.6 813.5,307.3 830.3,300.2 837.4,299.1 833.6,298.9 833.2,298.3 834.8,297.7 842.6,298.4 845.4,302.1 841.5,303.9 843.4,305.3 848.3,302.6 851.4,302.3 857.0,305.3 858.7,307.9 857.7,310.0 858.6,313.5 853.4,314.5 859.2,315.2 859.5,316.0 858.9,316.3 856.6,316.0 859.7,317.5 859.7,318.6 845.7,325.5 Z M 799.5,264.6 800.5,266.0 796.8,264.7 799.5,264.6 Z M 806.9,279.7 804.9,279.5 806.0,278.7 807.2,279.1 806.9,279.7 Z M 863.0,321.0 862.6,320.5 863.9,320.0 863.0,321.0 Z M 862.1,324.6 860.8,326.0 856.4,326.6 856.7,327.9 858.7,328.2 858.7,329.6 849.4,339.8 848.2,342.2 848.5,343.7 854.9,338.7 855.5,339.2 855.1,340.5 857.4,339.7 861.6,340.0 855.3,343.6 858.0,343.1 855.8,345.3 862.9,344.9 863.2,346.1 864.3,344.8 864.6,345.7 863.1,349.0 864.9,347.4 866.8,347.1 871.6,344.6 872.1,346.5 873.4,345.6 877.0,345.4 880.4,346.6 880.8,348.4 875.0,351.9 878.1,351.7 876.9,352.7 879.5,353.2 878.6,354.5 875.4,355.9 886.3,353.5 885.2,355.8 880.5,357.7 880.9,358.9 877.9,359.6 880.2,359.6 877.9,361.9 878.9,363.3 879.9,363.3 883.7,359.8 887.9,358.7 885.0,362.4 884.9,364.6 885.3,365.2 887.1,364.2 888.7,362.1 890.0,364.3 885.9,372.9 883.3,372.5 880.7,373.3 880.6,368.3 876.5,371.3 874.9,370.9 878.1,365.4 876.7,362.2 874.7,361.2 871.7,365.7 871.0,366.0 871.9,364.3 870.1,365.7 868.1,365.9 863.5,370.7 858.8,371.1 857.2,370.5 857.5,369.6 861.7,368.1 864.7,365.3 868.8,363.1 863.0,363.2 862.3,364.7 860.9,365.1 855.4,364.7 858.0,363.8 858.1,361.6 849.0,364.1 833.4,363.0 833.4,362.5 827.4,364.0 824.2,363.4 823.4,360.4 833.5,354.6 825.1,354.2 828.4,352.3 827.7,353.3 829.6,353.8 832.7,349.0 836.8,349.9 835.8,349.0 836.9,347.5 834.8,347.2 834.6,346.0 836.6,344.4 838.8,344.9 837.5,342.8 842.4,334.8 843.4,333.8 844.9,333.7 843.7,332.9 846.2,331.3 846.4,329.8 848.4,328.6 849.9,326.6 856.4,324.2 859.8,325.2 860.0,324.1 862.1,324.6 Z M 861.3,332.7 860.4,332.7 860.6,332.1 862.0,331.9 861.3,332.7 Z M 875.7,342.4 876.8,343.2 873.7,343.9 873.8,342.7 875.7,342.4 Z M 871.1,344.0 868.8,344.9 868.0,344.1 871.1,344.0 Z M 874.3,365.3 873.4,365.4 875.3,363.3 874.3,365.3 Z"><title>Newfoundland and Labrador</title></path>
<path class="ns" d="M 773.8,381.3 776.7,379.6 784.0,382.2 787.8,381.9 789.9,382.3 789.4,383.2 792.1,383.5 797.3,381.0 799.1,383.1 802.0,382.8 803.4,383.9 804.1,385.3 802.3,386.0 806.6,386.8 783.9,393.2 780.9,392.8 781.5,394.2 780.9,394.8 778.8,394.5 777.0,393.2 776.0,394.8 775.3,393.8 774.1,394.1 773.6,395.2 774.2,396.3 768.4,400.9 763.7,402.9 763.6,404.1 760.4,404.3 758.2,401.7 756.7,402.2 755.8,401.5 755.1,398.2 756.1,396.0 758.4,394.0 755.6,395.3 756.8,394.0 760.9,392.8 762.0,392.0 759.8,392.7 760.5,392.0 772.5,387.1 772.5,386.3 773.7,386.6 773.5,388.3 775.6,389.4 775.2,388.2 776.1,387.5 783.3,386.0 771.0,385.6 769.5,386.4 768.3,386.1 768.7,384.9 773.8,381.3 Z M 805.8,380.2 808.2,379.9 806.5,380.9 807.1,381.3 805.9,382.2 806.3,382.7 809.5,382.2 812.2,380.0 809.5,380.1 813.9,376.6 814.6,377.7 818.2,378.1 817.5,379.5 818.5,380.0 813.0,383.1 810.1,383.8 804.0,383.9 802.4,382.5 801.9,380.3 802.8,378.0 808.2,371.8 812.0,369.6 812.8,369.7 813.5,372.0 811.9,377.0 805.8,380.2 Z M 807.2,384.8 806.1,384.1 807.7,384.0 807.2,384.8 Z M 754.3,396.7 755.0,395.7 754.3,396.7 Z M 818.9,400.2 815.7,400.1 819.5,399.6 818.9,400.2 Z"><title>Nova Scotia</title></path>
<path class="nt" d="M 318.8,240.2 181.2,240.2 179.2,239.8 177.1,235.7 175.3,235.3 173.4,233.7 174.3,232.4 173.5,230.8 171.3,230.7 170.6,231.7 166.2,232.4 160.4,231.4 159.4,232.2 157.8,231.6 156.5,232.4 150.9,232.6 150.0,229.8 148.5,229.6 149.3,227.9 147.8,225.7 141.4,224.1 133.9,219.2 131.4,219.7 127.0,218.8 126.6,216.1 127.7,215.4 124.7,214.4 122.4,212.0 123.5,209.8 121.3,209.5 118.3,207.6 121.1,205.5 118.5,203.4 116.6,203.4 118.4,202.5 112.0,200.5 108.6,196.4 106.1,195.8 101.7,196.5 102.4,195.1 98.6,193.4 93.8,192.5 96.2,189.9 92.0,188.4 97.7,184.5 94.1,181.9 96.3,180.7 93.5,180.2 90.7,181.3 90.0,181.1 90.3,180.2 83.5,180.7 83.0,179.5 84.0,178.7 83.9,177.6 81.7,177.2 83.4,174.9 82.1,174.0 81.8,172.3 79.2,170.5 57.9,170.2 57.7,168.7 58.8,167.5 58.1,165.4 55.4,163.1 55.4,151.6 67.2,153.7 65.5,152.2 60.9,151.3 60.6,150.7 64.1,150.3 60.7,149.5 62.9,147.5 66.9,147.5 68.4,145.9 75.2,145.8 74.8,144.9 75.7,143.8 80.9,145.5 78.0,148.1 88.1,146.3 90.5,144.3 95.6,144.0 94.0,143.7 94.8,143.3 98.0,143.6 105.2,141.5 108.3,141.6 113.0,139.4 120.1,139.7 122.8,138.7 124.2,139.6 123.1,140.7 111.3,144.1 100.3,145.3 96.4,147.5 91.5,148.6 85.5,152.2 87.7,153.2 86.7,152.1 92.6,152.4 94.4,151.8 92.3,151.4 92.5,149.8 100.5,147.7 101.8,146.3 106.2,146.3 106.4,147.0 109.0,146.1 109.9,148.5 114.4,144.9 118.4,143.4 130.6,141.0 130.2,141.9 128.0,142.6 129.0,143.6 131.0,143.1 135.7,141.0 136.7,139.6 142.7,138.1 139.8,137.7 139.1,137.4 139.6,137.0 137.8,136.5 138.2,135.4 139.6,134.9 147.2,137.7 152.6,142.9 156.9,145.2 164.2,147.1 167.7,146.3 165.8,144.4 167.4,142.3 168.6,142.5 171.7,140.7 169.5,140.4 173.8,139.1 174.9,139.5 175.3,143.0 178.1,143.7 174.6,146.4 176.0,147.0 184.0,146.7 187.2,145.2 189.1,142.5 203.9,142.9 212.4,145.0 212.4,160.5 293.9,185.4 312.1,185.5 323.6,191.4 329.0,192.6 398.5,198.1 398.5,240.2 318.8,240.2 Z M 318.8,54.1 318.8,57.8 311.3,57.9 307.2,57.1 303.7,58.2 297.6,57.3 287.2,58.1 286.0,57.6 290.4,56.3 310.1,53.6 318.8,54.1 Z M 318.8,60.1 318.8,61.7 310.2,62.6 317.3,63.3 317.6,64.7 316.8,65.7 309.9,66.7 295.2,67.3 287.3,65.6 286.8,65.1 287.7,64.6 286.1,62.8 287.1,61.8 295.8,60.9 318.8,60.1 Z M 280.6,63.4 272.9,63.3 268.7,61.3 275.7,60.2 276.2,60.9 282.8,62.6 280.6,63.4 Z M 263.5,67.3 263.9,68.0 255.8,69.6 260.9,71.5 256.5,71.9 259.6,73.8 256.8,74.8 249.1,75.6 248.6,77.2 246.7,78.1 244.2,78.2 239.2,76.8 239.5,75.2 241.3,73.1 240.3,72.9 236.1,73.5 234.5,75.4 231.2,75.8 232.9,77.2 229.2,79.4 227.5,79.6 223.4,77.6 222.8,79.3 221.8,79.7 223.9,80.9 220.1,82.3 215.1,82.6 210.7,79.1 209.0,80.7 207.1,81.0 200.2,80.5 195.3,81.4 192.9,80.8 193.8,80.1 193.4,79.3 190.3,79.5 195.1,77.0 203.6,76.4 228.3,67.9 239.1,67.1 250.6,67.5 252.0,67.1 248.7,66.3 253.9,65.5 263.5,67.3 Z M 283.3,73.5 270.6,73.0 280.0,72.0 283.8,72.7 283.3,73.5 Z M 318.8,85.5 318.8,92.3 301.6,95.8 293.7,96.6 282.2,96.3 276.3,94.8 275.2,94.1 275.8,93.7 290.6,91.1 302.2,90.6 308.1,88.9 308.5,88.6 307.9,88.3 296.7,89.5 292.9,88.7 289.4,89.8 281.8,90.2 280.5,89.7 280.4,88.3 284.3,86.7 280.2,87.1 278.8,86.5 277.3,88.5 273.8,88.1 275.4,89.1 274.5,90.0 268.8,91.1 264.9,89.7 261.7,91.2 254.3,89.1 249.0,89.3 243.1,88.1 246.5,86.3 258.3,85.9 267.6,84.1 254.8,85.0 247.4,84.4 251.0,83.2 269.1,81.9 255.7,82.1 252.4,81.3 253.6,80.7 253.1,79.9 256.9,78.9 271.2,79.2 260.7,77.9 263.2,76.5 271.3,75.8 277.0,76.4 278.4,77.9 280.7,78.8 287.2,78.3 291.9,78.9 300.2,81.5 298.3,82.5 303.4,82.7 307.2,85.2 318.8,85.5 Z M 318.8,76.1 318.8,78.4 315.7,77.2 318.8,76.1 Z M 235.8,85.1 231.0,85.6 225.2,84.7 232.9,81.8 242.8,79.7 244.1,80.1 242.8,81.2 235.8,85.1 Z M 208.5,83.4 207.0,83.1 210.3,81.6 210.0,82.7 208.5,83.4 Z M 221.8,99.7 227.1,98.8 228.0,100.6 233.7,98.4 243.9,98.5 262.7,104.1 265.1,105.8 263.8,106.6 228.4,114.3 224.0,117.7 217.4,118.6 214.8,124.4 213.0,125.6 204.5,126.8 201.8,126.3 197.7,128.0 188.4,129.7 185.4,128.5 179.3,123.9 166.4,121.0 161.0,120.9 161.8,119.4 163.6,118.9 163.1,118.2 169.5,114.9 169.7,112.3 173.7,111.3 171.2,110.2 171.3,109.5 181.4,103.1 177.4,101.8 172.4,97.3 204.2,95.4 223.5,98.5 221.8,99.7 Z M 318.8,110.9 318.8,140.6 293.9,140.6 293.9,141.5 292.4,142.3 290.2,142.3 290.1,140.6 248.5,140.6 248.3,141.7 252.6,144.1 250.5,144.1 248.0,142.6 247.1,140.1 253.5,138.9 273.1,137.5 292.5,138.4 302.5,137.6 297.7,136.2 281.4,133.8 259.1,134.8 243.2,134.4 236.5,131.8 235.4,131.0 236.4,130.3 241.0,129.1 260.1,126.9 258.6,126.5 259.2,126.0 266.0,125.8 263.2,125.2 239.8,126.8 236.9,126.0 241.7,124.1 233.3,124.2 230.5,123.8 229.2,122.7 229.7,120.9 237.0,118.1 234.3,116.5 237.8,114.4 246.5,111.6 272.6,107.1 276.9,107.8 278.4,110.1 277.9,112.1 273.8,114.8 283.2,114.2 283.9,113.8 284.0,112.5 286.0,111.3 291.4,110.9 306.2,113.6 305.3,115.0 299.9,117.2 302.1,117.7 305.7,116.2 306.2,117.1 307.4,117.1 311.0,115.4 316.8,114.1 316.8,113.2 313.3,112.1 311.9,111.3 312.2,110.7 318.8,110.9 Z"><title>Northwest Territories</title></path>
<path class="nu" d="M 470.5,240.2 398.5,240.2 398.5,198.1 329.0,192.6 323.6,191.4 312.1,185.5 293.9,185.4 212.4,160.5 212.4,145.0 217.8,146.8 230.5,148.0 238.2,150.2 246.8,151.5 258.4,152.2 256.6,150.9 261.0,150.7 272.8,153.1 279.3,156.6 278.0,157.9 271.3,157.9 267.7,159.2 267.3,160.4 264.7,161.5 267.7,162.4 293.9,163.7 308.9,162.6 318.1,160.6 322.5,163.2 328.4,163.6 330.2,166.3 332.6,164.6 338.8,168.0 339.6,168.9 338.8,169.6 333.8,169.6 346.1,176.5 341.6,173.1 341.2,170.9 342.4,170.5 347.1,171.7 345.2,170.0 345.9,169.5 343.0,167.8 342.2,165.4 339.2,163.6 339.1,162.4 341.1,161.5 340.7,160.2 354.4,158.6 354.6,157.4 359.3,156.2 361.1,154.7 359.3,154.2 354.1,155.4 352.6,157.0 342.5,157.3 341.3,157.7 341.9,158.5 341.4,158.8 335.5,159.0 331.6,157.6 335.6,154.5 357.0,151.4 361.8,152.3 363.2,153.4 364.8,156.4 372.1,158.3 372.0,159.1 373.7,159.9 379.5,160.2 383.8,159.4 390.1,162.0 395.3,163.2 402.9,163.6 413.9,162.2 429.2,163.3 434.2,162.5 431.3,160.9 431.2,160.1 432.0,159.8 439.0,163.4 443.8,164.4 446.7,163.3 446.2,162.0 440.9,160.8 436.4,161.3 433.3,159.4 434.5,159.2 431.8,156.9 436.1,157.4 440.4,156.7 439.1,155.3 444.2,155.6 448.5,158.0 454.0,157.5 451.1,160.2 458.5,158.1 456.3,163.4 454.6,165.4 456.8,167.8 461.0,167.4 460.5,168.7 464.1,169.0 464.0,170.4 460.6,170.9 454.0,170.0 460.4,174.3 460.8,173.6 457.9,171.1 464.2,171.0 465.6,167.9 463.6,164.4 461.7,163.2 463.6,160.4 470.8,159.9 478.9,155.8 483.7,154.4 481.7,154.3 481.3,151.7 479.6,150.6 477.5,152.7 473.4,153.2 472.2,152.6 472.6,151.5 477.3,149.4 475.6,149.1 475.6,147.5 482.0,146.5 480.0,148.1 480.7,148.4 483.8,146.9 482.8,146.8 482.8,145.8 475.5,146.1 471.9,144.1 470.0,144.8 458.6,142.6 452.8,138.5 452.8,137.4 455.3,135.6 459.5,135.2 458.4,134.5 459.4,133.7 455.7,134.2 452.8,132.6 453.8,128.3 457.6,126.6 462.6,127.3 464.2,125.8 459.5,125.0 466.2,121.7 469.3,121.1 472.6,120.9 475.1,123.1 480.7,123.3 480.5,124.3 485.6,126.1 488.6,128.1 489.3,130.0 488.3,132.2 494.5,134.3 497.6,136.8 497.6,137.6 500.5,137.4 502.4,138.9 499.5,139.3 494.9,138.3 493.0,139.6 498.3,140.3 489.2,143.9 495.0,143.9 499.0,145.3 506.0,144.2 503.7,145.4 513.9,146.1 511.2,146.3 509.1,147.9 505.7,147.8 510.6,149.5 513.2,151.8 512.3,155.8 515.5,157.9 519.0,155.7 521.3,150.5 525.2,148.1 527.4,148.0 537.5,152.5 539.6,156.1 539.6,157.6 538.0,158.2 535.6,157.2 534.5,157.7 534.8,161.1 536.0,162.9 542.9,167.0 544.3,168.8 552.3,165.7 553.9,162.6 558.3,159.8 560.5,156.1 560.9,153.9 562.9,152.9 569.1,152.9 566.7,152.2 569.2,149.9 564.0,148.3 563.7,145.1 562.8,144.1 563.4,142.9 562.5,142.3 574.6,142.2 581.1,143.6 594.0,144.2 592.8,145.3 590.2,145.7 594.6,146.5 595.4,148.1 603.9,148.8 604.4,149.4 598.1,151.8 603.9,152.1 605.1,153.2 604.9,154.0 598.5,156.0 592.2,155.9 595.5,159.1 597.6,158.6 596.7,160.4 597.1,161.3 605.0,165.9 603.0,169.8 598.4,170.8 595.1,173.1 582.5,176.8 577.8,173.2 575.7,173.2 572.4,170.8 569.3,170.2 566.7,171.6 571.4,171.5 575.6,173.7 579.8,178.1 574.5,177.6 573.0,178.7 566.9,177.2 561.8,174.8 550.8,175.3 550.4,176.3 551.0,176.9 556.7,178.2 558.3,179.3 547.1,186.1 543.4,187.1 538.2,187.0 530.5,183.7 520.5,181.1 518.6,181.1 519.1,181.8 503.8,181.0 507.6,182.2 507.4,181.5 508.2,181.3 518.8,182.7 528.2,187.0 544.0,187.9 547.6,188.5 547.9,189.4 536.9,198.6 529.8,200.5 526.0,199.3 526.7,200.7 521.8,200.1 519.9,198.6 517.6,199.0 519.4,200.8 516.3,200.6 517.9,202.4 515.6,204.0 508.6,204.5 498.8,202.8 498.3,202.2 494.7,202.5 481.2,198.9 482.2,200.0 481.5,201.0 482.6,201.7 485.4,202.0 484.4,200.9 496.5,203.5 493.5,204.8 499.7,203.4 508.3,206.0 510.9,207.3 511.1,209.7 510.3,210.7 503.6,212.3 494.5,212.2 495.0,213.2 498.7,214.4 492.6,214.9 490.4,216.5 492.8,218.7 486.1,216.7 489.1,218.2 487.5,218.8 488.0,219.4 487.4,219.7 484.6,220.0 485.4,220.7 484.8,221.0 482.3,220.9 485.0,222.6 479.0,225.5 479.3,226.9 477.3,227.3 477.5,228.9 473.1,234.2 470.6,235.3 471.7,236.1 470.5,240.2 Z M 318.8,57.8 318.8,54.1 323.7,55.2 325.4,56.4 325.3,57.3 323.9,57.8 318.8,57.8 Z M 318.8,61.7 318.8,60.1 322.6,60.2 321.1,61.4 318.8,61.7 Z M 318.8,92.3 318.8,85.5 327.9,85.8 329.6,85.0 329.3,83.9 320.8,82.2 320.1,81.6 324.2,80.7 324.5,79.8 318.8,78.4 318.8,76.1 326.6,73.0 330.4,72.7 334.1,73.5 332.5,75.0 333.6,76.5 336.8,77.6 337.5,78.6 334.7,80.0 341.5,80.9 338.5,82.8 346.5,82.0 348.2,82.4 349.5,84.1 349.8,83.0 351.8,82.7 350.2,81.4 354.7,80.3 362.3,81.4 363.8,83.4 360.0,88.9 357.7,90.0 347.2,91.6 340.5,90.8 334.0,91.4 330.4,90.2 323.7,92.0 318.8,92.3 Z M 250.5,144.1 252.6,144.1 248.3,141.7 248.5,140.6 290.1,140.6 290.2,142.3 292.4,142.3 293.9,141.5 293.9,140.6 318.8,140.6 318.8,110.9 331.2,115.2 336.8,123.5 340.9,124.4 345.6,121.8 341.7,119.2 336.3,109.7 336.7,108.9 339.4,108.6 337.9,108.0 338.4,107.3 347.6,108.8 350.4,108.1 362.4,111.5 364.5,112.9 366.3,116.6 370.5,121.7 374.7,124.9 375.0,126.9 373.0,129.4 373.4,130.0 382.7,134.4 387.8,135.6 388.5,135.3 388.0,134.1 398.6,137.8 401.7,137.9 402.8,139.3 407.5,139.3 409.4,142.5 408.0,143.9 405.1,143.5 403.6,142.1 402.0,143.6 396.1,142.2 392.5,143.5 393.2,144.4 392.3,145.1 384.2,144.0 388.0,145.9 387.3,148.6 394.0,145.9 397.0,145.7 398.7,146.4 398.0,148.0 400.6,148.8 399.9,150.4 389.6,152.4 367.5,151.4 366.9,151.0 368.4,149.8 357.2,149.0 355.2,148.4 354.5,146.5 352.1,146.2 344.3,150.6 335.1,151.3 324.1,153.8 290.3,155.8 286.6,155.2 283.4,152.9 282.0,148.7 258.0,147.2 253.7,146.3 250.5,144.1 Z M 551.9,163.2 549.0,162.2 549.4,160.5 548.3,159.6 550.9,157.5 553.7,158.7 553.9,161.7 551.9,163.2 Z M 325.5,160.7 323.8,160.1 324.1,159.6 325.5,160.7 Z M 681.1,162.7 672.6,162.5 669.9,160.4 673.6,159.6 682.4,160.6 683.3,162.6 681.1,162.7 Z M 327.1,160.7 329.1,160.8 329.9,161.6 327.1,160.7 Z M 339.7,166.5 339.2,167.4 337.2,166.2 337.4,164.3 338.8,164.3 339.7,166.5 Z M 790.1,170.0 788.2,169.9 790.7,168.8 793.0,168.7 790.1,170.0 Z M 337.8,170.5 340.7,170.5 339.3,171.9 337.8,170.5 Z M 586.5,177.7 588.4,177.9 587.1,178.5 585.6,177.7 585.5,177.1 586.5,177.7 Z M 580.5,182.5 585.4,183.3 584.4,184.2 579.9,183.8 580.7,182.9 579.6,182.6 576.6,182.8 576.3,181.3 573.1,179.6 573.7,179.2 579.9,180.8 580.7,181.3 580.5,182.5 Z M 571.1,184.7 566.9,182.9 566.3,180.3 568.4,180.4 570.2,181.9 571.8,183.9 571.1,184.7 Z M 568.6,187.8 572.8,185.9 576.9,188.3 582.8,189.1 585.7,190.8 597.2,194.0 599.8,196.2 600.9,198.3 598.8,200.2 609.4,199.5 611.9,201.1 611.0,201.4 615.0,202.4 607.2,205.8 593.9,203.3 593.0,201.1 587.4,200.2 587.1,198.8 584.7,199.0 581.9,199.8 580.5,202.3 574.7,204.5 571.5,207.3 563.9,209.2 562.9,209.0 560.2,203.4 546.4,204.5 546.0,203.7 548.6,201.4 555.3,199.0 554.1,194.8 557.1,185.1 559.7,182.2 562.3,181.3 565.4,182.5 566.8,184.2 565.4,185.4 567.3,186.1 568.6,187.8 Z M 641.1,200.5 637.9,200.5 641.1,200.5 Z M 650.7,206.4 648.3,206.3 643.9,204.5 646.2,203.6 651.0,205.4 650.7,206.4 Z M 638.8,205.7 640.5,206.1 642.2,208.0 638.1,209.2 632.2,206.1 638.8,205.7 Z M 597.7,210.8 598.0,212.1 596.6,213.8 587.6,218.2 584.0,218.0 580.8,218.7 578.6,216.1 584.0,211.3 597.7,210.8 Z M 713.9,214.9 709.6,214.4 705.1,211.6 712.8,213.0 714.5,214.6 713.9,214.9 Z M 677.4,214.2 671.1,213.2 677.4,214.2 Z M 768.8,214.8 772.8,215.5 771.5,216.4 768.6,216.3 767.5,215.8 768.8,214.8 Z M 622.1,216.2 624.9,218.5 624.3,220.1 620.9,223.9 619.4,224.4 615.0,222.1 615.0,219.2 617.4,216.9 622.1,216.2 Z M 766.7,221.5 768.5,222.7 765.4,222.3 764.9,221.0 766.7,221.5 Z M 487.7,221.9 486.2,221.1 487.4,221.0 488.2,221.4 487.7,221.9 Z M 768.7,226.6 763.1,224.7 762.7,223.8 769.1,223.7 770.3,224.4 768.7,226.6 Z M 632.2,233.0 630.9,233.1 631.4,232.6 635.1,232.1 632.2,233.0 Z M 734.8,237.8 733.5,237.7 733.5,237.1 735.7,234.7 737.4,234.6 738.9,235.8 737.9,236.9 734.8,237.8 Z M 772.9,236.6 772.6,237.3 769.6,236.5 768.7,235.3 770.5,235.1 772.9,236.6 Z M 617.0,242.5 616.0,242.6 616.8,241.7 618.6,241.7 617.0,242.5 Z M 614.8,244.0 615.9,243.1 614.8,244.0 Z M 725.6,249.8 723.7,250.6 724.2,248.8 725.2,248.8 725.6,249.8 Z M 620.4,265.0 619.2,265.3 620.2,264.1 620.4,265.0 Z M 618.9,272.4 618.2,272.4 618.6,271.5 619.3,271.7 618.9,272.4 Z M 622.4,273.6 621.8,273.7 621.9,272.2 622.7,272.7 622.4,273.6 Z M 628.2,277.4 625.8,281.2 624.9,280.9 626.2,278.7 625.8,278.0 622.6,281.3 620.0,282.0 622.6,279.2 622.1,278.8 618.6,281.4 617.5,281.0 622.4,276.8 623.0,274.7 622.2,278.3 623.7,277.3 624.9,274.1 627.9,275.9 628.2,277.4 Z M 617.8,278.0 616.7,278.0 617.0,277.2 621.8,275.4 620.7,276.8 617.8,278.0 Z M 629.3,278.6 628.4,278.8 629.6,276.3 630.9,275.7 630.8,277.5 629.3,278.6 Z M 618.2,306.9 616.9,306.5 618.2,306.9 Z M 610.3,312.5 606.7,312.2 597.3,309.5 599.2,308.1 606.3,307.9 610.0,310.7 610.3,312.5 Z M 623.7,320.4 621.2,319.8 624.9,319.1 623.7,320.4 Z M 722.3,11.0 752.9,11.9 748.7,13.0 732.5,14.6 743.1,14.5 759.8,12.7 764.0,13.2 767.2,12.1 772.0,13.4 780.6,13.0 782.2,13.4 780.5,14.0 786.1,15.5 784.5,16.6 792.2,15.9 799.9,16.3 803.9,17.1 804.8,17.7 804.1,18.3 795.1,20.7 781.0,22.7 750.8,24.9 748.0,26.2 730.3,28.2 734.0,28.5 759.7,26.2 769.2,26.2 768.7,26.7 730.9,34.3 721.7,37.2 715.8,37.1 710.1,35.7 715.1,38.3 714.6,38.7 696.7,39.8 711.6,40.1 709.7,41.1 703.7,41.9 706.2,42.6 703.4,43.4 693.0,44.1 673.4,42.3 670.8,42.7 672.0,42.9 682.6,43.5 685.3,45.1 683.7,46.0 662.4,46.9 648.5,45.9 661.4,48.6 672.6,48.7 672.1,50.5 658.3,49.8 631.7,50.3 638.7,51.6 654.9,50.9 673.1,53.7 671.9,54.8 668.6,55.5 653.3,55.9 665.5,57.7 657.8,61.0 637.4,61.5 636.7,62.5 636.8,65.7 632.6,67.2 611.9,67.8 601.1,65.7 604.9,67.3 597.1,68.0 599.3,68.8 606.5,68.2 615.4,69.5 622.6,69.0 624.2,69.3 624.8,70.1 624.4,71.1 625.4,71.6 629.6,72.1 634.7,71.1 637.5,72.4 637.7,73.4 634.7,75.2 622.5,77.8 610.7,79.1 607.7,78.7 609.3,77.2 607.9,76.2 600.5,76.0 592.4,73.7 595.1,75.2 595.4,76.2 578.9,76.4 575.5,74.2 575.0,77.3 566.4,77.8 556.7,76.5 553.3,75.1 551.1,77.1 544.4,76.4 543.0,75.0 542.9,77.0 534.0,76.8 533.0,73.2 531.8,74.4 532.5,76.7 522.3,76.0 523.0,72.6 534.0,69.9 549.8,69.1 542.0,67.0 538.5,64.9 537.0,63.8 540.4,62.6 547.7,62.0 554.0,62.9 562.0,66.3 570.4,67.3 581.7,66.5 591.1,62.1 591.8,61.0 590.7,61.3 580.0,65.6 572.9,65.3 569.2,65.9 564.9,65.4 564.9,63.3 562.4,61.7 571.6,59.0 575.6,59.2 568.7,58.6 570.0,55.7 567.6,57.8 562.0,59.9 555.7,60.2 558.6,57.5 548.8,59.7 542.4,59.2 543.0,56.8 549.8,53.2 567.8,51.9 585.0,53.3 596.2,52.4 600.2,51.2 593.3,52.0 573.7,51.0 572.1,50.3 574.0,49.8 582.0,50.5 565.1,44.4 557.5,43.8 553.7,42.6 551.7,39.8 552.9,38.5 554.8,37.9 580.5,38.8 600.8,44.2 612.9,45.0 616.4,44.3 607.6,44.1 587.9,37.8 607.9,36.6 633.7,33.2 648.9,32.4 630.4,31.6 634.7,29.4 648.6,26.8 625.6,29.9 620.0,32.7 607.6,34.5 588.9,35.3 595.5,33.3 583.7,33.9 575.6,35.7 566.4,35.8 552.6,35.0 551.8,34.4 553.5,33.8 565.4,31.2 584.9,29.6 560.0,30.7 544.6,34.4 540.8,34.5 527.4,32.8 525.3,31.9 526.3,31.7 553.1,30.7 568.4,28.2 545.2,30.3 521.8,30.8 518.2,29.8 518.5,29.4 525.9,28.6 521.3,27.8 531.7,26.1 541.9,25.8 533.2,25.5 515.0,27.1 512.5,26.5 519.8,24.8 511.8,24.5 505.1,25.4 501.2,24.7 508.6,22.8 524.2,21.9 537.3,20.2 547.7,21.5 551.6,20.6 561.4,21.6 567.4,21.3 551.7,18.9 568.8,16.6 581.8,17.9 591.4,20.3 594.4,20.2 590.2,19.2 592.3,18.7 623.3,22.6 593.2,17.2 600.9,16.0 596.5,14.9 609.0,15.4 605.9,13.7 607.6,13.4 630.1,14.4 619.3,13.0 616.1,12.0 618.7,11.8 642.7,12.3 657.4,15.8 661.8,15.1 661.0,14.7 646.3,11.1 673.3,11.0 684.6,13.4 690.7,13.9 682.9,12.1 684.0,11.2 689.2,10.3 697.5,10.1 707.9,12.1 703.0,10.9 706.4,10.3 717.5,10.0 722.3,11.0 Z M 499.2,29.8 505.3,32.6 511.2,34.2 511.6,35.1 525.6,36.0 526.6,36.7 525.9,37.0 526.5,37.4 526.0,38.4 529.4,39.4 535.9,39.9 531.8,38.5 531.5,37.2 532.7,36.9 541.2,37.3 541.7,39.2 538.7,40.1 545.9,40.6 548.1,42.1 545.0,45.2 554.5,44.7 557.8,46.2 561.4,44.9 567.4,48.2 548.3,51.2 541.7,54.2 538.7,53.5 538.4,51.8 539.8,50.6 537.5,51.0 536.3,51.7 536.3,53.5 535.4,54.3 537.9,54.8 538.1,55.6 536.5,56.2 530.5,55.1 531.9,57.1 529.7,59.1 527.0,58.9 517.6,54.9 517.2,55.5 522.7,59.4 515.0,57.7 511.5,57.9 514.8,59.1 511.9,59.5 499.1,58.6 491.3,57.1 489.6,56.4 490.9,56.1 499.4,55.6 485.5,54.9 481.8,53.5 486.5,53.2 479.1,52.3 476.5,51.1 489.7,49.4 492.6,48.2 505.1,47.3 489.9,46.5 478.8,48.1 477.1,47.9 478.8,47.2 477.1,47.0 467.2,48.1 460.9,46.8 461.6,45.7 474.2,43.7 459.7,44.3 453.6,42.6 450.5,39.7 471.7,40.6 472.4,39.6 475.6,39.1 464.2,39.7 461.8,38.7 458.0,38.8 454.3,37.9 462.7,37.4 456.7,35.5 456.9,34.2 459.0,33.9 466.0,34.2 469.3,35.4 478.9,35.5 463.1,32.7 465.5,31.1 468.4,30.6 485.3,30.1 485.8,29.5 484.1,29.0 476.2,28.7 476.4,27.7 487.8,27.6 499.2,29.8 Z M 430.4,41.2 430.5,43.2 428.9,43.8 423.2,42.2 418.4,42.2 417.1,41.0 417.9,40.1 421.1,39.6 428.2,39.9 430.4,41.2 Z M 384.3,47.9 389.4,48.7 392.0,50.1 391.2,51.3 392.7,52.2 394.6,50.9 401.4,50.2 408.1,51.6 407.2,53.0 414.1,52.8 418.3,53.7 422.6,55.3 419.9,56.6 420.9,57.9 427.1,59.8 428.4,61.0 426.7,62.4 418.8,63.0 412.6,62.0 407.7,59.0 397.9,58.2 392.4,58.5 390.8,57.9 391.2,57.3 379.1,58.4 371.0,57.5 368.7,56.3 369.5,55.5 382.8,55.6 383.7,55.0 382.7,54.8 378.4,54.6 384.8,53.6 376.7,53.2 379.8,52.0 377.0,51.1 369.6,52.9 368.9,52.4 371.1,50.7 362.9,50.4 362.9,49.4 364.3,48.0 384.3,47.9 Z M 456.2,55.7 462.6,55.8 469.0,57.1 469.3,57.5 464.9,58.7 468.9,60.2 466.2,61.3 448.4,62.9 447.6,62.4 448.1,61.9 441.7,60.1 448.8,59.4 440.1,58.7 437.8,57.7 435.2,56.2 437.7,55.4 434.9,53.5 444.5,53.2 453.5,54.3 456.2,55.7 Z M 388.5,59.5 385.8,59.3 389.6,58.3 390.6,58.8 388.5,59.5 Z M 401.5,64.0 394.7,63.7 393.8,62.2 406.5,62.7 408.4,63.6 401.5,64.0 Z M 463.4,63.0 482.3,63.2 486.8,64.3 484.7,64.6 482.7,66.3 458.4,66.1 455.6,65.0 456.3,63.9 463.4,63.0 Z M 373.0,69.5 366.5,69.1 358.0,63.7 362.7,63.6 365.7,64.5 369.0,66.7 373.2,67.6 374.0,68.4 373.0,69.5 Z M 519.7,68.3 515.7,68.8 508.1,67.6 506.6,67.1 506.2,65.4 509.6,64.4 516.3,65.0 520.8,66.5 520.9,67.8 519.7,68.3 Z M 475.2,71.8 480.1,71.8 485.8,73.2 486.1,74.2 482.8,76.4 488.2,74.7 505.0,74.1 512.6,75.9 504.1,75.8 503.9,76.3 525.1,77.9 525.6,78.5 523.9,79.0 504.0,78.7 515.5,80.3 521.0,82.3 525.2,82.9 525.9,83.3 525.4,83.9 521.5,85.2 525.2,85.2 528.8,86.3 529.9,85.8 529.4,84.6 531.5,84.3 535.9,85.7 540.6,85.1 542.5,86.0 545.3,84.7 558.3,86.9 558.8,86.4 557.2,85.8 558.1,85.6 571.7,84.3 578.5,82.7 585.4,83.4 596.2,82.6 605.0,83.3 607.6,84.4 614.4,84.6 616.4,85.2 615.0,86.1 621.0,86.4 622.5,88.3 613.8,90.5 621.0,90.6 623.6,91.7 618.2,92.5 614.2,91.8 616.1,92.9 614.8,95.0 598.3,96.1 588.4,95.2 586.6,93.9 586.7,92.7 582.5,91.8 584.3,93.2 582.4,95.0 573.5,95.7 567.2,94.8 566.5,95.6 563.4,94.8 559.8,95.8 550.6,95.3 551.2,95.9 550.2,96.0 533.7,95.9 532.4,95.1 534.5,93.0 532.6,92.5 529.5,93.9 528.6,92.9 526.1,93.4 526.0,94.5 522.4,95.3 512.5,94.7 508.4,93.7 509.2,92.7 506.8,93.5 506.7,94.3 502.6,94.3 498.5,92.9 496.4,90.3 497.3,89.6 494.0,87.9 494.0,86.8 497.4,84.3 496.2,82.4 487.2,77.4 481.5,78.2 465.5,78.2 457.9,76.0 461.7,75.1 458.5,75.2 449.5,73.5 449.5,72.9 454.2,72.9 450.6,72.0 450.7,71.2 459.7,70.3 475.2,71.8 Z M 520.7,75.8 516.4,75.7 512.4,73.4 518.5,72.6 521.0,73.5 519.8,74.6 520.7,75.8 Z M 406.2,75.1 402.3,74.9 408.8,73.6 415.7,73.6 406.2,75.1 Z M 441.3,76.2 440.9,77.5 443.0,79.8 441.8,81.1 442.3,82.4 439.4,83.3 444.2,84.1 444.9,86.7 441.8,85.8 439.5,86.7 439.8,88.2 441.7,89.3 440.3,89.7 437.6,88.9 438.4,90.4 415.5,90.6 413.6,89.0 417.0,88.4 411.1,87.4 411.3,86.8 426.4,83.9 393.1,85.7 390.5,84.9 397.0,82.1 405.8,83.3 408.7,82.9 405.6,83.0 403.4,81.7 404.1,81.0 400.2,80.5 399.9,79.9 402.9,78.5 397.1,78.0 400.6,76.4 405.1,76.8 407.9,78.4 419.7,81.6 421.5,81.3 417.3,79.7 423.0,79.4 414.3,78.5 418.6,77.8 410.2,76.5 409.5,76.1 410.1,75.7 420.3,74.6 426.7,76.4 429.5,76.2 428.1,74.8 431.2,74.0 441.3,76.2 Z M 378.3,75.1 381.3,74.9 388.2,76.6 383.8,77.6 375.0,77.5 372.7,74.8 377.8,74.2 379.0,74.5 378.3,75.1 Z M 396.2,80.7 398.4,81.5 392.7,83.1 385.4,83.2 388.1,81.7 380.9,82.0 378.7,81.5 380.5,80.5 374.5,79.8 375.1,79.1 378.4,78.7 391.2,77.8 392.7,78.1 393.6,79.9 396.2,80.7 Z M 626.9,81.6 627.1,82.2 624.0,82.6 620.6,82.0 627.5,79.4 629.1,79.8 626.9,81.6 Z M 472.9,83.4 470.7,83.2 469.2,81.6 473.2,81.0 475.2,83.0 472.9,83.4 Z M 457.5,85.8 453.6,85.9 449.7,87.2 448.1,86.2 454.6,84.3 458.6,85.3 457.5,85.8 Z M 482.7,90.6 483.5,92.3 482.4,94.1 472.8,94.5 459.6,92.5 452.3,90.5 458.7,86.4 469.4,84.6 473.9,84.9 479.1,86.6 483.2,89.5 482.7,90.6 Z M 377.4,90.5 369.7,89.4 373.8,86.7 377.8,86.6 380.5,87.4 382.1,89.2 377.4,90.5 Z M 465.2,95.8 459.7,95.0 463.1,94.5 465.2,95.8 Z M 444.7,95.6 440.8,95.7 444.1,94.6 445.4,95.1 444.7,95.6 Z M 486.4,99.2 495.9,101.1 507.2,100.7 513.4,101.7 514.2,102.5 505.6,107.7 502.5,108.4 503.8,108.8 503.5,109.3 496.9,113.2 476.1,113.2 480.5,114.1 482.8,115.7 477.8,120.4 466.3,120.4 465.7,115.7 462.2,111.9 461.9,103.8 464.4,103.2 471.2,104.2 466.9,102.0 467.0,101.0 468.5,100.4 486.4,99.2 Z M 435.6,102.1 428.6,102.7 424.2,101.8 440.3,99.7 441.7,100.1 440.8,100.7 435.6,102.1 Z M 418.4,101.3 426.8,103.5 441.6,101.9 447.2,102.9 448.3,104.1 442.1,105.8 444.8,106.0 446.0,106.6 445.6,106.9 440.4,107.9 434.6,110.3 434.0,111.2 441.9,110.5 445.0,111.4 444.5,112.1 447.5,113.1 447.0,114.5 452.8,113.8 453.8,115.2 453.5,116.4 450.3,117.5 452.3,118.7 450.6,120.3 452.0,121.0 452.1,122.4 442.5,124.4 436.5,124.1 435.5,123.6 435.1,122.2 433.8,123.0 436.3,126.3 431.7,127.7 426.7,127.0 421.0,123.1 412.5,119.2 406.4,117.6 401.2,117.6 398.7,115.9 391.9,113.6 391.4,112.9 393.0,111.0 396.5,110.0 399.3,110.2 405.7,113.5 413.6,113.0 414.5,111.0 417.1,111.7 417.4,111.1 416.1,109.8 413.1,109.4 413.1,108.8 415.0,108.1 420.1,108.6 414.8,107.2 409.5,108.0 403.2,105.9 408.7,104.8 413.2,106.3 412.4,105.0 408.9,103.9 408.8,102.9 413.6,102.4 418.5,102.8 419.3,102.3 416.1,101.9 418.4,101.3 Z M 552.0,130.6 561.4,129.2 566.9,129.2 567.8,129.3 567.2,129.9 567.9,130.4 569.6,130.4 571.2,125.6 570.8,124.4 564.4,123.7 558.7,120.9 564.6,118.4 574.9,120.3 569.4,117.7 571.6,117.0 564.4,116.5 561.7,114.7 561.3,113.5 562.1,112.2 565.2,111.2 575.2,112.8 563.3,109.7 567.6,107.4 573.6,106.2 579.9,106.6 578.7,105.5 583.6,104.5 591.1,103.5 601.6,103.8 604.2,104.8 606.1,107.6 611.6,109.6 611.7,111.5 614.9,113.1 605.4,117.6 611.5,116.2 608.2,118.6 610.7,119.7 608.4,120.0 608.4,121.6 615.8,118.6 618.8,119.0 616.5,117.4 619.3,116.3 621.8,117.6 624.4,116.8 627.6,118.0 627.5,120.3 631.7,121.9 628.9,119.7 629.4,118.1 630.6,117.2 642.4,119.0 634.7,117.1 632.7,116.0 633.3,115.0 640.0,113.5 648.6,113.5 655.6,115.0 660.4,115.0 666.2,117.0 666.9,118.5 662.0,120.6 658.2,123.5 661.4,121.5 665.9,120.1 674.7,120.3 675.3,121.3 674.2,122.3 665.4,123.6 670.4,124.0 669.1,125.0 669.0,126.6 667.5,128.5 669.8,127.3 672.5,124.2 678.7,123.0 680.2,123.5 675.4,126.7 680.2,124.8 685.5,127.9 684.6,125.3 688.3,123.9 700.9,125.5 704.7,127.1 705.1,128.3 702.3,129.6 697.9,129.7 691.0,132.4 694.2,132.4 697.2,130.5 699.9,130.2 703.6,130.9 709.0,129.6 710.5,130.2 710.9,131.7 709.6,132.8 698.4,136.3 700.0,136.7 703.0,135.1 704.5,135.7 703.0,139.4 707.5,134.9 711.6,133.3 717.7,132.2 725.5,133.0 732.7,134.7 733.5,135.9 729.2,137.4 720.2,138.8 716.6,140.2 729.4,138.6 729.9,139.2 727.1,140.9 729.7,141.2 734.8,139.5 733.9,138.8 736.6,137.5 743.5,140.3 745.4,142.6 744.5,143.4 736.9,142.9 733.4,144.2 724.7,145.5 732.0,144.9 738.1,146.0 744.7,146.0 750.2,147.8 750.3,148.7 749.1,149.1 737.8,148.1 726.8,149.6 733.0,148.9 738.8,149.9 739.6,150.2 739.6,151.3 738.3,152.8 724.0,152.0 735.0,153.6 737.8,155.3 749.7,156.0 746.8,157.3 748.8,158.4 747.9,159.9 749.8,159.3 750.5,160.2 750.8,158.5 754.9,157.8 754.3,160.2 751.8,162.0 752.6,162.2 757.6,159.9 757.3,161.0 758.4,161.3 762.0,160.9 761.6,162.9 763.0,163.8 762.9,161.8 767.8,160.2 768.7,160.7 766.8,161.6 766.8,162.7 770.6,162.2 778.5,164.9 776.2,165.6 776.9,167.1 770.0,167.0 773.4,168.0 778.6,167.9 781.1,166.8 786.5,168.2 784.4,170.3 780.0,172.3 787.3,171.0 793.1,171.5 795.7,170.1 803.9,174.0 801.6,174.9 797.9,173.7 795.7,174.1 800.4,175.5 801.1,176.4 798.3,177.4 791.4,176.4 792.9,177.3 791.6,178.2 797.0,180.1 790.7,180.3 793.1,182.1 790.3,184.1 785.3,183.9 782.4,181.9 782.8,183.4 780.5,183.9 783.6,184.3 783.3,188.2 780.9,191.2 778.0,189.4 775.5,189.8 773.5,188.7 774.3,186.5 771.5,189.3 765.9,185.8 763.0,182.8 765.2,181.1 768.5,180.3 772.5,177.3 770.5,177.6 767.0,179.7 758.8,180.5 758.1,180.3 758.5,179.6 760.5,178.4 756.4,179.2 752.3,177.7 749.2,175.0 747.2,174.2 747.4,175.0 746.3,175.3 744.0,174.8 745.2,176.2 744.9,177.4 738.3,175.8 740.1,177.8 745.3,180.1 743.6,181.2 738.9,180.8 732.6,178.0 729.7,178.5 735.0,179.7 734.6,181.1 735.3,181.8 738.5,182.7 737.8,184.8 741.4,184.0 745.9,186.1 743.8,187.0 746.4,188.0 747.4,189.6 748.8,189.7 750.1,192.3 750.7,190.4 754.8,191.9 754.1,192.7 754.9,193.2 757.7,191.6 762.7,193.2 764.3,194.1 761.8,195.4 765.2,195.3 766.3,196.1 764.9,197.4 761.2,197.5 763.6,198.1 765.5,199.5 765.3,200.1 770.2,200.1 769.0,201.2 771.2,201.4 772.9,203.3 771.4,203.6 771.9,207.7 770.4,207.9 767.7,204.4 765.1,202.8 767.0,207.0 766.3,207.7 770.3,211.1 765.4,211.0 766.6,213.3 765.9,214.1 754.8,209.3 754.8,210.5 752.9,210.1 750.5,207.7 750.7,209.6 750.1,209.7 746.9,207.2 744.5,207.0 738.2,203.1 739.5,206.2 732.2,203.1 728.1,203.4 735.7,208.7 740.4,209.4 739.8,210.3 750.6,214.3 754.3,217.3 757.3,218.2 755.7,219.3 756.5,221.2 753.8,221.6 742.7,218.8 730.8,217.5 725.9,216.1 721.2,212.7 714.9,212.7 706.2,210.3 707.8,209.2 703.8,209.7 697.4,206.2 701.1,205.9 703.5,204.6 698.9,203.1 694.4,203.1 695.6,201.5 692.3,202.2 690.5,200.2 682.8,196.4 684.6,194.6 678.3,194.6 677.9,195.8 676.7,196.2 676.1,194.4 672.8,194.0 670.6,192.1 668.2,192.8 671.0,194.9 670.5,195.5 660.3,195.2 659.8,196.5 648.9,198.0 639.9,196.8 637.1,195.4 635.6,193.8 636.6,191.1 638.8,189.7 643.9,188.5 642.9,186.9 644.2,185.9 659.2,188.2 662.2,189.9 661.5,191.4 662.9,192.0 663.9,190.4 659.5,187.5 665.8,187.6 667.6,186.6 672.5,186.7 677.5,185.3 681.9,185.6 679.9,182.8 674.6,180.4 673.2,178.8 687.0,173.2 689.4,170.2 693.7,169.2 695.1,168.0 690.1,162.4 684.1,157.9 684.5,157.0 680.9,157.6 679.2,156.9 678.6,156.3 679.5,154.8 679.2,153.7 676.2,153.6 677.5,155.1 674.7,155.2 670.9,153.5 670.4,152.5 668.5,152.5 670.0,151.5 667.9,151.0 670.2,150.2 668.9,149.9 665.3,151.5 662.2,151.1 655.1,153.3 651.6,153.6 651.9,150.5 657.9,150.3 661.0,148.5 659.6,147.4 652.8,145.9 652.3,144.7 655.1,144.0 652.3,143.8 650.1,144.9 646.6,144.3 648.9,142.9 641.6,142.2 639.8,138.3 634.7,138.4 626.9,134.6 623.5,136.7 628.2,137.7 629.8,139.6 629.4,140.5 622.4,141.8 602.1,139.5 601.2,139.7 608.4,142.1 609.2,142.9 608.4,143.3 602.0,141.2 594.8,142.3 586.2,140.6 579.2,141.0 563.5,139.5 560.0,140.3 554.6,139.2 552.9,137.2 553.9,136.0 550.8,136.8 546.7,136.5 547.3,137.4 539.5,138.2 529.5,135.4 525.9,133.1 523.4,130.1 539.5,131.2 546.5,130.6 539.2,128.6 527.2,127.8 519.5,125.8 517.8,121.2 521.4,119.0 519.4,118.2 519.4,116.6 524.4,112.7 525.7,109.7 530.4,107.7 530.9,106.7 540.7,103.6 553.8,102.2 567.7,103.0 568.1,103.8 557.0,108.2 551.6,112.0 551.2,113.1 554.6,116.1 554.5,119.5 555.7,121.7 567.6,127.2 552.0,130.6 Z M 622.2,104.2 634.7,104.1 645.4,105.8 654.6,110.0 654.4,110.8 656.6,111.9 653.5,112.5 634.4,111.9 624.4,113.2 619.4,112.5 617.9,111.8 615.8,108.5 609.9,107.4 609.4,106.5 610.3,106.0 609.1,104.9 609.2,103.6 613.5,103.1 622.2,104.2 Z M 365.7,111.6 357.9,108.8 356.8,107.7 349.2,105.7 352.5,103.8 363.5,103.1 372.1,104.6 373.0,105.4 372.4,107.7 365.7,111.6 Z M 450.5,111.4 447.4,110.8 447.6,109.5 449.7,108.9 452.3,110.0 450.5,111.4 Z M 415.3,135.7 412.2,135.2 411.6,134.2 415.7,134.7 415.3,135.7 Z M 548.8,139.5 552.2,139.9 552.7,140.5 550.5,140.9 544.7,139.8 548.8,139.5 Z M 443.9,144.2 445.9,143.9 455.3,147.2 460.7,151.6 465.5,152.3 452.3,156.0 443.6,155.1 436.0,153.2 435.1,152.2 431.3,152.6 429.3,151.3 427.5,152.0 424.0,151.4 422.7,150.3 423.8,149.3 429.2,148.9 433.8,147.3 432.8,146.0 433.9,145.8 432.9,144.9 437.9,146.1 435.4,144.3 436.3,142.7 440.4,142.0 444.2,143.2 443.9,144.2 Z M 623.3,142.8 623.9,143.5 622.1,144.3 617.1,144.3 617.8,145.5 609.7,143.7 613.4,142.7 616.4,143.3 623.3,142.8 Z M 637.2,143.5 637.8,144.2 637.1,144.5 629.1,145.8 631.8,144.2 637.2,143.5 Z M 738.0,145.2 734.9,144.5 738.8,143.9 739.6,144.3 738.0,145.2 Z M 463.1,144.9 464.4,145.6 463.3,147.1 460.9,147.1 461.6,146.2 460.6,145.0 459.3,147.1 458.4,146.7 459.5,144.6 463.1,144.9 Z M 406.7,146.6 405.8,146.7 406.4,145.8 404.9,145.0 408.1,145.7 406.7,146.6 Z M 647.5,149.2 644.3,148.7 644.1,146.6 650.6,146.8 647.5,149.2 Z M 516.0,146.4 516.2,147.0 515.1,148.0 513.1,146.9 516.0,146.4 Z M 625.5,152.1 624.0,152.0 623.7,151.2 630.9,148.0 631.1,147.1 634.2,146.8 635.3,147.6 629.0,151.4 625.5,152.1 Z M 513.1,148.4 510.4,147.3 512.0,146.9 513.1,148.4 Z M 418.5,150.5 418.2,151.1 417.0,150.9 415.9,150.1 416.9,149.3 418.5,150.5 Z M 416.2,152.5 414.4,153.4 412.5,152.9 412.3,150.7 415.1,150.6 416.6,151.6 416.2,152.5 Z M 400.0,154.7 395.4,153.8 398.3,152.3 400.2,152.6 401.3,153.4 400.0,154.7 Z M 668.6,157.1 664.3,155.8 663.5,154.7 664.6,153.7 667.6,154.1 669.4,156.0 668.6,157.1 Z M 373.2,156.5 368.1,155.0 372.6,155.0 374.1,155.9 373.2,156.5 Z M 627.7,158.6 625.8,158.2 626.0,157.2 628.9,157.5 629.3,157.9 627.7,158.6 Z M 660.7,157.4 666.6,158.8 666.5,164.2 665.4,166.0 659.6,167.7 650.5,168.2 647.4,167.9 645.3,165.5 644.4,163.5 645.2,162.1 650.1,158.3 653.8,157.4 660.7,157.4 Z"><title>Nunavut</title></path>
<path class="on" d="M 466.7,346.1 466.7,311.7 482.0,302.5 504.3,286.9 528.5,271.6 537.2,275.4 543.1,279.9 561.1,284.1 565.6,286.6 564.2,289.3 567.2,287.2 578.7,286.9 587.9,287.7 593.8,289.4 595.5,291.9 593.5,297.6 596.3,301.8 596.1,307.3 594.8,309.7 601.7,315.6 601.6,316.7 599.4,317.7 603.0,317.9 611.1,322.3 613.2,326.0 609.1,328.6 612.9,326.8 615.0,326.7 619.2,328.2 622.4,330.7 622.0,364.9 623.9,369.5 629.8,375.8 640.7,377.8 647.2,381.6 649.3,380.9 651.9,384.3 658.4,385.5 668.8,383.3 671.6,383.4 673.4,384.0 672.6,386.5 674.0,387.5 670.3,389.6 665.6,390.7 656.0,396.6 649.3,403.3 629.1,403.8 625.9,404.9 627.3,409.4 628.4,410.5 627.2,411.5 615.1,415.9 604.9,417.5 593.3,422.8 590.8,422.8 587.4,421.2 586.3,419.8 586.2,418.1 587.0,416.5 592.3,413.3 593.6,408.9 596.3,403.9 592.2,386.2 581.8,381.5 583.1,379.8 581.6,378.5 578.0,378.9 576.9,377.4 576.3,374.3 572.2,375.1 570.0,373.3 569.0,370.7 534.2,356.8 523.4,359.8 519.0,359.8 517.1,358.6 510.6,358.7 508.9,357.7 502.9,359.2 498.0,356.8 494.0,357.0 493.1,355.4 488.2,353.7 484.4,353.6 481.1,354.5 472.0,352.4 470.2,349.8 469.7,346.8 466.7,346.1 Z M 622.4,330.2 620.2,328.0 622.4,324.5 622.4,330.2 Z"><title>Ontario</title></path>
<path class="pe" d="M 778.9,375.0 780.2,374.1 785.7,375.5 795.3,374.8 796.7,375.5 791.7,377.7 791.5,379.4 792.1,379.7 791.6,379.9 788.9,380.0 786.7,379.0 788.0,378.5 786.4,377.5 787.2,376.5 784.2,377.7 785.4,377.8 784.8,378.1 780.6,377.4 779.0,376.0 779.4,375.7 775.9,375.5 775.6,373.7 773.1,373.3 773.5,372.0 777.0,369.1 777.2,370.6 776.1,372.0 778.9,375.0 Z"><title>Prince Edward Island</title></path>
<path class="qc" d="M 750.0,359.6 747.6,360.8 743.5,361.2 741.0,359.8 736.0,359.8 736.0,360.5 733.4,360.5 733.4,363.9 732.2,365.0 726.6,366.8 726.7,365.5 724.8,365.1 717.1,372.6 716.6,375.3 714.7,377.2 714.3,380.6 710.2,384.2 710.4,385.4 708.3,387.0 707.3,386.3 705.9,387.0 704.0,386.8 702.1,389.6 670.3,389.6 681.8,385.4 685.7,379.6 696.2,374.2 712.0,369.4 722.5,360.1 734.8,353.5 755.3,347.7 763.1,347.2 771.3,348.8 774.8,351.1 774.9,351.7 771.9,351.4 774.5,352.9 773.5,355.6 770.7,356.2 768.8,357.8 764.4,359.6 757.8,357.9 756.2,358.8 752.6,358.6 750.0,359.6 Z M 770.9,237.2 768.6,237.8 770.8,238.8 768.1,239.9 770.4,241.0 769.1,242.1 768.8,244.8 769.9,245.6 773.1,245.1 772.0,246.2 771.8,248.0 773.8,250.0 769.3,249.7 768.5,250.7 774.1,251.5 775.1,252.5 779.7,251.6 782.0,252.7 776.3,253.8 776.4,254.6 778.2,254.6 778.5,255.6 773.1,258.7 776.5,262.3 781.0,262.9 779.4,264.6 779.4,267.9 777.9,271.2 775.8,273.0 777.7,275.4 775.6,276.2 775.8,277.1 778.0,278.0 776.9,279.1 781.2,279.8 780.0,281.5 782.8,284.1 785.4,284.9 785.8,286.7 781.6,288.7 782.2,290.4 780.0,293.9 773.6,292.8 760.3,292.6 749.4,286.8 750.6,292.1 749.8,292.6 743.0,289.3 745.6,293.9 744.3,294.8 741.1,294.5 742.0,297.7 739.5,299.4 742.4,302.0 742.4,303.9 745.5,304.6 747.7,306.4 746.4,312.4 750.2,312.7 750.9,310.7 752.8,309.9 754.1,311.0 752.8,313.4 753.1,315.8 752.5,317.0 753.0,318.1 753.6,318.4 754.3,316.9 758.2,319.4 761.2,319.2 762.5,317.9 765.7,318.4 770.7,321.7 770.0,322.5 771.0,323.9 774.1,322.6 773.7,321.5 774.3,319.1 775.7,318.1 775.2,311.8 777.2,311.0 777.9,309.2 779.7,308.9 781.4,310.3 781.5,312.2 782.9,313.1 778.0,314.1 776.4,315.1 779.3,317.0 780.3,319.3 779.4,319.8 845.7,319.9 845.7,325.5 842.1,325.2 835.9,326.8 831.7,327.0 825.1,332.1 816.0,337.3 808.8,337.4 799.6,338.8 797.7,337.5 789.8,336.8 784.6,337.4 764.3,336.7 752.1,337.7 747.7,339.9 743.4,346.3 734.3,347.9 734.9,348.3 727.9,351.5 720.5,357.8 707.1,355.2 718.6,358.1 719.5,358.8 717.3,362.4 712.8,365.5 710.2,368.3 704.6,371.8 695.3,374.1 690.5,376.8 687.5,377.6 682.6,382.3 680.2,382.6 677.0,384.7 674.2,384.4 677.4,385.3 677.6,386.2 674.0,387.5 672.6,386.5 673.4,384.0 671.6,383.4 668.8,383.3 658.4,385.5 656.2,384.6 653.3,384.7 650.8,383.3 649.3,380.9 647.2,381.6 640.7,377.8 632.9,376.6 628.5,374.9 623.9,369.5 622.0,364.9 622.4,330.7 624.1,332.3 622.4,330.2 622.4,324.5 624.6,323.7 627.2,325.3 628.5,327.9 629.0,326.1 630.3,324.9 627.8,322.2 633.1,317.3 632.0,315.0 630.1,313.4 630.3,311.4 628.6,309.5 626.6,303.4 627.2,301.8 628.1,301.7 626.8,300.7 627.6,300.0 625.2,299.0 626.1,298.3 624.0,297.4 620.5,293.3 632.8,289.9 639.8,287.2 649.9,280.1 651.4,278.1 652.2,275.1 651.8,268.3 648.6,262.6 645.9,260.0 632.4,253.4 633.2,251.2 639.9,246.4 638.9,245.5 640.3,243.5 644.0,244.4 642.7,243.4 644.2,242.3 643.8,241.0 644.6,240.0 641.7,239.4 643.0,238.8 640.7,236.0 642.5,234.8 639.6,233.9 641.5,232.0 635.7,232.1 639.9,228.7 640.2,225.9 642.4,224.7 637.3,222.0 636.2,219.3 636.5,217.2 643.8,214.6 659.3,217.2 660.7,217.8 659.6,218.5 664.0,217.2 671.1,219.2 670.9,218.2 680.3,215.6 688.5,219.1 690.5,219.1 691.0,220.1 689.6,221.9 692.3,221.1 695.0,222.0 696.9,223.5 695.1,224.4 698.6,223.4 700.9,224.1 698.7,225.9 700.8,226.2 699.9,226.9 703.0,228.7 714.4,229.6 717.3,231.7 720.1,231.1 721.0,229.8 722.2,229.9 723.1,231.8 720.8,233.4 719.7,235.4 719.8,236.9 720.9,238.3 720.5,239.5 710.7,240.0 719.9,241.1 721.4,243.5 720.3,245.3 720.4,246.8 723.8,247.2 721.9,251.5 720.7,252.0 719.4,250.7 715.7,252.6 719.3,253.3 724.5,251.4 730.2,251.2 733.3,252.8 734.9,255.3 733.6,258.5 726.8,261.1 733.0,259.7 735.4,256.2 736.9,255.3 738.3,257.2 736.5,258.8 739.6,256.1 740.3,260.3 741.4,258.0 749.9,255.3 753.5,252.3 756.2,253.6 757.0,255.9 757.8,254.5 756.6,252.0 758.5,251.7 757.9,251.1 760.0,250.5 759.8,250.0 763.2,249.6 761.0,249.1 760.1,248.1 761.0,248.1 761.9,246.7 762.9,247.1 762.3,245.5 766.6,246.3 763.0,244.8 762.2,243.7 762.7,242.5 764.1,242.1 766.5,242.7 765.3,241.2 767.7,237.7 768.8,237.0 770.9,237.2 Z M 798.9,348.9 794.7,349.0 786.5,347.6 781.3,345.8 779.2,343.8 772.2,341.0 775.7,340.4 788.4,342.8 798.7,347.0 799.9,348.4 798.9,348.9 Z M 797.8,366.9 799.2,367.1 796.8,367.4 797.7,365.5 801.4,363.4 802.9,363.4 797.8,366.9 Z M 707.0,371.0 706.3,370.7 709.0,369.8 707.0,371.0 Z M 681.7,385.0 677.8,385.3 682.6,382.6 681.7,385.0 Z M 680.4,383.8 678.8,383.9 681.6,382.7 680.4,383.8 Z"><title>Quebec</title></path>
<path class="sk" d="M 318.8,349.9 318.8,240.2 398.5,240.2 398.5,281.9 404.8,349.9 318.8,349.9 Z"><title>Saskatchewan</title></path>
<path class="yt" d="M 181.2,240.2 29.4,240.2 28.1,239.4 29.2,236.8 23.2,237.0 20.2,238.4 15.5,237.3 14.7,238.1 10.0,237.3 10.0,144.1 28.1,145.5 41.2,149.7 55.4,151.6 55.4,163.1 58.1,165.4 58.8,167.5 57.7,168.7 58.1,170.4 79.2,170.5 81.8,172.3 82.1,174.0 83.4,174.9 81.7,177.2 83.9,177.6 84.0,178.7 83.0,179.5 83.5,180.7 90.3,180.2 90.0,181.1 90.7,181.3 93.5,180.2 96.3,180.7 94.1,181.9 97.7,184.5 92.0,188.4 96.2,189.9 93.8,192.5 98.6,193.4 102.4,195.1 101.7,196.5 106.1,195.8 108.6,196.4 112.0,200.5 118.4,202.5 116.6,203.4 118.5,203.4 121.1,205.5 118.3,207.6 121.3,209.5 123.5,209.8 122.4,212.0 124.7,214.4 127.7,215.4 126.6,216.1 127.0,218.8 131.4,219.7 133.9,219.2 141.4,224.1 147.8,225.7 149.3,227.9 148.5,229.6 150.0,229.8 150.9,232.6 156.5,232.4 157.8,231.6 159.4,232.2 160.4,231.4 166.2,232.4 170.6,231.7 171.3,230.7 173.5,230.8 174.3,232.4 173.4,233.7 175.3,235.3 177.1,235.7 179.2,239.8 181.2,240.2 Z M 29.5,144.9 27.0,144.6 29.2,144.2 31.1,144.7 29.5,144.9 Z"><title>Yukon</title></path>
</g>
</svg>