<svg viewBox="0 0 600.0 433.4" xmlns="http://www.w3.org/2000/svg" width="600.0" height="433.4">
<defs><style>.state{fill:#dde1e6}.state path{stroke:#fff;stroke-width:0.5}</style></defs>
<g class="state">
<path class="ag" d="M 528.12,254.79 L 524.98,255.34 L 524.38,253.40 L 525.91,251.78 L 528.78,253.39 L 528.12,254.79 Z M 527.44,242.48 L 525.33,241.99 L 524.84,239.51 L 527.39,240.50 L 527.44,242.48 Z"/>
<path class="ai" d="M 500.03,227.62 L 496.56,228.78 L 499.49,226.52 L 500.03,227.62 Z"/>
<path class="aw" d="M 349.25,358.46 L 345.60,356.33 L 346.28,354.83 L 349.25,358.46 Z"/>
<path class="bb" d="M 576.71,344.34 L 574.13,343.89 L 573.35,339.37 L 578.14,342.75 L 576.71,344.34 Z"/>
<path class="bl" d="M 503.73,235.56 L 502.81,234.51 L 503.73,235.56 Z"/>
<path class="bs" d="M 179.66,86.18 L 177.53,88.24 L 179.11,89.32 L 180.59,86.98 L 181.77,88.88 L 182.70,95.28 L 181.50,98.39 L 177.18,98.07 L 175.41,91.19 L 172.18,86.89 L 179.66,86.18 Z M 189.11,46.25 L 185.23,43.32 L 188.65,40.11 L 188.83,30.24 L 182.88,23.27 L 173.41,21.86 L 182.37,21.86 L 192.59,31.00 L 193.20,35.80 L 190.38,38.07 L 189.11,46.25 Z M 280.89,158.64 L 277.88,163.63 L 266.59,163.72 L 266.60,160.73 L 270.04,158.68 L 276.33,159.53 L 280.20,155.80 L 280.89,158.64 Z M 177.78,75.18 L 177.75,81.05 L 171.20,85.27 L 169.00,80.33 L 166.55,80.58 L 162.67,77.10 L 165.21,78.00 L 166.88,76.47 L 165.65,74.07 L 168.16,70.14 L 168.62,63.25 L 172.72,66.09 L 177.78,75.18 Z M 161.41,26.13 L 173.41,25.76 L 173.88,27.06 L 155.93,31.72 L 150.64,27.10 L 154.74,29.72 L 158.34,27.84 L 159.13,24.45 L 161.41,26.13 Z M 186.44,67.80 L 181.76,67.41 L 186.85,66.13 L 188.16,67.08 L 186.44,67.80 Z M 258.36,122.55 L 257.46,123.93 L 253.61,122.83 L 252.90,119.80 L 258.36,122.55 Z M 250.23,90.53 L 247.57,92.90 L 248.10,89.64 L 250.23,90.53 Z M 255.10,134.61 L 253.56,135.32 L 253.90,134.10 L 261.66,127.20 L 260.62,122.74 L 262.90,122.37 L 263.19,126.94 L 255.10,134.61 Z M 201.72,56.36 L 213.13,64.74 L 212.19,76.58 L 208.91,72.53 L 211.23,72.41 L 212.39,65.26 L 207.83,60.59 L 198.84,57.82 L 200.36,54.48 L 201.72,56.36 Z M 223.23,105.29 L 215.09,101.65 L 215.67,100.01 L 223.23,105.29 Z M 241.24,118.50 L 238.34,114.36 L 232.88,112.06 L 234.90,109.62 L 230.85,100.08 L 236.35,112.42 L 241.13,116.00 L 241.24,118.50 Z M 231.02,87.37 L 231.16,88.59 L 226.76,88.83 L 228.82,85.79 L 221.87,75.62 L 223.47,75.82 L 231.02,87.37 Z M 280.58,129.52 L 287.00,131.93 L 277.93,130.67 L 278.69,128.90 L 280.58,129.52 Z M 283.31,151.26 L 280.40,152.42 L 280.10,151.06 L 281.59,149.97 L 283.31,151.26 Z"/>
<path class="cu" d="M 88.30,112.12 L 100.87,112.27 L 103.45,114.69 L 114.26,113.54 L 120.49,117.34 L 132.39,118.68 L 131.73,120.09 L 144.30,130.03 L 157.18,130.99 L 180.12,144.43 L 183.17,144.64 L 181.29,142.26 L 183.17,142.68 L 190.89,148.04 L 186.04,148.77 L 188.51,151.81 L 191.88,149.33 L 197.62,153.78 L 196.94,155.40 L 200.03,154.73 L 214.29,160.02 L 221.96,160.55 L 224.73,163.27 L 223.27,165.53 L 224.70,166.95 L 221.58,167.55 L 221.92,169.82 L 240.32,171.32 L 248.40,177.53 L 255.95,179.68 L 256.26,182.56 L 254.09,184.63 L 245.74,185.13 L 235.21,188.77 L 234.44,186.29 L 231.41,188.97 L 212.44,186.72 L 178.41,189.84 L 181.94,184.57 L 191.77,176.99 L 189.02,171.48 L 169.64,168.72 L 161.46,161.89 L 159.58,153.44 L 156.28,149.24 L 142.51,149.42 L 123.41,142.67 L 117.86,136.74 L 117.56,138.15 L 105.83,137.92 L 102.55,133.33 L 100.39,137.07 L 88.04,134.61 L 83.05,130.50 L 91.08,127.92 L 91.25,125.67 L 88.27,123.76 L 68.62,123.36 L 54.59,134.39 L 43.20,135.64 L 40.36,140.99 L 30.05,144.93 L 30.07,141.30 L 22.71,143.71 L 21.86,142.15 L 33.90,137.90 L 33.14,130.71 L 40.05,123.91 L 57.26,116.76 L 82.53,111.47 L 88.30,112.12 Z M 179.42,140.79 L 173.96,137.58 L 180.19,138.38 L 179.42,140.79 Z M 171.59,132.92 L 166.20,129.65 L 168.89,129.46 L 171.59,132.92 Z M 158.41,126.61 L 164.51,126.93 L 165.98,128.90 L 160.21,128.70 L 157.46,127.64 L 158.41,126.61 Z M 174.82,136.64 L 171.27,134.90 L 172.20,132.60 L 174.82,136.64 Z M 72.47,149.74 L 63.77,152.80 L 58.87,149.22 L 63.47,149.25 L 61.09,144.57 L 63.08,141.00 L 69.13,142.24 L 72.47,149.74 Z M 142.68,123.96 L 136.59,120.61 L 142.68,123.96 Z"/>
<path class="cw" d="M 374.35,367.23 L 369.01,365.40 L 365.43,360.06 L 374.35,367.23 Z"/>
<path class="dm" d="M 537.62,295.48 L 535.57,295.97 L 533.76,286.77 L 537.71,289.19 L 537.62,295.48 Z"/>
<path class="do" d="M 308.40,231.82 L 308.54,224.87 L 303.32,218.96 L 308.95,215.84 L 307.55,209.97 L 311.08,205.89 L 308.87,203.06 L 309.64,198.41 L 308.16,193.03 L 313.00,188.92 L 320.03,190.01 L 326.19,188.48 L 342.81,194.89 L 347.99,194.11 L 352.74,202.75 L 361.80,202.09 L 363.83,203.38 L 361.85,205.02 L 355.66,204.89 L 355.28,206.95 L 375.80,211.87 L 383.35,218.64 L 375.74,227.78 L 370.33,223.33 L 362.91,222.60 L 352.06,222.51 L 343.05,226.93 L 336.56,227.72 L 332.96,224.99 L 324.58,226.44 L 315.60,241.09 L 311.38,237.92 L 308.40,231.82 Z"/>
<path class="gd" d="M 528.13,368.29 L 526.68,368.38 L 528.14,364.43 L 530.50,363.58 L 530.06,367.36 L 528.13,368.29 Z"/>
<path class="ht" d="M 308.16,193.03 L 309.64,198.41 L 308.87,203.06 L 311.08,205.89 L 307.55,209.97 L 308.95,215.84 L 303.32,218.96 L 308.54,224.87 L 308.40,231.82 L 302.02,227.46 L 284.17,229.23 L 273.06,226.94 L 265.14,228.35 L 262.13,231.76 L 249.56,223.68 L 251.15,218.34 L 254.64,217.46 L 286.08,222.72 L 289.82,220.04 L 295.11,219.50 L 295.73,217.18 L 285.60,208.02 L 287.13,206.63 L 287.96,199.46 L 280.32,195.53 L 272.81,194.41 L 271.89,192.94 L 274.58,189.86 L 284.17,188.16 L 298.53,192.42 L 308.16,193.03 Z M 285.75,214.81 L 285.36,216.44 L 279.77,214.50 L 275.43,210.73 L 279.96,211.24 L 285.75,214.81 Z M 288.82,185.61 L 282.34,185.03 L 288.82,185.61 Z"/>
<path class="jm" d="M 188.33,222.19 L 208.25,229.23 L 211.29,234.71 L 204.43,235.79 L 197.25,233.32 L 195.26,236.19 L 191.43,235.48 L 189.56,239.27 L 186.14,236.54 L 177.25,235.54 L 171.21,228.72 L 165.75,227.71 L 165.06,224.67 L 167.45,222.41 L 174.95,220.70 L 188.33,222.19 Z"/>
<path class="kn" d="M 510.28,252.85 L 508.26,252.68 L 508.47,251.09 L 510.28,252.85 Z M 508.13,250.15 L 503.84,246.80 L 508.13,250.15 Z"/>
<path class="lc" d="M 546.06,327.71 L 544.83,330.06 L 542.17,326.73 L 545.78,321.60 L 546.06,327.71 Z"/>
<path class="mf" d="M 499.81,231.14 L 497.37,231.14 L 499.81,231.14 Z"/>
<path class="ms" d="M 518.67,261.57 L 517.07,262.50 L 517.73,260.11 L 518.67,261.57 Z"/>
<path class="pr" d="M 431.65,222.48 L 442.60,223.95 L 442.77,227.15 L 435.12,233.31 L 408.32,232.85 L 408.85,227.56 L 406.85,224.33 L 409.16,221.23 L 431.65,222.48 Z M 447.04,230.29 L 443.83,229.56 L 448.34,229.02 L 449.89,229.65 L 447.04,230.29 Z M 393.55,231.34 L 392.28,230.07 L 394.18,230.17 L 393.55,231.34 Z"/>
<path class="sx" d="M 497.37,231.14 L 499.79,231.68 L 497.37,231.14 Z"/>
<path class="tc" d="M 310.73,145.18 L 306.66,143.34 L 310.58,143.58 L 310.73,145.18 Z M 305.96,143.41 L 303.10,140.82 L 304.83,140.79 L 305.96,143.41 Z M 296.06,143.15 L 300.18,144.54 L 296.00,145.35 L 296.06,143.15 Z"/>
<path class="tt" d="M 549.10,386.90 L 548.05,386.23 L 550.13,384.70 L 554.14,383.62 L 549.10,386.90 Z M 543.51,410.12 L 523.97,411.57 L 532.86,407.14 L 533.32,399.70 L 529.54,397.15 L 542.06,394.62 L 545.57,394.43 L 543.04,398.22 L 544.46,405.92 L 543.51,410.12 Z"/>
<path class="vc" d="M 539.96,342.63 L 537.71,341.48 L 537.90,339.72 L 540.74,338.12 L 539.96,342.63 Z M 538.83,346.30 L 539.38,345.00 L 538.83,346.30 Z"/>
<path class="vg" d="M 469.56,222.03 L 468.88,220.91 L 471.10,220.81 L 469.56,222.03 Z M 465.22,223.45 L 463.00,223.25 L 465.22,223.45 Z M 471.91,215.66 L 469.20,215.42 L 471.91,215.66 Z"/>
<path class="vi" d="M 459.73,225.13 L 455.82,224.26 L 459.73,225.13 Z M 463.78,224.57 L 460.98,224.87 L 463.78,224.57 Z M 461.46,237.44 L 465.51,238.46 L 458.76,239.57 L 458.86,237.95 L 461.46,237.44 Z"/>
</g>
</svg>