<svg viewBox="0 0 600.0 469.9" xmlns="http://www.w3.org/2000/svg" width="600.0" height="469.9">
<defs><style>.state{fill:#dde1e6}.state path{stroke:#fff;stroke-width:1.0}</style></defs>
<g class="state">
<path class="bz" d="M 133.69,44.76 L 134.73,38.63 L 146.97,38.84 L 159.88,18.70 L 173.95,28.58 L 165.41,91.06 L 143.69,119.98 L 130.84,119.83 L 133.69,44.76 Z M 178.98,40.43 L 182.41,31.42 L 178.98,40.43 Z M 182.64,60.15 L 179.75,65.63 L 182.64,60.15 Z"/>
<path class="cr" d="M 380.50,362.26 L 366.43,367.10 L 366.41,381.85 L 374.36,387.30 L 363.15,409.18 L 368.69,419.28 L 353.49,396.83 L 346.61,395.22 L 353.27,406.60 L 341.55,403.79 L 336.72,398.72 L 341.22,391.54 L 336.61,378.43 L 305.01,362.58 L 300.02,350.01 L 288.42,341.80 L 279.51,336.44 L 293.61,352.99 L 285.08,362.07 L 265.99,349.90 L 257.58,335.10 L 264.40,317.86 L 255.39,312.05 L 267.51,300.93 L 292.76,310.23 L 313.74,308.91 L 329.79,318.23 L 340.16,311.30 L 351.20,334.21 L 380.50,362.26 Z"/>
<path class="gt" d="M 18.70,172.13 L 24.70,151.67 L 19.86,143.89 L 37.36,112.99 L 85.59,112.89 L 86.72,100.49 L 49.59,66.69 L 65.17,66.83 L 65.31,44.70 L 133.69,44.76 L 130.84,119.83 L 154.56,124.90 L 154.92,117.66 L 168.59,126.26 L 133.36,153.00 L 133.30,169.75 L 118.27,178.13 L 119.26,183.88 L 98.76,203.34 L 50.79,193.56 L 18.70,172.13 Z"/>
<path class="hn" d="M 358.28,154.81 L 309.80,168.33 L 289.92,164.13 L 282.65,179.94 L 261.90,198.63 L 250.44,191.25 L 239.54,202.04 L 223.56,202.96 L 225.37,219.62 L 212.33,231.98 L 201.93,232.45 L 196.25,218.10 L 184.08,216.32 L 184.53,197.42 L 171.49,193.67 L 159.08,198.80 L 126.16,177.13 L 133.30,169.75 L 134.39,151.74 L 168.59,126.26 L 188.29,119.20 L 218.01,124.97 L 238.61,124.15 L 252.49,114.78 L 271.27,119.63 L 290.34,116.12 L 316.99,122.62 L 335.17,137.61 L 323.67,134.73 L 323.21,139.00 L 335.73,146.00 L 345.55,145.94 L 340.00,140.26 L 358.28,154.81 Z M 236.24,100.98 L 228.37,103.97 L 236.24,100.98 Z"/>
<path class="ni" d="M 358.28,154.81 L 348.70,161.30 L 357.15,180.06 L 342.95,219.35 L 345.06,254.21 L 341.98,242.66 L 335.96,250.76 L 338.72,269.04 L 333.17,275.29 L 339.80,283.65 L 331.71,296.71 L 340.16,311.30 L 337.51,316.30 L 320.47,316.51 L 313.74,308.91 L 292.76,310.23 L 267.51,300.93 L 261.52,305.78 L 189.57,235.36 L 192.66,229.99 L 199.97,234.70 L 216.08,229.59 L 225.37,219.62 L 224.51,202.30 L 239.54,202.04 L 250.44,191.25 L 261.90,198.63 L 282.65,179.94 L 289.92,164.13 L 309.80,168.33 L 358.28,154.81 Z"/>
<path class="pa" d="M 574.63,397.06 L 570.73,403.11 L 581.30,422.99 L 568.49,438.32 L 560.13,433.32 L 554.92,451.03 L 535.45,419.64 L 545.91,407.36 L 560.18,416.91 L 547.50,403.16 L 542.88,406.96 L 536.29,402.83 L 535.89,408.52 L 531.99,398.20 L 510.58,384.23 L 494.84,385.26 L 485.74,399.43 L 459.23,413.87 L 475.98,440.82 L 451.46,451.17 L 442.69,449.23 L 436.60,425.73 L 428.95,436.09 L 420.13,432.48 L 411.77,416.75 L 376.16,409.78 L 368.69,419.28 L 363.15,409.18 L 374.36,387.30 L 366.41,381.85 L 371.62,361.69 L 387.71,367.88 L 398.67,386.59 L 409.81,385.74 L 405.53,378.80 L 425.72,392.43 L 471.65,376.17 L 492.22,361.46 L 509.61,363.78 L 548.12,375.17 L 574.63,397.06 Z M 517.61,411.58 L 518.18,404.55 L 517.61,411.58 Z M 416.43,447.13 L 407.12,442.59 L 408.61,437.34 L 416.43,447.13 Z"/>
<path class="sv" d="M 126.16,177.13 L 159.08,198.80 L 171.49,193.67 L 187.18,199.31 L 183.84,220.70 L 170.38,225.36 L 151.49,220.84 L 157.98,224.59 L 98.76,203.34 L 119.26,183.88 L 118.27,178.13 L 126.16,177.13 Z"/>
</g>
</svg>