<svg viewBox="0 0 600.0 648.1" xmlns="http://www.w3.org/2000/svg" width="600.0" height="648.1">
<defs><style>.state{fill:#dde1e6}.state path{stroke:#fff;stroke-width:0.5}</style></defs>
<g class="state">
<path class="ad" d="M 176.92,472.16 L 173.79,472.62 L 173.73,470.83 L 175.73,469.82 L 176.92,472.16 Z"/>
<path class="al" d="M 381.53,494.91 L 381.28,491.12 L 382.91,491.04 L 381.31,488.30 L 384.96,482.38 L 386.12,485.02 L 389.24,483.68 L 395.01,489.19 L 395.70,503.38 L 398.75,508.61 L 401.45,508.79 L 402.99,513.12 L 399.14,521.48 L 395.11,523.99 L 396.19,526.72 L 394.22,529.25 L 391.65,528.54 L 389.46,523.37 L 382.69,518.02 L 384.34,517.94 L 382.62,513.94 L 383.84,509.59 L 383.12,501.84 L 384.50,498.34 L 384.37,496.02 L 381.53,494.91 Z"/>
<path class="at" d="M 272.68,409.55 L 273.24,405.84 L 275.36,404.99 L 279.60,409.93 L 282.58,405.86 L 288.76,408.70 L 300.95,405.75 L 301.26,404.22 L 306.23,405.16 L 309.59,408.24 L 310.08,405.50 L 308.47,404.41 L 309.13,401.80 L 307.20,398.86 L 307.81,397.55 L 313.69,394.59 L 314.92,391.18 L 317.36,391.85 L 318.35,388.37 L 320.72,390.96 L 327.32,391.07 L 329.70,388.40 L 330.43,384.83 L 349.83,389.20 L 349.77,394.13 L 352.86,399.98 L 352.16,404.65 L 345.40,405.33 L 348.13,407.42 L 345.72,409.60 L 346.03,415.48 L 341.56,418.33 L 340.75,420.94 L 329.35,422.13 L 325.65,425.34 L 303.51,420.62 L 300.20,416.39 L 300.45,414.11 L 290.56,415.32 L 287.00,418.34 L 281.06,414.62 L 278.62,416.54 L 272.98,412.91 L 272.68,409.55 Z"/>
<path class="ba" d="M 374.95,448.04 L 378.73,447.63 L 376.65,455.94 L 382.17,460.57 L 378.43,462.04 L 381.57,466.91 L 375.49,469.10 L 376.56,472.73 L 374.51,471.99 L 370.14,478.17 L 371.57,483.25 L 370.37,484.60 L 360.28,479.06 L 360.99,477.96 L 356.44,471.20 L 345.14,460.82 L 342.83,454.64 L 338.69,450.86 L 339.57,444.01 L 344.81,446.97 L 347.37,443.66 L 351.62,442.62 L 361.58,445.40 L 370.97,444.99 L 374.95,448.04 Z"/>
<path class="be" d="M 226.57,339.95 L 234.46,339.81 L 235.81,342.97 L 241.40,346.12 L 239.02,350.22 L 244.35,354.76 L 243.65,355.84 L 245.08,359.24 L 242.27,361.95 L 240.97,361.06 L 238.19,364.58 L 239.00,368.99 L 238.17,370.31 L 235.00,370.57 L 229.21,365.42 L 229.53,359.74 L 226.40,362.31 L 222.76,361.77 L 223.41,357.37 L 218.79,355.72 L 218.30,352.94 L 215.29,351.60 L 214.31,347.54 L 211.55,348.13 L 209.63,345.22 L 209.53,341.71 L 216.91,338.97 L 223.04,342.22 L 226.57,339.95 Z"/>
<path class="bg" d="M 482.40,481.04 L 477.00,482.79 L 473.17,480.69 L 466.24,483.91 L 463.44,488.33 L 460.93,488.58 L 462.09,493.84 L 459.78,495.38 L 452.04,497.63 L 442.39,493.99 L 424.32,499.68 L 424.64,493.23 L 422.25,489.46 L 415.98,485.05 L 417.86,482.84 L 416.54,476.62 L 419.22,475.68 L 421.79,470.58 L 415.80,466.00 L 413.94,459.07 L 416.92,454.53 L 420.82,456.62 L 419.24,458.85 L 420.01,460.56 L 449.34,459.35 L 456.59,452.90 L 465.88,448.83 L 483.73,452.38 L 483.43,458.09 L 479.68,458.69 L 477.97,462.35 L 478.75,469.19 L 474.92,474.39 L 482.40,481.04 Z"/>
<path class="by" d="M 488.77,318.09 L 482.51,319.94 L 480.11,323.37 L 479.03,328.36 L 480.77,331.80 L 480.24,333.36 L 475.91,330.92 L 468.50,333.98 L 465.44,330.72 L 462.51,334.36 L 456.81,332.69 L 452.58,335.51 L 452.22,334.09 L 448.42,334.36 L 446.55,332.25 L 433.29,331.69 L 419.92,334.47 L 416.81,339.19 L 414.12,338.74 L 413.38,340.76 L 412.85,332.66 L 407.90,329.40 L 413.94,321.12 L 407.78,303.60 L 415.43,303.37 L 424.87,295.80 L 425.62,297.78 L 427.77,297.50 L 425.56,295.09 L 426.97,285.66 L 434.14,278.95 L 431.20,278.35 L 431.57,273.17 L 435.11,270.02 L 439.70,269.72 L 443.36,263.58 L 449.72,265.58 L 451.50,263.98 L 454.68,264.66 L 456.39,268.34 L 462.30,264.54 L 468.97,267.45 L 469.04,271.62 L 471.36,275.17 L 470.71,279.57 L 474.34,281.26 L 474.13,283.43 L 478.06,287.24 L 482.38,288.85 L 482.54,292.32 L 489.17,292.58 L 489.89,294.74 L 492.49,296.12 L 488.64,302.33 L 481.71,302.31 L 480.89,305.35 L 484.59,308.59 L 486.29,315.31 L 488.77,318.09 Z"/>
<path class="ch" d="M 273.24,405.84 L 272.01,412.76 L 278.62,416.54 L 281.06,414.62 L 282.09,416.02 L 281.49,421.44 L 277.86,420.42 L 277.92,426.08 L 276.02,424.02 L 271.54,424.56 L 269.36,421.42 L 264.73,431.47 L 263.60,427.50 L 259.95,424.53 L 259.85,421.38 L 252.23,428.87 L 244.29,428.31 L 241.69,423.91 L 241.99,420.00 L 238.50,419.36 L 235.59,422.74 L 233.07,423.08 L 235.98,416.21 L 245.55,407.04 L 245.23,405.01 L 247.00,403.72 L 261.83,403.55 L 263.09,402.80 L 261.43,402.08 L 263.32,400.88 L 273.24,405.84 Z"/>
<path class="cz" d="M 369.15,375.87 L 362.55,380.14 L 361.92,383.16 L 358.70,386.04 L 352.35,386.99 L 350.59,390.81 L 346.31,387.84 L 341.34,388.58 L 330.43,384.83 L 329.70,388.40 L 327.32,391.07 L 322.16,391.35 L 307.06,378.02 L 304.30,372.87 L 305.61,370.49 L 301.64,364.03 L 303.43,365.97 L 306.24,362.78 L 310.14,362.70 L 316.31,358.22 L 324.32,355.33 L 323.50,353.29 L 326.06,353.86 L 327.79,356.65 L 330.33,355.54 L 330.44,353.56 L 340.42,359.74 L 343.89,359.53 L 342.47,362.63 L 346.83,367.53 L 350.26,365.35 L 349.09,362.43 L 354.47,364.95 L 357.29,364.03 L 356.65,367.02 L 366.14,370.29 L 369.15,375.87 Z"/>
<path class="de" d="M 269.55,403.06 L 263.32,400.88 L 261.43,402.08 L 263.10,403.02 L 261.57,403.59 L 252.55,402.48 L 253.97,394.02 L 260.54,381.90 L 253.88,378.44 L 246.67,377.51 L 243.27,372.53 L 245.34,367.37 L 242.04,363.28 L 243.06,360.30 L 245.08,359.24 L 243.65,355.84 L 244.35,354.76 L 242.28,352.10 L 243.11,349.79 L 241.51,347.63 L 244.37,346.15 L 245.61,341.58 L 243.90,335.85 L 251.65,335.10 L 251.79,332.47 L 254.90,329.92 L 255.00,327.55 L 252.28,325.50 L 253.00,323.96 L 255.47,324.25 L 257.59,319.30 L 257.93,310.11 L 259.77,308.38 L 266.40,308.91 L 267.62,311.33 L 266.97,312.44 L 268.20,312.91 L 269.24,310.50 L 270.42,313.91 L 272.23,306.59 L 277.55,307.34 L 282.48,312.40 L 275.56,306.08 L 275.36,300.85 L 273.04,300.12 L 276.17,296.60 L 274.10,290.74 L 282.45,292.17 L 285.88,295.24 L 284.28,298.26 L 291.90,301.19 L 294.50,300.36 L 294.28,303.43 L 292.39,304.97 L 293.30,306.26 L 297.64,307.28 L 304.27,304.11 L 308.64,299.63 L 312.70,300.62 L 316.40,304.91 L 318.91,304.77 L 320.12,309.44 L 323.70,311.40 L 325.03,319.65 L 322.34,324.59 L 326.91,330.06 L 326.28,332.67 L 328.14,336.99 L 326.68,340.86 L 330.66,349.86 L 328.21,356.60 L 323.86,353.16 L 324.32,355.33 L 316.31,358.22 L 310.14,362.70 L 306.24,362.78 L 303.43,365.97 L 301.64,364.03 L 305.61,370.49 L 304.30,372.87 L 307.06,378.02 L 318.35,388.37 L 317.36,391.85 L 314.92,391.18 L 313.69,394.59 L 307.22,398.37 L 309.13,401.80 L 308.47,404.41 L 310.08,405.50 L 309.59,408.24 L 306.23,405.16 L 301.26,404.22 L 300.95,405.75 L 288.76,408.70 L 282.58,405.86 L 279.60,409.93 L 277.62,406.25 L 269.16,401.28 L 269.55,403.06 Z M 318.84,301.20 L 318.79,302.78 L 315.67,303.26 L 313.89,301.38 L 314.09,298.59 L 316.36,296.24 L 318.42,298.45 L 317.70,299.92 L 318.84,301.20 Z M 323.30,307.98 L 320.68,309.05 L 319.84,305.18 L 323.30,307.98 Z M 296.96,299.89 L 294.56,299.01 L 296.96,299.89 Z M 270.71,292.24 L 271.97,288.12 L 271.52,290.56 L 273.72,290.89 L 270.71,292.24 Z M 273.10,293.62 L 271.43,293.44 L 273.10,293.62 Z"/>
<path class="dk" d="M 309.28,279.19 L 309.00,281.18 L 306.00,284.02 L 307.64,286.88 L 304.72,288.29 L 304.13,294.05 L 302.43,294.65 L 300.86,288.14 L 297.62,287.71 L 295.36,279.55 L 298.38,279.23 L 301.19,276.19 L 301.58,279.75 L 302.68,280.29 L 303.27,276.11 L 306.43,273.90 L 309.51,274.86 L 309.28,279.19 Z M 283.52,292.71 L 274.10,290.74 L 274.33,282.74 L 270.36,279.54 L 272.12,263.99 L 276.30,266.11 L 278.46,262.57 L 281.04,263.30 L 281.92,258.54 L 279.72,258.29 L 277.46,262.63 L 274.80,263.34 L 273.23,261.80 L 274.90,258.36 L 276.69,256.54 L 283.63,256.14 L 288.51,250.16 L 294.05,248.09 L 292.51,250.72 L 292.86,255.71 L 290.70,259.38 L 290.20,265.24 L 295.53,268.33 L 293.87,271.36 L 290.09,271.58 L 288.56,276.89 L 286.11,277.07 L 287.06,278.40 L 282.98,282.28 L 283.42,285.85 L 281.23,289.21 L 283.62,290.50 L 283.52,292.71 Z M 292.34,281.11 L 293.60,285.66 L 293.13,288.56 L 291.62,289.73 L 286.11,287.65 L 285.18,284.56 L 285.37,282.11 L 292.34,281.11 Z M 298.04,292.59 L 301.35,294.06 L 301.50,296.05 L 298.70,296.70 L 295.04,294.27 L 295.38,291.69 L 298.04,292.59 Z M 292.32,294.46 L 291.41,292.84 L 294.62,288.29 L 292.32,294.46 Z M 308.67,291.89 L 304.81,292.54 L 306.28,290.28 L 308.67,291.89 Z M 310.03,282.14 L 308.76,281.82 L 310.03,282.14 Z M 290.18,292.83 L 287.77,290.88 L 290.18,292.83 Z M 286.45,291.98 L 284.21,291.51 L 284.07,289.11 L 286.45,291.98 Z M 292.17,278.40 L 291.85,275.13 L 292.17,278.40 Z M 297.31,255.83 L 295.82,255.60 L 297.31,255.83 Z M 331.28,291.39 L 327.69,290.14 L 327.96,288.03 L 331.67,289.49 L 331.28,291.39 Z"/>
<path class="ee" d="M 433.15,243.59 L 425.78,244.56 L 421.20,240.66 L 414.93,238.29 L 407.45,242.11 L 408.15,234.43 L 404.96,236.23 L 401.96,235.12 L 399.32,230.77 L 400.45,228.61 L 399.03,228.74 L 398.21,226.78 L 398.21,222.46 L 402.69,220.40 L 402.29,219.18 L 404.66,217.30 L 412.91,215.38 L 413.15,213.49 L 425.06,214.58 L 433.08,212.63 L 434.47,214.12 L 432.76,215.97 L 431.78,220.83 L 426.53,223.29 L 435.72,237.72 L 433.98,239.15 L 433.15,243.59 Z M 392.19,232.16 L 398.19,234.16 L 390.86,238.63 L 388.23,243.36 L 389.45,239.75 L 386.79,238.32 L 387.44,236.32 L 386.28,234.70 L 392.19,232.16 Z M 394.31,228.70 L 391.47,231.15 L 390.14,228.58 L 387.17,227.62 L 391.68,224.91 L 393.92,226.17 L 394.98,228.52 L 394.31,228.70 Z M 398.18,232.60 L 395.81,231.92 L 397.91,231.09 L 398.18,232.60 Z"/>
<path class="es" d="M 164.34,531.61 L 162.10,530.55 L 164.34,531.61 Z M 186.31,517.43 L 189.89,519.51 L 184.15,524.96 L 180.28,520.41 L 177.67,520.99 L 176.37,519.24 L 183.73,515.09 L 187.39,514.86 L 186.31,517.43 Z M 200.29,518.82 L 195.43,516.20 L 195.52,514.53 L 199.93,515.70 L 200.29,518.82 Z M 163.25,527.40 L 160.51,527.11 L 162.57,524.64 L 165.80,525.15 L 163.25,527.40 Z M 140.46,449.84 L 144.12,453.40 L 143.19,456.47 L 144.86,455.82 L 157.63,465.30 L 165.26,466.88 L 166.48,464.63 L 173.41,468.48 L 173.79,472.62 L 176.92,472.16 L 179.71,475.00 L 187.29,476.64 L 193.96,476.32 L 194.69,478.72 L 192.56,480.39 L 193.12,483.97 L 177.78,491.84 L 164.83,493.01 L 160.35,495.98 L 162.12,497.96 L 158.30,498.93 L 143.74,513.63 L 143.67,521.07 L 147.60,526.86 L 137.29,531.86 L 131.77,539.61 L 132.44,542.04 L 124.68,541.43 L 120.16,543.24 L 112.00,551.37 L 83.61,544.95 L 78.87,547.17 L 72.30,546.68 L 68.64,550.47 L 64.83,551.18 L 60.39,547.11 L 58.24,538.90 L 61.61,535.27 L 59.01,535.86 L 55.43,527.21 L 48.33,526.62 L 50.59,518.09 L 58.68,512.96 L 56.86,512.49 L 55.39,507.38 L 62.39,499.58 L 59.03,488.38 L 66.22,488.40 L 68.22,485.31 L 67.34,482.59 L 70.74,480.75 L 72.56,470.26 L 83.14,464.88 L 80.07,461.61 L 80.48,457.28 L 74.75,454.83 L 71.16,456.12 L 62.69,453.69 L 62.30,452.17 L 63.97,450.69 L 63.06,448.40 L 55.48,449.32 L 56.02,446.53 L 59.05,444.76 L 57.73,444.12 L 59.33,442.56 L 59.61,438.84 L 56.94,438.69 L 59.16,436.05 L 56.73,432.23 L 58.38,429.52 L 68.42,429.27 L 70.41,426.91 L 77.34,426.16 L 83.22,431.53 L 96.84,434.24 L 110.33,441.89 L 120.86,443.08 L 126.45,446.94 L 140.46,449.84 Z M -119.18,615.70 L -121.94,618.66 L -126.20,619.34 L -127.12,612.70 L -114.95,614.02 L -119.18,615.70 Z M -80.25,623.27 L -82.47,623.09 L -81.03,621.07 L -74.72,619.67 L -76.41,623.15 L -80.25,623.27 Z M -91.69,631.95 L -96.18,631.26 L -91.86,631.02 L -85.49,624.77 L -83.30,625.13 L -87.46,632.22 L -91.69,631.95 Z M -108.22,625.05 L -111.05,630.01 L -114.40,629.46 L -115.55,626.53 L -111.99,623.21 L -108.22,625.05 Z M -133.18,615.73 L -134.36,613.37 L -132.84,612.50 L -131.44,614.90 L -133.18,615.73 Z M -144.19,614.35 L -146.71,616.18 L -148.20,613.26 L -144.19,614.35 Z M -138.36,604.36 L -138.59,599.28 L -137.00,598.45 L -135.22,601.58 L -138.36,604.36 Z"/>
<path class="fi" d="M 390.18,118.56 L 386.36,111.84 L 385.92,108.22 L 387.08,102.75 L 384.29,97.94 L 384.29,93.19 L 382.51,92.80 L 382.01,86.13 L 382.68,84.77 L 377.23,78.68 L 371.91,76.74 L 363.13,69.11 L 365.69,68.83 L 365.46,66.03 L 368.40,64.80 L 374.01,73.29 L 379.48,73.84 L 382.27,70.94 L 389.07,73.52 L 392.83,66.47 L 392.23,61.75 L 392.69,55.58 L 394.89,50.90 L 402.00,47.24 L 410.11,52.18 L 411.82,55.14 L 410.01,60.41 L 411.18,62.75 L 408.39,65.24 L 410.75,66.27 L 409.97,71.79 L 412.14,76.29 L 416.43,77.55 L 421.55,82.97 L 418.46,96.34 L 428.45,112.33 L 428.85,113.95 L 426.60,115.35 L 427.45,116.09 L 427.11,121.36 L 428.88,122.67 L 427.99,125.73 L 432.10,128.69 L 431.97,132.10 L 436.29,135.83 L 437.09,138.23 L 434.60,144.31 L 444.59,150.62 L 448.20,155.01 L 447.19,161.77 L 428.48,196.76 L 419.21,200.31 L 418.94,197.00 L 417.98,200.33 L 414.65,200.06 L 415.57,202.02 L 413.62,203.49 L 412.69,202.59 L 404.05,208.73 L 396.51,210.23 L 392.90,213.16 L 394.38,209.92 L 391.48,207.20 L 391.15,209.42 L 388.66,210.43 L 389.03,204.87 L 379.89,202.38 L 378.79,196.64 L 379.60,188.43 L 379.01,187.42 L 379.75,186.73 L 376.60,180.73 L 376.84,176.17 L 374.63,170.91 L 376.72,164.23 L 377.97,164.02 L 376.98,161.50 L 382.29,159.30 L 381.55,157.36 L 383.23,153.85 L 389.92,146.84 L 394.91,134.06 L 399.66,132.44 L 398.65,122.64 L 393.83,120.24 L 393.12,117.31 L 390.18,118.56 Z M 384.55,206.02 L 383.07,204.07 L 384.55,206.02 Z M 374.61,161.13 L 376.05,160.93 L 374.99,162.51 L 373.62,160.64 L 374.61,161.13 Z M 385.89,205.35 L 387.85,206.21 L 387.11,206.81 L 387.65,208.40 L 385.27,206.74 L 385.89,205.35 Z M 380.09,203.41 L 379.01,204.29 L 378.18,202.41 L 380.09,203.41 Z M 383.60,209.19 L 382.57,209.70 L 383.60,209.19 Z M 382.06,209.85 L 380.93,209.66 L 382.06,209.85 Z M 396.44,130.80 L 394.52,130.23 L 397.11,129.68 L 396.44,130.80 Z"/>
<path class="fo" d="M 172.50,161.60 L 171.08,159.63 L 172.50,161.60 Z M 170.26,166.85 L 169.48,163.48 L 170.26,166.85 Z M 170.10,155.35 L 170.64,156.62 L 169.68,156.86 L 168.46,154.81 L 170.10,155.35 Z M 174.41,155.25 L 173.61,157.22 L 172.43,156.42 L 172.46,159.20 L 170.91,153.20 L 174.41,155.25 Z M 176.13,155.28 L 174.92,155.78 L 175.54,153.50 L 176.13,155.28 Z"/>
<path class="fr" d="M 266.80,479.23 L 266.80,489.91 L 261.59,501.31 L 257.39,497.73 L 258.48,496.04 L 255.69,492.15 L 256.84,489.64 L 255.63,485.38 L 258.86,481.71 L 264.76,480.53 L 265.71,475.80 L 266.80,479.23 Z M 253.05,402.75 L 249.94,404.92 L 246.05,404.18 L 245.23,405.01 L 246.16,406.24 L 239.75,411.37 L 233.18,422.10 L 235.59,422.74 L 238.50,419.36 L 242.17,420.17 L 241.69,423.91 L 243.95,427.93 L 241.14,430.52 L 244.48,436.24 L 243.39,438.66 L 238.22,440.77 L 241.73,444.97 L 241.96,446.74 L 239.51,449.71 L 239.84,452.51 L 244.17,456.11 L 247.78,456.07 L 245.52,462.11 L 234.07,469.81 L 228.65,471.16 L 220.89,467.68 L 217.42,463.78 L 213.33,464.33 L 204.74,460.02 L 196.46,464.58 L 193.39,468.50 L 193.96,476.32 L 180.23,475.17 L 176.92,472.16 L 177.26,470.60 L 167.22,464.90 L 165.26,466.88 L 157.63,465.30 L 144.86,455.82 L 142.89,456.16 L 144.12,453.40 L 140.46,449.84 L 144.45,448.26 L 150.62,433.64 L 152.91,432.08 L 152.35,430.76 L 151.00,432.01 L 155.80,419.21 L 159.70,428.61 L 158.69,420.89 L 155.21,416.15 L 157.05,416.15 L 157.83,407.19 L 151.84,402.52 L 150.08,397.36 L 151.34,394.01 L 149.96,391.67 L 152.11,390.42 L 154.83,391.99 L 147.37,388.63 L 148.74,386.42 L 145.41,384.90 L 145.66,383.17 L 131.00,376.10 L 128.23,371.83 L 132.27,370.85 L 130.30,368.36 L 133.70,369.08 L 129.13,365.44 L 132.14,363.54 L 145.91,363.70 L 150.10,369.66 L 152.97,368.59 L 157.15,370.67 L 158.55,369.17 L 163.68,371.09 L 162.33,368.34 L 163.57,362.29 L 162.62,354.37 L 168.45,355.80 L 168.61,360.50 L 177.95,364.02 L 184.18,362.93 L 181.53,361.42 L 182.71,358.58 L 194.02,356.19 L 198.16,352.97 L 200.75,343.46 L 209.53,341.71 L 210.87,347.40 L 214.31,347.54 L 215.29,351.60 L 218.30,352.94 L 218.79,355.72 L 223.41,357.37 L 222.76,361.77 L 226.40,362.31 L 229.53,359.74 L 229.21,365.42 L 235.00,370.57 L 242.32,371.76 L 245.07,373.66 L 246.67,377.51 L 253.88,378.44 L 260.54,381.90 L 253.97,394.02 L 252.28,401.40 L 253.05,402.75 Z M 156.07,413.31 L 155.39,414.56 L 154.36,410.57 L 156.07,413.31 Z"/>
<path class="gb" d="M 162.05,323.23 L 155.30,325.23 L 152.87,324.21 L 150.52,320.73 L 147.23,320.19 L 148.94,319.20 L 146.53,317.23 L 141.27,317.60 L 139.04,312.86 L 151.13,309.08 L 153.55,306.28 L 153.97,300.39 L 148.27,300.57 L 153.41,296.55 L 158.59,295.34 L 164.38,297.62 L 164.30,295.45 L 165.32,295.20 L 167.70,297.67 L 165.66,293.90 L 169.96,284.37 L 167.15,284.44 L 165.14,276.91 L 167.07,274.07 L 171.48,272.33 L 167.02,271.26 L 162.84,272.81 L 155.70,269.78 L 154.23,271.89 L 153.02,268.83 L 153.25,266.83 L 154.26,267.08 L 159.67,260.34 L 158.69,256.87 L 160.22,253.59 L 162.29,254.02 L 160.59,251.73 L 161.41,250.23 L 156.80,253.26 L 157.50,250.60 L 160.09,248.64 L 155.96,250.91 L 151.75,259.86 L 149.84,259.73 L 154.00,253.84 L 153.05,253.39 L 155.71,247.09 L 160.77,240.35 L 155.98,242.61 L 152.88,238.66 L 156.76,237.64 L 155.92,236.58 L 159.81,232.38 L 158.58,229.65 L 161.03,227.65 L 160.27,225.45 L 162.30,222.60 L 165.88,223.65 L 164.67,220.24 L 166.00,217.89 L 168.70,218.28 L 169.94,213.71 L 185.60,216.87 L 183.12,221.28 L 175.50,225.09 L 174.70,226.59 L 175.99,227.48 L 172.78,230.49 L 180.07,230.31 L 191.22,234.67 L 191.43,236.93 L 182.42,248.14 L 174.65,250.54 L 178.32,250.94 L 179.53,253.55 L 172.89,255.47 L 169.59,253.50 L 182.66,259.93 L 185.63,265.96 L 186.22,279.91 L 194.37,291.03 L 192.98,292.26 L 194.52,299.13 L 187.93,295.88 L 191.11,297.08 L 195.05,303.58 L 195.27,306.40 L 191.63,309.67 L 193.46,311.59 L 196.52,309.72 L 201.04,310.75 L 206.30,316.21 L 205.99,319.44 L 203.14,324.93 L 199.74,326.11 L 198.83,328.58 L 194.50,328.89 L 195.75,329.78 L 195.32,331.56 L 190.58,332.27 L 199.67,335.70 L 198.98,338.43 L 194.03,341.51 L 186.27,342.51 L 171.20,337.05 L 171.71,338.38 L 169.71,339.08 L 164.72,338.24 L 164.23,340.08 L 155.45,336.07 L 151.27,336.33 L 147.08,341.53 L 142.77,337.89 L 137.25,338.01 L 132.44,340.71 L 127.67,339.12 L 127.71,337.81 L 136.71,333.93 L 146.10,326.01 L 156.05,328.40 L 162.05,323.23 Z M 154.78,294.08 L 155.55,295.21 L 152.43,296.45 L 151.74,292.19 L 154.78,294.08 Z M 191.82,208.85 L 193.17,208.12 L 191.82,208.85 Z M 207.97,192.11 L 207.36,190.52 L 208.31,188.87 L 208.95,189.57 L 207.97,192.11 Z M 206.06,191.29 L 207.65,193.15 L 203.80,201.34 L 204.83,197.17 L 202.47,194.55 L 204.83,194.29 L 203.93,191.48 L 205.90,190.09 L 206.06,191.29 Z M 211.00,188.01 L 209.51,189.51 L 209.94,187.80 L 211.00,188.01 Z M 185.35,214.24 L 184.01,212.03 L 185.35,214.24 Z M 186.99,215.51 L 186.47,214.07 L 187.58,214.27 L 186.99,215.51 Z M 187.10,210.90 L 189.12,212.60 L 185.58,212.19 L 184.69,210.96 L 185.54,208.86 L 187.10,210.90 Z M 190.26,209.18 L 188.29,206.47 L 190.26,209.18 Z M 148.40,239.44 L 149.78,238.56 L 148.40,239.44 Z M 155.82,260.09 L 154.05,259.05 L 154.53,256.19 L 156.19,256.28 L 155.82,260.09 Z M 154.12,245.10 L 149.47,244.51 L 151.80,242.03 L 150.68,240.40 L 152.80,239.81 L 154.91,242.96 L 154.12,245.10 Z M 149.36,250.37 L 148.46,254.53 L 146.42,254.73 L 147.23,252.16 L 145.27,252.91 L 146.64,250.78 L 149.36,250.37 Z M 150.16,252.50 L 149.66,251.08 L 153.55,248.59 L 150.16,252.50 Z M 159.81,214.01 L 155.78,217.18 L 156.47,218.56 L 151.01,221.28 L 150.31,220.02 L 152.61,218.95 L 151.41,217.27 L 152.67,214.09 L 154.88,215.33 L 155.01,213.54 L 160.14,211.84 L 159.81,214.01 Z M 152.81,234.63 L 151.81,233.46 L 152.81,234.63 Z M 156.34,226.92 L 155.55,229.79 L 159.01,231.82 L 155.85,234.25 L 155.86,231.71 L 153.54,230.99 L 151.13,226.33 L 155.38,224.00 L 156.34,226.92 Z M 148.72,221.65 L 149.35,222.77 L 148.20,223.92 L 145.89,222.05 L 148.72,221.65 Z M 145.67,229.94 L 144.69,229.37 L 145.66,225.59 L 146.76,226.10 L 145.67,229.94 Z M 143.62,231.72 L 142.63,231.29 L 143.62,231.72 Z M 140.27,277.49 L 136.38,276.77 L 134.90,270.65 L 130.88,273.81 L 128.49,272.87 L 125.37,266.78 L 129.40,265.80 L 128.57,263.84 L 131.97,263.82 L 136.33,259.95 L 146.13,260.97 L 147.86,267.97 L 145.69,270.17 L 148.33,270.60 L 148.59,273.31 L 147.07,272.06 L 146.40,276.35 L 141.83,278.57 L 140.27,277.49 Z M 173.83,340.95 L 171.70,342.07 L 168.98,340.20 L 171.75,339.14 L 173.83,340.95 Z"/>
<path class="gg" d="M 155.50,355.66 L 154.09,355.73 L 155.50,355.66 Z"/>
<path class="gr" d="M 496.04,566.28 L 494.93,565.60 L 496.04,566.28 Z M 400.76,549.07 L 403.02,553.91 L 397.75,552.56 L 400.03,547.66 L 400.76,549.07 Z M 404.97,558.01 L 406.43,559.45 L 404.27,560.33 L 401.51,557.49 L 402.32,556.23 L 404.97,558.01 Z M 401.40,545.40 L 399.79,545.95 L 401.20,541.65 L 401.40,545.40 Z M 402.66,549.78 L 400.78,547.51 L 402.66,549.78 Z M 392.89,532.87 L 390.48,532.58 L 387.26,527.92 L 390.66,527.58 L 389.80,529.33 L 392.89,532.87 Z M 434.64,536.51 L 436.26,538.65 L 444.03,540.34 L 446.75,546.90 L 450.49,547.57 L 450.95,549.57 L 448.21,549.96 L 443.47,544.58 L 438.53,544.34 L 432.92,539.24 L 428.25,539.02 L 432.57,535.59 L 434.64,536.51 Z M 438.82,533.50 L 436.36,532.29 L 438.82,533.50 Z M 440.06,532.65 L 440.86,530.79 L 440.06,532.65 Z M 450.45,536.91 L 448.85,537.45 L 447.76,534.51 L 450.45,536.91 Z M 447.77,508.28 L 444.55,507.56 L 446.75,505.68 L 447.77,508.28 Z M 438.27,552.70 L 436.61,552.81 L 438.27,552.70 Z M 435.17,581.16 L 433.26,580.87 L 433.48,578.20 L 435.17,581.16 Z M 490.29,585.15 L 488.56,583.27 L 489.93,579.38 L 490.29,585.15 Z M 484.23,561.73 L 482.23,559.98 L 484.23,561.73 Z M 483.96,565.56 L 488.69,562.43 L 483.96,565.56 Z M 465.51,564.56 L 462.93,563.27 L 464.71,560.97 L 465.51,564.56 Z M 461.88,563.46 L 459.76,564.30 L 461.14,562.26 L 461.88,563.46 Z M 466.05,573.84 L 464.69,574.59 L 464.92,572.69 L 466.05,573.84 Z M 464.10,569.55 L 462.35,568.43 L 464.10,569.55 Z M 479.51,548.65 L 482.66,549.78 L 476.70,550.54 L 479.51,548.65 Z M 470.27,554.72 L 473.95,551.78 L 470.27,554.72 Z M 469.92,566.78 L 472.26,564.59 L 469.92,566.78 Z M 478.10,568.84 L 475.77,569.84 L 478.10,568.84 Z M 449.09,556.98 L 448.05,556.72 L 449.16,555.26 L 449.09,556.98 Z M 450.59,560.54 L 450.26,558.47 L 450.59,560.54 Z M 453.09,569.63 L 450.64,571.71 L 453.09,569.63 Z M 456.67,557.30 L 456.50,558.99 L 456.67,557.30 Z M 456.69,552.99 L 452.60,550.29 L 455.93,550.75 L 456.69,552.99 Z M 460.37,555.06 L 459.25,556.10 L 456.94,554.29 L 460.37,555.06 Z M 455.12,566.79 L 454.40,565.27 L 455.12,566.79 Z M 469.38,543.69 L 466.81,543.68 L 467.77,541.75 L 465.44,538.54 L 469.40,538.46 L 469.38,543.69 Z M 470.49,525.55 L 473.46,529.60 L 472.11,531.05 L 467.42,530.04 L 469.15,527.89 L 466.95,529.88 L 463.91,528.67 L 467.40,525.33 L 470.49,525.55 Z M 459.08,509.68 L 456.11,509.21 L 459.08,509.68 Z M 457.13,517.08 L 456.56,519.98 L 452.90,519.79 L 452.52,517.48 L 457.13,517.08 Z M 462.64,557.65 L 461.34,556.71 L 462.64,557.65 Z M 452.17,563.89 L 450.99,563.04 L 452.17,563.89 Z M 497.61,576.23 L 495.89,576.08 L 495.29,572.68 L 501.12,567.31 L 500.36,573.50 L 497.61,576.23 Z M 446.80,590.43 L 450.77,588.95 L 450.23,590.64 L 453.72,592.42 L 471.75,590.05 L 473.10,593.55 L 479.54,589.39 L 478.27,594.46 L 460.50,598.46 L 455.58,595.43 L 443.94,595.32 L 443.10,590.89 L 445.05,588.69 L 446.80,590.43 Z M 463.44,488.33 L 466.77,489.64 L 467.79,492.67 L 464.75,495.78 L 465.63,499.51 L 463.34,503.84 L 450.86,501.77 L 447.47,504.44 L 443.53,503.53 L 439.30,507.66 L 435.44,507.76 L 437.33,512.79 L 441.66,513.69 L 443.60,516.32 L 438.00,513.66 L 435.83,514.40 L 439.14,517.43 L 439.19,519.81 L 435.28,516.16 L 432.33,515.87 L 432.69,518.20 L 435.90,520.32 L 432.47,520.24 L 431.05,516.78 L 425.72,514.45 L 425.70,511.41 L 422.35,513.29 L 422.67,520.58 L 433.16,533.21 L 431.17,534.62 L 430.97,532.14 L 427.94,531.70 L 427.74,533.91 L 430.20,535.75 L 424.36,539.13 L 442.79,546.52 L 445.03,555.36 L 437.45,551.04 L 431.90,554.21 L 438.42,560.53 L 434.47,562.71 L 428.57,560.00 L 436.07,576.86 L 429.76,571.96 L 426.58,577.45 L 421.23,569.05 L 419.69,569.83 L 419.27,573.95 L 417.10,572.12 L 414.79,568.82 L 415.56,563.81 L 407.83,556.38 L 410.91,551.21 L 417.59,548.58 L 430.30,553.10 L 429.80,551.66 L 433.28,549.94 L 423.25,546.13 L 411.59,549.15 L 409.59,546.66 L 407.93,549.08 L 402.08,541.09 L 406.30,540.39 L 406.20,538.26 L 402.04,538.95 L 395.75,534.35 L 391.65,528.54 L 394.70,528.82 L 396.19,526.72 L 395.11,523.99 L 399.14,521.48 L 402.99,513.12 L 401.89,509.60 L 409.16,508.66 L 413.74,504.06 L 419.69,503.65 L 422.33,502.41 L 422.77,499.92 L 437.38,495.09 L 442.75,493.98 L 446.17,496.66 L 452.04,497.63 L 459.78,495.38 L 462.09,493.84 L 460.73,488.96 L 463.44,488.33 Z"/>
<path class="hr" d="M 314.92,438.99 L 323.59,439.67 L 325.79,436.94 L 328.23,439.75 L 334.22,439.92 L 333.52,435.77 L 337.60,433.72 L 337.08,428.88 L 343.72,425.66 L 344.68,423.11 L 349.31,424.86 L 361.08,434.27 L 367.11,434.59 L 372.92,431.50 L 372.28,433.04 L 375.01,437.91 L 374.46,439.75 L 379.01,442.78 L 376.10,442.84 L 375.77,447.09 L 374.23,448.14 L 370.97,444.99 L 361.58,445.40 L 351.62,442.62 L 347.37,443.66 L 344.81,446.97 L 341.84,444.18 L 339.19,444.38 L 338.69,450.86 L 342.83,454.64 L 345.14,460.82 L 356.44,471.20 L 360.99,477.96 L 360.28,479.06 L 352.24,472.16 L 341.73,470.37 L 332.59,460.21 L 331.88,458.88 L 335.79,458.63 L 330.29,453.45 L 328.89,445.96 L 325.55,442.56 L 322.94,441.91 L 317.84,449.68 L 315.36,445.39 L 314.92,438.99 Z M 349.50,478.46 L 355.72,479.55 L 349.50,478.46 Z M 355.69,476.26 L 346.28,475.11 L 355.69,476.26 Z M 350.94,474.11 L 346.78,473.47 L 348.80,472.41 L 351.47,472.84 L 350.94,474.11 Z M 333.10,461.93 L 331.24,460.44 L 333.10,461.93 Z M 328.40,447.59 L 324.29,445.67 L 325.77,443.70 L 328.40,447.59 Z M 328.62,451.01 L 326.72,450.36 L 328.62,451.01 Z M 332.61,457.64 L 327.62,451.97 L 332.61,457.64 Z M 332.63,464.13 L 328.98,460.27 L 332.63,464.13 Z M 334.69,463.31 L 333.55,462.74 L 334.69,463.31 Z M 324.79,452.54 L 322.87,448.76 L 323.12,444.62 L 324.79,452.54 Z M 360.64,481.71 L 357.58,481.48 L 360.64,481.71 Z M 370.37,484.60 L 371.41,486.55 L 363.12,481.17 L 354.03,478.06 L 362.80,479.53 L 370.37,484.60 Z"/>
<path class="hu" d="M 404.05,390.43 L 411.09,394.32 L 412.48,396.71 L 404.06,404.52 L 399.92,417.45 L 395.65,425.06 L 387.21,427.82 L 380.36,427.34 L 367.96,434.33 L 362.80,434.52 L 355.57,431.25 L 346.79,423.61 L 344.19,418.09 L 342.16,418.03 L 345.95,415.72 L 345.72,409.60 L 348.13,407.42 L 345.40,405.33 L 352.16,404.65 L 352.86,399.98 L 359.40,403.43 L 369.45,402.71 L 369.98,399.35 L 378.43,395.38 L 381.87,396.35 L 385.67,393.75 L 387.01,390.04 L 396.84,388.82 L 399.91,391.75 L 404.05,390.43 Z"/>
<path class="ie" d="M 107.15,269.30 L 104.78,267.36 L 107.15,269.30 Z M 136.33,259.95 L 131.97,263.82 L 128.57,263.84 L 129.40,265.80 L 125.37,266.78 L 128.49,272.87 L 130.88,273.81 L 134.90,270.65 L 136.38,276.77 L 140.48,278.12 L 138.47,279.33 L 138.63,285.27 L 136.72,295.24 L 130.16,302.67 L 130.96,304.51 L 125.43,304.21 L 125.16,302.66 L 113.22,305.69 L 110.34,303.69 L 109.47,306.29 L 100.30,306.63 L 95.32,305.10 L 98.72,302.92 L 93.35,302.44 L 99.51,300.16 L 92.42,298.83 L 98.02,295.52 L 94.48,292.84 L 99.92,294.11 L 99.54,291.44 L 102.73,290.23 L 110.95,290.94 L 109.50,289.19 L 107.24,290.38 L 100.32,288.99 L 105.65,286.72 L 108.53,283.23 L 112.33,282.76 L 103.26,276.14 L 103.76,274.08 L 107.49,274.51 L 106.57,272.16 L 109.77,272.02 L 107.19,270.13 L 108.90,266.93 L 107.21,265.31 L 108.06,263.94 L 120.88,268.74 L 120.75,266.96 L 126.39,264.06 L 121.24,261.64 L 125.55,259.70 L 127.69,256.22 L 133.34,256.29 L 133.62,258.58 L 132.03,260.53 L 133.92,259.90 L 134.55,256.83 L 136.87,255.66 L 139.19,258.48 L 136.33,259.95 Z"/>
<path class="im" d="M 156.44,280.64 L 152.71,281.40 L 157.26,277.29 L 156.44,280.64 Z"/>
<path class="is" d="M 139.65,74.31 L 146.21,74.55 L 141.34,77.27 L 143.28,79.57 L 140.86,82.97 L 143.62,83.78 L 143.41,85.47 L 141.78,86.66 L 144.05,86.48 L 146.61,89.71 L 144.45,91.64 L 144.96,93.23 L 143.75,94.14 L 144.53,95.65 L 143.73,96.84 L 141.89,96.80 L 139.15,99.96 L 137.05,99.00 L 135.44,101.88 L 133.44,103.12 L 124.34,103.19 L 117.18,105.29 L 108.74,103.89 L 106.68,105.99 L 101.31,105.58 L 92.74,98.45 L 91.90,95.64 L 93.27,94.27 L 91.31,94.42 L 90.06,90.09 L 79.82,86.33 L 81.56,82.67 L 84.29,85.04 L 91.28,82.81 L 87.25,81.72 L 88.76,81.17 L 88.34,80.54 L 89.43,79.30 L 92.44,78.97 L 88.65,78.53 L 88.59,73.70 L 80.26,69.82 L 80.08,67.41 L 93.95,72.12 L 95.69,70.57 L 91.54,68.03 L 97.35,66.76 L 92.35,61.44 L 85.28,60.44 L 83.01,56.86 L 85.03,56.42 L 86.60,58.81 L 87.24,54.76 L 89.12,57.69 L 91.56,57.84 L 89.30,54.65 L 91.27,55.26 L 90.99,52.53 L 92.95,53.58 L 92.73,51.88 L 94.13,51.37 L 94.93,55.53 L 97.30,56.10 L 96.28,58.43 L 97.59,58.44 L 98.86,56.19 L 97.19,52.59 L 100.20,53.35 L 97.28,50.30 L 99.36,49.63 L 101.84,51.26 L 104.36,60.12 L 103.29,60.59 L 103.91,62.25 L 102.34,64.18 L 100.58,63.53 L 101.13,66.49 L 99.94,67.72 L 100.09,71.59 L 104.81,67.46 L 106.33,69.47 L 110.40,63.29 L 111.75,62.81 L 113.40,69.67 L 116.29,65.64 L 120.17,65.70 L 121.02,74.17 L 123.14,67.67 L 125.29,69.00 L 126.11,72.58 L 130.08,70.28 L 133.92,72.23 L 135.31,68.45 L 137.51,68.14 L 138.98,68.96 L 139.65,74.31 Z"/>
<path class="it" d="M 243.95,427.93 L 252.23,428.87 L 259.85,421.38 L 259.95,424.53 L 265.51,431.29 L 265.51,428.64 L 269.36,421.42 L 271.54,424.56 L 276.02,424.02 L 277.39,426.21 L 277.86,420.42 L 281.49,421.44 L 282.04,416.55 L 287.71,418.27 L 290.56,415.32 L 300.45,414.11 L 300.20,416.39 L 302.56,420.11 L 316.54,423.34 L 312.99,427.31 L 315.71,428.69 L 314.08,431.62 L 318.19,437.52 L 316.49,437.91 L 315.54,435.03 L 310.94,434.92 L 300.59,439.68 L 299.94,442.86 L 303.07,447.26 L 299.87,450.99 L 301.24,458.87 L 314.15,469.48 L 319.04,483.43 L 325.14,490.51 L 332.48,495.43 L 344.19,495.91 L 341.16,502.03 L 366.03,514.93 L 372.44,521.53 L 371.86,526.61 L 371.32,527.94 L 367.99,526.25 L 365.18,520.91 L 359.47,520.17 L 356.79,517.68 L 353.77,518.47 L 349.11,529.87 L 356.52,535.53 L 357.45,541.60 L 350.61,544.94 L 349.86,551.20 L 343.85,558.79 L 339.65,558.88 L 338.59,555.11 L 340.82,553.05 L 342.05,547.14 L 345.39,545.69 L 345.51,542.79 L 338.93,526.17 L 329.90,522.26 L 329.87,518.61 L 327.68,515.44 L 322.55,516.52 L 324.02,514.47 L 319.04,513.09 L 315.43,506.33 L 307.76,506.03 L 302.44,502.30 L 291.28,488.93 L 285.17,486.58 L 286.02,484.76 L 281.07,478.15 L 278.88,477.52 L 276.71,463.45 L 274.65,460.67 L 260.78,453.25 L 251.46,460.98 L 245.52,462.11 L 247.78,456.07 L 244.17,456.11 L 239.84,452.51 L 239.51,449.71 L 241.96,446.74 L 241.73,444.97 L 238.22,440.77 L 243.39,438.66 L 244.37,436.53 L 241.14,430.52 L 243.95,427.93 Z M 277.39,479.15 L 277.52,481.45 L 274.03,480.08 L 277.39,479.15 Z M 317.74,514.76 L 316.95,513.86 L 317.74,514.76 Z M 292.48,577.13 L 291.05,575.91 L 292.48,577.13 Z M 337.74,554.40 L 331.77,566.63 L 334.29,573.11 L 331.95,579.02 L 324.08,577.22 L 320.99,573.20 L 300.52,563.96 L 298.05,560.26 L 302.01,554.57 L 304.06,557.01 L 309.01,554.63 L 315.21,558.13 L 336.76,553.28 L 337.74,554.40 Z M 266.27,509.66 L 267.90,515.86 L 265.67,519.37 L 266.15,523.41 L 263.37,536.78 L 257.23,535.12 L 255.76,539.40 L 251.78,539.65 L 249.34,534.96 L 251.84,525.07 L 250.25,523.68 L 251.56,517.81 L 248.71,511.82 L 249.52,507.73 L 253.57,509.11 L 261.93,503.36 L 266.23,507.50 L 266.27,509.66 Z M 249.88,537.23 L 249.03,538.73 L 248.45,536.59 L 249.88,537.23 Z M 250.44,505.81 L 249.42,506.39 L 250.44,505.81 Z M 302.06,463.96 L 302.31,462.58 L 301.08,463.40 L 302.06,463.96 Z"/>
<path class="je" d="M 159.37,360.83 L 157.03,361.13 L 157.51,359.81 L 159.37,360.83 Z"/>
<path class="li" d="M 272.98,412.91 L 272.01,412.76 L 272.68,409.55 L 272.98,412.91 Z"/>
<path class="lt" d="M 383.11,285.21 L 384.04,279.88 L 383.11,285.21 Z M 400.57,297.91 L 399.49,294.81 L 400.22,289.92 L 397.63,287.26 L 385.57,285.23 L 382.85,272.91 L 387.74,268.66 L 398.07,266.33 L 408.97,267.10 L 414.81,264.02 L 417.22,266.99 L 422.51,267.72 L 431.57,273.17 L 431.20,278.35 L 434.14,278.95 L 426.97,285.66 L 425.56,295.09 L 427.52,295.92 L 427.19,297.84 L 425.62,297.78 L 424.87,295.80 L 419.89,298.83 L 419.33,301.57 L 408.49,303.82 L 406.27,299.70 L 400.57,297.91 Z"/>
<path class="lu" d="M 242.27,361.95 L 242.75,365.23 L 245.34,367.37 L 243.27,372.53 L 237.88,370.52 L 239.00,368.99 L 238.19,364.58 L 240.97,361.06 L 242.27,361.95 Z"/>
<path class="lv" d="M 431.57,273.17 L 422.51,267.72 L 417.22,266.99 L 414.81,264.02 L 408.97,267.10 L 391.30,266.88 L 382.85,272.91 L 381.98,264.15 L 386.55,249.16 L 393.16,246.10 L 400.35,255.23 L 403.59,256.70 L 409.20,251.62 L 407.45,242.11 L 415.42,238.36 L 425.78,244.56 L 434.13,243.48 L 437.72,246.48 L 437.38,253.62 L 439.11,253.18 L 442.11,257.50 L 443.63,263.58 L 439.70,269.72 L 435.11,270.02 L 431.57,273.17 Z"/>
<path class="md" d="M 450.36,386.62 L 459.27,381.66 L 469.66,385.88 L 472.75,384.82 L 474.78,387.10 L 476.81,386.48 L 478.27,389.20 L 478.36,393.72 L 483.21,396.21 L 484.52,400.82 L 488.14,402.22 L 489.56,406.55 L 492.11,407.85 L 489.26,409.62 L 487.57,408.40 L 482.49,410.55 L 481.85,408.37 L 479.65,409.85 L 480.77,416.14 L 477.04,422.98 L 477.55,425.23 L 474.66,426.85 L 472.75,424.84 L 471.53,408.52 L 468.81,403.67 L 463.03,398.98 L 454.33,387.61 L 450.36,386.62 Z"/>
<path class="me" d="M 378.26,468.84 L 383.40,474.19 L 392.16,478.64 L 388.89,480.34 L 389.24,483.68 L 386.12,485.02 L 384.96,482.38 L 381.31,488.30 L 378.30,488.64 L 381.28,491.12 L 381.53,494.91 L 370.42,485.18 L 371.57,483.25 L 370.31,477.70 L 372.17,477.14 L 374.51,471.99 L 376.56,472.73 L 375.49,469.10 L 378.26,468.84 Z"/>
<path class="mk" d="M 407.01,486.97 L 414.70,484.48 L 421.72,489.01 L 424.64,493.23 L 424.45,499.35 L 420.96,503.17 L 413.74,504.06 L 409.16,508.66 L 399.15,508.94 L 395.70,503.38 L 395.74,494.03 L 397.74,493.69 L 398.11,490.54 L 401.26,488.69 L 404.01,489.57 L 407.01,486.97 Z"/>
<path class="mt" d="M 324.82,592.48 L 323.11,592.97 L 322.02,590.42 L 324.82,592.48 Z M 321.53,589.63 L 319.80,589.08 L 321.53,589.63 Z"/>
<path class="nl" d="M 242.28,352.10 L 239.02,350.22 L 241.16,345.66 L 235.81,342.97 L 234.46,339.81 L 229.42,339.00 L 227.91,340.63 L 219.52,336.42 L 227.22,338.72 L 224.95,336.42 L 226.67,336.46 L 224.91,333.04 L 231.12,326.16 L 235.20,316.85 L 237.95,316.93 L 246.28,311.56 L 255.06,311.60 L 258.29,314.44 L 255.69,324.00 L 252.28,325.50 L 255.00,327.55 L 254.90,329.92 L 251.79,332.47 L 251.65,335.10 L 243.90,335.85 L 245.61,341.58 L 244.37,346.15 L 241.51,347.63 L 243.11,349.79 L 242.28,352.10 Z M 226.57,339.95 L 223.04,342.22 L 218.62,340.91 L 218.17,338.76 L 226.57,339.95 Z M 250.76,310.00 L 249.12,310.22 L 250.76,310.00 Z M 246.96,310.34 L 244.46,309.90 L 246.96,310.34 Z M 239.13,311.66 L 237.15,312.35 L 239.13,311.66 Z M 241.28,310.74 L 243.74,310.25 L 241.28,310.74 Z M 236.57,315.02 L 234.86,315.31 L 236.82,313.29 L 236.57,315.02 Z M 224.76,334.13 L 225.74,335.71 L 224.51,335.86 L 222.31,334.21 L 224.76,334.13 Z M 254.56,309.34 L 253.71,309.29 L 254.56,309.34 Z M 243.81,325.47 L 240.65,327.62 L 237.70,326.01 L 242.72,323.42 L 243.81,325.47 Z M 244.63,324.05 L 242.50,322.28 L 243.24,319.36 L 241.09,318.71 L 241.09,315.74 L 237.93,317.51 L 239.19,320.71 L 237.27,322.12 L 236.42,326.38 L 240.51,328.38 L 244.63,324.05 Z"/>
<path class="no" d="M 363.13,69.11 L 360.22,69.59 L 361.77,72.28 L 359.90,77.40 L 361.58,78.33 L 360.12,80.39 L 350.04,77.75 L 349.23,78.23 L 349.55,83.52 L 348.15,87.39 L 344.49,85.28 L 341.32,88.74 L 340.15,93.21 L 337.46,96.37 L 339.44,100.69 L 339.28,102.30 L 333.20,111.44 L 333.61,114.38 L 327.55,117.20 L 328.11,122.57 L 327.04,130.39 L 321.31,141.76 L 324.20,143.66 L 324.02,149.50 L 315.19,150.82 L 310.66,157.05 L 310.85,158.70 L 309.23,161.80 L 310.59,166.45 L 309.76,167.70 L 309.59,172.86 L 310.78,177.73 L 309.35,186.55 L 314.57,192.52 L 313.11,197.06 L 309.95,197.85 L 311.90,206.56 L 310.92,211.91 L 306.44,215.54 L 304.28,219.68 L 304.99,224.44 L 303.49,230.05 L 302.09,230.25 L 301.40,227.17 L 297.23,225.70 L 295.91,222.41 L 295.87,216.54 L 295.50,219.29 L 294.08,220.26 L 294.11,224.01 L 291.82,228.09 L 289.06,228.69 L 286.96,226.12 L 287.59,228.38 L 274.42,240.18 L 264.72,241.06 L 263.90,238.99 L 261.46,239.54 L 262.33,237.05 L 257.62,234.72 L 253.99,228.73 L 255.34,224.40 L 258.94,227.11 L 261.30,225.34 L 259.10,225.84 L 257.71,223.37 L 258.60,220.32 L 262.67,216.71 L 253.67,221.76 L 251.97,220.58 L 254.22,214.34 L 261.69,212.54 L 257.99,211.36 L 261.90,206.02 L 265.13,203.68 L 264.72,207.64 L 266.69,203.69 L 268.97,202.48 L 262.21,204.29 L 252.96,214.22 L 254.39,207.34 L 258.19,207.29 L 255.26,205.60 L 254.63,201.72 L 259.03,198.49 L 254.87,198.75 L 254.94,192.40 L 268.44,192.48 L 270.07,195.65 L 270.32,193.50 L 274.76,192.10 L 272.98,190.49 L 273.92,188.47 L 271.45,192.45 L 267.37,190.03 L 265.46,192.26 L 255.99,190.18 L 255.75,186.25 L 258.36,185.79 L 255.81,181.87 L 256.19,179.27 L 263.98,181.75 L 269.40,181.10 L 258.78,178.72 L 257.73,177.13 L 258.36,175.10 L 264.44,171.85 L 269.28,172.58 L 266.07,172.19 L 268.02,169.20 L 276.68,171.17 L 277.61,170.68 L 276.65,169.21 L 280.75,168.67 L 270.97,167.81 L 272.81,164.70 L 277.59,162.53 L 281.33,163.04 L 284.70,167.23 L 281.85,161.98 L 285.49,159.45 L 283.78,156.81 L 285.43,155.34 L 289.34,155.79 L 289.31,157.92 L 293.31,155.61 L 295.32,159.46 L 300.60,158.68 L 300.51,156.09 L 305.18,153.50 L 303.90,151.94 L 305.76,150.05 L 303.28,150.50 L 302.10,151.49 L 302.96,152.74 L 302.11,153.88 L 295.69,157.56 L 292.66,154.70 L 292.93,152.89 L 300.17,143.49 L 306.97,138.69 L 305.44,138.45 L 306.91,135.00 L 315.42,131.55 L 316.66,129.60 L 313.27,131.96 L 311.41,129.05 L 315.44,120.59 L 317.71,119.80 L 316.16,117.45 L 324.29,114.48 L 318.38,115.43 L 318.14,112.22 L 319.14,108.89 L 323.93,106.52 L 322.02,104.68 L 324.93,101.32 L 333.09,100.01 L 327.03,98.90 L 330.26,94.04 L 334.18,97.66 L 334.75,94.87 L 332.02,93.59 L 332.35,90.96 L 329.61,92.61 L 329.27,90.25 L 331.31,87.62 L 334.26,88.00 L 332.40,86.07 L 336.54,83.44 L 338.47,89.02 L 338.11,87.09 L 338.88,85.62 L 337.69,82.00 L 345.68,80.02 L 339.47,78.48 L 344.52,74.02 L 346.17,69.07 L 348.43,68.07 L 348.18,65.33 L 349.11,62.92 L 352.67,65.29 L 351.12,62.50 L 353.20,61.23 L 354.19,58.13 L 356.89,57.03 L 357.04,63.24 L 358.41,56.60 L 360.31,54.49 L 360.78,59.83 L 359.80,64.40 L 361.72,60.98 L 363.18,61.22 L 361.79,58.52 L 362.01,54.87 L 365.07,55.02 L 366.40,52.87 L 369.70,55.50 L 368.37,51.82 L 365.65,49.32 L 372.73,46.30 L 377.13,52.25 L 376.77,47.94 L 381.51,39.84 L 380.40,37.92 L 382.13,34.79 L 388.38,36.35 L 386.45,41.63 L 385.70,47.28 L 386.22,49.01 L 387.09,48.43 L 392.17,34.77 L 393.53,35.53 L 393.08,38.68 L 393.63,39.13 L 393.91,42.85 L 395.83,40.85 L 396.23,36.90 L 397.99,35.59 L 395.94,33.56 L 397.44,30.89 L 401.97,32.00 L 402.08,34.49 L 400.24,37.30 L 402.26,37.09 L 403.10,43.93 L 404.64,33.35 L 410.15,35.88 L 411.71,34.61 L 413.05,37.00 L 417.37,38.44 L 417.92,40.44 L 414.76,43.65 L 406.62,44.98 L 411.65,46.78 L 412.94,50.39 L 415.20,50.36 L 415.53,47.88 L 417.07,49.88 L 419.28,48.36 L 420.11,52.27 L 415.99,51.55 L 416.17,54.90 L 412.69,57.87 L 411.18,62.75 L 410.01,60.41 L 411.82,55.14 L 410.11,52.18 L 401.21,47.33 L 398.24,50.48 L 394.89,50.90 L 392.94,54.90 L 392.23,61.75 L 392.83,66.47 L 389.07,73.52 L 382.27,70.94 L 379.48,73.84 L 374.01,73.29 L 368.40,64.80 L 365.46,66.03 L 365.69,68.83 L 363.13,69.11 Z M 254.66,191.63 L 253.46,191.48 L 253.86,190.03 L 254.66,191.63 Z M 253.94,203.81 L 253.02,205.41 L 253.26,201.51 L 253.94,203.81 Z M 414.20,49.25 L 413.05,49.58 L 413.18,47.65 L 414.61,48.47 L 414.20,49.25 Z M 310.57,124.81 L 309.24,124.68 L 310.57,124.81 Z M 284.79,154.23 L 287.30,152.80 L 284.79,154.23 Z M 281.72,159.17 L 279.74,157.77 L 281.72,157.06 L 281.72,159.17 Z M 376.01,38.64 L 373.22,43.50 L 370.71,44.20 L 368.49,42.08 L 376.01,38.64 Z M 386.71,31.79 L 389.93,33.01 L 387.13,34.75 L 385.49,33.45 L 386.71,31.79 Z M 377.47,42.88 L 377.78,44.25 L 376.08,47.22 L 373.98,46.00 L 376.97,41.82 L 377.47,42.88 Z M 379.62,42.31 L 378.67,43.09 L 377.48,40.79 L 379.02,40.20 L 379.77,40.91 L 379.62,42.31 Z M 323.75,82.84 L 325.22,83.16 L 324.67,84.11 L 319.79,87.12 L 320.29,84.47 L 323.75,82.84 Z M 318.18,89.04 L 317.26,89.86 L 318.16,86.75 L 319.17,86.23 L 318.18,89.04 Z M 331.71,71.92 L 332.83,74.50 L 331.81,77.21 L 326.81,75.66 L 329.34,74.38 L 330.72,70.99 L 331.71,71.92 Z M 356.90,50.28 L 358.81,52.03 L 357.13,52.55 L 355.92,49.53 L 356.90,50.28 Z M 362.66,51.94 L 360.54,51.62 L 361.79,49.69 L 362.73,50.03 L 362.66,51.94 Z M 354.21,52.91 L 356.19,54.37 L 352.01,61.01 L 347.89,60.83 L 351.21,57.74 L 351.19,55.95 L 353.10,53.44 L 353.36,50.05 L 354.21,52.91 Z M 314.28,120.56 L 313.78,119.93 L 314.59,118.97 L 316.07,119.18 L 314.28,120.56 Z M 313.77,118.28 L 313.17,118.37 L 314.12,116.03 L 315.15,116.18 L 313.77,118.28 Z M 305.09,136.66 L 301.79,136.40 L 303.77,134.79 L 305.09,136.66 Z M 344.72,61.05 L 347.63,62.42 L 348.12,64.18 L 347.53,67.42 L 344.86,67.55 L 342.61,70.60 L 341.00,69.71 L 341.91,68.60 L 341.98,64.95 L 344.03,64.57 L 343.23,63.03 L 344.72,61.05 Z M 335.00,78.08 L 337.23,73.50 L 339.17,74.10 L 339.46,76.85 L 336.30,80.64 L 326.04,84.08 L 328.03,80.71 L 331.06,80.05 L 332.93,77.22 L 333.80,73.03 L 333.09,72.30 L 333.30,70.28 L 336.05,66.05 L 336.93,67.43 L 335.22,70.57 L 335.95,75.29 L 335.00,78.08 Z M 203.57,19.52 L 208.27,15.89 L 209.99,16.87 L 203.57,19.52 Z"/>
<path class="pl" d="M 413.38,340.76 L 419.35,350.11 L 418.37,351.59 L 419.96,355.38 L 416.55,358.21 L 407.94,371.25 L 409.97,380.19 L 397.54,375.33 L 389.89,377.52 L 384.70,376.83 L 381.85,380.21 L 378.77,380.06 L 378.77,377.45 L 375.20,374.17 L 370.62,377.57 L 366.14,370.29 L 356.65,367.02 L 357.29,364.03 L 354.47,364.95 L 349.09,362.43 L 350.26,365.35 L 346.83,367.53 L 342.47,362.63 L 344.49,360.26 L 343.12,359.01 L 340.42,359.74 L 330.44,353.56 L 330.33,355.54 L 328.63,355.97 L 330.66,349.86 L 326.68,340.86 L 328.14,336.99 L 326.28,332.67 L 326.91,330.06 L 322.34,324.59 L 325.03,319.65 L 323.70,311.40 L 326.67,312.83 L 326.46,309.98 L 323.17,308.46 L 341.24,302.65 L 344.53,298.50 L 358.06,293.69 L 364.20,295.74 L 361.26,294.95 L 363.60,299.71 L 366.43,300.84 L 371.99,298.79 L 401.66,297.26 L 407.13,300.49 L 413.18,317.19 L 413.94,322.16 L 409.70,325.60 L 407.90,329.40 L 412.85,332.66 L 413.38,340.76 Z"/>
<path class="pt" d="M -98.24,543.08 L -92.83,547.67 L -97.55,547.15 L -99.40,544.37 L -98.24,543.08 Z M 56.39,449.40 L 63.06,448.40 L 63.97,450.69 L 62.30,452.17 L 62.69,453.69 L 71.16,456.12 L 74.75,454.83 L 80.48,457.28 L 80.07,461.61 L 83.14,464.88 L 72.56,470.26 L 70.74,480.75 L 67.34,482.59 L 68.22,485.31 L 66.22,488.40 L 59.03,488.38 L 62.39,499.58 L 55.39,507.38 L 56.86,512.49 L 58.68,512.96 L 50.59,518.09 L 48.33,526.62 L 42.25,527.57 L 33.56,522.69 L 28.24,522.37 L 32.56,517.09 L 37.07,501.44 L 39.48,502.64 L 38.42,500.69 L 33.16,500.05 L 33.82,496.75 L 36.99,496.33 L 41.42,492.27 L 35.63,495.92 L 31.59,494.70 L 35.99,485.98 L 46.27,476.48 L 51.31,467.53 L 55.38,453.11 L 54.25,451.61 L 56.39,449.40 Z M -157.51,434.63 L -159.06,432.96 L -157.51,434.63 Z M -164.67,397.90 L -166.80,394.12 L -163.91,395.60 L -164.67,397.90 Z M -172.73,394.16 L -176.51,387.93 L -172.73,394.16 Z M -181.89,388.45 L -183.27,386.05 L -181.43,386.56 L -181.89,388.45 Z M -177.47,392.92 L -181.03,391.31 L -181.00,389.19 L -177.47,392.92 Z M -156.66,418.44 L -151.69,421.64 L -155.50,421.56 L -158.25,418.91 L -158.30,416.38 L -156.66,418.44 Z"/>
<path class="ro" d="M 474.66,426.85 L 481.21,429.05 L 487.58,424.82 L 491.34,426.60 L 491.06,433.31 L 485.78,435.75 L 485.63,432.31 L 483.58,433.62 L 483.72,439.23 L 484.58,438.91 L 482.75,443.72 L 483.73,452.38 L 465.88,448.83 L 456.59,452.90 L 449.34,459.35 L 420.01,460.56 L 419.24,458.85 L 420.82,456.62 L 414.25,451.69 L 416.48,448.77 L 413.84,447.47 L 409.61,450.49 L 401.06,446.81 L 402.86,445.49 L 400.73,443.98 L 402.05,441.67 L 393.99,437.34 L 393.42,432.97 L 387.21,427.82 L 396.48,424.36 L 404.06,404.52 L 414.96,394.24 L 430.13,394.81 L 433.84,397.65 L 446.34,391.48 L 447.29,388.00 L 451.32,386.40 L 454.33,387.61 L 463.03,398.98 L 468.81,403.67 L 471.53,408.52 L 472.75,424.84 L 474.66,426.85 Z"/>
<path class="rs" d="M 401.06,446.81 L 409.61,450.49 L 413.84,447.47 L 416.48,448.77 L 414.24,450.84 L 416.92,454.53 L 414.12,458.46 L 413.91,462.05 L 416.54,466.94 L 421.79,470.58 L 419.22,475.68 L 416.54,476.62 L 417.89,482.20 L 416.87,484.72 L 407.01,486.97 L 408.60,480.14 L 404.30,479.24 L 396.86,471.83 L 392.16,479.03 L 378.61,470.13 L 378.89,468.00 L 381.57,466.91 L 378.43,462.04 L 382.17,460.57 L 376.65,455.94 L 378.73,447.63 L 374.80,447.50 L 376.10,442.84 L 378.98,442.42 L 374.46,439.75 L 375.01,437.91 L 372.28,433.04 L 379.49,427.62 L 386.85,427.57 L 393.42,432.97 L 393.99,437.34 L 402.05,441.67 L 400.73,443.98 L 402.86,445.49 L 401.06,446.81 Z"/>
<path class="se" d="M 364.25,246.71 L 362.19,248.84 L 362.18,252.32 L 363.23,253.58 L 357.18,261.32 L 358.25,258.74 L 356.60,255.88 L 356.67,251.44 L 359.80,247.03 L 362.73,245.55 L 364.25,246.71 Z M 343.67,271.56 L 342.57,271.26 L 342.59,267.25 L 347.26,255.50 L 348.28,255.44 L 343.67,271.56 Z M 301.53,228.23 L 302.09,230.25 L 303.49,230.05 L 304.99,224.44 L 304.28,219.68 L 306.44,215.54 L 310.92,211.91 L 311.90,206.56 L 309.95,197.85 L 313.11,197.06 L 314.57,192.52 L 309.35,186.55 L 310.78,177.73 L 309.59,172.86 L 309.76,167.70 L 310.59,166.45 L 309.23,161.80 L 310.85,158.70 L 310.66,157.05 L 315.19,150.82 L 323.29,150.78 L 324.57,148.27 L 324.20,143.66 L 321.31,141.76 L 327.04,130.39 L 328.11,122.57 L 327.55,117.20 L 333.61,114.38 L 333.20,111.44 L 339.28,102.30 L 339.44,100.69 L 337.46,96.37 L 337.85,95.09 L 339.45,94.31 L 341.32,88.74 L 344.49,85.28 L 348.15,87.39 L 349.55,83.52 L 349.23,78.23 L 360.12,80.39 L 361.58,78.33 L 359.90,77.40 L 361.77,72.28 L 360.22,69.59 L 364.79,69.91 L 371.91,76.74 L 377.23,78.68 L 382.68,84.77 L 382.01,86.13 L 382.51,92.80 L 384.29,93.19 L 384.29,97.94 L 387.08,102.75 L 385.92,108.22 L 386.36,111.84 L 390.18,118.56 L 383.47,120.50 L 378.69,118.98 L 378.17,123.28 L 373.93,126.72 L 374.43,129.01 L 373.04,128.25 L 374.40,131.18 L 371.93,136.46 L 374.99,141.69 L 371.96,146.49 L 370.60,151.53 L 356.16,163.39 L 354.20,166.36 L 355.56,166.41 L 355.35,167.89 L 353.33,169.66 L 351.18,168.43 L 351.49,171.79 L 352.50,172.67 L 347.80,175.02 L 349.79,178.57 L 348.08,184.39 L 348.85,187.23 L 346.83,186.66 L 346.41,189.01 L 347.74,202.69 L 350.98,205.17 L 353.21,204.23 L 358.09,209.27 L 358.00,210.85 L 360.01,211.90 L 361.81,215.74 L 354.07,223.44 L 358.78,222.68 L 359.29,223.71 L 357.70,224.36 L 356.80,227.23 L 346.53,234.70 L 340.35,235.12 L 346.16,237.23 L 343.97,238.20 L 345.02,241.60 L 343.39,247.90 L 344.31,252.73 L 342.91,256.42 L 343.41,259.47 L 339.10,272.69 L 337.65,274.23 L 328.02,274.12 L 328.37,275.69 L 326.67,275.44 L 323.65,278.77 L 324.71,283.51 L 323.22,285.53 L 311.87,285.07 L 312.80,279.87 L 308.70,271.31 L 311.54,271.82 L 310.37,269.04 L 312.11,268.91 L 312.41,266.35 L 308.62,261.73 L 304.54,249.54 L 303.37,248.89 L 303.29,244.91 L 301.31,242.55 L 301.34,239.09 L 299.86,238.56 L 299.56,228.88 L 301.53,228.23 Z M 364.84,245.32 L 366.24,244.61 L 364.84,245.32 Z M 357.91,228.43 L 358.40,227.22 L 357.91,228.43 Z M 359.00,221.48 L 359.76,220.44 L 359.00,221.48 Z"/>
<path class="si" d="M 346.79,423.61 L 344.68,423.11 L 343.72,425.66 L 337.37,428.43 L 337.60,433.72 L 333.52,435.77 L 334.22,439.92 L 333.16,440.32 L 328.23,439.75 L 325.79,436.94 L 323.59,439.67 L 315.31,439.63 L 318.19,437.52 L 314.08,431.62 L 315.71,428.69 L 312.99,427.31 L 316.54,423.34 L 325.65,425.34 L 329.35,422.13 L 340.75,420.94 L 342.16,418.03 L 344.19,418.09 L 346.79,423.61 Z"/>
<path class="sk" d="M 407.14,379.68 L 403.85,390.64 L 399.91,391.75 L 396.84,388.82 L 387.01,390.04 L 385.67,393.75 L 381.87,396.35 L 378.43,395.38 L 369.98,399.35 L 369.45,402.71 L 358.05,402.86 L 352.21,399.47 L 349.77,394.13 L 352.35,386.99 L 358.70,386.04 L 366.79,376.30 L 372.44,377.41 L 375.20,374.17 L 378.77,377.45 L 379.25,380.22 L 381.85,380.21 L 384.70,376.83 L 390.68,377.42 L 394.60,375.34 L 407.14,379.68 Z"/>
<path class="sm" d="M 302.06,463.96 L 301.08,463.40 L 302.31,462.58 L 302.06,463.96 Z"/>
<path class="ua" d="M 572.63,374.97 L 565.95,377.46 L 560.07,385.24 L 550.57,389.62 L 544.88,399.76 L 546.45,396.45 L 545.24,394.18 L 542.37,399.08 L 545.36,405.72 L 541.58,402.76 L 531.43,401.81 L 528.09,405.13 L 525.24,403.97 L 517.98,407.30 L 510.47,405.95 L 511.78,403.25 L 506.59,402.50 L 515.30,401.67 L 517.03,398.98 L 511.38,399.94 L 506.34,392.00 L 508.97,395.97 L 509.56,400.26 L 505.96,400.88 L 505.88,399.09 L 504.74,401.74 L 498.67,404.36 L 494.87,416.15 L 489.04,419.69 L 491.34,426.60 L 487.58,424.82 L 481.21,429.05 L 474.66,426.85 L 477.55,425.23 L 477.04,422.98 L 480.77,416.14 L 479.65,409.85 L 481.85,408.37 L 482.49,410.55 L 487.57,408.40 L 489.26,409.62 L 492.11,407.85 L 489.56,406.55 L 488.14,402.22 L 484.52,400.82 L 483.21,396.21 L 478.36,393.72 L 478.27,389.20 L 476.81,386.48 L 474.78,387.10 L 472.75,384.82 L 469.66,385.88 L 459.27,381.66 L 452.36,384.28 L 447.29,388.00 L 446.34,391.48 L 433.84,397.65 L 429.12,394.69 L 414.96,394.24 L 412.48,396.71 L 411.09,394.32 L 404.05,390.43 L 403.91,387.89 L 407.14,379.68 L 410.24,379.87 L 408.66,377.98 L 407.94,371.25 L 416.55,358.21 L 419.96,355.38 L 418.37,351.59 L 419.35,350.11 L 414.34,343.89 L 413.24,339.33 L 416.81,339.19 L 419.92,334.47 L 434.64,331.65 L 446.55,332.25 L 448.42,334.36 L 452.22,334.09 L 452.58,335.51 L 456.81,332.69 L 462.51,334.36 L 465.44,330.72 L 468.50,333.98 L 475.91,330.92 L 480.24,333.36 L 479.20,326.85 L 481.69,320.61 L 492.28,318.05 L 494.22,313.47 L 506.01,309.83 L 514.41,316.62 L 512.26,318.84 L 514.86,324.94 L 523.03,323.48 L 526.04,325.19 L 529.18,332.42 L 531.63,334.47 L 536.43,332.38 L 542.11,333.88 L 548.75,328.47 L 557.03,333.79 L 558.38,331.17 L 565.77,332.38 L 568.03,331.07 L 575.24,333.19 L 578.06,332.09 L 580.06,336.74 L 577.32,341.76 L 581.34,343.38 L 579.39,344.32 L 579.10,348.01 L 581.20,348.05 L 582.59,351.52 L 583.84,351.63 L 584.11,357.84 L 575.63,361.38 L 571.60,366.80 L 572.63,374.97 Z M 512.65,406.67 L 507.75,406.98 L 506.76,405.36 L 512.65,406.67 Z"/>
<path class="xk" d="M 392.16,479.03 L 396.86,471.83 L 404.30,479.24 L 408.62,480.43 L 407.01,486.97 L 404.01,489.57 L 401.26,488.69 L 398.11,490.54 L 397.74,493.69 L 396.03,493.95 L 394.51,488.41 L 389.24,483.68 L 388.89,480.34 L 392.16,479.03 Z"/>
</g>
</svg>