<svg viewBox="0 0 600.0 568.9" xmlns="http://www.w3.org/2000/svg" width="600.0" height="568.9">
<defs><style>.state{fill:#dde1e6}.state path{stroke:#fff;stroke-width:0.8}</style></defs>
<g class="state">
<path class="ag" d="M 561.87,432.12 L 560.43,432.22 L 561.87,432.12 Z M 559.81,428.18 L 558.52,427.60 L 559.81,428.18 Z"/>
<path class="bb" d="M 592.36,454.41 L 590.39,453.28 L 592.36,454.41 Z"/>
<path class="bs" d="M 429.70,416.12 L 431.20,419.90 L 427.36,416.90 L 429.70,416.12 Z M 429.71,402.80 L 428.28,402.18 L 428.43,397.85 L 423.07,396.38 L 425.83,395.74 L 429.65,397.81 L 429.71,402.80 Z M 468.68,430.93 L 468.18,432.86 L 464.47,433.97 L 465.13,431.98 L 468.68,430.93 Z M 428.29,412.75 L 426.93,416.45 L 423.62,414.46 L 424.91,413.96 L 424.52,409.64 L 428.29,412.75 Z M 419.66,398.54 L 423.58,397.95 L 418.34,400.64 L 416.39,399.57 L 419.66,398.54 Z M 430.48,409.77 L 428.97,410.00 L 430.48,409.77 Z M 457.97,421.30 L 455.97,420.90 L 457.97,421.30 Z M 452.52,411.78 L 451.88,412.77 L 452.52,411.78 Z M 458.01,425.50 L 459.42,420.83 L 458.01,425.50 Z M 434.41,405.01 L 438.65,406.74 L 439.30,410.55 L 437.94,409.53 L 438.46,406.96 L 434.41,405.01 Z M 445.17,418.80 L 442.30,417.73 L 445.17,418.80 Z M 452.09,421.52 L 448.84,420.17 L 447.17,416.49 L 452.09,421.52 Z M 446.15,412.43 L 444.92,413.25 L 442.29,409.46 L 446.15,412.43 Z M 465.79,421.49 L 468.09,421.65 L 465.79,421.49 Z"/>
<path class="bz" d="M 352.68,480.52 L 357.62,474.63 L 360.72,476.39 L 360.22,489.63 L 356.17,496.20 L 353.43,496.40 L 352.68,480.52 Z M 362.01,478.74 L 362.53,476.80 L 362.01,478.74 Z M 363.19,482.77 L 362.70,483.98 L 363.19,482.77 Z"/>
<path class="ca" d="M 144.51,170.88 L 145.87,172.98 L 143.42,174.30 L 148.44,172.67 L 144.24,177.91 L 141.45,176.16 L 142.84,176.52 L 141.71,174.65 L 142.37,170.83 L 144.51,170.88 Z M 145.05,178.87 L 144.66,180.94 L 143.16,180.57 L 144.68,182.76 L 143.74,183.33 L 143.90,186.90 L 141.68,177.71 L 145.05,178.87 Z M 156.42,204.67 L 163.04,209.88 L 163.87,216.43 L 166.85,219.95 L 168.19,226.46 L 166.52,226.91 L 161.41,222.43 L 160.56,220.93 L 163.12,218.65 L 159.33,219.41 L 158.57,215.41 L 155.88,214.20 L 158.42,213.20 L 154.65,210.03 L 154.78,208.01 L 152.06,206.97 L 152.78,204.72 L 154.49,205.76 L 155.09,204.58 L 152.28,204.08 L 152.08,201.62 L 156.42,204.67 Z M 160.34,163.79 L 160.75,162.15 L 155.76,155.84 L 156.09,140.68 L 153.76,127.61 L 150.21,127.31 L 147.67,129.85 L 143.81,129.85 L 144.50,127.42 L 142.51,118.68 L 143.88,117.17 L 137.49,113.65 L 176.91,51.06 L 180.79,54.75 L 187.42,66.32 L 187.38,62.34 L 190.74,60.82 L 192.52,61.67 L 193.42,60.24 L 194.12,62.21 L 192.40,63.68 L 207.36,62.27 L 206.77,63.78 L 196.29,65.58 L 193.11,67.41 L 193.05,68.73 L 195.08,68.75 L 195.55,66.87 L 199.25,65.45 L 201.21,66.20 L 200.61,68.12 L 204.61,65.33 L 208.60,64.88 L 207.38,65.84 L 208.01,66.56 L 212.71,63.98 L 211.97,62.24 L 212.93,61.24 L 215.62,73.24 L 216.80,73.02 L 216.89,71.31 L 219.53,69.09 L 219.04,68.59 L 220.56,68.05 L 219.84,71.18 L 220.38,72.06 L 218.66,73.75 L 218.88,74.36 L 221.15,74.97 L 223.67,72.18 L 226.26,73.02 L 237.53,84.20 L 243.77,86.34 L 245.91,90.62 L 242.00,91.93 L 240.65,93.51 L 241.39,94.39 L 248.99,97.25 L 256.75,96.18 L 262.11,103.09 L 261.91,104.37 L 260.35,104.15 L 263.40,110.23 L 262.51,105.55 L 264.26,106.44 L 262.88,98.62 L 263.63,96.94 L 267.92,96.20 L 270.33,93.29 L 262.38,95.83 L 261.20,94.43 L 262.80,92.10 L 269.44,90.49 L 273.61,98.00 L 276.70,97.89 L 279.94,101.25 L 290.33,101.93 L 291.91,101.32 L 291.31,99.15 L 294.80,102.93 L 295.59,101.02 L 292.60,100.41 L 291.33,96.79 L 295.06,95.80 L 296.33,97.78 L 297.98,97.35 L 297.09,99.55 L 299.36,97.85 L 298.14,103.83 L 301.10,107.83 L 297.95,107.52 L 299.95,111.01 L 299.16,108.44 L 301.16,108.34 L 301.58,105.82 L 300.35,102.00 L 300.91,99.69 L 303.08,99.27 L 306.86,94.72 L 305.58,91.64 L 305.00,93.42 L 303.41,93.30 L 304.87,90.65 L 304.34,89.10 L 306.16,88.20 L 305.83,89.78 L 306.39,87.67 L 299.37,85.12 L 297.73,81.74 L 298.45,79.25 L 299.61,78.93 L 297.77,76.76 L 298.07,73.15 L 300.45,72.33 L 300.86,71.03 L 299.71,70.13 L 302.92,66.81 L 307.27,72.20 L 307.55,76.25 L 311.75,81.67 L 309.60,81.30 L 309.11,82.42 L 310.65,82.89 L 308.19,86.06 L 315.39,87.41 L 313.10,88.97 L 315.53,92.14 L 315.48,95.47 L 316.57,97.08 L 318.80,88.81 L 322.74,92.10 L 323.80,96.19 L 322.25,96.43 L 322.61,99.15 L 326.17,105.06 L 328.36,102.34 L 329.79,92.45 L 332.09,91.30 L 331.32,90.82 L 331.77,88.86 L 330.08,87.78 L 329.07,82.82 L 338.17,83.14 L 337.30,84.52 L 341.67,86.32 L 340.44,89.06 L 342.69,89.82 L 339.31,92.88 L 344.42,99.78 L 344.51,103.26 L 339.41,109.81 L 335.14,105.59 L 333.42,106.36 L 336.46,107.75 L 338.13,111.28 L 335.73,111.68 L 332.24,109.26 L 328.80,110.04 L 331.57,112.96 L 327.45,119.67 L 319.53,115.65 L 314.14,115.83 L 319.05,116.93 L 322.44,120.09 L 328.97,120.63 L 326.20,128.95 L 322.52,129.84 L 322.85,130.95 L 319.63,129.86 L 320.38,131.25 L 319.30,131.16 L 319.51,133.41 L 317.29,134.41 L 307.15,130.45 L 307.69,132.65 L 312.58,133.81 L 311.56,134.93 L 313.67,133.71 L 317.78,136.55 L 317.72,139.14 L 312.18,140.64 L 313.78,142.32 L 311.60,142.78 L 310.88,144.10 L 311.81,145.70 L 309.31,144.28 L 310.44,145.40 L 308.06,147.59 L 309.09,148.91 L 306.95,151.18 L 303.95,158.80 L 303.35,169.72 L 306.03,172.35 L 305.92,175.53 L 306.67,172.18 L 310.39,172.15 L 313.80,182.66 L 312.44,185.73 L 321.34,182.96 L 328.80,185.48 L 334.95,190.86 L 342.88,193.10 L 345.06,194.72 L 344.71,196.80 L 345.79,195.10 L 350.61,194.18 L 357.31,194.97 L 358.37,196.72 L 358.22,201.06 L 359.98,203.98 L 360.33,209.87 L 364.17,213.71 L 363.43,215.42 L 369.32,217.84 L 370.82,220.34 L 369.33,222.62 L 372.51,220.80 L 376.74,223.87 L 374.30,219.95 L 375.65,217.58 L 378.09,220.26 L 378.40,217.94 L 376.84,216.17 L 378.44,212.12 L 373.37,202.60 L 373.28,199.98 L 369.20,195.74 L 376.33,189.43 L 379.27,183.29 L 379.31,179.39 L 375.61,170.53 L 367.80,165.41 L 369.42,159.35 L 369.04,157.12 L 370.62,157.51 L 370.07,154.17 L 368.85,153.94 L 367.91,151.49 L 368.36,150.48 L 367.14,150.00 L 367.50,148.45 L 365.40,148.98 L 366.54,142.90 L 364.25,141.25 L 363.08,137.95 L 365.23,135.14 L 375.65,136.13 L 378.12,132.57 L 382.39,134.13 L 382.73,136.32 L 384.65,135.81 L 385.64,136.73 L 385.24,137.60 L 387.19,136.75 L 386.84,138.30 L 389.01,139.88 L 394.80,140.43 L 396.25,138.69 L 396.56,142.82 L 397.86,145.71 L 394.43,147.26 L 398.03,146.93 L 399.64,151.02 L 400.97,150.87 L 401.35,154.23 L 399.30,155.80 L 404.35,152.90 L 405.94,153.63 L 407.52,157.74 L 405.60,160.52 L 407.59,158.61 L 407.95,154.99 L 408.93,156.16 L 408.68,157.52 L 409.14,155.20 L 410.52,158.04 L 413.26,150.51 L 415.58,152.54 L 414.35,149.85 L 416.08,147.20 L 414.50,146.58 L 414.59,144.44 L 416.39,144.38 L 414.63,143.85 L 413.87,142.21 L 415.33,141.67 L 414.42,140.90 L 414.45,137.40 L 415.75,137.38 L 415.55,139.58 L 417.11,138.51 L 418.26,140.70 L 420.63,141.59 L 420.33,142.81 L 422.78,143.30 L 421.20,145.14 L 423.76,143.93 L 424.24,145.38 L 426.31,146.10 L 424.93,149.52 L 427.93,147.03 L 426.89,151.28 L 429.30,149.07 L 431.98,149.87 L 432.88,151.96 L 431.31,153.68 L 433.65,153.19 L 433.98,154.47 L 437.12,155.01 L 438.02,157.33 L 433.41,158.42 L 438.83,159.61 L 438.14,160.99 L 439.51,160.49 L 439.88,162.14 L 444.78,161.59 L 446.33,163.38 L 446.05,167.00 L 448.55,163.73 L 450.22,164.03 L 449.87,167.21 L 450.82,163.53 L 453.87,165.04 L 456.88,163.19 L 460.00,163.97 L 451.43,176.08 L 453.14,176.63 L 452.93,178.56 L 459.67,168.35 L 457.84,168.36 L 461.44,166.83 L 463.82,168.71 L 462.92,170.69 L 464.17,171.24 L 466.28,167.61 L 469.50,168.37 L 473.10,173.42 L 471.38,175.19 L 473.93,174.40 L 473.16,175.50 L 475.24,176.09 L 472.57,183.71 L 466.81,188.05 L 463.63,198.22 L 435.89,210.57 L 434.49,212.83 L 434.24,218.03 L 430.51,220.59 L 426.54,229.79 L 419.68,230.08 L 425.71,230.29 L 426.33,232.73 L 422.24,242.12 L 409.99,255.51 L 412.06,256.36 L 403.40,266.16 L 396.18,269.77 L 399.74,269.10 L 399.13,270.89 L 395.61,270.50 L 388.80,273.61 L 385.88,278.25 L 389.65,277.59 L 390.90,280.17 L 384.29,282.54 L 383.29,283.95 L 385.29,284.06 L 378.18,284.80 L 373.11,290.94 L 369.56,289.41 L 373.03,287.69 L 371.62,286.50 L 372.27,282.94 L 375.39,279.59 L 374.58,274.19 L 376.13,270.06 L 373.17,266.05 L 375.29,265.73 L 378.07,269.89 L 382.51,269.99 L 381.93,267.71 L 383.94,266.79 L 376.69,260.14 L 357.50,259.38 L 356.89,257.07 L 357.74,256.39 L 355.58,255.78 L 356.15,253.34 L 353.75,251.30 L 354.22,248.92 L 348.95,249.03 L 345.77,244.00 L 336.81,243.28 L 337.16,246.13 L 335.68,247.39 L 336.63,245.13 L 335.69,244.52 L 334.87,247.93 L 333.93,248.37 L 334.54,246.48 L 333.07,247.24 L 332.04,250.12 L 329.38,251.26 L 324.28,250.04 L 321.38,251.33 L 313.94,247.58 L 305.99,246.84 L 304.80,242.70 L 303.34,242.24 L 303.34,245.03 L 170.48,223.18 L 170.42,220.94 L 172.35,220.54 L 170.41,220.28 L 171.65,218.08 L 169.39,219.50 L 167.66,217.26 L 169.87,217.44 L 168.69,216.58 L 169.94,213.83 L 166.96,215.67 L 165.36,213.12 L 165.19,209.90 L 167.24,207.08 L 165.43,209.23 L 160.84,207.59 L 159.54,206.35 L 162.23,206.48 L 159.50,205.61 L 160.53,203.00 L 157.66,203.36 L 155.66,200.26 L 158.20,197.64 L 161.57,198.25 L 156.61,197.93 L 158.27,192.99 L 161.17,192.55 L 162.46,195.76 L 161.55,192.20 L 163.37,189.85 L 155.82,195.19 L 155.82,192.21 L 158.69,190.31 L 156.78,190.97 L 159.27,187.60 L 157.74,187.64 L 156.53,181.37 L 158.33,180.76 L 157.69,181.67 L 160.84,185.33 L 158.61,182.10 L 158.82,180.63 L 160.09,180.28 L 158.31,179.64 L 154.09,182.59 L 152.42,177.97 L 154.85,175.72 L 156.81,175.81 L 154.84,175.32 L 154.21,173.07 L 160.82,167.51 L 160.21,166.44 L 157.68,169.42 L 160.34,163.79 Z M 252.29,56.22 L 257.41,53.91 L 260.63,56.95 L 258.46,59.64 L 258.93,60.22 L 263.21,57.89 L 262.61,54.75 L 264.19,55.25 L 266.71,59.44 L 267.08,66.62 L 267.94,67.58 L 269.60,65.53 L 268.90,63.24 L 268.81,54.57 L 269.64,54.11 L 269.58,52.95 L 273.20,54.79 L 275.43,58.60 L 276.95,69.14 L 276.15,73.40 L 278.33,77.26 L 284.94,81.91 L 285.30,84.62 L 281.54,84.11 L 280.24,86.41 L 278.00,85.25 L 278.96,86.96 L 278.56,89.13 L 281.55,87.04 L 282.41,89.63 L 278.94,92.29 L 272.54,90.86 L 272.94,89.58 L 269.76,88.53 L 268.57,86.07 L 265.82,89.32 L 259.48,91.01 L 248.52,90.41 L 247.71,87.35 L 248.12,84.45 L 240.62,80.69 L 240.07,75.16 L 255.79,76.67 L 250.67,72.34 L 240.28,70.26 L 239.39,66.49 L 248.12,64.82 L 241.08,63.85 L 240.50,63.03 L 242.18,61.82 L 239.25,60.06 L 239.89,58.29 L 242.38,56.56 L 242.62,54.22 L 248.21,51.12 L 254.28,50.17 L 254.16,53.44 L 252.29,56.22 Z M 243.25,40.17 L 248.64,40.65 L 252.00,48.10 L 241.14,52.84 L 239.24,55.28 L 237.36,55.51 L 234.46,60.87 L 227.03,62.04 L 226.38,56.58 L 222.74,52.48 L 226.68,48.44 L 227.50,46.41 L 228.76,45.96 L 228.75,44.28 L 233.00,39.92 L 232.73,34.42 L 240.41,35.28 L 243.96,39.29 L 243.25,40.17 Z M 289.62,49.75 L 291.58,51.71 L 296.57,51.33 L 296.83,52.41 L 295.27,53.81 L 296.13,54.83 L 293.15,58.46 L 295.16,57.91 L 296.39,61.37 L 297.89,60.77 L 298.06,63.03 L 297.20,63.98 L 297.73,64.99 L 297.27,66.33 L 297.66,68.14 L 295.06,69.83 L 293.15,67.90 L 292.77,68.56 L 293.38,71.38 L 290.76,71.91 L 287.31,65.10 L 282.35,59.89 L 283.73,56.92 L 285.86,60.14 L 288.85,58.72 L 287.97,56.16 L 289.74,56.12 L 285.68,53.52 L 288.12,54.00 L 287.22,50.97 L 289.58,51.07 L 289.05,50.22 L 289.62,49.75 Z M 335.83,119.26 L 336.98,117.52 L 346.06,122.57 L 347.90,125.69 L 347.46,127.33 L 350.93,126.11 L 353.28,127.95 L 351.11,131.08 L 346.22,130.01 L 345.62,128.37 L 342.51,127.16 L 338.94,134.30 L 336.50,136.12 L 334.61,131.80 L 329.95,133.26 L 330.43,130.72 L 332.54,128.62 L 331.72,125.33 L 332.33,115.16 L 334.21,115.21 L 335.83,119.26 Z M 306.03,47.99 L 312.90,50.57 L 309.14,60.06 L 303.82,60.23 L 305.61,62.38 L 304.41,66.43 L 301.39,66.49 L 301.20,62.45 L 300.28,59.18 L 300.17,52.17 L 302.46,52.43 L 301.37,50.55 L 301.74,49.14 L 306.03,47.99 Z M 295.15,86.41 L 301.44,93.14 L 297.48,96.12 L 289.15,92.18 L 289.18,90.43 L 292.15,88.87 L 291.95,86.90 L 293.38,87.90 L 292.71,86.46 L 293.00,85.09 L 295.15,86.41 Z M 472.68,229.15 L 473.68,228.37 L 473.65,230.66 L 475.00,229.64 L 475.26,224.94 L 478.53,226.20 L 475.81,230.57 L 471.78,231.43 L 470.57,228.29 L 472.17,220.71 L 473.66,221.98 L 474.49,225.65 L 472.68,229.15 Z M 446.24,246.48 L 444.44,246.53 L 443.19,243.57 L 441.46,243.64 L 438.05,234.46 L 435.36,233.37 L 432.39,235.49 L 430.33,234.24 L 428.50,240.75 L 428.98,246.83 L 427.65,252.20 L 425.32,252.80 L 425.01,255.09 L 409.05,259.81 L 413.97,255.20 L 414.74,250.48 L 418.72,245.12 L 425.29,239.30 L 430.12,227.25 L 442.77,215.38 L 449.39,215.42 L 448.49,216.44 L 450.11,216.97 L 450.41,218.99 L 447.40,223.43 L 443.88,223.50 L 440.75,226.04 L 444.99,225.27 L 446.76,226.48 L 450.77,224.42 L 449.66,229.84 L 452.05,229.20 L 455.71,234.23 L 465.88,234.64 L 468.95,231.49 L 472.69,232.17 L 472.81,233.79 L 475.06,233.36 L 464.64,242.94 L 465.21,244.33 L 461.73,245.24 L 462.39,246.69 L 458.74,254.69 L 454.74,253.93 L 453.52,251.79 L 453.97,248.24 L 453.05,249.11 L 458.71,240.20 L 461.10,241.71 L 460.75,240.31 L 463.79,237.83 L 456.62,240.93 L 457.93,236.54 L 456.11,236.41 L 456.28,238.80 L 452.12,243.79 L 450.90,242.72 L 449.77,245.71 L 446.24,246.48 Z M 478.45,179.86 L 476.87,182.49 L 478.86,183.89 L 478.62,192.66 L 479.61,195.43 L 480.56,190.72 L 481.25,191.81 L 483.84,190.03 L 482.47,193.85 L 483.43,192.90 L 483.28,194.81 L 486.69,192.46 L 487.71,195.52 L 489.66,190.62 L 490.61,191.76 L 494.10,189.82 L 494.97,190.85 L 493.81,194.55 L 496.22,194.28 L 495.46,196.95 L 499.15,192.73 L 497.89,198.74 L 498.90,198.20 L 498.78,200.21 L 500.12,200.62 L 501.81,195.63 L 502.78,200.22 L 503.46,197.60 L 504.85,198.66 L 506.34,205.23 L 504.23,206.84 L 502.31,203.63 L 500.79,206.78 L 500.12,202.39 L 497.10,200.56 L 497.50,204.21 L 493.73,210.86 L 492.62,210.21 L 495.26,203.27 L 492.54,206.48 L 489.99,207.56 L 490.05,204.86 L 486.94,208.68 L 475.70,213.88 L 474.36,212.07 L 476.86,205.96 L 473.08,207.56 L 473.88,205.61 L 474.92,206.31 L 474.66,202.42 L 476.77,202.14 L 474.46,200.01 L 475.92,198.40 L 474.63,197.31 L 473.87,186.77 L 476.04,180.91 L 478.45,179.86 Z M 324.87,73.57 L 329.63,72.80 L 329.25,67.74 L 325.67,65.18 L 326.93,62.91 L 329.83,64.12 L 325.55,58.87 L 326.26,56.77 L 328.97,57.75 L 325.61,55.54 L 329.96,50.31 L 334.22,49.02 L 338.96,56.26 L 337.30,60.57 L 338.65,59.10 L 338.20,61.28 L 339.01,62.05 L 338.72,63.79 L 340.95,61.02 L 340.12,59.84 L 340.63,58.75 L 343.03,59.76 L 343.42,61.67 L 344.80,62.78 L 343.69,61.11 L 343.65,58.93 L 346.97,59.69 L 343.94,56.94 L 347.45,54.81 L 352.58,56.53 L 353.08,57.73 L 351.97,62.49 L 353.20,59.14 L 355.49,58.74 L 355.80,60.37 L 353.83,62.07 L 355.19,62.00 L 355.44,65.93 L 355.80,62.07 L 357.11,60.63 L 357.10,63.85 L 357.93,62.01 L 360.01,64.08 L 359.16,62.09 L 359.79,60.67 L 363.40,61.00 L 365.18,62.88 L 362.52,67.29 L 367.08,63.91 L 367.52,66.06 L 365.46,69.87 L 366.92,68.81 L 367.44,71.89 L 368.19,66.31 L 371.75,64.88 L 374.64,66.36 L 371.34,71.36 L 374.32,68.93 L 374.32,70.90 L 375.13,70.94 L 375.90,67.36 L 379.74,70.51 L 374.94,74.77 L 382.55,73.97 L 376.64,77.78 L 380.05,76.83 L 380.71,79.05 L 376.51,79.91 L 384.81,80.35 L 384.38,81.66 L 385.44,83.52 L 386.82,81.12 L 387.48,84.75 L 388.20,82.41 L 389.73,82.70 L 390.92,84.78 L 390.26,83.26 L 391.19,81.55 L 391.65,83.50 L 395.66,83.77 L 395.90,85.58 L 393.91,86.38 L 399.02,85.23 L 398.43,89.09 L 402.25,85.45 L 405.94,87.27 L 403.58,88.40 L 405.93,89.36 L 405.42,90.46 L 403.10,90.68 L 405.96,92.65 L 404.15,93.62 L 405.46,94.63 L 405.26,96.40 L 402.19,95.90 L 402.22,97.54 L 403.30,97.46 L 404.43,100.31 L 404.63,102.82 L 401.61,102.00 L 401.15,100.23 L 401.14,102.67 L 396.62,98.98 L 397.82,93.73 L 394.66,97.77 L 394.55,96.03 L 393.54,97.04 L 389.37,94.42 L 388.58,95.21 L 389.55,97.06 L 387.14,96.62 L 390.45,99.07 L 390.24,100.04 L 385.26,99.56 L 387.20,99.90 L 389.09,101.79 L 389.45,103.42 L 392.31,103.41 L 391.90,104.36 L 395.38,107.53 L 395.05,106.09 L 397.15,107.63 L 397.54,106.09 L 399.59,106.63 L 400.36,107.13 L 399.93,108.37 L 401.56,108.29 L 400.39,109.97 L 404.03,110.75 L 403.98,111.71 L 405.84,112.72 L 406.40,116.38 L 403.17,113.33 L 405.04,116.79 L 407.34,118.72 L 405.70,119.30 L 406.77,121.43 L 399.86,118.82 L 400.27,120.30 L 394.54,116.91 L 395.82,119.05 L 391.30,118.32 L 405.07,125.60 L 405.64,127.82 L 404.86,128.49 L 384.81,125.74 L 381.84,123.81 L 383.48,121.95 L 379.22,121.28 L 374.81,117.88 L 375.00,116.33 L 372.76,118.26 L 369.90,115.73 L 369.27,116.44 L 370.55,118.28 L 363.95,122.09 L 359.54,121.02 L 358.61,117.67 L 360.53,115.14 L 360.17,113.14 L 365.41,113.69 L 367.39,116.32 L 367.36,114.96 L 365.36,113.12 L 372.12,109.74 L 367.94,105.29 L 372.18,94.99 L 366.51,87.37 L 364.95,87.77 L 364.23,85.24 L 363.27,86.74 L 360.91,85.13 L 360.90,83.12 L 356.28,87.24 L 355.75,84.76 L 357.92,82.49 L 355.10,81.03 L 355.36,79.33 L 353.03,80.13 L 353.40,78.85 L 351.23,78.77 L 349.99,75.72 L 345.82,73.54 L 345.25,75.39 L 346.72,75.98 L 347.54,78.21 L 339.78,78.91 L 342.14,81.67 L 340.01,80.28 L 328.10,81.35 L 326.47,80.64 L 325.94,78.03 L 322.14,80.28 L 319.11,78.26 L 317.06,73.92 L 323.38,73.73 L 315.73,70.40 L 314.96,66.58 L 315.77,64.59 L 315.09,62.62 L 316.22,56.54 L 319.42,50.89 L 325.91,49.62 L 322.94,58.85 L 324.12,61.31 L 324.97,66.02 L 328.72,70.18 L 324.87,73.57 Z M 459.81,209.48 L 453.94,211.04 L 445.65,209.25 L 453.32,207.43 L 459.16,208.24 L 459.81,209.48 Z M 458.49,231.24 L 466.95,227.91 L 465.27,230.43 L 465.93,231.96 L 463.36,232.37 L 462.83,230.59 L 459.98,232.52 L 455.30,231.20 L 455.93,227.57 L 456.32,229.70 L 458.49,231.24 Z M 348.52,135.57 L 348.53,137.95 L 345.92,141.87 L 343.54,142.63 L 342.47,140.72 L 343.79,136.75 L 348.52,135.57 Z M 357.91,138.05 L 359.23,139.55 L 358.68,143.94 L 356.27,143.06 L 356.34,138.91 L 357.91,138.05 Z M 359.67,89.55 L 361.72,90.26 L 362.84,95.94 L 358.80,98.83 L 356.69,97.09 L 356.03,94.40 L 356.74,91.05 L 359.67,89.55 Z M 339.24,48.41 L 345.12,48.47 L 349.10,52.98 L 340.00,55.55 L 338.43,52.37 L 336.80,51.73 L 335.99,48.47 L 339.24,48.41 Z M 367.59,210.69 L 361.41,209.54 L 365.18,207.67 L 367.59,210.69 Z M 370.59,184.15 L 370.76,181.86 L 370.59,184.15 Z M 369.95,183.36 L 369.57,186.37 L 369.03,183.98 L 368.27,186.73 L 367.26,187.46 L 367.68,184.91 L 366.10,186.90 L 367.40,181.81 L 367.63,184.52 L 368.06,181.20 L 369.95,183.36 Z M 365.79,184.69 L 367.02,182.45 L 365.79,184.69 Z M 275.88,57.52 L 272.42,51.94 L 276.19,50.19 L 278.13,51.74 L 277.92,54.36 L 275.88,57.52 Z M 152.43,171.77 L 153.52,171.17 L 152.43,171.77 Z M 144.09,188.56 L 144.40,187.16 L 144.09,188.56 Z M 153.54,176.56 L 151.55,175.95 L 153.54,176.56 Z M 152.68,182.64 L 151.13,178.85 L 153.11,180.64 L 152.68,182.64 Z M 154.73,170.44 L 156.94,169.34 L 154.73,170.44 Z M 157.30,186.53 L 154.86,190.74 L 155.98,187.38 L 155.08,187.72 L 154.85,185.05 L 156.34,183.35 L 157.30,186.53 Z M 166.92,217.55 L 165.27,215.15 L 166.92,217.55 Z M 155.98,212.75 L 155.36,210.65 L 155.98,212.75 Z M 163.78,211.91 L 164.10,209.52 L 163.78,211.91 Z M 154.44,188.77 L 153.96,186.20 L 154.44,188.77 Z M 155.66,197.66 L 155.24,196.09 L 155.66,197.66 Z M 156.48,190.53 L 157.05,188.39 L 158.10,188.13 L 156.48,190.53 Z M 154.33,184.80 L 154.07,183.17 L 154.33,184.80 Z M 155.30,184.21 L 155.65,182.64 L 155.30,184.21 Z M 168.23,224.13 L 167.98,222.70 L 168.23,224.13 Z M 485.25,239.56 L 483.63,240.23 L 485.25,239.56 Z M 464.83,221.88 L 466.10,218.43 L 464.83,221.88 Z M 451.21,222.95 L 450.78,224.19 L 451.21,222.95 Z M 413.84,254.90 L 411.93,255.66 L 413.80,253.10 L 413.84,254.90 Z M 412.96,254.26 L 413.35,253.31 L 412.96,254.26 Z M 423.23,241.21 L 423.91,240.04 L 423.23,241.21 Z M 489.22,190.35 L 487.98,191.16 L 489.22,190.35 Z M 490.56,188.26 L 490.31,189.67 L 490.56,188.26 Z M 498.49,203.33 L 498.16,201.77 L 498.49,203.33 Z M 407.91,121.53 L 409.47,121.49 L 408.32,122.64 L 407.91,121.53 Z M 402.61,142.70 L 402.10,140.27 L 403.54,140.67 L 402.61,142.70 Z M 389.46,128.45 L 385.69,127.03 L 389.46,128.45 Z M 411.38,130.07 L 408.52,128.88 L 410.66,127.90 L 411.38,130.07 Z M 409.21,126.68 L 410.18,127.27 L 409.21,126.68 Z M 402.31,152.53 L 401.79,153.35 L 401.52,151.96 L 402.31,152.53 Z M 415.78,136.55 L 413.89,136.22 L 415.78,136.55 Z M 441.48,161.04 L 440.63,161.23 L 441.48,161.04 Z M 433.89,151.97 L 432.92,152.46 L 433.89,151.97 Z M 378.48,73.25 L 377.44,72.96 L 378.34,72.13 L 378.48,73.25 Z M 400.62,86.09 L 401.04,84.83 L 400.62,86.09 Z M 374.76,215.27 L 373.51,215.09 L 375.06,214.18 L 374.76,215.27 Z M 168.84,223.32 L 167.92,221.35 L 168.84,223.32 Z M 164.52,212.72 L 164.95,211.40 L 164.52,212.72 Z M 366.82,92.12 L 364.25,92.67 L 363.00,91.22 L 366.71,90.33 L 367.43,91.87 L 366.82,92.12 Z M 361.91,128.74 L 363.50,130.27 L 362.31,131.50 L 359.74,129.60 L 361.91,128.74 Z M 360.10,158.32 L 360.60,157.58 L 360.10,158.32 Z M 297.30,58.72 L 296.60,57.05 L 297.77,57.55 L 297.30,58.72 Z M 296.09,44.88 L 295.16,45.00 L 296.09,44.88 Z M 293.78,50.59 L 291.01,50.26 L 294.96,48.47 L 293.78,50.59 Z M 316.03,87.68 L 315.22,88.14 L 316.03,87.68 Z M 315.30,89.36 L 314.44,88.47 L 315.30,89.36 Z M 376.80,131.77 L 374.45,131.66 L 376.80,131.77 Z M 361.92,88.73 L 359.93,87.24 L 360.99,86.46 L 361.92,88.73 Z M 364.27,149.95 L 365.18,149.04 L 364.27,149.95 Z M 350.23,92.87 L 349.48,91.85 L 350.36,91.87 L 350.23,92.87 Z M 366.12,128.35 L 363.43,127.44 L 364.04,126.54 L 366.12,128.35 Z M 346.22,80.37 L 345.15,82.94 L 342.56,81.94 L 346.22,80.37 Z M 350.26,80.10 L 348.38,82.48 L 350.26,80.10 Z M 361.78,124.59 L 360.69,124.83 L 361.78,124.59 Z M 340.41,110.36 L 341.05,110.46 L 340.41,110.36 Z M 348.45,87.82 L 347.77,87.17 L 349.17,83.42 L 350.45,83.53 L 348.45,87.82 Z M 354.24,83.99 L 353.22,83.82 L 352.77,82.15 L 354.66,81.89 L 354.24,83.99 Z M 324.84,81.10 L 325.86,81.29 L 325.48,82.17 L 323.72,81.50 L 324.84,81.10 Z M 339.09,114.49 L 340.57,115.59 L 337.86,114.88 L 336.37,112.55 L 339.09,114.49 Z M 328.01,100.32 L 326.57,97.52 L 327.15,95.77 L 328.11,96.66 L 328.01,100.32 Z M 336.29,116.69 L 334.72,115.45 L 334.27,113.43 L 335.70,114.49 L 336.29,116.69 Z M 310.04,148.28 L 309.47,147.73 L 310.04,148.28 Z M 300.91,45.08 L 299.62,44.41 L 300.91,45.08 Z M 286.82,92.98 L 285.68,93.25 L 285.74,91.42 L 286.82,92.98 Z M 287.56,91.32 L 286.84,90.96 L 287.56,91.32 Z M 287.30,79.05 L 286.35,77.75 L 287.30,79.05 Z M 300.67,87.01 L 300.73,88.85 L 299.95,87.13 L 299.32,88.51 L 299.63,86.75 L 300.67,87.01 Z M 284.32,87.99 L 283.89,86.62 L 284.78,87.20 L 284.32,87.99 Z M 281.89,94.47 L 280.58,93.59 L 282.07,92.74 L 281.89,94.47 Z M 273.74,95.21 L 272.36,93.81 L 273.74,95.21 Z M 262.56,101.97 L 261.82,101.64 L 262.14,100.06 L 262.56,101.97 Z M 259.45,96.73 L 260.19,97.54 L 259.45,96.73 Z M 261.49,105.04 L 262.37,105.23 L 261.49,105.04 Z M 259.00,96.59 L 258.55,96.05 L 259.00,96.59 Z M 181.39,54.52 L 180.86,54.00 L 181.39,54.52 Z M 337.84,244.28 L 339.25,244.11 L 337.84,244.28 Z M 350.73,250.94 L 349.03,251.12 L 350.73,250.94 Z M 361.25,261.33 L 359.74,260.51 L 361.25,261.33 Z M 366.00,262.92 L 364.76,262.11 L 368.22,262.76 L 371.00,260.98 L 372.99,262.03 L 371.86,264.15 L 372.27,262.86 L 370.94,264.12 L 366.00,262.92 Z M 363.87,262.08 L 363.29,262.81 L 363.87,262.08 Z M 402.73,267.35 L 401.64,268.42 L 402.73,267.35 Z"/>
<path class="cr" d="M 415.53,543.03 L 412.49,544.68 L 415.09,549.03 L 413.33,554.54 L 415.00,556.68 L 410.61,552.03 L 408.96,551.91 L 410.93,554.31 L 408.09,554.08 L 406.04,548.38 L 398.21,545.81 L 393.73,541.58 L 391.53,540.64 L 395.28,543.98 L 393.60,546.34 L 388.84,544.13 L 386.48,540.99 L 387.53,536.86 L 385.32,535.81 L 387.73,532.94 L 402.37,534.86 L 404.47,532.93 L 415.53,543.03 Z"/>
<path class="cu" d="M 401.85,430.60 L 416.71,429.98 L 421.39,432.89 L 435.14,434.20 L 440.70,437.32 L 449.42,436.94 L 450.21,440.02 L 456.47,438.90 L 462.81,441.19 L 456.33,445.20 L 437.23,450.35 L 440.72,444.94 L 439.35,443.31 L 432.64,443.90 L 426.72,438.39 L 422.16,439.44 L 407.82,436.73 L 403.09,438.04 L 401.19,436.97 L 403.70,435.64 L 402.52,434.43 L 396.00,435.43 L 387.53,442.79 L 381.75,444.56 L 385.22,442.07 L 384.61,439.71 L 386.57,437.11 L 401.85,430.60 Z M 433.75,433.86 L 431.71,433.22 L 433.75,433.86 Z M 430.58,431.87 L 428.57,431.20 L 430.58,431.87 Z M 425.79,430.77 L 428.44,430.97 L 425.79,430.77 Z M 431.92,432.85 L 430.75,431.72 L 431.92,432.85 Z M 398.77,443.99 L 394.17,444.58 L 395.72,444.33 L 395.14,441.59 L 398.77,443.99 Z M 420.44,431.01 L 418.21,430.33 L 420.44,431.01 Z"/>
<path class="dm" d="M 571.24,444.18 L 568.60,441.86 L 571.24,444.18 Z"/>
<path class="do" d="M 485.31,452.60 L 482.23,448.76 L 483.80,447.12 L 481.15,439.56 L 482.33,437.69 L 494.49,435.63 L 497.03,437.96 L 500.78,436.90 L 498.35,439.06 L 509.06,439.68 L 507.61,443.64 L 502.70,443.41 L 490.22,449.02 L 488.76,454.98 L 485.31,452.60 Z"/>
<path class="gd" d="M 579.47,470.66 L 579.55,468.63 L 579.47,470.66 Z"/>
<path class="gt" d="M 329.98,509.28 L 329.94,503.14 L 333.36,496.32 L 343.65,495.67 L 343.71,493.01 L 335.41,486.37 L 338.69,486.20 L 338.43,481.56 L 352.68,480.52 L 353.43,496.40 L 358.59,497.04 L 358.52,495.48 L 361.62,497.04 L 354.57,503.48 L 354.87,507.11 L 347.91,515.04 L 337.24,513.59 L 329.98,509.28 Z"/>
<path class="hn" d="M 403.00,497.90 L 393.03,502.40 L 388.61,502.10 L 383.54,510.39 L 380.84,509.10 L 375.28,512.37 L 376.10,515.97 L 373.53,519.03 L 366.93,516.24 L 366.60,512.09 L 361.06,512.94 L 353.45,508.84 L 354.77,503.19 L 365.67,495.11 L 372.14,495.65 L 379.22,492.60 L 387.28,491.83 L 393.13,492.40 L 397.48,495.00 L 394.98,495.68 L 403.00,497.90 Z M 375.42,490.10 L 373.82,490.93 L 375.42,490.10 Z"/>
<path class="ht" d="M 481.15,439.56 L 483.47,443.55 L 482.23,448.76 L 485.31,452.60 L 472.75,454.56 L 469.49,457.28 L 464.41,455.72 L 465.55,453.11 L 476.77,451.82 L 479.50,449.80 L 475.12,446.89 L 475.06,443.77 L 469.48,443.58 L 469.63,441.88 L 481.15,439.56 Z M 475.85,449.17 L 471.96,448.82 L 475.85,449.17 Z M 473.96,439.06 L 471.74,439.51 L 473.96,439.06 Z"/>
<path class="jm" d="M 443.23,460.62 L 452.23,462.99 L 447.25,463.72 L 445.07,466.43 L 440.48,466.14 L 435.38,463.34 L 443.23,460.62 Z"/>
<path class="kn" d="M 554.61,433.55 L 552.70,433.06 L 554.61,433.55 Z"/>
<path class="lc" d="M 579.18,453.75 L 577.70,454.04 L 578.11,451.72 L 579.18,453.75 Z"/>
<path class="mx" d="M 166.11,349.64 L 181.28,352.08 L 180.23,353.44 L 202.21,367.34 L 220.31,370.40 L 220.84,367.03 L 232.06,368.70 L 240.88,378.86 L 243.45,386.90 L 250.63,392.01 L 255.40,386.65 L 263.19,387.05 L 275.26,404.88 L 277.65,413.52 L 291.24,417.66 L 287.34,429.89 L 285.74,444.72 L 289.50,452.34 L 288.75,454.66 L 286.31,448.59 L 290.35,459.15 L 299.89,474.58 L 305.60,475.52 L 311.26,479.80 L 326.78,475.15 L 333.88,476.58 L 335.80,475.10 L 334.43,473.01 L 339.55,468.92 L 341.56,455.38 L 355.23,449.75 L 364.33,449.80 L 363.24,449.08 L 365.09,448.31 L 368.15,451.76 L 362.61,464.65 L 364.65,464.87 L 363.07,466.92 L 364.33,467.32 L 362.79,475.10 L 360.32,471.44 L 352.68,480.52 L 338.43,481.56 L 338.69,486.20 L 335.41,486.37 L 343.71,493.01 L 343.65,495.67 L 333.36,496.32 L 329.94,503.14 L 329.98,509.28 L 312.24,495.31 L 315.27,497.45 L 308.03,494.28 L 307.09,495.45 L 308.86,495.99 L 295.17,500.70 L 261.09,486.70 L 253.13,479.91 L 241.56,475.93 L 238.33,471.50 L 230.89,466.78 L 227.39,460.93 L 226.38,457.48 L 229.63,456.30 L 227.97,454.24 L 230.85,449.07 L 228.07,444.74 L 227.65,439.56 L 215.44,423.20 L 217.25,423.33 L 214.29,421.90 L 212.52,417.93 L 214.12,418.28 L 207.79,414.01 L 209.10,412.22 L 205.63,411.70 L 205.75,409.31 L 208.16,407.97 L 207.42,405.63 L 200.30,398.18 L 200.70,394.00 L 196.88,392.48 L 191.55,383.17 L 188.31,369.74 L 189.23,365.82 L 178.55,357.76 L 177.39,371.13 L 185.94,386.67 L 185.89,391.37 L 189.97,401.28 L 190.93,402.24 L 190.73,399.84 L 192.00,401.45 L 195.40,416.71 L 194.84,420.81 L 196.56,423.05 L 197.64,421.30 L 202.44,429.05 L 201.48,431.46 L 197.45,432.90 L 195.89,426.91 L 185.68,415.04 L 186.84,409.43 L 185.74,404.10 L 181.95,400.36 L 181.63,397.41 L 178.26,398.46 L 170.69,388.63 L 175.54,388.70 L 176.73,390.54 L 175.87,388.29 L 178.16,384.93 L 173.97,376.64 L 169.95,372.46 L 166.11,349.64 Z M 367.68,458.68 L 368.75,456.32 L 367.68,458.68 Z M 221.42,446.94 L 220.50,446.11 L 221.42,446.94 Z M 184.74,464.52 L 183.67,463.98 L 184.74,464.52 Z M 196.43,415.82 L 195.62,415.05 L 196.43,415.82 Z M 185.08,381.54 L 183.13,377.03 L 185.08,381.54 Z M 170.12,385.85 L 168.98,385.29 L 170.25,383.51 L 170.12,385.85 Z M 191.26,383.22 L 190.40,384.89 L 188.97,383.98 L 190.12,381.43 L 191.26,383.22 Z M 151.76,374.05 L 151.47,372.01 L 151.76,374.05 Z M 332.63,474.84 L 333.72,474.11 L 332.63,474.84 Z M 200.60,423.37 L 200.26,421.76 L 200.60,423.37 Z M 194.20,407.32 L 193.07,408.57 L 194.20,407.32 Z M 187.60,419.01 L 185.62,417.49 L 187.60,419.01 Z M 185.33,417.33 L 184.04,415.11 L 185.77,411.50 L 185.33,417.33 Z"/>
<path class="ni" d="M 403.00,497.90 L 401.17,499.62 L 403.63,503.36 L 401.90,512.39 L 403.57,520.00 L 402.49,517.55 L 401.44,519.54 L 404.05,534.15 L 386.52,534.21 L 368.58,520.32 L 374.30,518.41 L 376.10,515.97 L 375.47,512.20 L 380.84,509.10 L 383.54,510.39 L 388.61,502.10 L 393.03,502.40 L 403.00,497.90 Z"/>
<path class="pa" d="M 461.61,541.97 L 464.56,547.57 L 462.43,551.81 L 460.22,551.11 L 459.96,555.51 L 453.79,549.24 L 455.57,545.86 L 459.36,547.31 L 455.71,544.82 L 453.32,546.65 L 446.29,542.35 L 442.73,543.34 L 435.86,551.61 L 441.01,557.11 L 435.74,560.67 L 433.59,560.61 L 431.13,555.38 L 429.79,558.14 L 424.95,554.35 L 416.38,554.17 L 415.00,556.68 L 413.33,554.54 L 415.09,549.03 L 413.04,548.07 L 413.47,543.24 L 417.40,544.04 L 420.67,547.90 L 423.21,547.25 L 421.94,545.83 L 427.16,548.13 L 441.00,538.04 L 445.07,537.73 L 454.40,538.38 L 461.61,541.97 Z M 449.26,548.28 L 449.04,546.63 L 449.26,548.28 Z M 427.33,561.27 L 425.08,559.30 L 427.33,561.27 Z"/>
<path class="sv" d="M 353.45,508.84 L 361.06,512.94 L 367.23,512.44 L 366.98,517.22 L 361.35,518.63 L 347.91,515.04 L 353.45,508.84 Z"/>
<path class="tt" d="M 589.88,473.78 L 591.11,471.79 L 589.88,473.78 Z M 591.76,482.96 L 584.99,486.71 L 587.45,483.66 L 584.63,480.64 L 588.67,477.68 L 589.88,477.03 L 591.76,482.96 Z"/>
<path class="us" d="M 152.11,154.60 L 151.50,153.95 L 152.65,152.61 L 152.94,154.59 L 152.11,154.60 Z M 151.06,156.41 L 150.49,155.14 L 152.19,155.40 L 151.06,156.41 Z M 152.23,140.25 L 151.21,139.19 L 152.23,140.25 Z M 124.67,104.77 L 124.15,104.41 L 124.67,104.77 Z M 124.12,109.22 L 126.02,108.70 L 124.12,109.22 Z M 114.53,99.93 L 113.72,99.42 L 114.53,99.93 Z M 104.08,88.67 L 105.07,88.21 L 104.08,88.67 Z M 53.75,93.59 L 53.18,93.03 L 53.75,93.59 Z M 55.18,97.05 L 54.37,97.05 L 55.18,97.05 Z M 88.96,101.15 L 90.41,102.36 L 89.85,104.35 L 87.22,102.90 L 87.28,104.47 L 82.58,103.32 L 80.45,104.24 L 82.08,103.51 L 81.47,101.42 L 80.06,102.41 L 81.03,99.08 L 84.40,98.90 L 83.98,102.01 L 86.29,98.43 L 88.96,101.15 Z M 160.34,163.79 L 158.47,167.80 L 154.73,170.44 L 154.11,166.95 L 155.78,166.40 L 157.12,160.66 L 151.32,162.20 L 151.58,160.80 L 155.54,158.93 L 153.87,156.34 L 153.59,150.88 L 151.63,148.92 L 152.58,145.42 L 154.24,146.90 L 153.64,144.34 L 155.01,144.65 L 153.00,143.92 L 152.69,141.82 L 154.78,139.10 L 152.61,140.41 L 151.39,137.89 L 152.79,130.32 L 151.53,131.53 L 149.54,138.70 L 147.27,136.14 L 148.29,133.06 L 149.32,132.96 L 148.75,131.35 L 147.46,133.09 L 145.74,129.91 L 145.00,130.78 L 146.89,135.48 L 144.22,135.82 L 138.38,121.14 L 140.93,118.88 L 140.32,121.57 L 142.18,120.69 L 141.42,118.66 L 136.99,118.65 L 134.56,115.39 L 135.44,114.00 L 126.30,108.89 L 125.33,105.25 L 127.44,103.61 L 124.45,104.21 L 122.89,102.17 L 124.34,101.59 L 121.97,99.13 L 122.88,99.02 L 122.97,97.36 L 124.37,97.02 L 118.97,95.41 L 118.77,94.46 L 120.68,93.49 L 118.20,93.13 L 116.36,94.21 L 116.27,96.01 L 114.64,95.93 L 116.65,97.50 L 112.94,99.44 L 110.58,96.48 L 108.38,98.01 L 108.74,96.84 L 101.87,97.86 L 99.16,96.23 L 99.69,94.71 L 104.06,94.51 L 101.72,92.47 L 105.47,90.70 L 107.78,88.15 L 111.89,88.53 L 115.17,92.58 L 113.72,88.55 L 117.09,87.98 L 111.28,86.30 L 107.61,86.14 L 102.95,87.96 L 100.86,86.58 L 100.43,89.22 L 95.80,88.75 L 91.79,90.20 L 93.04,93.28 L 91.96,94.41 L 86.56,95.67 L 75.97,94.17 L 73.59,95.55 L 65.28,93.53 L 64.22,93.79 L 64.43,95.22 L 63.19,95.28 L 51.54,90.71 L 50.67,89.86 L 52.31,89.84 L 51.80,88.49 L 47.56,89.19 L 46.55,86.90 L 45.03,88.02 L 44.13,86.26 L 42.26,86.70 L 43.99,85.47 L 52.87,86.45 L 56.39,91.27 L 56.75,89.48 L 59.11,88.59 L 66.17,89.68 L 66.42,90.85 L 70.12,89.18 L 73.71,90.50 L 73.94,88.89 L 76.14,87.12 L 78.10,87.49 L 78.35,85.34 L 81.57,85.12 L 84.12,83.38 L 77.47,82.45 L 77.86,80.31 L 79.72,80.79 L 77.67,78.80 L 74.22,81.46 L 74.95,76.74 L 73.82,74.05 L 66.77,71.07 L 68.73,71.51 L 70.70,70.11 L 70.01,68.96 L 72.88,67.10 L 75.25,61.83 L 78.72,61.07 L 74.49,61.17 L 73.21,62.93 L 68.75,60.05 L 69.39,52.22 L 72.77,52.03 L 73.27,54.01 L 72.10,54.76 L 74.02,54.94 L 73.68,56.59 L 75.41,56.60 L 74.76,54.75 L 75.83,55.40 L 72.26,50.95 L 73.90,50.75 L 73.88,48.79 L 72.16,48.83 L 73.97,44.41 L 75.08,45.19 L 75.08,43.91 L 76.56,44.88 L 77.71,43.47 L 81.11,43.01 L 82.26,44.08 L 83.90,43.45 L 82.92,43.34 L 84.64,41.83 L 86.26,42.36 L 87.29,41.35 L 88.92,45.18 L 94.07,45.26 L 98.03,48.00 L 99.28,47.52 L 101.24,44.66 L 101.11,42.44 L 103.24,43.03 L 104.58,41.96 L 102.70,39.72 L 97.98,39.69 L 98.46,37.01 L 97.26,38.36 L 91.57,29.87 L 93.39,24.95 L 95.80,26.28 L 94.08,19.49 L 100.54,21.32 L 102.05,23.28 L 102.89,21.96 L 107.25,23.75 L 108.90,25.79 L 108.36,25.17 L 105.91,26.74 L 105.84,28.25 L 112.26,34.01 L 111.62,30.73 L 112.59,27.13 L 113.81,26.78 L 112.61,31.23 L 115.37,34.59 L 116.19,33.23 L 113.44,29.30 L 115.61,27.86 L 112.28,23.23 L 114.11,19.16 L 113.53,9.05 L 114.71,9.65 L 117.93,7.64 L 121.89,11.64 L 124.81,12.06 L 135.09,9.11 L 133.68,9.67 L 136.62,11.07 L 140.03,11.18 L 138.66,13.50 L 140.05,12.33 L 141.05,13.02 L 140.36,11.00 L 142.04,10.91 L 145.92,13.91 L 151.92,13.29 L 152.04,16.70 L 149.80,16.83 L 149.66,17.68 L 153.10,18.10 L 153.04,21.22 L 157.22,24.34 L 155.82,25.27 L 156.80,27.12 L 155.85,27.49 L 161.88,31.87 L 169.82,43.09 L 173.72,44.40 L 176.91,51.06 L 137.49,113.65 L 143.88,117.17 L 142.51,118.68 L 144.50,127.42 L 143.81,129.85 L 147.67,129.85 L 150.21,127.31 L 153.76,127.61 L 156.09,140.68 L 155.76,155.84 L 160.75,162.15 L 160.34,163.79 Z M 42.64,85.54 L 42.04,88.36 L 36.23,84.77 L 36.13,83.05 L 39.38,82.67 L 42.64,85.54 Z M 146.72,160.15 L 144.48,161.32 L 144.93,159.64 L 146.72,160.15 Z M 152.73,166.95 L 152.59,168.34 L 151.77,167.91 L 152.35,165.37 L 152.73,166.95 Z M 153.11,158.57 L 151.58,159.25 L 151.20,156.89 L 153.39,155.45 L 153.11,158.57 Z M 155.43,164.83 L 153.72,166.37 L 153.37,164.52 L 151.37,165.11 L 154.05,161.34 L 155.80,161.14 L 155.43,164.83 Z M 151.43,150.24 L 152.54,151.41 L 151.83,153.19 L 150.98,151.47 L 150.48,154.04 L 149.12,153.73 L 149.20,149.06 L 151.43,150.24 Z M 146.24,165.35 L 145.44,161.52 L 146.24,165.35 Z M 121.24,101.26 L 120.06,100.90 L 121.24,101.26 Z M 114.24,102.12 L 118.43,100.06 L 118.80,100.99 L 114.24,102.12 Z M 117.41,98.41 L 115.71,99.67 L 117.41,98.41 Z M 118.33,95.49 L 117.84,94.95 L 118.33,95.49 Z M 85.18,104.86 L 83.68,104.29 L 85.18,104.86 Z M 93.47,98.41 L 94.44,97.99 L 93.47,98.41 Z M 88.05,100.10 L 87.73,98.75 L 88.05,100.10 Z M 70.72,105.10 L 70.24,104.57 L 70.72,105.10 Z M 76.56,104.18 L 77.99,104.07 L 76.56,104.18 Z M 52.58,92.62 L 52.46,93.90 L 51.34,93.15 L 52.58,92.62 Z M 45.30,89.97 L 45.37,89.11 L 45.30,89.97 Z M 42.09,91.40 L 41.83,90.08 L 42.09,91.40 Z M 53.99,96.08 L 51.82,96.07 L 53.99,96.08 Z M 69.71,74.96 L 69.64,73.87 L 71.46,74.40 L 69.71,74.96 Z M 146.81,144.90 L 145.85,149.79 L 143.87,153.02 L 143.83,150.42 L 144.75,149.54 L 143.63,147.73 L 144.83,146.62 L 144.70,144.65 L 142.55,145.54 L 143.49,143.73 L 145.74,142.76 L 146.81,144.90 Z M 150.69,140.02 L 152.19,140.96 L 151.90,145.19 L 151.57,141.57 L 150.70,146.78 L 147.71,147.88 L 150.39,138.43 L 150.69,140.02 Z M 147.29,137.50 L 146.79,139.40 L 149.21,140.49 L 148.45,141.79 L 146.97,141.41 L 148.09,142.39 L 147.40,144.11 L 145.80,141.66 L 143.77,142.46 L 143.36,137.70 L 145.13,136.54 L 147.29,137.50 Z M 148.43,154.33 L 149.72,155.14 L 150.82,162.70 L 149.05,161.90 L 150.69,164.90 L 148.94,168.07 L 146.71,161.95 L 147.91,160.36 L 146.12,157.82 L 148.23,157.75 L 146.50,156.50 L 148.43,154.33 Z M 148.60,150.14 L 148.86,151.92 L 146.28,155.01 L 145.22,154.89 L 146.91,152.56 L 147.17,149.46 L 148.60,150.14 Z M 93.06,99.31 L 94.16,100.74 L 93.03,101.26 L 88.80,98.37 L 91.59,98.87 L 92.06,97.89 L 93.06,99.31 Z M -118.13,310.13 L -119.50,308.22 L -116.68,303.30 L -112.58,301.31 L -110.92,311.07 L -118.13,310.13 Z M -114.96,288.68 L -112.58,291.62 L -114.96,288.68 Z M -112.58,294.08 L -110.82,297.66 L -113.96,296.40 L -113.86,293.21 L -112.58,294.08 Z M -116.76,284.26 L -117.17,285.84 L -119.19,283.43 L -118.56,281.05 L -116.26,282.01 L -116.76,284.26 Z M -122.38,273.33 L -123.91,270.52 L -120.64,271.83 L -122.38,273.33 Z M -127.08,269.56 L -125.46,269.35 L -127.08,269.56 Z M -115.44,293.14 L -115.76,291.28 L -115.44,293.14 Z M 409.05,259.81 L 425.01,255.09 L 425.32,252.80 L 427.65,252.20 L 428.98,246.83 L 428.50,240.75 L 430.33,234.24 L 432.39,235.49 L 435.36,233.37 L 438.05,234.46 L 441.19,243.86 L 443.62,244.04 L 444.27,246.37 L 446.24,246.48 L 447.81,248.58 L 443.68,253.60 L 441.42,253.45 L 441.63,255.33 L 440.04,255.26 L 439.71,253.56 L 439.15,257.93 L 434.32,262.43 L 433.41,269.31 L 434.99,270.37 L 433.41,273.15 L 437.96,276.13 L 440.03,274.90 L 438.87,273.32 L 440.65,275.85 L 437.27,278.09 L 436.62,276.90 L 434.68,279.28 L 434.20,277.44 L 432.82,277.50 L 433.05,280.65 L 425.81,283.60 L 421.20,289.04 L 420.29,285.46 L 421.20,287.79 L 420.15,291.05 L 421.99,291.52 L 422.63,296.05 L 420.23,302.77 L 415.25,300.34 L 416.79,296.15 L 414.62,299.36 L 419.98,307.27 L 417.29,317.78 L 417.37,311.59 L 416.25,311.74 L 415.48,308.94 L 413.05,308.99 L 414.10,307.28 L 412.13,307.13 L 411.84,303.51 L 413.28,300.70 L 409.84,303.41 L 412.44,309.66 L 410.59,308.83 L 413.25,311.62 L 407.63,310.54 L 407.93,306.78 L 407.14,309.19 L 407.49,311.00 L 414.04,312.90 L 413.12,314.76 L 408.73,312.12 L 414.94,316.23 L 414.07,317.66 L 411.91,316.41 L 415.03,318.37 L 414.89,319.62 L 409.38,318.37 L 414.56,320.43 L 417.35,319.61 L 422.11,326.82 L 418.13,321.36 L 419.88,325.12 L 417.66,324.41 L 415.73,326.93 L 414.32,325.63 L 414.85,327.59 L 418.68,326.53 L 419.12,328.58 L 420.74,326.98 L 419.20,331.16 L 413.76,331.17 L 417.34,332.27 L 416.26,334.70 L 414.23,333.93 L 415.03,334.73 L 418.55,335.27 L 412.93,337.51 L 411.16,344.02 L 410.62,342.38 L 410.68,344.35 L 405.94,346.85 L 400.79,356.09 L 396.68,358.10 L 397.35,359.70 L 395.72,358.78 L 396.73,360.37 L 393.40,369.41 L 396.61,379.15 L 403.27,388.09 L 404.58,392.43 L 402.66,387.92 L 402.35,389.38 L 400.79,386.45 L 401.93,389.18 L 408.98,400.18 L 409.95,407.71 L 408.39,412.83 L 404.18,414.37 L 403.75,413.08 L 405.18,413.17 L 398.79,408.65 L 396.42,405.07 L 397.05,403.40 L 395.79,404.69 L 395.41,401.53 L 393.65,402.55 L 389.95,398.24 L 391.57,395.12 L 388.64,395.75 L 388.60,387.63 L 380.46,380.88 L 376.28,380.44 L 370.06,384.29 L 367.59,379.94 L 366.48,380.97 L 361.92,379.78 L 363.12,378.92 L 357.09,380.80 L 358.23,378.90 L 351.91,382.18 L 353.27,381.57 L 351.52,378.66 L 350.95,381.23 L 336.60,383.13 L 337.77,384.95 L 342.86,384.42 L 343.31,386.11 L 341.01,387.84 L 345.96,390.63 L 343.70,392.53 L 338.15,388.69 L 338.03,392.02 L 336.81,390.64 L 334.42,392.07 L 330.74,391.08 L 330.89,388.96 L 326.50,387.12 L 324.17,389.38 L 313.71,388.47 L 313.56,386.53 L 313.29,388.76 L 307.55,391.22 L 309.09,389.94 L 305.77,388.80 L 306.70,391.33 L 304.15,394.48 L 297.69,398.15 L 299.20,397.05 L 294.96,396.45 L 296.43,398.39 L 291.42,400.75 L 291.97,401.98 L 289.51,403.09 L 289.38,407.02 L 287.14,405.97 L 289.05,407.72 L 289.29,413.55 L 291.29,417.13 L 289.75,418.35 L 277.65,413.52 L 275.26,404.88 L 263.57,387.34 L 257.27,385.94 L 250.63,392.01 L 243.45,386.90 L 240.88,378.86 L 232.11,368.72 L 220.84,367.03 L 220.31,370.40 L 202.21,367.34 L 180.23,353.44 L 181.28,352.08 L 166.11,349.64 L 165.55,343.52 L 160.76,338.67 L 160.76,336.52 L 149.27,328.62 L 150.42,324.72 L 146.19,313.82 L 147.82,310.27 L 145.36,306.63 L 145.59,304.07 L 146.50,302.37 L 147.83,305.34 L 147.74,301.15 L 152.24,302.27 L 147.63,300.03 L 146.15,302.03 L 143.90,299.97 L 144.91,298.68 L 142.33,292.16 L 143.81,285.84 L 142.41,281.57 L 146.81,273.66 L 147.87,263.39 L 152.09,258.03 L 159.28,240.80 L 162.81,242.58 L 159.03,240.24 L 160.87,237.92 L 160.32,236.13 L 161.85,235.90 L 160.43,235.44 L 161.43,224.59 L 169.75,229.50 L 169.70,231.49 L 166.23,234.14 L 170.37,231.42 L 168.65,235.72 L 166.15,236.05 L 167.63,236.78 L 169.90,235.53 L 171.95,231.25 L 171.02,229.77 L 171.85,229.00 L 171.05,227.39 L 172.27,226.21 L 171.78,223.51 L 303.34,245.03 L 303.34,242.24 L 304.38,242.37 L 305.99,246.84 L 313.94,247.58 L 321.38,251.33 L 324.28,250.04 L 330.97,251.09 L 324.92,254.61 L 319.57,261.47 L 325.25,259.20 L 325.00,261.87 L 327.94,261.68 L 336.06,256.36 L 337.36,259.43 L 340.67,258.46 L 343.06,260.90 L 346.76,261.02 L 354.61,257.56 L 354.79,259.60 L 358.36,259.20 L 360.94,262.72 L 357.29,262.62 L 356.85,264.10 L 352.94,262.81 L 349.07,264.58 L 347.55,267.09 L 347.63,265.15 L 345.87,266.71 L 345.46,265.15 L 341.18,274.69 L 344.56,273.72 L 342.76,285.27 L 344.10,292.81 L 346.96,296.73 L 350.43,294.78 L 352.07,290.38 L 352.05,286.79 L 349.69,281.59 L 350.24,273.63 L 353.36,269.46 L 353.86,272.63 L 354.27,268.82 L 356.43,267.52 L 355.42,266.61 L 355.95,264.88 L 364.91,268.10 L 365.83,273.85 L 363.37,279.00 L 365.15,279.48 L 367.95,275.86 L 369.56,276.50 L 372.24,285.03 L 370.73,285.85 L 368.21,293.16 L 373.95,294.80 L 389.99,283.02 L 391.38,280.88 L 389.65,277.59 L 400.68,275.22 L 403.98,272.22 L 403.13,270.01 L 404.00,268.81 L 402.36,268.40 L 409.05,259.81 Z M 428.66,285.05 L 431.73,283.53 L 425.68,288.50 L 421.19,289.91 L 423.09,287.21 L 429.56,283.49 L 428.66,285.05 Z M 443.16,254.20 L 442.14,254.87 L 443.16,254.20 Z M 420.57,290.97 L 420.97,289.89 L 420.57,290.97 Z M 438.41,278.95 L 436.76,279.62 L 438.41,278.95 Z M 434.29,279.38 L 433.97,278.23 L 434.29,279.38 Z M 441.47,278.79 L 440.08,279.09 L 441.47,278.79 Z M 423.14,331.03 L 422.38,327.13 L 423.14,331.03 Z M 421.83,331.76 L 420.75,332.55 L 421.83,331.76 Z M 418.53,336.83 L 419.76,334.23 L 418.53,336.83 Z M 395.94,405.44 L 394.69,404.91 L 395.94,405.44 Z M 395.48,404.74 L 394.70,403.71 L 395.48,404.74 Z M 409.24,413.36 L 408.14,415.07 L 409.24,413.36 Z M 327.29,389.65 L 325.84,388.89 L 327.29,389.65 Z M 292.36,402.63 L 293.45,400.86 L 292.36,402.63 Z M 294.08,400.72 L 296.54,398.97 L 294.08,400.72 Z M 289.97,407.25 L 292.04,403.24 L 289.97,407.25 Z M 305.71,393.07 L 307.51,391.56 L 305.71,393.07 Z M 291.10,416.12 L 289.73,408.04 L 291.10,416.12 Z M 153.44,340.65 L 152.75,339.96 L 153.44,340.65 Z M 159.22,345.41 L 158.14,343.66 L 159.22,345.41 Z M 151.35,334.48 L 150.32,333.41 L 151.35,334.48 Z M 152.67,333.62 L 154.54,334.60 L 152.67,333.62 Z M 160.39,341.37 L 159.22,340.41 L 160.39,341.37 Z M 171.03,225.76 L 169.97,225.55 L 171.03,225.76 Z M 169.55,226.59 L 169.12,225.61 L 169.55,226.59 Z M 170.76,229.70 L 171.08,231.63 L 170.76,229.70 Z M 422.56,296.90 L 422.21,298.16 L 422.56,296.90 Z M 419.35,311.58 L 419.89,308.28 L 419.35,311.58 Z M 393.88,370.52 L 393.93,372.40 L 393.88,370.52 Z M 407.33,396.79 L 404.79,392.78 L 407.33,396.79 Z M 348.29,382.64 L 347.18,382.37 L 348.29,382.64 Z M 351.46,382.06 L 349.86,382.30 L 351.46,382.06 Z M 346.80,385.91 L 346.37,384.04 L 346.80,385.91 Z M 372.81,384.20 L 371.45,384.46 L 372.81,384.20 Z M 334.30,251.30 L 336.24,249.41 L 334.30,251.30 Z M 340.21,254.62 L 337.44,257.81 L 336.27,256.77 L 337.57,254.81 L 340.21,254.62 Z M 359.50,260.15 L 358.87,258.79 L 359.50,260.15 Z M 362.91,262.00 L 361.19,262.51 L 362.91,262.00 Z M 353.21,265.36 L 352.74,266.55 L 353.21,265.36 Z M 345.63,269.69 L 344.42,273.27 L 345.63,269.69 Z"/>
<path class="vc" d="M 579.47,459.85 L 579.02,458.17 L 579.47,459.85 Z"/>
</g>
</svg>