<svg viewBox="0 0 600.0 495.3" xmlns="http://www.w3.org/2000/svg" width="600.0" height="495.3">
<defs><style>.state{fill:#dde1e6}.state path{stroke:#fff;stroke-width:0.8}</style></defs>
<g class="state">
<path class="au" d="M 206.37,139.44 L 205.93,141.72 L 207.80,143.93 L 210.07,155.18 L 211.38,155.93 L 214.66,154.41 L 219.87,159.11 L 220.76,168.84 L 223.87,172.23 L 225.24,177.07 L 224.64,181.36 L 226.57,183.26 L 226.89,186.12 L 233.52,188.84 L 235.59,191.50 L 242.10,195.04 L 242.90,196.35 L 241.62,197.03 L 246.55,203.88 L 248.15,209.83 L 249.88,210.60 L 250.18,207.95 L 253.51,210.66 L 254.03,209.33 L 255.44,216.91 L 261.77,221.56 L 270.31,234.57 L 270.00,243.38 L 273.20,254.10 L 269.45,268.02 L 268.89,274.53 L 265.86,282.11 L 261.65,285.62 L 258.32,290.83 L 255.19,301.92 L 251.29,308.37 L 249.61,321.91 L 246.72,323.87 L 236.45,325.19 L 229.92,331.14 L 225.83,331.66 L 227.42,332.59 L 226.99,335.11 L 220.57,330.09 L 221.08,327.71 L 217.77,329.81 L 216.22,328.50 L 218.80,326.47 L 217.33,324.91 L 214.16,326.84 L 215.89,327.43 L 208.68,332.43 L 201.74,328.87 L 195.14,328.69 L 188.52,324.89 L 184.64,319.63 L 184.28,312.64 L 179.42,306.38 L 181.47,306.62 L 181.42,304.76 L 174.39,306.63 L 176.48,302.01 L 173.78,295.37 L 171.24,302.94 L 166.06,303.70 L 166.90,301.17 L 169.31,301.15 L 169.97,295.30 L 172.77,290.81 L 172.27,287.91 L 173.16,287.10 L 171.82,283.16 L 168.33,291.20 L 163.16,294.29 L 159.71,299.18 L 160.21,301.68 L 158.15,301.35 L 154.79,298.59 L 156.88,298.56 L 155.40,293.74 L 152.20,288.33 L 149.53,287.64 L 148.24,284.46 L 149.10,282.94 L 145.46,280.35 L 139.64,278.45 L 136.17,278.84 L 129.31,274.99 L 115.24,276.54 L 104.83,280.78 L 95.85,281.03 L 85.13,286.49 L 80.42,293.41 L 71.74,293.99 L 66.96,292.72 L 57.03,293.86 L 54.45,296.91 L 44.28,302.25 L 35.66,301.73 L 26.01,296.03 L 25.91,290.32 L 28.25,291.28 L 30.32,287.85 L 30.42,276.48 L 26.45,268.00 L 25.03,257.54 L 20.60,249.79 L 19.73,244.48 L 14.33,236.13 L 15.21,236.57 L 15.42,235.40 L 16.87,238.81 L 18.50,238.40 L 16.03,231.98 L 17.71,233.62 L 17.78,235.75 L 18.61,234.93 L 19.50,237.12 L 20.93,236.89 L 20.92,233.77 L 15.82,223.76 L 17.99,216.63 L 17.52,211.20 L 19.69,205.97 L 20.45,210.13 L 24.09,205.57 L 36.88,197.53 L 41.36,197.99 L 52.23,193.04 L 55.31,193.33 L 64.35,190.38 L 69.70,182.74 L 72.98,180.28 L 71.71,176.49 L 72.44,173.72 L 76.98,169.05 L 80.78,176.30 L 80.97,173.02 L 82.49,173.62 L 82.77,172.27 L 80.31,169.41 L 81.06,167.63 L 88.52,168.82 L 86.17,168.13 L 87.73,165.27 L 86.80,165.95 L 86.02,164.52 L 86.39,162.77 L 88.01,161.30 L 90.38,162.42 L 88.95,160.56 L 90.22,159.52 L 92.25,160.28 L 91.12,157.60 L 93.69,156.07 L 94.00,154.57 L 94.21,156.37 L 96.51,156.14 L 96.72,152.73 L 100.03,153.94 L 102.16,151.19 L 105.71,153.08 L 110.46,157.85 L 109.63,161.67 L 112.87,158.00 L 115.96,158.72 L 116.97,160.55 L 117.30,158.64 L 119.65,160.42 L 119.67,158.50 L 121.02,158.36 L 118.01,155.47 L 120.96,150.06 L 123.65,148.28 L 123.07,146.01 L 125.94,143.97 L 125.98,142.56 L 127.54,143.39 L 130.26,140.18 L 131.20,141.55 L 137.43,141.67 L 139.36,140.54 L 139.11,137.44 L 135.26,136.30 L 133.66,135.17 L 134.55,134.38 L 154.19,141.00 L 159.91,138.59 L 158.51,141.11 L 160.46,140.99 L 160.93,142.50 L 162.07,142.58 L 162.14,140.60 L 163.86,139.46 L 166.47,142.03 L 163.84,144.87 L 163.36,147.77 L 159.94,148.29 L 160.11,152.45 L 156.91,158.98 L 174.78,170.93 L 179.68,172.14 L 181.20,175.01 L 186.25,177.53 L 189.29,177.00 L 191.33,175.59 L 195.06,166.60 L 196.42,159.87 L 195.44,151.54 L 196.35,145.92 L 198.31,145.00 L 196.83,142.03 L 198.57,140.09 L 199.90,132.85 L 202.70,131.56 L 204.41,138.56 L 206.37,139.44 Z M 269.75,233.06 L 269.50,229.10 L 270.90,225.82 L 271.49,228.18 L 269.75,233.06 Z M 182.87,169.96 L 180.64,171.08 L 181.49,169.25 L 183.48,168.82 L 184.08,169.57 L 182.87,169.96 Z M 164.98,151.58 L 166.11,151.47 L 165.18,153.36 L 166.13,154.81 L 162.55,154.27 L 163.13,151.98 L 164.60,150.74 L 164.98,151.58 Z M 124.93,137.64 L 125.87,138.53 L 122.27,138.34 L 123.88,135.40 L 124.93,137.64 Z M 125.95,135.65 L 130.11,134.44 L 131.84,136.05 L 128.08,139.25 L 125.27,137.23 L 124.35,134.60 L 125.95,135.65 Z M 14.32,235.21 L 12.81,231.50 L 14.32,235.21 Z M 170.63,307.62 L 174.00,308.52 L 169.68,310.28 L 163.87,308.82 L 168.95,306.47 L 170.63,307.62 Z M 221.14,328.62 L 219.82,328.91 L 221.14,328.62 Z M 220.04,329.73 L 218.85,330.03 L 220.04,329.73 Z M 243.92,195.06 L 243.52,194.12 L 243.92,195.06 Z M 257.38,217.14 L 257.97,219.13 L 257.38,217.14 Z M 249.58,208.12 L 249.48,207.12 L 249.58,208.12 Z M 272.70,245.13 L 271.98,247.08 L 272.70,245.13 Z M 272.08,244.26 L 272.02,242.20 L 272.08,244.26 Z M 200.58,131.27 L 199.66,130.86 L 200.58,131.27 Z M 200.99,127.94 L 200.07,127.98 L 200.99,127.94 Z M 226.21,181.08 L 226.35,182.79 L 225.07,181.22 L 226.21,181.08 Z M 164.24,135.67 L 165.40,133.28 L 164.24,135.67 Z M 162.57,137.13 L 163.47,136.24 L 162.57,137.13 Z M 167.41,164.66 L 166.87,163.44 L 167.41,164.66 Z M 182.55,173.58 L 182.77,172.75 L 182.55,173.58 Z M 161.93,151.72 L 161.79,150.67 L 161.93,151.72 Z M 138.59,135.18 L 138.50,133.00 L 138.59,135.18 Z M 91.25,156.71 L 91.00,155.89 L 91.25,156.71 Z M 87.40,162.16 L 86.90,161.26 L 87.40,162.16 Z M 28.81,198.45 L 27.99,198.88 L 28.81,198.45 Z M 218.31,348.82 L 226.47,352.01 L 238.62,349.39 L 239.43,361.03 L 238.61,358.92 L 237.38,361.41 L 237.12,369.23 L 235.87,369.79 L 234.98,368.04 L 235.96,367.23 L 234.51,366.51 L 233.73,368.15 L 232.74,366.03 L 232.40,369.75 L 230.82,369.23 L 230.03,373.25 L 224.71,372.67 L 224.40,371.16 L 225.76,370.63 L 223.62,370.42 L 221.15,367.22 L 219.30,361.17 L 221.03,363.44 L 221.34,362.24 L 219.53,360.87 L 216.53,353.94 L 216.23,347.85 L 218.31,348.82 Z M 211.17,343.18 L 211.63,338.71 L 212.53,341.82 L 211.17,343.18 Z M 237.24,340.18 L 239.25,343.66 L 237.91,344.40 L 235.75,341.12 L 237.24,340.18 Z M 233.11,371.34 L 231.51,371.65 L 232.65,370.31 L 233.11,371.34 Z M 237.91,365.33 L 237.70,364.31 L 237.91,365.33 Z M 233.62,369.97 L 233.09,368.56 L 233.62,369.97 Z M 239.33,344.78 L 239.82,346.28 L 237.30,345.39 L 239.33,344.78 Z M 306.89,482.53 L 307.40,479.91 L 306.89,482.53 Z"/>
<path class="fj" d="M 442.12,167.26 L 439.33,170.38 L 441.68,169.60 L 441.66,171.10 L 437.02,170.89 L 433.84,172.65 L 432.50,171.39 L 433.05,170.28 L 442.12,167.26 Z M 431.11,175.30 L 433.11,177.18 L 433.59,180.07 L 429.03,181.30 L 424.97,180.05 L 424.61,178.61 L 426.15,176.43 L 431.11,175.30 Z M 442.28,172.31 L 443.01,170.73 L 442.28,172.31 Z M 442.12,172.56 L 442.12,171.38 L 442.12,172.56 Z M 432.44,186.10 L 429.05,187.10 L 432.44,186.10 Z M 448.80,174.64 L 448.49,173.81 L 448.80,174.64 Z M 438.43,175.27 L 438.11,174.53 L 438.43,175.27 Z M 437.96,180.21 L 437.68,179.15 L 437.96,180.21 Z"/>
<path class="fm" d="M 303.28,18.60 L 302.13,17.76 L 303.28,18.60 Z"/>
<path class="ki" d="M 397.42,50.51 L 396.89,49.89 L 397.42,50.51 Z M 397.52,55.85 L 397.25,56.98 L 397.52,55.85 Z M 406.96,67.47 L 406.15,66.12 L 406.96,67.47 Z M 397.55,53.74 L 398.41,53.53 L 397.55,53.74 Z M 587.19,50.45 L 585.68,50.15 L 586.59,50.50 L 586.56,49.36 L 587.19,50.45 Z M 574.41,37.19 L 574.82,38.01 L 574.41,37.19 Z"/>
<path class="mh" d="M 375.76,24.94 L 376.40,23.76 L 375.76,24.94 Z M 370.61,15.41 L 369.61,15.33 L 370.61,15.41 Z M 388.20,17.09 L 389.35,17.58 L 388.20,17.09 Z M 385.15,16.51 L 387.02,16.69 L 385.15,16.51 Z"/>
<path class="nz" d="M 398.04,353.00 L 403.37,349.98 L 402.41,352.94 L 403.70,350.57 L 405.64,350.79 L 403.95,352.68 L 406.08,351.50 L 404.15,354.28 L 404.24,356.34 L 405.52,356.94 L 398.72,367.65 L 394.90,370.25 L 395.61,370.97 L 394.27,371.94 L 397.77,373.81 L 397.73,375.57 L 393.98,374.26 L 392.80,375.51 L 391.13,374.04 L 392.05,375.76 L 386.04,379.04 L 385.44,384.87 L 384.49,384.86 L 385.22,386.02 L 382.58,391.90 L 383.07,393.61 L 380.24,394.72 L 376.09,399.91 L 372.33,400.64 L 367.74,400.41 L 366.50,398.15 L 362.34,396.17 L 357.81,396.88 L 357.05,396.03 L 358.36,394.40 L 355.64,394.46 L 355.77,393.06 L 358.91,392.15 L 357.59,391.54 L 358.83,390.50 L 357.19,390.61 L 358.05,388.49 L 359.89,389.40 L 359.05,386.78 L 364.71,382.64 L 364.37,381.16 L 367.64,377.42 L 372.84,375.91 L 380.04,368.80 L 382.80,368.12 L 384.31,365.40 L 384.75,366.65 L 387.61,357.41 L 390.57,355.21 L 392.65,348.58 L 396.94,346.56 L 395.41,347.81 L 397.23,349.34 L 398.04,353.00 Z M 403.16,349.47 L 403.48,348.19 L 403.16,349.47 Z M 357.26,391.64 L 355.89,392.04 L 357.26,391.64 Z M 358.76,387.29 L 359.03,388.38 L 358.76,387.29 Z M 366.22,402.81 L 365.57,403.47 L 366.83,404.76 L 362.23,406.53 L 363.91,401.29 L 366.22,402.81 Z M 413.59,311.90 L 412.60,310.30 L 413.59,311.90 Z M 399.03,301.31 L 400.17,300.61 L 404.62,304.17 L 405.76,303.76 L 407.43,307.99 L 406.24,308.09 L 408.84,312.14 L 408.33,316.38 L 413.58,319.27 L 413.06,313.46 L 415.05,315.53 L 417.21,322.85 L 424.67,325.67 L 429.38,322.12 L 432.75,323.23 L 431.03,330.22 L 429.17,331.62 L 428.73,335.88 L 426.26,334.51 L 423.41,335.74 L 422.53,338.50 L 423.62,339.48 L 421.91,343.52 L 416.40,352.44 L 412.09,355.83 L 409.35,354.23 L 409.25,352.52 L 407.78,353.09 L 411.15,347.42 L 411.11,343.17 L 402.19,336.54 L 407.53,332.14 L 409.65,324.14 L 407.46,318.44 L 408.41,319.38 L 409.66,318.33 L 406.75,317.19 L 404.92,313.60 L 406.28,314.47 L 406.22,311.59 L 403.16,308.97 L 404.33,312.79 L 399.94,306.08 L 401.31,304.32 L 399.71,305.74 L 398.05,303.43 L 398.53,301.95 L 395.42,297.58 L 397.59,297.38 L 399.03,301.31 Z M 372.84,458.65 L 371.83,458.63 L 372.84,458.65 Z M 353.90,440.75 L 351.78,441.21 L 353.14,438.50 L 354.20,438.70 L 353.90,440.75 Z M 466.60,374.38 L 464.43,374.77 L 465.60,376.91 L 464.43,377.72 L 464.18,375.37 L 462.31,375.12 L 466.60,374.38 Z"/>
<path class="pg" d="M 269.03,92.82 L 267.59,92.05 L 267.13,88.81 L 264.64,85.29 L 254.82,79.88 L 255.33,78.81 L 263.06,83.16 L 269.36,88.64 L 270.10,90.23 L 269.03,92.82 Z M 262.31,89.87 L 265.45,90.15 L 265.10,93.24 L 262.74,94.87 L 263.34,97.33 L 259.74,97.94 L 257.91,100.30 L 253.08,102.52 L 247.82,102.69 L 239.40,98.69 L 240.00,97.42 L 248.96,97.76 L 250.62,94.46 L 251.22,97.75 L 255.81,97.26 L 258.54,94.13 L 260.74,93.64 L 260.24,89.25 L 262.31,89.87 Z M 192.27,120.97 L 191.54,105.59 L 192.25,79.05 L 193.09,79.06 L 208.48,84.31 L 212.05,86.71 L 214.69,86.84 L 222.94,93.25 L 222.80,96.97 L 234.46,101.19 L 236.25,105.09 L 230.54,106.19 L 232.05,109.70 L 238.05,114.39 L 240.97,120.53 L 244.91,120.40 L 245.33,123.43 L 250.11,124.66 L 248.51,125.43 L 249.24,126.77 L 255.48,128.22 L 252.90,128.69 L 254.19,130.06 L 252.09,130.95 L 248.47,128.98 L 235.76,127.14 L 230.95,122.71 L 230.60,120.58 L 228.47,119.88 L 224.65,114.22 L 214.89,110.93 L 212.54,112.15 L 209.42,110.24 L 211.26,113.36 L 208.54,113.73 L 209.15,115.02 L 202.18,115.80 L 200.15,114.99 L 205.94,116.79 L 207.57,119.94 L 202.97,122.32 L 192.27,120.97 Z M 237.40,99.70 L 235.92,97.55 L 237.59,98.32 L 237.40,99.70 Z M 224.56,92.63 L 223.69,92.25 L 224.41,91.43 L 224.56,92.63 Z M 267.14,82.41 L 266.33,82.16 L 267.14,82.41 Z M 263.48,81.21 L 262.56,80.72 L 263.48,81.21 Z M 248.54,72.28 L 247.36,71.00 L 248.54,72.28 Z M 256.96,126.82 L 258.34,126.41 L 257.92,127.95 L 256.18,127.29 L 255.01,124.80 L 256.96,126.82 Z M 252.25,123.40 L 250.75,122.54 L 251.38,121.53 L 252.25,123.40 Z M 257.13,118.47 L 257.20,116.43 L 257.13,118.47 Z M 277.45,135.56 L 275.80,135.47 L 277.45,135.56 Z M 208.98,116.84 L 207.29,116.10 L 208.98,116.84 Z M 231.96,97.16 L 230.87,96.36 L 231.67,95.61 L 231.96,97.16 Z M 231.27,74.89 L 233.68,75.22 L 232.16,76.31 L 227.93,76.48 L 228.63,74.97 L 231.27,74.89 Z M 252.84,79.38 L 249.80,78.18 L 251.50,77.60 L 252.84,79.38 Z M 253.43,122.44 L 255.77,124.53 L 252.84,124.25 L 253.43,122.44 Z M 266.89,119.93 L 269.04,121.55 L 266.89,119.93 Z M 272.68,136.31 L 274.12,137.03 L 271.68,136.85 L 270.56,135.31 L 272.68,136.31 Z M 209.00,117.82 L 206.55,116.46 L 209.00,117.82 Z M 236.45,76.96 L 235.54,77.16 L 236.45,76.96 Z M 262.57,80.46 L 262.51,79.68 L 262.57,80.46 Z M 288.19,105.24 L 286.66,106.38 L 284.26,105.47 L 283.35,102.80 L 280.52,100.38 L 280.32,97.24 L 282.66,98.38 L 288.19,105.24 Z M 279.80,97.17 L 279.70,94.48 L 279.80,97.17 Z"/>
<path class="pw" d="M 151.41,14.94 L 151.77,12.81 L 151.41,14.94 Z"/>
<path class="sb" d="M 312.07,117.01 L 311.21,116.30 L 312.07,117.01 Z M 358.44,137.54 L 357.27,137.06 L 358.44,137.54 Z M 353.34,131.62 L 351.15,131.80 L 353.34,131.62 Z M 317.76,138.41 L 313.98,136.43 L 317.76,138.41 Z M 323.98,124.26 L 324.02,125.19 L 323.10,124.62 L 322.80,122.49 L 323.98,124.26 Z M 308.87,121.00 L 307.90,120.68 L 308.87,121.00 Z M 315.15,120.17 L 316.68,121.11 L 315.15,120.17 Z M 299.75,115.29 L 300.11,117.68 L 298.43,115.47 L 296.26,115.42 L 298.00,113.50 L 299.75,115.29 Z M 302.55,119.04 L 302.61,118.11 L 302.55,119.04 Z M 301.96,118.15 L 300.87,118.49 L 300.68,117.38 L 301.94,117.20 L 301.96,118.15 Z M 297.35,118.34 L 296.22,117.38 L 297.29,116.44 L 297.35,118.34 Z M 292.86,113.22 L 292.05,110.97 L 293.64,111.93 L 292.86,113.22 Z M 292.33,114.83 L 292.11,113.46 L 292.33,114.83 Z M 295.96,114.42 L 294.60,113.81 L 295.02,112.87 L 295.96,114.42 Z M 287.43,107.89 L 286.39,107.84 L 287.43,107.89 Z M 298.99,118.63 L 297.77,118.29 L 298.99,118.63 Z M 312.47,121.96 L 316.34,122.93 L 319.31,125.80 L 312.81,125.15 L 311.59,123.25 L 312.47,121.96 Z M 313.30,117.18 L 307.31,113.99 L 304.19,110.78 L 310.43,113.91 L 313.30,117.18 Z M 297.98,109.40 L 295.51,109.35 L 291.36,104.93 L 297.98,109.40 Z M 318.87,115.75 L 322.83,124.16 L 319.01,119.96 L 317.85,116.13 L 318.87,115.75 Z M 325.05,129.21 L 327.55,129.64 L 329.27,132.05 L 323.92,130.37 L 322.42,128.02 L 325.05,129.21 Z"/>
<path class="to" d="M 473.10,201.07 L 471.82,200.64 L 473.10,201.07 Z M 474.69,201.97 L 474.66,203.00 L 474.69,201.97 Z"/>
<path class="vu" d="M 357.26,158.34 L 357.67,160.53 L 359.37,159.06 L 359.49,163.35 L 357.34,163.68 L 356.53,162.18 L 355.85,157.90 L 356.38,157.08 L 357.26,158.34 Z M 361.53,166.77 L 364.25,169.13 L 361.77,169.84 L 361.12,167.16 L 359.86,166.67 L 360.51,165.31 L 361.53,166.77 Z M 368.15,171.33 L 366.45,171.50 L 366.16,170.38 L 368.15,171.33 Z M 367.19,168.38 L 364.84,167.66 L 366.34,166.68 L 367.19,168.38 Z M 368.15,176.45 L 368.65,178.17 L 366.30,177.58 L 368.15,176.45 Z M 364.72,162.38 L 363.21,162.49 L 365.31,161.37 L 364.72,162.38 Z M 366.65,165.94 L 366.32,162.55 L 366.65,165.94 Z M 366.50,161.67 L 366.03,159.41 L 366.50,161.67 Z M 360.29,164.30 L 359.65,163.62 L 360.29,164.30 Z M 362.63,154.60 L 361.52,154.18 L 362.63,154.60 Z M 362.02,152.26 L 361.97,150.96 L 362.02,152.26 Z M 377.43,194.34 L 376.42,194.45 L 377.43,194.34 Z M 374.84,189.94 L 373.92,190.51 L 373.28,188.61 L 374.84,189.94 Z M 373.84,185.87 L 371.61,185.41 L 371.80,183.87 L 373.84,185.87 Z"/>
<path class="ws" d="M 491.21,149.35 L 491.90,151.59 L 489.92,151.50 L 488.36,149.69 L 491.21,149.35 Z M 496.84,153.18 L 493.05,151.93 L 496.84,153.18 Z"/>
</g>
</svg>