<svg viewBox="0 0 600.0 643.2" xmlns="http://www.w3.org/2000/svg" width="600.0" height="643.2">
<defs><style>.state{fill:#dde1e6}.state path{stroke:#fff;stroke-width:0.8}</style></defs>
<g class="state">
<path class="ar" d="M 412.16,353.28 L 410.12,356.90 L 409.22,366.19 L 407.67,368.95 L 407.81,378.43 L 405.85,379.84 L 404.90,384.95 L 406.10,389.88 L 405.07,390.84 L 406.94,394.47 L 415.54,400.88 L 413.96,406.00 L 416.27,409.79 L 419.05,410.68 L 418.97,416.16 L 412.63,427.15 L 407.75,430.59 L 385.08,436.11 L 375.63,434.20 L 375.94,438.61 L 377.80,439.91 L 375.11,448.19 L 376.31,453.04 L 375.16,455.25 L 365.68,458.00 L 354.49,454.37 L 355.13,467.75 L 359.51,471.21 L 364.34,467.87 L 365.72,473.96 L 362.49,475.92 L 358.99,472.05 L 355.26,473.65 L 360.29,476.84 L 353.08,483.24 L 352.98,490.84 L 350.02,494.97 L 350.09,498.75 L 345.83,498.28 L 340.02,501.48 L 334.94,510.27 L 335.66,514.64 L 341.30,520.98 L 348.43,522.70 L 349.04,527.39 L 345.56,530.36 L 348.77,531.68 L 335.97,543.46 L 332.51,555.74 L 329.85,557.18 L 326.68,552.96 L 326.73,555.15 L 324.27,555.96 L 328.58,557.83 L 324.58,560.54 L 321.34,568.42 L 322.56,568.00 L 323.66,574.84 L 320.52,575.30 L 324.38,576.46 L 328.80,584.36 L 316.69,580.60 L 301.15,580.04 L 297.78,574.76 L 298.30,564.18 L 292.01,564.87 L 288.74,550.93 L 289.63,547.73 L 292.15,547.58 L 292.94,544.19 L 296.18,541.59 L 296.22,538.39 L 298.66,535.01 L 296.92,530.93 L 298.25,526.53 L 301.66,523.21 L 301.39,519.01 L 303.25,516.98 L 301.89,511.48 L 303.77,509.17 L 302.89,505.02 L 305.92,501.19 L 300.43,496.17 L 306.64,496.08 L 307.42,493.87 L 302.32,491.95 L 303.40,487.07 L 301.66,480.85 L 302.85,479.68 L 299.79,477.06 L 300.09,469.31 L 302.86,467.17 L 301.45,453.22 L 303.18,450.06 L 303.09,442.53 L 304.49,442.20 L 305.55,435.54 L 309.75,432.26 L 307.36,423.98 L 307.17,415.05 L 308.23,411.97 L 313.26,407.54 L 312.09,399.79 L 315.98,390.89 L 317.52,390.17 L 317.78,381.43 L 315.73,380.67 L 316.21,377.74 L 312.10,363.44 L 315.07,355.05 L 317.59,353.17 L 316.18,345.59 L 319.04,337.56 L 322.77,333.27 L 325.30,326.55 L 329.38,324.99 L 327.27,320.63 L 328.64,317.90 L 327.20,312.17 L 328.87,308.80 L 327.92,304.87 L 336.82,299.81 L 339.50,291.11 L 338.07,289.60 L 345.60,281.08 L 349.07,283.56 L 358.08,284.64 L 360.24,289.65 L 363.36,282.97 L 371.70,282.71 L 378.77,291.59 L 385.69,297.46 L 394.51,300.32 L 411.89,310.82 L 412.44,312.58 L 408.27,318.13 L 404.46,327.95 L 421.21,330.03 L 423.32,328.01 L 426.80,328.82 L 429.02,325.30 L 433.67,322.21 L 435.29,312.94 L 439.95,312.96 L 442.59,318.52 L 441.30,326.27 L 433.64,330.01 L 426.71,335.72 L 427.01,337.28 L 425.44,337.18 L 412.16,353.28 Z M 326.79,617.53 L 326.97,588.75 L 329.99,594.24 L 328.51,593.90 L 328.07,596.55 L 330.60,597.14 L 337.30,606.84 L 345.48,613.25 L 353.65,615.18 L 351.39,618.35 L 343.35,619.93 L 326.79,617.53 Z M 358.51,615.69 L 364.19,615.80 L 357.83,618.18 L 356.91,617.16 L 358.51,615.69 Z M 379.18,437.89 L 377.50,437.04 L 379.18,437.89 Z"/>
<path class="bo" d="M 320.16,245.81 L 319.28,243.33 L 327.31,235.97 L 321.29,229.71 L 322.78,227.53 L 321.33,224.00 L 325.11,219.00 L 323.54,215.13 L 324.28,208.75 L 326.55,205.75 L 319.64,193.52 L 327.03,194.76 L 342.85,185.25 L 351.97,183.78 L 352.02,195.84 L 355.09,201.59 L 359.51,205.26 L 369.97,207.08 L 372.30,209.68 L 377.30,210.97 L 379.84,213.88 L 385.35,213.59 L 389.76,215.98 L 391.56,226.34 L 389.17,226.42 L 391.80,229.48 L 392.32,235.82 L 406.46,235.94 L 406.07,243.61 L 410.43,245.86 L 413.03,251.57 L 408.12,264.07 L 410.21,266.00 L 408.41,267.41 L 407.74,264.67 L 400.70,260.31 L 380.10,263.26 L 376.08,270.81 L 373.19,284.68 L 371.70,282.71 L 363.36,282.97 L 360.24,289.65 L 358.08,284.64 L 349.07,283.56 L 345.60,281.08 L 338.07,289.60 L 334.10,290.16 L 332.77,289.61 L 330.32,276.91 L 325.96,269.60 L 326.00,266.92 L 327.51,265.90 L 326.45,263.88 L 328.21,261.33 L 324.36,257.71 L 323.39,250.23 L 320.16,245.81 Z M 324.27,235.58 L 323.32,234.35 L 324.27,235.58 Z"/>
<path class="br" d="M 340.53,98.90 L 344.62,102.42 L 349.76,100.75 L 351.37,103.01 L 354.23,99.78 L 361.17,96.53 L 362.69,93.42 L 367.14,91.69 L 367.48,89.70 L 362.40,89.00 L 361.05,80.60 L 356.66,75.27 L 362.59,77.96 L 367.87,77.84 L 371.59,80.56 L 372.71,77.27 L 385.92,73.26 L 388.82,70.49 L 388.64,67.94 L 392.58,67.80 L 393.75,69.01 L 392.53,73.28 L 395.97,74.45 L 397.14,77.92 L 394.80,80.60 L 393.72,87.55 L 396.25,94.85 L 402.47,99.05 L 405.18,98.42 L 406.50,96.08 L 408.87,96.60 L 415.94,92.78 L 424.88,93.99 L 423.53,90.88 L 424.92,88.86 L 426.67,89.75 L 432.49,88.27 L 439.04,91.95 L 441.84,90.14 L 448.05,91.47 L 459.67,74.98 L 461.54,76.68 L 465.44,91.85 L 467.42,94.21 L 471.30,95.52 L 471.75,99.36 L 465.13,106.63 L 461.05,109.01 L 455.66,118.92 L 450.37,120.34 L 455.91,120.62 L 464.05,115.60 L 465.63,121.97 L 467.85,123.93 L 476.27,121.74 L 473.78,128.89 L 477.06,123.17 L 480.94,119.85 L 482.85,120.83 L 483.72,119.81 L 482.95,117.20 L 485.53,114.05 L 492.08,113.34 L 506.07,118.83 L 507.07,121.62 L 509.02,119.68 L 512.31,121.85 L 513.18,124.22 L 511.49,125.86 L 512.22,126.70 L 513.98,125.11 L 514.39,126.64 L 511.75,133.13 L 515.57,127.46 L 516.52,127.63 L 515.85,130.07 L 522.13,126.72 L 536.82,130.90 L 548.53,130.48 L 560.04,137.10 L 570.09,146.36 L 582.66,148.05 L 585.08,151.44 L 588.41,164.83 L 587.16,173.57 L 582.29,182.43 L 568.67,195.89 L 566.12,202.57 L 561.86,208.47 L 559.86,209.36 L 558.37,206.72 L 557.13,208.04 L 555.30,214.37 L 556.91,232.56 L 554.42,243.16 L 554.80,247.42 L 550.96,251.87 L 549.93,262.65 L 540.88,276.39 L 540.53,282.72 L 535.08,285.31 L 532.47,290.65 L 525.39,290.82 L 523.88,288.79 L 523.34,291.02 L 512.42,291.56 L 512.94,293.40 L 506.02,297.85 L 502.10,297.79 L 495.18,301.52 L 486.51,308.32 L 484.86,311.58 L 483.31,310.34 L 482.74,311.80 L 480.77,311.17 L 483.32,313.12 L 481.28,315.24 L 480.64,318.89 L 482.14,326.92 L 480.24,338.98 L 472.93,345.94 L 463.84,362.91 L 455.20,370.69 L 455.02,368.10 L 461.13,364.89 L 466.47,355.53 L 466.61,353.87 L 463.04,354.90 L 460.93,351.92 L 462.02,354.86 L 461.05,358.34 L 455.72,364.05 L 454.52,371.17 L 450.47,380.08 L 444.91,385.68 L 443.62,384.57 L 444.62,380.27 L 447.26,377.04 L 449.54,377.66 L 450.94,374.58 L 450.09,371.50 L 446.48,375.79 L 443.13,373.32 L 441.89,370.16 L 430.98,363.10 L 428.01,359.46 L 424.56,361.29 L 424.25,358.57 L 418.16,352.56 L 415.20,354.14 L 412.16,353.28 L 425.44,337.18 L 427.01,337.28 L 426.71,335.72 L 433.64,330.01 L 441.30,326.27 L 442.59,318.52 L 439.95,312.96 L 435.29,312.94 L 438.18,299.92 L 435.22,297.94 L 429.11,299.11 L 426.14,285.68 L 421.13,283.36 L 417.35,284.99 L 409.24,283.12 L 410.45,274.40 L 407.90,267.53 L 410.21,266.00 L 408.12,264.07 L 413.03,251.57 L 410.43,245.86 L 406.07,243.61 L 406.46,235.94 L 392.32,235.82 L 391.80,229.48 L 389.17,226.42 L 391.56,226.34 L 389.76,215.98 L 385.35,213.59 L 379.84,213.88 L 377.30,210.97 L 372.30,209.68 L 369.97,207.08 L 359.51,205.26 L 355.09,201.59 L 352.02,195.84 L 351.97,183.78 L 342.85,185.25 L 327.03,194.76 L 322.35,193.55 L 311.42,193.98 L 312.20,181.63 L 306.82,185.77 L 299.52,186.07 L 298.00,182.19 L 291.58,181.42 L 293.40,178.15 L 285.45,166.92 L 287.63,165.00 L 287.34,161.85 L 292.14,158.43 L 291.38,155.57 L 294.07,148.00 L 302.13,143.20 L 310.20,140.63 L 316.60,141.63 L 321.02,117.59 L 319.21,112.29 L 315.84,109.42 L 315.97,103.88 L 322.93,103.26 L 321.70,100.23 L 317.53,100.16 L 317.55,95.14 L 330.48,95.05 L 330.34,92.99 L 332.34,94.83 L 336.48,91.99 L 338.65,95.18 L 338.94,99.19 L 340.53,98.90 Z M 473.84,110.12 L 483.39,110.65 L 479.98,119.09 L 477.36,119.27 L 476.89,120.71 L 474.78,120.03 L 472.47,122.19 L 467.04,122.17 L 465.09,117.94 L 466.51,116.88 L 464.81,115.35 L 465.98,110.46 L 469.05,109.25 L 473.84,110.12 Z M 516.34,292.29 L 514.56,292.54 L 516.34,292.29 Z M 481.91,320.04 L 482.25,318.05 L 481.91,320.04 Z M 507.60,298.59 L 506.12,298.64 L 507.27,297.22 L 507.60,298.59 Z M 513.48,131.08 L 513.62,129.36 L 513.48,131.08 Z M 557.97,210.47 L 558.55,208.75 L 557.97,210.47 Z M 556.73,213.46 L 555.82,213.24 L 556.73,213.46 Z M 510.52,118.54 L 509.45,118.96 L 510.52,118.54 Z M 472.99,106.28 L 471.61,108.53 L 468.34,108.01 L 468.86,106.56 L 472.99,106.28 Z M 468.66,93.36 L 467.44,93.58 L 467.17,91.89 L 468.66,93.36 Z M 465.92,109.37 L 463.81,110.88 L 462.94,110.10 L 464.46,108.74 L 465.92,109.37 Z M 475.26,109.22 L 472.28,109.08 L 474.80,107.70 L 475.26,109.22 Z M 467.67,107.27 L 467.53,108.41 L 466.14,107.93 L 466.25,106.77 L 468.09,103.78 L 467.67,107.27 Z M 469.78,105.31 L 468.79,104.36 L 470.51,103.42 L 469.78,105.31 Z M 456.80,119.43 L 459.02,113.37 L 461.27,112.53 L 461.10,116.25 L 456.80,119.43 Z M 482.67,331.89 L 483.22,328.69 L 482.67,331.89 Z"/>
<path class="cl" d="M 12.79,326.44 L 11.59,326.70 L 12.79,326.44 Z M 248.34,384.79 L 246.90,384.93 L 248.34,384.79 Z M 313.15,252.63 L 316.95,251.50 L 317.53,247.42 L 320.16,245.81 L 323.39,250.23 L 324.36,257.71 L 328.26,261.51 L 326.45,263.88 L 327.51,265.90 L 326.00,266.92 L 325.96,269.60 L 330.32,276.91 L 332.77,289.61 L 338.07,289.60 L 339.50,291.11 L 336.82,299.81 L 329.91,302.85 L 327.50,305.87 L 328.87,308.80 L 327.27,311.61 L 328.64,317.90 L 327.27,320.63 L 329.38,324.99 L 325.30,326.55 L 322.77,333.27 L 319.04,337.56 L 316.18,345.59 L 317.59,353.17 L 315.20,354.83 L 314.00,360.78 L 312.37,361.92 L 311.86,365.73 L 314.42,369.26 L 313.57,370.40 L 316.21,377.74 L 315.73,380.67 L 317.78,381.43 L 317.52,390.17 L 315.98,390.89 L 312.09,399.79 L 313.26,407.54 L 308.23,411.97 L 307.17,415.05 L 307.36,423.98 L 309.83,431.64 L 305.55,435.54 L 304.49,442.20 L 303.09,442.53 L 303.28,449.59 L 301.38,454.21 L 302.86,467.17 L 300.09,469.31 L 299.82,472.72 L 300.13,477.86 L 302.85,479.68 L 301.66,480.85 L 303.40,487.07 L 302.32,491.95 L 307.42,493.87 L 306.64,496.08 L 300.43,496.17 L 305.92,501.19 L 302.89,505.02 L 303.77,509.17 L 301.89,511.48 L 303.25,516.98 L 301.39,519.01 L 301.66,523.21 L 298.25,526.53 L 296.92,530.93 L 298.66,535.01 L 296.22,538.39 L 296.18,541.59 L 292.94,544.19 L 292.15,547.58 L 289.63,547.73 L 288.74,550.93 L 292.01,564.87 L 298.30,564.18 L 297.78,574.76 L 301.15,580.04 L 316.69,580.60 L 328.28,584.15 L 322.25,583.08 L 310.24,590.23 L 308.69,603.29 L 306.35,604.65 L 299.58,601.37 L 297.73,597.71 L 301.38,596.21 L 302.54,599.45 L 302.93,596.19 L 306.42,593.62 L 306.90,590.76 L 298.78,594.89 L 296.68,599.14 L 292.79,596.33 L 295.30,590.15 L 304.70,588.15 L 295.42,587.26 L 292.25,594.14 L 288.21,591.10 L 292.24,586.65 L 285.36,588.58 L 283.42,581.81 L 286.75,583.44 L 294.78,579.86 L 296.51,583.01 L 295.41,584.99 L 296.88,583.71 L 296.73,576.82 L 291.89,573.68 L 296.29,577.98 L 289.19,581.01 L 283.95,576.50 L 286.01,575.72 L 285.94,571.36 L 279.17,568.85 L 277.01,564.18 L 280.17,563.94 L 280.49,560.28 L 286.96,567.32 L 288.14,561.88 L 285.64,565.96 L 283.94,563.30 L 285.85,562.10 L 280.60,558.26 L 282.89,555.62 L 285.79,555.86 L 282.96,553.33 L 283.22,551.18 L 286.73,551.25 L 284.74,549.11 L 285.97,544.27 L 283.76,549.95 L 282.63,548.76 L 282.83,539.28 L 285.40,537.87 L 281.80,537.74 L 280.95,532.35 L 290.17,534.05 L 287.66,528.39 L 283.71,532.00 L 280.41,528.93 L 284.43,527.65 L 281.74,525.82 L 284.24,522.99 L 283.04,518.52 L 277.69,517.99 L 277.86,515.41 L 273.56,517.51 L 274.41,520.18 L 272.28,517.59 L 278.32,511.47 L 277.22,508.30 L 284.25,507.10 L 285.80,503.10 L 286.82,503.57 L 285.31,510.31 L 282.43,512.11 L 285.72,511.41 L 287.51,507.60 L 286.66,516.02 L 288.62,508.57 L 287.55,503.93 L 293.71,503.63 L 289.76,501.27 L 290.07,499.78 L 295.67,494.24 L 295.79,492.53 L 291.15,489.64 L 293.22,483.88 L 292.61,480.60 L 295.07,477.59 L 294.37,473.68 L 296.04,472.01 L 294.95,469.37 L 297.74,470.74 L 297.07,466.49 L 294.56,465.74 L 298.47,461.50 L 296.73,463.48 L 293.56,461.66 L 291.33,464.41 L 287.51,464.01 L 288.37,462.35 L 286.59,460.95 L 285.59,456.10 L 291.45,438.42 L 289.18,431.32 L 288.08,419.87 L 288.55,418.39 L 291.53,418.18 L 296.10,403.00 L 299.20,398.36 L 300.90,389.62 L 303.52,384.84 L 302.91,379.68 L 305.16,375.68 L 303.18,357.23 L 306.21,348.49 L 304.64,342.08 L 307.21,337.24 L 311.39,319.42 L 313.35,295.86 L 311.80,293.24 L 313.82,289.82 L 315.71,278.51 L 313.15,252.63 Z M 326.97,588.75 L 326.79,617.53 L 301.69,614.15 L 302.47,611.92 L 310.22,610.51 L 313.98,613.18 L 309.71,607.64 L 309.68,604.67 L 312.28,601.31 L 313.45,606.01 L 311.52,606.26 L 312.25,607.98 L 322.16,613.57 L 323.77,611.56 L 316.48,607.62 L 315.22,604.72 L 321.36,598.56 L 313.84,598.06 L 312.96,594.29 L 315.37,592.46 L 313.45,590.01 L 316.88,590.90 L 320.91,586.63 L 322.82,588.94 L 326.97,588.75 Z M 338.95,621.57 L 336.95,623.45 L 331.30,622.48 L 329.51,619.24 L 337.68,619.20 L 338.95,621.57 Z M 287.22,480.83 L 282.47,479.62 L 285.18,464.56 L 289.12,465.61 L 289.93,468.69 L 289.56,471.55 L 287.10,472.81 L 289.82,476.50 L 287.22,480.83 Z M 281.79,545.77 L 280.87,556.01 L 279.57,556.06 L 278.66,552.64 L 279.87,549.04 L 277.23,554.15 L 273.49,553.42 L 275.37,549.87 L 274.13,548.27 L 277.07,547.22 L 276.11,545.77 L 278.54,540.89 L 281.25,541.28 L 281.79,545.77 Z M 273.79,541.24 L 272.71,539.17 L 273.40,533.18 L 274.71,532.59 L 276.51,539.60 L 273.79,541.24 Z M 282.49,592.20 L 292.15,597.76 L 282.49,592.20 Z M 281.08,539.24 L 278.33,539.64 L 275.83,532.67 L 279.07,530.63 L 281.08,539.24 Z M 293.79,599.41 L 299.34,603.66 L 294.43,607.83 L 293.52,607.05 L 295.02,604.41 L 291.57,606.00 L 290.77,602.64 L 286.66,600.25 L 293.79,599.41 Z M 279.11,575.87 L 281.32,580.06 L 280.10,584.01 L 276.92,577.85 L 279.11,575.87 Z M 318.68,618.41 L 328.30,618.95 L 327.10,621.60 L 329.66,622.95 L 331.47,628.23 L 325.14,625.60 L 324.96,622.76 L 322.62,621.82 L 321.34,623.56 L 322.72,625.93 L 320.93,625.52 L 316.54,621.49 L 317.28,617.91 L 318.68,618.41 Z M 305.64,606.62 L 308.49,607.66 L 307.55,611.13 L 301.32,610.16 L 299.30,606.81 L 300.95,604.67 L 305.64,606.62 Z M 287.51,492.08 L 285.45,494.21 L 287.38,501.58 L 284.70,502.23 L 280.69,494.83 L 284.72,492.02 L 285.51,489.33 L 287.51,492.08 Z M 293.30,496.26 L 290.13,496.20 L 291.19,491.60 L 294.93,493.31 L 293.30,496.26 Z M 277.41,497.46 L 276.64,496.65 L 277.41,497.46 Z M 275.40,564.16 L 274.35,564.91 L 274.43,561.73 L 276.85,562.10 L 275.40,564.16 Z M 276.91,542.10 L 272.78,546.33 L 273.97,545.00 L 273.23,542.36 L 276.91,542.10 Z M 276.87,530.49 L 276.17,529.23 L 278.31,529.17 L 276.87,530.49 Z M 280.30,483.62 L 278.96,483.22 L 280.30,483.62 Z M 288.31,496.71 L 287.17,493.86 L 288.31,496.71 Z M 281.15,571.49 L 275.50,575.81 L 276.55,571.51 L 281.15,571.49 Z M 277.32,559.50 L 274.27,560.07 L 275.21,556.07 L 278.70,557.25 L 277.32,559.50 Z M 286.93,485.97 L 284.36,486.45 L 286.93,485.97 Z M 284.37,579.63 L 281.79,577.06 L 284.37,579.63 Z M 283.05,506.27 L 280.14,505.95 L 283.07,500.55 L 283.05,506.27 Z M 335.13,631.62 L 333.00,630.97 L 335.13,631.62 Z M 343.65,622.59 L 342.38,622.66 L 343.65,622.59 Z M 308.72,617.72 L 313.16,618.27 L 314.08,621.03 L 305.51,618.57 L 308.72,617.72 Z M 337.34,630.07 L 335.22,629.12 L 336.68,627.50 L 337.34,630.07 Z"/>
<path class="co" d="M 306.18,16.01 L 301.25,17.55 L 295.59,24.09 L 290.37,36.98 L 294.77,37.65 L 297.91,44.07 L 297.28,50.03 L 300.87,53.86 L 315.39,54.47 L 320.81,60.93 L 332.93,59.64 L 335.85,60.49 L 333.20,67.56 L 332.96,73.48 L 337.17,81.93 L 332.93,86.75 L 334.79,86.75 L 337.94,89.87 L 340.46,97.85 L 338.94,99.19 L 338.65,95.18 L 336.48,91.99 L 332.34,94.83 L 330.34,92.99 L 330.48,95.05 L 317.55,95.14 L 317.53,100.16 L 321.70,100.23 L 322.93,103.26 L 315.97,103.88 L 315.84,109.42 L 319.21,112.29 L 321.02,117.59 L 316.65,141.12 L 313.76,137.85 L 310.70,137.60 L 315.64,128.90 L 308.90,125.41 L 305.59,126.39 L 302.84,124.99 L 299.24,126.91 L 293.65,126.86 L 288.06,118.00 L 283.56,115.85 L 279.27,109.90 L 271.74,107.66 L 267.92,104.95 L 266.19,106.53 L 259.22,105.31 L 256.85,101.87 L 252.14,100.26 L 246.63,95.80 L 248.42,94.06 L 250.09,94.64 L 249.98,90.13 L 255.99,87.35 L 261.69,78.08 L 260.24,78.24 L 260.13,76.95 L 259.51,77.84 L 258.26,75.76 L 260.07,71.81 L 258.15,65.49 L 260.35,63.60 L 258.65,60.52 L 259.43,57.41 L 255.32,52.32 L 256.39,48.66 L 258.12,49.70 L 260.77,46.53 L 258.58,42.42 L 259.24,41.28 L 263.93,46.85 L 262.90,41.83 L 269.80,35.64 L 272.80,34.97 L 273.58,29.05 L 272.26,29.54 L 278.94,21.94 L 282.92,22.83 L 281.48,23.88 L 282.37,24.65 L 284.36,20.27 L 290.77,20.47 L 303.13,11.59 L 306.63,12.26 L 307.59,14.55 L 306.18,16.01 Z M 253.67,88.70 L 253.17,87.89 L 253.67,88.70 Z"/>
<path class="ec" d="M 275.54,109.17 L 272.90,109.30 L 275.73,112.91 L 275.81,115.71 L 274.58,115.49 L 273.33,120.19 L 264.76,128.16 L 255.63,131.41 L 253.33,135.15 L 251.88,134.62 L 249.25,143.65 L 246.56,146.80 L 244.26,146.48 L 241.89,142.82 L 238.01,141.59 L 235.39,142.62 L 236.37,140.91 L 235.30,139.37 L 237.71,138.34 L 236.58,134.55 L 239.38,132.77 L 241.18,128.29 L 240.31,124.33 L 239.67,128.05 L 239.04,126.55 L 236.89,129.28 L 231.89,125.89 L 233.21,123.30 L 232.12,116.69 L 235.57,112.87 L 236.91,113.15 L 235.37,111.20 L 238.74,107.15 L 238.82,101.90 L 247.60,99.03 L 247.91,97.10 L 256.85,101.87 L 259.22,105.31 L 266.19,106.53 L 267.92,104.95 L 275.54,109.17 Z M 238.08,131.34 L 236.98,131.52 L 237.36,129.64 L 239.80,129.42 L 238.08,131.34 Z M 159.21,114.31 L 157.69,112.84 L 159.72,112.10 L 159.21,114.31 Z M 166.29,115.39 L 164.83,115.22 L 167.31,113.68 L 166.29,115.39 Z M 150.78,111.91 L 149.07,110.55 L 150.52,110.33 L 150.78,111.91 Z M 158.53,118.71 L 158.11,117.79 L 158.53,118.71 Z M 151.97,108.16 L 155.62,114.16 L 153.06,116.23 L 150.24,115.00 L 153.14,112.67 L 149.46,108.33 L 151.97,108.16 Z M 157.37,110.93 L 155.09,110.45 L 155.77,109.59 L 157.37,110.93 Z"/>
<path class="gy" d="M 387.94,68.09 L 382.93,62.37 L 384.95,60.22 L 384.82,56.49 L 390.95,54.09 L 388.12,49.93 L 394.84,44.37 L 393.54,42.02 L 399.86,45.73 L 405.44,51.57 L 403.93,58.85 L 406.83,55.05 L 415.39,61.13 L 415.24,68.14 L 410.05,70.58 L 408.71,76.62 L 411.86,82.10 L 414.52,82.23 L 415.34,86.29 L 420.86,93.34 L 414.41,93.17 L 408.87,96.60 L 406.50,96.08 L 405.18,98.42 L 402.78,99.06 L 399.62,97.71 L 396.25,94.85 L 393.72,87.55 L 394.80,80.60 L 397.14,77.92 L 395.97,74.45 L 392.53,73.28 L 393.75,69.01 L 392.58,67.80 L 387.94,68.09 Z"/>
<path class="pe" d="M 316.65,141.12 L 310.20,140.63 L 302.13,143.20 L 294.07,148.00 L 291.38,155.57 L 292.14,158.43 L 287.34,161.85 L 287.63,165.00 L 285.45,166.92 L 293.40,178.15 L 291.58,181.42 L 298.00,182.19 L 299.52,186.07 L 306.82,185.77 L 312.20,181.63 L 311.42,193.98 L 319.64,193.52 L 326.55,205.75 L 324.28,208.75 L 323.54,215.13 L 325.11,219.00 L 321.33,224.00 L 322.78,227.53 L 321.29,229.71 L 317.68,228.11 L 317.95,231.19 L 316.22,231.82 L 320.66,233.89 L 320.38,235.12 L 324.27,235.58 L 323.95,238.83 L 319.28,243.33 L 320.16,245.81 L 317.53,247.42 L 316.95,251.50 L 313.15,252.63 L 306.05,247.24 L 304.54,244.10 L 276.93,228.93 L 270.52,222.70 L 267.10,216.56 L 268.28,212.65 L 261.10,202.26 L 260.58,199.13 L 257.39,196.16 L 248.66,175.20 L 239.13,160.79 L 230.27,155.25 L 232.28,151.97 L 228.76,144.48 L 229.57,141.11 L 236.58,134.55 L 237.71,138.34 L 235.30,139.37 L 236.37,140.91 L 235.39,142.62 L 238.01,141.59 L 241.89,142.82 L 244.26,146.48 L 246.56,146.80 L 249.25,143.65 L 251.88,134.62 L 253.33,135.15 L 255.63,131.41 L 264.76,128.16 L 273.33,120.19 L 274.58,115.49 L 275.81,115.71 L 275.73,112.91 L 272.90,109.30 L 276.00,108.67 L 280.70,111.21 L 283.56,115.85 L 288.06,118.00 L 293.65,126.86 L 299.24,126.91 L 302.84,124.99 L 305.59,126.39 L 308.90,125.41 L 315.64,128.90 L 310.70,137.60 L 313.76,137.85 L 316.65,141.12 Z"/>
<path class="py" d="M 407.90,267.53 L 410.45,274.40 L 409.47,283.64 L 417.35,284.99 L 421.13,283.36 L 425.76,285.30 L 427.55,288.34 L 429.11,299.11 L 435.22,297.94 L 438.18,299.92 L 434.21,321.17 L 426.80,328.82 L 423.32,328.01 L 421.21,330.03 L 404.46,327.95 L 408.27,318.13 L 412.44,312.58 L 411.89,310.82 L 394.51,300.32 L 385.69,297.46 L 373.19,284.68 L 376.08,270.81 L 380.10,263.26 L 400.70,260.31 L 407.74,264.67 L 407.90,267.53 Z"/>
<path class="sr" d="M 438.84,66.87 L 436.55,69.55 L 436.57,73.65 L 440.12,80.59 L 436.94,89.32 L 434.93,90.35 L 432.49,88.27 L 426.67,89.75 L 424.92,88.86 L 423.53,90.88 L 424.88,93.99 L 419.15,92.61 L 414.52,82.23 L 411.86,82.10 L 408.88,77.39 L 410.05,70.58 L 414.50,69.27 L 417.10,61.95 L 425.38,64.23 L 425.92,62.19 L 437.30,62.59 L 439.63,63.38 L 438.84,66.87 Z"/>
<path class="uy" d="M 444.91,385.68 L 441.71,391.63 L 433.08,396.82 L 427.12,395.34 L 422.66,396.52 L 415.54,392.30 L 410.11,392.26 L 405.75,385.46 L 406.32,380.49 L 408.42,378.51 L 407.67,368.95 L 411.87,353.63 L 418.16,352.56 L 424.25,358.57 L 424.56,361.29 L 427.66,359.23 L 430.98,363.10 L 441.89,370.16 L 443.13,373.32 L 446.48,375.79 L 442.95,380.06 L 444.91,385.68 Z"/>
<path class="ve" d="M 387.33,37.42 L 386.40,37.67 L 387.33,37.42 Z M 363.92,21.77 L 363.40,23.69 L 359.65,22.95 L 363.92,21.77 Z M 353.39,23.54 L 351.82,23.29 L 353.39,23.54 Z M 385.96,39.54 L 386.60,37.95 L 385.96,39.54 Z M 393.54,42.02 L 394.84,44.37 L 388.12,49.93 L 390.95,54.09 L 384.82,56.49 L 384.95,60.22 L 382.93,62.37 L 388.48,68.38 L 388.82,70.49 L 381.66,75.18 L 372.71,77.27 L 371.59,80.56 L 367.87,77.84 L 362.59,77.96 L 356.66,75.27 L 361.05,80.60 L 362.40,89.00 L 367.48,89.70 L 367.44,91.17 L 350.73,103.03 L 350.05,100.85 L 344.97,102.54 L 340.53,98.90 L 337.94,89.87 L 334.79,86.75 L 332.93,86.75 L 337.17,81.93 L 332.96,73.48 L 333.20,67.56 L 335.85,60.49 L 332.93,59.64 L 320.81,60.93 L 315.39,54.47 L 300.87,53.86 L 297.28,50.03 L 297.91,44.07 L 294.77,37.65 L 290.37,36.98 L 295.59,24.09 L 301.25,17.55 L 306.18,16.01 L 301.26,18.31 L 304.06,25.50 L 300.05,32.11 L 303.35,37.93 L 306.79,37.24 L 308.25,32.97 L 304.84,26.47 L 305.03,23.08 L 315.63,18.71 L 317.89,19.07 L 317.80,17.50 L 314.90,17.88 L 314.17,15.82 L 316.35,13.51 L 319.23,19.02 L 325.44,19.40 L 328.76,21.53 L 330.76,26.79 L 345.39,25.70 L 348.45,28.64 L 354.03,30.11 L 364.83,26.71 L 360.45,25.67 L 379.15,24.84 L 371.16,26.49 L 372.92,28.39 L 372.49,30.22 L 373.96,29.09 L 375.74,32.37 L 377.62,30.86 L 380.26,33.56 L 381.39,31.49 L 387.55,35.68 L 384.03,41.63 L 381.16,41.65 L 383.60,43.11 L 387.48,41.69 L 393.54,42.02 Z"/>
</g>
</svg>