<svg viewBox="0 0 700.0 414.5" xmlns="http://www.w3.org/2000/svg" width="700.0" height="414.5">
<defs><style>.state{fill:#dde1e6}.state path{stroke:#fff;stroke-width:0.3}</style></defs>
<g class="state">
<path class="af" d="M 405.21,263.46 L 398.97,261.30 L 394.07,251.96 L 397.64,252.40 L 403.14,246.72 L 409.39,249.43 L 408.97,257.51 L 405.21,263.46 Z M 404.47,246.72 L 401.50,247.56 L 397.05,252.60 L 390.39,251.56 L 387.88,248.15 L 388.03,240.11 L 391.96,240.11 L 392.13,234.88 L 396.16,237.41 L 398.45,236.65 L 403.49,241.27 L 403.66,238.10 L 402.19,238.56 L 400.88,236.65 L 401.10,230.85 L 402.14,229.03 L 405.53,228.39 L 410.12,231.34 L 411.50,234.19 L 409.21,241.68 L 410.22,242.74 L 404.23,245.12 L 404.47,246.72 Z M 408.21,210.54 L 403.76,211.50 L 404.50,206.05 L 407.42,203.37 L 406.26,199.44 L 412.53,197.62 L 414.25,204.99 L 412.61,207.52 L 408.55,208.38 L 408.21,210.54 Z M 365.81,126.44 L 362.32,133.72 L 358.27,124.89 L 359.37,118.28 L 362.03,116.24 L 363.43,117.74 L 364.56,116.88 L 363.60,119.09 L 364.88,121.38 L 363.01,124.30 L 365.81,126.44 Z M 346.08,181.05 L 347.85,192.60 L 346.67,193.09 L 344.11,181.72 L 346.08,181.05 Z M 410.12,231.34 L 406.71,229.35 L 403.91,223.50 L 403.83,219.07 L 406.22,215.98 L 405.65,210.69 L 408.33,210.57 L 408.21,214.97 L 409.19,213.72 L 410.12,215.46 L 412.78,210.64 L 419.95,215.61 L 423.05,219.71 L 422.14,223.13 L 423.57,225.49 L 423.67,232.89 L 425.09,234.04 L 424.11,234.93 L 418.80,237.09 L 414.01,236.74 L 412.90,232.15 L 410.12,231.34 Z M 405.77,272.26 L 405.50,275.58 L 403.83,275.08 L 404.13,272.28 L 405.77,272.26 Z M 412.53,197.62 L 406.26,199.44 L 403.64,196.61 L 400.91,197.32 L 392.65,186.61 L 394.37,182.67 L 395.82,182.35 L 397.59,184.64 L 401.99,185.01 L 404.23,182.65 L 406.56,183.90 L 408.99,180.63 L 408.21,178.37 L 410.42,177.83 L 412.53,186.58 L 410.39,188.52 L 415.09,194.45 L 412.53,197.62 Z M 412.43,184.64 L 409.46,177.81 L 406.56,183.90 L 404.23,182.65 L 401.99,185.01 L 397.59,184.64 L 395.82,182.35 L 394.37,182.67 L 393.39,186.14 L 391.40,186.31 L 391.54,183.83 L 387.73,176.53 L 389.70,169.77 L 391.74,169.28 L 391.30,158.74 L 393.26,158.71 L 392.99,153.80 L 416.17,153.55 L 417.94,161.42 L 420.35,163.41 L 417.35,165.77 L 416.19,176.46 L 412.43,184.64 Z M 401.50,262.89 L 405.21,263.46 L 406.14,268.35 L 405.77,272.26 L 404.37,271.96 L 403.41,274.27 L 405.09,275.58 L 407.40,274.47 L 401.47,284.60 L 391.91,292.02 L 386.28,291.90 L 381.44,293.76 L 378.62,292.63 L 378.57,286.22 L 375.64,278.50 L 376.53,277.32 L 380.95,279.24 L 382.40,278.16 L 382.92,269.11 L 384.00,274.15 L 385.92,274.22 L 388.77,270.46 L 393.31,271.50 L 396.85,266.26 L 401.50,262.89 Z M 398.74,282.41 L 400.17,280.37 L 398.87,278.65 L 395.65,281.18 L 396.78,283.61 L 398.74,282.41 Z M 427.79,212.27 L 426.66,201.01 L 428.70,197.79 L 434.53,195.82 L 442.15,184.47 L 441.90,179.97 L 446.45,178.50 L 446.92,182.11 L 440.65,196.86 L 427.79,212.27 Z M 441.90,179.97 L 442.15,184.47 L 440.38,188.11 L 432.37,185.70 L 429.47,181.72 L 430.52,179.45 L 432.93,182.11 L 441.90,179.97 Z M 323.69,187.20 L 321.20,191.08 L 317.69,185.80 L 321.74,183.49 L 323.69,187.20 Z M 319.93,171.64 L 321.62,177.37 L 310.98,177.64 L 311.15,175.67 L 316.78,175.08 L 311.35,174.61 L 309.50,171.74 L 312.18,167.36 L 317.57,168.37 L 319.93,171.64 Z M 403.76,211.50 L 405.63,210.69 L 406.26,213.84 L 402.43,214.70 L 403.76,211.50 Z M 371.32,174.34 L 373.36,179.68 L 367.16,191.99 L 364.63,190.86 L 360.94,196.86 L 356.69,197.54 L 353.18,192.46 L 349.71,192.41 L 349.84,185.82 L 353.08,174.51 L 363.43,176.55 L 371.32,174.34 Z M 371.32,174.34 L 363.43,176.55 L 353.55,174.29 L 351.46,179.31 L 349.86,177.64 L 349.05,178.82 L 344.60,172.43 L 346.86,170.53 L 351.24,170.31 L 352.59,161.02 L 355.73,160.19 L 367.51,150.21 L 371.96,152.40 L 373.41,151.46 L 375.54,157.97 L 374.86,166.45 L 370.97,172.67 L 371.32,174.34 Z M 390.39,251.56 L 394.07,251.96 L 390.83,253.55 L 390.02,252.45 L 385.57,253.21 L 385.18,262.28 L 383.24,262.26 L 382.40,278.16 L 378.76,279.16 L 376.87,277.08 L 375.64,278.50 L 373.58,275.18 L 372.45,263.31 L 367.46,250.48 L 380.58,250.93 L 385.15,252.47 L 390.39,251.56 Z M 405.21,263.46 L 408.97,257.51 L 409.39,249.43 L 404.45,247.56 L 404.23,245.12 L 410.22,242.74 L 412.51,243.77 L 412.07,247.39 L 413.91,250.46 L 415.46,244.95 L 413.59,241.56 L 414.01,236.74 L 418.80,237.09 L 425.09,234.04 L 424.62,246.48 L 412.26,256.85 L 413.49,263.31 L 412.48,268.57 L 407.84,271.13 L 407.40,274.47 L 405.90,274.45 L 405.21,263.46 Z M 340.18,121.77 L 341.97,129.15 L 337.18,130.18 L 337.35,131.95 L 328.55,136.81 L 327.42,141.38 L 322.41,141.95 L 315.48,155.15 L 311.08,155.32 L 316.56,143.45 L 324.89,135.81 L 326.93,127.97 L 331.43,124.55 L 333.34,120.10 L 340.18,121.77 Z M 311.08,155.32 L 315.48,155.15 L 322.41,141.95 L 327.42,141.38 L 327.67,140.06 L 327.57,144.14 L 321.15,144.11 L 320.93,150.33 L 318.70,151.93 L 318.84,155.57 L 311.13,155.54 L 310.93,156.84 L 311.08,155.32 Z M 319.93,171.64 L 315.55,167.07 L 312.18,167.36 L 311.54,169.06 L 312.68,163.21 L 311.13,155.54 L 318.84,155.57 L 318.70,151.93 L 320.93,150.33 L 321.15,144.11 L 327.57,144.14 L 327.64,140.97 L 334.97,146.62 L 331.55,146.62 L 333.37,169.97 L 325.77,169.50 L 322.58,170.80 L 321.50,169.60 L 319.93,171.64 Z M 321.60,177.56 L 319.93,171.64 L 321.50,169.60 L 322.58,170.80 L 325.77,169.50 L 333.37,169.97 L 331.55,146.62 L 334.97,146.62 L 350.43,159.28 L 350.67,161.34 L 352.59,161.02 L 351.24,170.31 L 342.95,171.02 L 339.14,173.09 L 335.68,175.82 L 332.21,182.99 L 331.77,181.69 L 328.31,183.07 L 326.12,177.44 L 322.92,178.79 L 321.60,177.56 Z M 410.22,242.74 L 409.21,241.68 L 411.50,234.19 L 410.22,231.31 L 412.70,233.82 L 412.93,242.99 L 414.30,243.70 L 413.59,241.56 L 415.46,244.95 L 413.61,250.48 L 412.07,247.39 L 412.75,244.22 L 410.22,242.74 Z M 442.93,239.10 L 444.06,247.09 L 442.61,246.80 L 435.41,269.82 L 431.21,271.62 L 429.29,270.22 L 428.51,263.71 L 431.33,257.63 L 431.04,251.32 L 432.24,248.42 L 436.10,247.73 L 439.42,244.66 L 439.54,242.13 L 442.32,238.22 L 442.93,239.10 Z M 362.32,133.72 L 365.81,126.44 L 372.77,128.36 L 373.90,130.72 L 380.51,133.52 L 383.75,127.30 L 391.20,129.24 L 393.26,158.71 L 391.30,158.74 L 391.35,159.96 L 375.32,150.36 L 371.96,152.40 L 364.26,147.73 L 362.42,143.77 L 362.32,133.72 Z M 321.20,191.08 L 324.94,187.22 L 325.31,189.83 L 327.10,189.19 L 327.03,192.06 L 329.31,193.71 L 329.12,197.37 L 321.20,191.08 Z M 398.74,282.41 L 396.78,283.61 L 395.65,281.18 L 398.87,278.65 L 400.17,280.37 L 398.74,282.41 Z M 412.61,207.52 L 414.62,203.66 L 412.53,197.62 L 415.09,194.45 L 416.64,196.98 L 420.81,199.02 L 428.43,198.18 L 426.61,201.06 L 427.79,212.27 L 423.37,219.54 L 412.78,210.64 L 414.30,208.75 L 412.61,207.52 Z M 310.98,177.64 L 316.95,176.87 L 316.90,179.18 L 314.25,181.13 L 314.22,178.59 L 310.98,177.64 Z M 323.69,187.20 L 321.89,183.51 L 319.43,183.71 L 317.69,185.80 L 314.22,181.40 L 316.90,179.18 L 316.95,176.87 L 322.92,178.79 L 326.27,177.56 L 328.90,187.39 L 326.00,190.32 L 325.21,187.54 L 323.69,187.20 Z M 344.13,180.73 L 346.67,193.09 L 340.25,196.36 L 338.04,195.55 L 338.63,181.03 L 344.13,180.73 Z M 311.35,174.61 L 316.78,175.08 L 310.93,175.89 L 313.61,174.91 L 311.35,174.61 Z M 371.02,202.75 L 370.85,204.99 L 373.31,205.85 L 372.15,208.55 L 373.21,212.71 L 372.42,214.18 L 369.60,212.56 L 367.61,213.81 L 368.15,217.08 L 366.65,217.70 L 361.78,209.51 L 363.11,207.23 L 364.39,207.57 L 363.57,205.53 L 367.09,205.60 L 367.09,202.41 L 371.02,202.75 Z M 415.09,194.45 L 410.42,188.38 L 412.53,186.80 L 412.73,181.99 L 416.78,172.72 L 418.90,172.97 L 419.41,171.22 L 425.34,173.02 L 428.68,177.07 L 427.70,180.78 L 429.93,180.71 L 432.29,185.65 L 440.38,188.11 L 434.53,195.82 L 428.43,198.18 L 426.17,197.45 L 423.64,199.49 L 416.64,196.98 L 415.09,194.45 Z M 416.78,172.72 L 417.35,165.77 L 420.35,163.41 L 423.15,170.51 L 430.10,176.46 L 428.68,177.07 L 423.94,172.18 L 419.41,171.22 L 418.90,172.97 L 416.78,172.72 Z M 367.06,202.73 L 367.09,205.60 L 363.16,205.26 L 363.99,202.39 L 367.06,202.73 Z M 416.17,153.55 L 392.99,153.80 L 391.15,130.77 L 399.21,131.92 L 402.80,129.96 L 404.86,131.19 L 408.75,130.55 L 410.59,135.09 L 409.73,139.34 L 405.72,134.80 L 413.64,148.78 L 413.69,151.22 L 416.17,153.55 Z M 430.52,179.45 L 427.70,180.78 L 428.80,176.95 L 430.10,176.46 L 430.72,177.98 L 429.07,179.28 L 430.52,179.45 Z M 328.31,183.07 L 331.77,181.69 L 332.07,182.99 L 338.90,184.76 L 338.63,195.41 L 333.66,195.26 L 329.12,197.37 L 329.31,193.71 L 327.03,192.06 L 327.79,187.27 L 328.90,187.39 L 328.31,183.07 Z M 405.53,228.39 L 402.14,229.03 L 401.10,230.85 L 401.05,237.24 L 403.66,238.10 L 403.49,241.27 L 402.16,241.17 L 398.45,236.65 L 396.16,237.41 L 392.13,234.88 L 388.74,235.66 L 387.93,226.10 L 384.12,225.27 L 383.01,227.70 L 379.50,227.99 L 377.26,222.59 L 368.78,222.22 L 370.04,219.71 L 373.13,218.66 L 373.82,220.08 L 376.40,217.33 L 376.90,213.42 L 379.99,209.41 L 382.57,196.02 L 389.33,197.86 L 390.19,196.41 L 398.72,195.23 L 400.91,197.32 L 403.88,196.73 L 406.36,199.51 L 407.15,202.73 L 404.50,206.05 L 402.28,214.11 L 402.85,222.98 L 405.53,228.39 Z M 366.65,217.70 L 368.15,217.08 L 367.61,213.81 L 369.60,212.56 L 372.42,214.18 L 373.21,212.71 L 372.15,208.55 L 373.31,205.85 L 370.85,204.99 L 371.02,202.75 L 376.58,203.93 L 377.66,199.44 L 381.47,199.19 L 379.99,209.41 L 376.90,213.42 L 376.18,217.75 L 373.82,220.08 L 373.13,218.66 L 368.42,220.38 L 366.65,217.70 Z M 391.35,159.96 L 391.74,169.28 L 389.70,169.77 L 387.73,176.53 L 389.92,181.13 L 384.98,185.57 L 382.20,186.04 L 381.47,188.25 L 375.30,189.53 L 372.23,184.22 L 375.57,183.44 L 370.97,172.67 L 374.86,166.45 L 375.54,157.97 L 373.41,151.46 L 375.32,150.36 L 391.35,159.96 Z M 392.62,186.68 L 399.31,195.45 L 395.52,194.96 L 389.33,197.86 L 383.43,195.43 L 381.69,199.49 L 377.66,199.44 L 376.82,202.48 L 373.26,193.09 L 375.30,189.53 L 381.47,188.25 L 382.08,186.16 L 385.55,185.13 L 388.30,181.37 L 389.92,181.13 L 392.62,186.68 Z M 361.46,196.36 L 363.89,191.45 L 365.54,190.69 L 366.82,192.19 L 368.07,190.56 L 373.33,179.77 L 373.06,176.01 L 375.57,183.44 L 372.23,184.22 L 375.45,189.02 L 373.23,193.19 L 376.72,203.81 L 364.34,202.73 L 363.75,198.08 L 361.46,196.36 Z M 405.70,213.99 L 406.17,216.15 L 403.83,219.07 L 402.63,214.65 L 405.70,213.99 Z M 346.08,181.05 L 338.63,181.03 L 338.75,184.89 L 333.25,182.43 L 336.02,175.35 L 342.95,171.02 L 344.72,171.42 L 346.25,176.01 L 348.68,177.24 L 348.85,179.33 L 346.08,181.05 Z M 394.07,251.96 L 398.97,261.30 L 401.50,262.89 L 396.85,266.26 L 393.31,271.50 L 388.96,270.41 L 385.92,274.22 L 384.00,274.15 L 383.24,262.26 L 385.18,262.28 L 385.57,253.21 L 390.02,252.45 L 390.73,253.58 L 394.07,251.96 Z M 347.53,192.78 L 345.85,181.74 L 349.86,177.64 L 351.95,181.99 L 349.84,185.82 L 349.71,192.41 L 347.53,192.78 Z M 370.53,219.47 L 368.78,222.22 L 368.42,220.38 L 370.53,219.47 Z M 392.13,234.88 L 391.96,240.11 L 388.03,240.11 L 387.88,248.15 L 390.39,251.56 L 385.15,252.47 L 380.58,250.93 L 367.46,250.48 L 371.93,235.27 L 368.96,223.05 L 377.26,222.59 L 379.50,227.99 L 383.01,227.70 L 384.12,225.27 L 387.93,226.10 L 388.64,235.49 L 392.13,234.88 Z M 360.04,117.25 L 358.27,124.89 L 361.29,129.19 L 362.94,136.32 L 362.42,143.77 L 364.12,147.58 L 367.51,150.21 L 355.73,160.19 L 350.67,161.34 L 350.43,159.28 L 327.64,140.97 L 327.74,137.53 L 337.35,131.95 L 337.18,130.18 L 341.97,129.15 L 340.18,121.77 L 346.59,118.31 L 360.04,117.25 Z"/>
<path class="an" d="M 261.46,365.77 L 260.25,368.70 L 256.71,370.05 L 257.03,372.34 L 259.29,373.27 L 255.51,373.32 L 256.27,374.77 L 254.60,376.12 L 256.74,379.10 L 259.44,378.51 L 265.76,385.12 L 265.07,386.17 L 266.45,386.52 L 265.22,387.06 L 269.47,389.34 L 267.13,389.76 L 270.25,392.88 L 267.99,393.50 L 267.63,395.02 L 268.93,395.34 L 263.10,398.63 L 255.21,398.98 L 261.97,401.19 L 260.77,402.42 L 252.78,402.07 L 258.58,403.92 L 250.69,402.54 L 256.93,405.84 L 261.60,405.32 L 262.27,406.52 L 259.24,406.92 L 265.71,408.64 L 269.74,407.90 L 279.94,409.77 L 276.82,410.80 L 282.84,411.17 L 281.19,412.00 L 283.99,413.99 L 292.42,410.31 L 298.69,411.24 L 303.31,407.36 L 318.72,404.80 L 303.70,401.44 L 305.13,398.83 L 310.24,396.13 L 322.28,393.60 L 322.87,391.01 L 326.24,389.88 L 323.73,388.66 L 329.63,386.10 L 330.10,384.48 L 328.26,383.59 L 330.27,383.99 L 330.86,382.46 L 333.12,384.26 L 334.13,382.22 L 336.49,381.87 L 336.34,383.37 L 343.57,384.31 L 356.40,380.59 L 359.62,382.07 L 361.61,380.32 L 369.42,380.82 L 369.64,382.56 L 375.94,381.43 L 378.84,382.98 L 387.51,380.69 L 389.58,377.45 L 391.35,380.00 L 395.60,381.33 L 398.52,378.06 L 408.50,374.62 L 410.25,376.49 L 411.30,374.18 L 414.01,374.67 L 414.47,372.83 L 419.71,371.62 L 423.59,373.32 L 421.53,375.19 L 438.83,377.37 L 436.77,380.91 L 432.19,383.22 L 434.45,383.74 L 427.65,390.47 L 440.55,382.68 L 443.50,382.86 L 450.63,379.17 L 459.52,377.15 L 479.78,377.67 L 485.65,376.22 L 492.06,379.54 L 499.17,377.45 L 500.10,380.05 L 496.51,381.38 L 513.69,380.62 L 514.82,382.73 L 519.81,381.01 L 525.73,381.63 L 533.40,384.72 L 530.80,386.94 L 533.75,386.76 L 532.74,388.56 L 536.99,389.22 L 535.93,390.25 L 537.75,390.65 L 540.31,389.69 L 539.79,391.43 L 542.62,393.23 L 539.99,396.74 L 542.94,395.34 L 546.70,398.93 L 540.06,401.88 L 537.58,401.14 L 530.87,404.07 L 523.97,404.85 L 516.47,410.53 L 518.41,410.38 L 517.48,411.71 L 513.30,410.82 L 503.79,413.85 L 505.51,414.09 L 502.12,415.62 L 501.92,417.19 L 498.60,417.63 L 502.02,417.66 L 502.56,419.11 L 501.03,419.52 L 506.86,421.79 L 485.11,429.26 L 203.45,429.26 L 181.70,421.79 L 203.90,421.76 L 180.38,419.08 L 195.37,419.23 L 196.87,416.92 L 189.20,414.95 L 195.66,413.77 L 173.45,407.78 L 183.55,408.12 L 182.15,406.72 L 185.49,406.50 L 178.75,405.37 L 182.96,404.93 L 180.82,404.26 L 182.02,403.01 L 185.29,403.06 L 184.78,401.83 L 187.70,401.34 L 187.55,400.21 L 208.30,397.43 L 207.41,396.08 L 210.80,398.39 L 212.92,397.72 L 211.93,396.32 L 214.39,398.63 L 228.42,397.65 L 220.22,394.55 L 224.34,393.77 L 217.46,392.17 L 232.92,392.37 L 234.13,390.70 L 244.20,392.86 L 244.23,391.36 L 245.55,391.68 L 244.55,390.60 L 250.22,392.44 L 258.33,390.28 L 259.64,387.55 L 253.30,381.31 L 255.14,380.52 L 251.58,375.63 L 253.15,375.97 L 252.31,374.55 L 253.91,370.32 L 261.46,365.77 Z M 294.05,402.54 L 296.01,402.71 L 297.51,405.81 L 286.87,407.53 L 289.30,404.41 L 288.86,400.85 L 293.85,400.65 L 295.23,401.83 L 294.05,402.54 Z M 280.60,406.74 L 280.70,408.22 L 273.18,406.94 L 278.64,406.84 L 278.76,405.37 L 280.60,406.74 Z M 251.21,380.84 L 256.00,384.82 L 257.40,388.78 L 253.15,389.15 L 255.71,388.11 L 252.12,386.86 L 250.96,388.26 L 248.70,387.55 L 251.80,386.12 L 250.74,385.53 L 254.38,385.46 L 248.48,380.96 L 251.21,380.84 Z M 221.47,389.81 L 225.33,391.14 L 216.90,390.62 L 221.47,389.81 Z M 200.50,396.42 L 201.61,397.72 L 200.43,398.02 L 197.63,396.52 L 200.50,396.42 Z M 192.96,396.10 L 198.27,397.82 L 192.96,396.10 Z M 182.12,412.81 L 174.53,411.34 L 182.12,412.81 Z M 522.49,409.32 L 523.74,409.96 L 520.25,410.21 L 522.49,409.32 Z M 310.44,404.53 L 312.16,404.78 L 310.44,404.53 Z M 306.95,403.45 L 304.00,403.43 L 306.95,403.45 Z M 268.34,405.69 L 266.15,404.46 L 269.91,402.47 L 268.34,405.69 Z M 261.04,367.49 L 262.10,367.86 L 261.04,367.49 Z M 258.51,362.28 L 257.33,363.10 L 258.51,362.28 Z M 254.01,368.90 L 252.78,369.53 L 254.01,368.90 Z M 251.40,376.54 L 249.93,376.74 L 250.45,374.47 L 251.40,376.54 Z M 248.80,384.58 L 245.87,385.66 L 248.80,384.58 Z M 245.70,382.51 L 246.76,383.47 L 245.70,382.51 Z M 252.12,390.47 L 252.73,391.70 L 250.08,390.06 L 252.12,390.47 Z M 232.36,392.07 L 230.59,390.82 L 232.36,392.07 Z M 273.43,406.40 L 270.77,405.25 L 273.43,406.40 Z M 262.37,381.53 L 260.92,380.25 L 262.37,381.53 Z M 187.36,416.03 L 183.67,416.01 L 187.36,416.03 Z M 340.96,382.00 L 340.64,382.98 L 339.59,381.85 L 340.96,382.00 Z M 318.75,389.86 L 319.19,391.33 L 317.10,390.43 L 318.75,389.86 Z"/>
<path class="as" d="M 449.15,166.40 L 446.50,169.72 L 430.84,176.48 L 428.80,170.19 L 429.76,164.59 L 437.36,165.84 L 441.02,161.61 L 446.40,160.58 L 449.15,166.40 Z M 451.29,176.43 L 452.81,176.63 L 451.29,176.43 Z M 554.32,151.04 L 552.18,152.49 L 551.34,157.93 L 559.48,167.17 L 561.91,174.51 L 561.47,177.88 L 557.05,180.31 L 557.19,181.91 L 556.19,180.98 L 557.22,182.48 L 555.65,181.57 L 556.48,183.14 L 553.90,185.30 L 554.17,181.74 L 552.72,180.54 L 556.04,179.45 L 555.15,177.24 L 558.18,175.23 L 557.24,167.56 L 547.78,157.16 L 549.38,155.20 L 548.32,153.57 L 545.32,153.06 L 542.50,149.25 L 545.89,148.68 L 547.90,146.45 L 554.32,151.04 Z M 469.82,101.35 L 469.11,103.24 L 474.86,104.74 L 472.84,106.51 L 470.85,106.46 L 469.85,104.42 L 468.30,105.08 L 467.63,108.25 L 465.79,108.57 L 468.35,111.65 L 468.00,114.28 L 465.67,113.93 L 465.30,112.26 L 447.80,100.96 L 447.90,102.18 L 445.81,102.23 L 446.03,104.84 L 444.16,104.74 L 441.71,95.65 L 445.74,94.07 L 446.06,96.88 L 446.03,94.22 L 453.21,98.94 L 458.10,98.18 L 463.23,104.35 L 466.68,105.60 L 469.82,101.35 Z M 452.67,143.79 L 451.46,151.41 L 446.40,150.72 L 444.11,147.80 L 448.61,147.82 L 452.10,142.76 L 452.67,143.79 Z M 444.16,104.74 L 447.16,103.68 L 447.80,100.96 L 465.30,112.26 L 465.67,113.93 L 462.72,114.60 L 462.67,116.59 L 459.35,119.66 L 456.30,116.07 L 448.24,112.38 L 442.79,114.77 L 438.95,107.25 L 438.95,105.65 L 440.82,106.56 L 442.05,105.45 L 439.81,102.92 L 438.44,103.31 L 438.68,105.26 L 437.70,103.83 L 440.23,102.36 L 444.16,104.74 Z M 418.36,105.06 L 420.62,104.89 L 425.16,109.53 L 423.86,110.25 L 425.44,116.17 L 422.51,115.26 L 411.55,116.93 L 410.93,119.34 L 410.39,116.68 L 404.72,118.95 L 400.51,116.98 L 398.97,118.75 L 394.71,117.45 L 396.07,116.64 L 394.30,116.81 L 393.98,114.33 L 392.18,113.64 L 393.68,113.17 L 391.49,109.41 L 396.46,108.33 L 397.86,107.39 L 396.46,106.29 L 400.24,106.49 L 406.58,104.00 L 413.05,106.68 L 418.36,105.06 Z M 394.20,104.47 L 396.19,106.80 L 393.58,106.95 L 391.52,109.19 L 391.25,105.01 L 394.20,104.47 Z M 594.13,234.11 L 594.65,231.75 L 598.95,231.24 L 594.13,234.11 Z M 539.87,154.78 L 542.42,156.72 L 542.99,161.98 L 548.44,159.74 L 553.09,166.63 L 552.60,170.43 L 548.86,170.26 L 547.44,172.40 L 549.33,177.19 L 544.95,174.78 L 544.78,172.75 L 542.94,172.99 L 542.40,182.53 L 545.52,189.16 L 549.06,191.60 L 547.19,193.22 L 540.90,185.99 L 542.69,177.14 L 538.74,168.84 L 539.50,165.22 L 535.49,159.67 L 536.08,156.40 L 539.87,154.78 Z M 468.00,114.28 L 468.35,111.65 L 465.79,108.57 L 467.59,108.30 L 468.22,105.16 L 469.85,104.42 L 471.49,106.49 L 469.06,106.83 L 469.08,108.28 L 476.85,108.11 L 481.15,113.17 L 477.96,113.12 L 475.43,115.19 L 472.72,110.84 L 470.85,114.30 L 468.00,114.28 Z M 578.53,146.87 L 578.55,148.66 L 576.02,144.19 L 577.37,139.69 L 578.53,146.87 Z M 410.47,119.14 L 411.55,116.93 L 421.87,115.92 L 420.22,117.77 L 420.40,122.63 L 413.37,128.01 L 411.30,127.01 L 412.31,123.30 L 410.47,119.14 Z M 504.11,182.92 L 508.36,189.33 L 506.24,192.73 L 504.40,190.56 L 504.11,182.92 Z M 571.84,105.90 L 573.59,103.41 L 577.69,107.32 L 580.00,112.31 L 576.41,115.01 L 571.84,105.90 Z M 446.40,160.58 L 440.72,161.71 L 437.36,165.84 L 429.91,164.51 L 428.90,167.36 L 421.06,156.03 L 418.87,149.25 L 410.42,138.58 L 410.71,135.39 L 412.88,135.73 L 416.12,132.46 L 413.88,130.05 L 417.79,128.41 L 429.22,135.44 L 436.59,136.91 L 446.40,150.72 L 451.56,151.22 L 452.69,152.94 L 452.00,157.97 L 446.40,160.58 Z M 124.17,20.17 L 123.97,23.59 L 120.24,26.78 L 123.77,25.01 L 124.12,28.08 L 119.67,28.21 L 114.53,31.03 L 113.99,29.39 L 115.57,27.89 L 113.31,27.30 L 116.35,25.45 L 110.21,27.81 L 124.17,20.17 Z M 571.62,93.46 L 567.69,86.87 L 568.20,85.47 L 570.47,87.41 L 570.56,85.72 L 567.02,77.48 L 562.35,79.57 L 559.50,76.75 L 553.09,74.95 L 545.03,67.92 L 539.79,66.38 L 536.08,68.83 L 538.49,70.75 L 539.84,75.74 L 538.66,77.36 L 531.78,76.03 L 528.02,79.43 L 524.41,79.28 L 519.84,77.09 L 514.63,77.85 L 510.99,75.15 L 504.77,73.70 L 505.83,79.79 L 496.27,77.66 L 490.64,82.67 L 481.69,78.37 L 478.96,79.20 L 477.12,77.90 L 476.53,79.25 L 467.14,70.53 L 462.92,73.31 L 462.62,71.76 L 458.42,71.63 L 456.62,68.98 L 453.77,68.93 L 448.81,71.86 L 443.01,72.96 L 445.32,75.39 L 443.70,75.54 L 443.01,78.20 L 446.03,79.57 L 445.59,81.17 L 434.97,80.85 L 435.19,82.03 L 432.46,79.77 L 428.11,79.33 L 425.34,82.23 L 426.05,83.90 L 423.54,82.92 L 423.52,87.76 L 429.27,92.84 L 426.57,94.47 L 425.95,97.27 L 430.72,103.90 L 429.20,105.48 L 425.21,102.38 L 414.77,100.44 L 408.16,96.38 L 410.89,93.93 L 409.39,92.60 L 411.75,91.52 L 409.78,90.90 L 412.19,89.43 L 411.77,85.25 L 403.86,83.51 L 399.80,78.71 L 396.68,79.40 L 395.43,77.16 L 397.59,76.11 L 393.83,72.84 L 393.63,70.90 L 389.23,69.79 L 387.86,67.87 L 387.12,60.65 L 390.24,60.16 L 386.36,58.81 L 390.61,52.81 L 387.88,50.89 L 384.74,43.17 L 385.52,41.23 L 382.62,38.26 L 386.70,35.58 L 388.86,37.69 L 392.40,37.30 L 400.46,40.69 L 401.52,42.85 L 398.62,44.82 L 388.47,42.41 L 393.17,45.26 L 394.69,48.95 L 398.60,50.40 L 396.80,47.08 L 401.35,48.41 L 400.61,45.90 L 403.19,43.54 L 406.26,44.70 L 402.82,38.23 L 406.41,38.58 L 408.11,40.08 L 406.09,41.23 L 408.85,42.63 L 416.39,36.88 L 416.49,38.68 L 423.30,36.51 L 424.99,38.06 L 424.62,34.38 L 436.59,37.42 L 436.54,35.92 L 432.76,34.65 L 430.20,31.01 L 430.69,26.34 L 433.32,26.29 L 435.29,26.73 L 436.15,29.73 L 443.03,36.71 L 443.03,41.18 L 439.49,41.16 L 444.38,42.19 L 445.69,38.31 L 444.43,35.65 L 451.44,38.38 L 449.42,38.11 L 447.63,35.33 L 442.15,34.97 L 440.65,31.62 L 437.67,29.66 L 438.85,27.86 L 437.45,26.29 L 441.26,29.88 L 445.86,30.37 L 440.53,28.33 L 443.16,28.16 L 441.80,27.64 L 442.66,26.98 L 449.50,28.18 L 452.45,32.04 L 450.09,28.23 L 445.32,26.58 L 443.03,24.05 L 449.79,22.80 L 451.09,24.64 L 449.55,23.88 L 450.73,22.92 L 446.99,21.13 L 448.24,20.32 L 447.28,19.83 L 452.27,17.17 L 459.87,17.32 L 457.43,15.80 L 460.56,15.72 L 458.57,14.54 L 459.89,12.65 L 465.52,15.11 L 469.94,14.22 L 474.98,15.70 L 473.73,16.02 L 476.38,17.79 L 473.31,23.61 L 477.44,20.96 L 476.04,20.27 L 479.38,20.22 L 483.36,23.00 L 481.37,20.83 L 492.60,21.40 L 492.38,19.24 L 499.09,20.05 L 502.21,22.23 L 499.61,21.74 L 507.94,24.94 L 506.37,22.14 L 514.43,23.09 L 513.37,22.06 L 515.56,22.01 L 512.14,20.37 L 513.40,19.56 L 512.17,18.94 L 520.28,19.31 L 520.45,20.81 L 520.62,19.19 L 523.45,19.19 L 530.82,21.45 L 536.84,20.19 L 546.97,24.72 L 545.47,21.87 L 550.07,20.98 L 555.84,22.26 L 551.34,19.73 L 564.42,20.05 L 578.35,27.81 L 578.48,29.12 L 575.13,28.50 L 576.36,29.07 L 574.10,29.88 L 579.51,29.85 L 586.93,33.76 L 583.17,33.32 L 583.00,37.15 L 585.01,41.11 L 581.72,39.98 L 580.03,40.89 L 580.62,42.36 L 578.77,40.91 L 579.09,42.71 L 577.10,42.56 L 580.79,47.48 L 587.84,51.46 L 586.27,51.01 L 586.66,52.10 L 590.47,55.29 L 589.36,57.13 L 592.17,59.71 L 590.35,60.33 L 593.32,65.83 L 577.17,52.12 L 575.23,49.37 L 576.41,48.51 L 574.35,40.57 L 571.37,36.69 L 568.87,37.01 L 571.62,39.24 L 571.03,42.02 L 567.42,39.14 L 564.27,40.35 L 566.26,45.16 L 569.16,46.47 L 565.23,48.04 L 565.18,46.93 L 560.39,46.39 L 560.88,47.72 L 553.51,48.61 L 553.78,61.04 L 556.51,61.26 L 558.42,63.33 L 558.50,61.93 L 559.60,63.79 L 560.46,62.54 L 561.32,63.57 L 559.87,61.68 L 561.40,61.51 L 566.04,63.57 L 574.96,75.96 L 576.73,89.45 L 574.99,91.98 L 571.94,90.63 L 571.62,93.46 Z M 394.37,8.59 L 392.01,9.26 L 394.37,8.59 Z M 397.22,8.32 L 399.04,8.86 L 396.88,10.22 L 394.22,9.95 L 397.22,8.32 Z M 423.44,18.67 L 417.50,21.23 L 414.67,26.31 L 410.59,25.36 L 412.48,23.46 L 411.33,21.87 L 415.87,18.94 L 422.02,16.85 L 423.96,17.49 L 423.44,18.67 Z M 413.07,26.36 L 414.55,26.56 L 414.77,29.68 L 419.24,32.46 L 414.15,32.48 L 410.12,30.27 L 410.69,26.78 L 413.07,26.36 Z M 443.84,5.82 L 446.57,7.61 L 440.62,7.71 L 440.82,6.11 L 443.84,5.82 Z M 447.28,7.76 L 450.65,8.45 L 452.37,10.56 L 444.24,9.53 L 444.73,8.08 L 447.28,7.76 Z M 454.83,9.38 L 459.25,10.86 L 454.19,12.33 L 453.28,9.26 L 454.83,9.38 Z M 502.19,13.02 L 508.41,12.94 L 508.65,14.10 L 504.87,13.02 L 507.99,14.37 L 504.94,15.52 L 499.68,13.51 L 499.81,12.40 L 502.19,13.02 Z M 510.32,13.09 L 514.97,12.97 L 513.67,14.03 L 510.32,13.09 Z M 556.70,16.78 L 555.15,15.25 L 556.70,16.78 Z M 565.38,60.60 L 581.40,74.44 L 577.79,73.38 L 585.01,81.34 L 582.31,79.82 L 583.15,81.91 L 565.38,60.60 Z M 134.59,15.38 L 131.42,16.26 L 134.59,15.38 Z M 412.46,31.21 L 413.07,32.14 L 412.46,31.21 Z M 546.40,23.86 L 544.00,22.33 L 546.40,23.86 Z M 411.50,36.64 L 409.04,37.08 L 409.44,35.90 L 411.50,36.64 Z M 411.16,8.37 L 410.07,8.13 L 411.30,7.22 L 412.88,7.76 L 411.16,8.37 Z M 406.44,9.97 L 404.94,9.11 L 407.44,9.38 L 406.44,9.97 Z M 409.68,8.10 L 407.13,8.84 L 409.68,8.10 Z M 404.05,6.60 L 404.32,7.59 L 402.01,7.24 L 404.05,6.60 Z M 401.55,7.73 L 405.11,8.40 L 401.55,7.73 Z M 443.38,9.13 L 441.04,8.57 L 443.38,9.13 Z M 510.45,16.68 L 513.84,17.88 L 509.34,17.98 L 510.45,16.68 Z M 499.39,14.37 L 497.79,13.48 L 499.39,14.37 Z M 504.23,17.44 L 502.36,16.83 L 504.23,17.44 Z M 557.02,59.89 L 557.71,60.97 L 557.02,59.89 Z M 551.91,21.03 L 549.65,20.78 L 551.91,21.03 Z M 581.28,45.85 L 580.54,44.21 L 581.28,45.85 Z M 596.05,53.91 L 593.59,53.05 L 596.05,53.91 Z M 593.81,67.70 L 592.90,66.47 L 593.81,67.70 Z M 594.48,82.03 L 593.74,84.76 L 593.30,82.03 L 594.48,82.03 Z M 592.46,84.69 L 592.78,86.80 L 592.46,84.69 Z M 432.02,25.92 L 431.01,25.04 L 432.02,25.92 Z M 443.30,26.14 L 442.22,25.28 L 443.30,26.14 Z M 423.91,34.18 L 420.94,33.52 L 423.91,34.18 Z M 377.88,71.93 L 380.53,72.42 L 381.10,74.14 L 375.96,73.97 L 377.88,71.93 Z M 402.43,94.10 L 407.91,95.72 L 403.44,98.28 L 400.86,95.87 L 402.43,94.10 Z M 443.38,146.59 L 442.84,142.76 L 443.38,146.59 Z M 581.67,157.61 L 584.03,157.93 L 585.38,161.49 L 584.23,166.45 L 585.58,169.55 L 589.78,170.31 L 590.89,173.75 L 587.35,170.19 L 587.69,172.13 L 585.70,170.16 L 583.54,170.61 L 583.71,168.32 L 581.89,167.83 L 580.52,164.07 L 581.77,164.41 L 581.67,157.61 Z M 578.99,185.28 L 582.48,177.41 L 583.07,179.60 L 578.99,185.28 Z M 588.21,176.43 L 589.59,177.29 L 587.60,179.63 L 586.96,175.82 L 588.21,176.43 Z M 590.42,183.34 L 588.70,181.30 L 589.98,178.08 L 590.42,183.34 Z M 592.44,177.05 L 593.86,180.61 L 592.44,177.05 Z M 593.22,173.78 L 594.87,177.78 L 591.48,174.17 L 593.22,173.78 Z M 583.81,171.49 L 585.60,172.38 L 585.46,174.86 L 583.81,171.49 Z M 596.07,182.50 L 597.87,188.15 L 597.33,190.74 L 596.07,188.15 L 595.78,192.73 L 593.08,190.56 L 591.87,186.70 L 591.43,187.84 L 589.78,186.90 L 588.70,189.09 L 591.16,184.30 L 592.07,186.07 L 595.17,183.36 L 594.85,181.32 L 596.07,182.50 Z M 590.77,182.28 L 591.40,177.27 L 590.77,182.28 Z M 593.10,181.30 L 591.53,181.25 L 593.10,181.30 Z M 590.32,174.54 L 591.21,175.96 L 589.39,175.55 L 589.24,173.75 L 590.32,174.54 Z M 485.45,117.37 L 485.82,119.71 L 481.08,120.13 L 482.16,123.81 L 485.23,126.00 L 484.72,129.19 L 481.32,137.13 L 478.52,137.08 L 477.34,139.39 L 481.54,146.20 L 477.22,146.52 L 476.19,147.97 L 471.94,143.42 L 462.99,144.70 L 463.06,142.10 L 465.45,139.69 L 459.50,133.03 L 465.89,134.01 L 469.65,132.71 L 470.02,129.17 L 474.20,127.30 L 473.93,124.57 L 475.18,123.84 L 474.02,122.07 L 476.14,121.87 L 475.03,116.86 L 476.31,115.14 L 481.52,114.20 L 485.45,117.37 Z M 449.15,166.40 L 446.40,160.58 L 452.00,157.97 L 452.69,152.94 L 451.49,150.38 L 453.11,145.46 L 460.70,152.22 L 457.56,157.26 L 457.83,160.33 L 452.96,165.37 L 449.15,166.40 Z M 573.59,103.41 L 569.70,106.26 L 567.98,105.31 L 568.67,103.71 L 567.10,101.57 L 564.57,100.22 L 566.21,95.47 L 568.92,96.26 L 567.76,94.74 L 569.14,94.44 L 569.48,91.84 L 571.62,93.46 L 572.38,97.37 L 570.51,100.76 L 573.59,103.41 Z M 512.12,136.20 L 512.95,139.91 L 507.30,139.25 L 496.27,134.28 L 496.61,131.48 L 498.68,130.35 L 508.09,136.27 L 512.12,136.20 Z M 491.18,82.42 L 496.27,77.66 L 505.83,79.79 L 504.77,73.70 L 510.99,75.15 L 514.63,77.85 L 519.84,77.09 L 524.41,79.28 L 528.02,79.43 L 531.78,76.03 L 535.49,76.45 L 537.90,81.83 L 542.28,81.10 L 546.63,84.02 L 542.91,84.78 L 539.55,90.07 L 536.28,89.50 L 538.32,92.94 L 537.06,95.55 L 529.45,99.31 L 522.29,97.37 L 513.35,97.54 L 509.71,93.75 L 501.08,91.96 L 497.18,85.89 L 491.18,82.42 Z M 545.05,191.13 L 547.19,193.22 L 549.43,191.69 L 551.20,193.78 L 553.92,204.40 L 547.88,200.47 L 545.05,191.13 Z M 580.44,196.78 L 576.63,196.76 L 574.54,204.15 L 570.44,203.88 L 566.51,205.75 L 564.54,203.12 L 567.93,204.33 L 567.91,201.55 L 571.47,199.46 L 573.24,195.77 L 574.59,197.20 L 575.23,194.89 L 575.90,196.31 L 578.31,189.21 L 580.00,192.16 L 583.61,193.51 L 580.44,196.78 Z M 411.06,122.31 L 412.31,123.30 L 409.93,126.17 L 411.06,122.31 Z M 542.50,149.25 L 545.32,153.06 L 548.32,153.57 L 549.38,155.20 L 547.78,157.16 L 556.36,165.49 L 557.07,169.40 L 554.78,169.72 L 554.69,171.20 L 552.97,170.51 L 553.09,166.63 L 548.44,159.74 L 542.86,161.86 L 542.42,156.72 L 539.84,154.07 L 541.10,151.44 L 542.59,152.32 L 541.41,149.62 L 542.50,149.25 Z M 471.47,106.36 L 474.86,104.74 L 469.06,103.17 L 470.19,99.97 L 474.12,100.71 L 474.64,98.57 L 483.58,99.28 L 486.21,100.98 L 481.32,103.88 L 480.86,105.62 L 478.13,105.43 L 477.00,108.08 L 469.08,108.28 L 469.06,106.83 L 471.47,106.36 Z M 436.59,136.91 L 432.76,135.63 L 433.59,133.35 L 436.59,136.91 Z M 469.82,101.35 L 466.43,105.53 L 463.23,104.35 L 460.75,99.87 L 458.10,98.18 L 453.21,98.94 L 446.03,94.22 L 446.67,92.92 L 441.71,95.65 L 444.16,104.74 L 440.23,102.36 L 437.70,103.83 L 437.28,101.40 L 432.14,97.32 L 434.33,97.07 L 433.59,95.03 L 436.69,94.98 L 435.41,91.22 L 427.99,92.21 L 423.52,87.76 L 423.64,82.82 L 426.05,83.90 L 425.34,82.23 L 428.11,79.33 L 432.46,79.77 L 435.19,82.03 L 434.97,80.85 L 445.59,81.17 L 446.03,79.57 L 443.01,78.20 L 443.70,75.54 L 445.32,75.39 L 443.01,72.96 L 448.81,71.86 L 453.77,68.93 L 456.62,68.98 L 458.42,71.63 L 462.62,71.76 L 462.92,73.31 L 467.14,70.53 L 476.53,79.25 L 477.12,77.90 L 478.96,79.20 L 481.69,78.37 L 490.49,82.67 L 488.75,84.59 L 489.88,87.90 L 485.65,87.86 L 487.03,93.07 L 482.77,93.93 L 486.07,98.15 L 486.02,100.64 L 474.64,98.57 L 474.12,100.71 L 470.76,99.85 L 469.82,101.35 Z M 449.15,92.60 L 449.94,91.08 L 447.43,91.44 L 449.15,92.60 Z M 411.30,127.01 L 413.37,128.01 L 416.66,125.34 L 418.01,128.09 L 413.88,130.05 L 416.12,132.46 L 412.78,135.76 L 410.71,135.39 L 411.30,127.01 Z M 589.49,86.18 L 591.50,85.30 L 594.11,87.63 L 592.14,89.35 L 592.63,91.79 L 587.13,90.90 L 589.61,92.72 L 588.41,93.80 L 585.60,88.99 L 587.23,88.86 L 583.54,83.33 L 589.49,86.18 Z M 585.60,116.17 L 588.04,117.94 L 588.06,123.12 L 585.51,118.31 L 584.50,117.45 L 584.45,119.12 L 583.25,117.40 L 584.35,115.38 L 585.60,116.17 Z M 590.32,113.91 L 591.43,116.61 L 590.08,116.00 L 589.64,118.16 L 587.47,116.73 L 588.06,114.57 L 590.32,113.91 Z M 590.54,93.83 L 595.24,98.79 L 599.44,110.37 L 597.82,109.19 L 596.57,112.33 L 593.47,111.35 L 594.62,113.29 L 593.76,115.73 L 590.27,112.48 L 586.64,114.05 L 587.01,115.38 L 584.65,115.21 L 586.02,110.81 L 591.09,110.05 L 589.98,105.16 L 591.65,106.76 L 592.76,105.33 L 592.54,100.66 L 589.41,94.39 L 591.23,95.13 L 590.54,93.83 Z M 411.18,125.34 L 409.93,128.46 L 410.59,135.09 L 408.87,130.84 L 411.18,125.34 Z M 410.96,127.87 L 410.00,130.42 L 410.96,127.87 Z M 421.87,115.92 L 426.17,115.68 L 429.61,119.07 L 428.75,123.57 L 433.08,127.33 L 436.25,133.40 L 433.72,133.25 L 432.76,135.63 L 429.27,135.46 L 417.79,128.41 L 416.66,125.34 L 420.40,122.63 L 420.22,117.77 L 421.87,115.92 Z M 451.98,140.62 L 450.38,141.36 L 451.98,140.62 Z M 442.79,114.77 L 448.24,112.38 L 456.45,116.24 L 456.84,123.42 L 458.64,128.95 L 460.80,130.35 L 459.50,133.03 L 465.47,139.76 L 463.06,142.10 L 463.01,144.68 L 454.61,143.40 L 452.91,140.08 L 449.18,141.73 L 442.84,138.48 L 439.03,132.73 L 436.89,132.02 L 436.00,133.20 L 433.08,127.33 L 428.75,123.57 L 429.61,119.07 L 424.92,113.93 L 424.70,109.24 L 427.99,111.40 L 430.87,109.29 L 433.84,114.23 L 438.02,116.41 L 443.18,116.07 L 442.79,114.77 Z M 540.31,204.23 L 541.02,206.59 L 540.31,204.23 Z M 543.68,212.73 L 542.72,210.62 L 543.68,212.73 Z M 577.62,231.29 L 575.99,231.73 L 577.25,230.18 L 577.62,231.29 Z M 575.36,230.01 L 574.54,231.88 L 573.39,230.01 L 575.36,230.01 Z M 557.51,212.49 L 558.67,216.22 L 555.67,213.47 L 557.51,212.49 Z M 591.65,220.50 L 590.37,223.50 L 591.65,220.50 Z M 590.45,222.44 L 590.67,220.67 L 590.45,222.44 Z M 561.76,216.05 L 560.56,216.59 L 560.71,214.89 L 561.76,216.05 Z M 616.55,209.88 L 618.54,211.13 L 616.55,209.88 Z M 616.69,212.51 L 619.52,213.13 L 616.69,212.51 Z M 607.38,208.06 L 608.26,209.07 L 606.20,208.65 L 607.38,208.06 Z M 607.13,230.23 L 608.02,227.80 L 607.13,230.23 Z M 598.19,229.13 L 596.10,229.96 L 598.19,229.13 Z M 593.59,230.33 L 594.65,230.87 L 593.59,230.33 Z M 537.97,194.37 L 540.11,194.42 L 551.32,206.32 L 550.53,207.50 L 552.79,207.30 L 552.30,209.59 L 554.15,210.82 L 554.66,214.92 L 556.16,214.38 L 557.41,216.30 L 556.46,223.47 L 554.29,222.66 L 554.15,223.69 L 548.42,216.39 L 542.52,203.17 L 535.91,195.36 L 535.49,193.46 L 537.97,194.37 Z M 589.88,231.53 L 583.91,231.66 L 585.65,230.45 L 588.95,231.56 L 590.15,230.13 L 589.88,231.53 Z M 584.11,233.50 L 585.43,235.52 L 582.07,234.24 L 584.11,233.50 Z M 580.89,230.55 L 582.43,231.71 L 577.79,232.34 L 580.89,230.55 Z M 595.44,205.33 L 593.17,207.23 L 586.00,207.33 L 586.93,211.80 L 592.51,210.20 L 588.28,213.17 L 591.06,220.06 L 588.41,221.01 L 586.81,215.31 L 585.92,223.25 L 584.18,223.28 L 583.05,215.44 L 586.15,205.43 L 587.77,204.45 L 593.52,205.73 L 595.61,203.39 L 595.44,205.33 Z M 559.68,224.04 L 562.13,226.15 L 565.60,226.62 L 566.53,225.22 L 569.85,226.62 L 570.61,228.58 L 573.37,229.00 L 573.46,231.63 L 557.56,227.60 L 555.33,225.88 L 557.10,223.74 L 559.68,224.04 Z M 564.69,202.66 L 566.51,205.75 L 570.44,203.88 L 574.54,204.15 L 576.63,196.76 L 579.46,196.34 L 580.91,198.08 L 579.48,198.28 L 583.56,205.41 L 581.40,205.09 L 577.94,216.49 L 574.67,219.27 L 574.08,216.76 L 571.47,215.93 L 569.04,217.57 L 568.79,215.80 L 565.89,215.98 L 563.39,207.10 L 564.69,202.66 Z M 601.16,205.73 L 603.05,203.71 L 602.22,206.05 L 603.52,207.47 L 601.48,207.25 L 602.56,210.52 L 600.55,204.92 L 601.70,201.99 L 601.16,205.73 Z M 605.07,215.98 L 607.06,218.75 L 605.19,217.25 L 601.28,217.70 L 601.95,215.95 L 605.07,215.98 Z M 599.24,216.54 L 599.32,218.41 L 597.57,217.45 L 599.24,216.54 Z M 594.03,232.54 L 593.86,234.51 L 591.01,236.20 L 594.03,232.54 Z M 614.61,224.01 L 613.84,225.73 L 613.52,223.99 L 614.61,224.01 Z M 613.99,226.05 L 613.01,227.11 L 613.23,225.34 L 613.99,226.05 Z M 621.44,231.36 L 619.62,231.63 L 622.20,228.88 L 621.44,231.36 Z M 627.66,215.46 L 625.96,233.87 L 624.71,230.45 L 622.15,231.26 L 623.06,228.34 L 619.87,221.95 L 613.43,218.70 L 613.28,216.59 L 611.26,219.34 L 609.54,215.80 L 613.03,215.39 L 613.52,213.94 L 610.28,214.31 L 607.70,212.02 L 610.55,209.05 L 613.72,210.13 L 614.06,214.50 L 616.06,217.48 L 621.39,212.24 L 627.66,215.46 Z M 600.84,208.95 L 601.21,210.50 L 600.84,208.95 Z M 606.40,212.73 L 605.14,213.22 L 606.40,212.73 Z M 538.22,201.89 L 536.67,200.69 L 538.22,201.89 Z M 592.07,211.26 L 591.38,212.39 L 592.07,211.26 Z M 589.39,237.80 L 590.40,236.65 L 589.39,237.80 Z M 476.24,147.73 L 481.54,146.20 L 477.34,139.39 L 478.52,137.08 L 481.32,137.13 L 485.26,126.17 L 482.16,123.81 L 481.08,120.13 L 484.37,120.37 L 487.47,117.69 L 490.49,120.62 L 492.21,128.16 L 497.23,130.91 L 496.32,134.38 L 502.17,137.53 L 512.88,140.03 L 512.12,136.00 L 513.32,135.81 L 514.80,138.83 L 520.16,138.48 L 518.83,136.20 L 523.30,131.95 L 525.83,131.46 L 527.11,134.11 L 529.20,134.50 L 529.62,137.38 L 527.80,137.08 L 526.28,138.88 L 526.18,146.01 L 524.53,145.56 L 524.95,150.97 L 522.69,146.64 L 521.90,148.49 L 520.67,146.99 L 522.32,143.38 L 517.08,142.69 L 516.17,140.33 L 513.47,139.54 L 515.41,142.83 L 514.01,144.53 L 515.56,145.37 L 517.67,152.10 L 516.64,150.92 L 515.88,152.20 L 515.14,150.31 L 513.89,155.69 L 511.23,157.19 L 506.69,165.54 L 503.10,167.81 L 503.71,181.62 L 502.09,183.58 L 503.10,184.52 L 501.13,184.76 L 499.51,187.42 L 489.14,166.18 L 486.73,152.79 L 484.69,151.51 L 484.84,154.34 L 481.99,155.22 L 478.47,151.63 L 481.08,149.54 L 478.74,150.21 L 476.24,147.73 Z M 421.99,105.99 L 418.36,105.06 L 417.79,102.26 L 414.77,100.44 L 425.31,102.43 L 427.52,105.87 L 421.99,105.99 Z M 407.27,121.31 L 404.84,121.08 L 408.08,119.83 L 407.27,121.31 Z M 404.84,121.08 L 407.37,121.50 L 405.45,122.56 L 404.84,121.08 Z M 571.50,123.15 L 569.95,122.41 L 571.50,123.15 Z M 554.32,151.04 L 547.90,146.45 L 545.89,148.68 L 541.61,149.00 L 542.50,152.47 L 540.87,150.95 L 539.23,151.76 L 536.94,150.06 L 535.02,144.97 L 532.74,145.64 L 533.48,140.48 L 532.20,136.05 L 529.62,133.74 L 527.11,134.11 L 525.83,131.46 L 523.30,131.95 L 519.52,136.25 L 515.19,134.97 L 513.96,137.55 L 512.93,135.61 L 508.09,136.27 L 499.04,130.42 L 497.50,131.23 L 492.24,128.21 L 490.49,120.62 L 487.91,117.72 L 480.00,113.86 L 481.15,113.17 L 479.85,110.64 L 476.85,108.11 L 478.13,105.43 L 480.86,105.62 L 481.32,103.88 L 486.21,101.00 L 486.07,98.15 L 482.77,93.93 L 487.03,93.07 L 485.65,87.86 L 489.88,87.90 L 488.75,84.76 L 490.00,82.62 L 497.13,85.82 L 501.08,91.96 L 509.71,93.75 L 513.35,97.54 L 522.29,97.37 L 529.45,99.31 L 535.88,96.48 L 538.32,92.94 L 536.28,89.50 L 539.55,90.07 L 542.91,84.78 L 546.67,84.17 L 542.28,81.10 L 538.64,82.25 L 537.31,81.20 L 536.28,76.77 L 538.66,77.36 L 539.84,75.74 L 538.37,70.45 L 536.08,68.83 L 539.35,66.40 L 543.82,67.26 L 553.09,74.95 L 559.50,76.75 L 562.35,79.57 L 566.21,77.26 L 568.20,78.84 L 570.56,85.72 L 568.20,85.47 L 567.69,86.87 L 570.96,92.87 L 569.14,91.79 L 569.75,93.26 L 567.76,94.74 L 568.92,96.26 L 566.02,95.67 L 564.64,100.71 L 561.05,104.30 L 558.96,98.40 L 556.65,103.49 L 554.69,103.78 L 559.97,108.72 L 561.57,106.71 L 565.50,107.52 L 565.70,109.07 L 562.75,111.03 L 562.65,114.72 L 570.96,122.07 L 567.66,122.24 L 571.94,124.28 L 569.83,126.69 L 573.71,127.40 L 574.50,131.65 L 571.96,137.72 L 573.54,139.62 L 569.60,146.45 L 565.23,147.85 L 563.85,146.32 L 564.57,148.66 L 559.14,151.29 L 559.70,154.04 L 557.27,150.43 L 554.32,151.04 Z M 560.95,154.80 L 560.29,158.96 L 557.59,158.83 L 557.86,155.22 L 560.95,154.80 Z M 557.22,169.03 L 558.20,175.06 L 555.15,177.24 L 556.04,179.45 L 551.00,180.19 L 547.44,172.40 L 548.57,170.48 L 554.69,171.20 L 554.78,169.72 L 557.22,169.03 Z M 539.87,154.78 L 536.08,156.40 L 535.49,159.67 L 539.50,165.22 L 538.74,168.84 L 542.69,177.14 L 541.12,181.74 L 541.24,177.32 L 537.11,164.71 L 535.00,162.59 L 532.86,167.04 L 531.19,165.03 L 530.45,166.36 L 528.44,157.48 L 523.92,152.81 L 525.29,150.33 L 524.53,145.56 L 526.18,146.01 L 526.28,138.88 L 527.80,137.08 L 529.62,137.38 L 529.49,133.72 L 533.03,138.31 L 532.74,145.64 L 535.02,144.97 L 536.99,150.13 L 539.37,151.78 L 540.97,150.99 L 539.87,154.78 Z M 575.23,194.89 L 574.59,197.20 L 573.34,195.72 L 575.23,194.89 Z M 518.83,136.20 L 520.16,138.48 L 513.77,137.94 L 515.34,134.92 L 518.83,136.20 Z M 517.45,150.97 L 514.01,144.53 L 515.41,142.83 L 513.37,141.29 L 513.57,139.52 L 516.17,140.33 L 517.08,142.69 L 522.39,143.47 L 520.62,146.77 L 521.90,148.49 L 522.69,146.64 L 524.48,154.09 L 519.59,146.99 L 519.86,151.56 L 519.05,149.94 L 518.61,151.76 L 517.45,150.97 Z M 520.77,150.85 L 519.98,148.88 L 520.77,150.85 Z M 425.16,109.53 L 427.87,111.38 L 425.16,109.53 Z M 433.08,112.33 L 430.87,109.29 L 428.53,111.28 L 424.70,105.45 L 427.52,105.87 L 426.91,103.90 L 429.69,105.53 L 430.92,104.03 L 434.80,107.66 L 433.37,107.94 L 433.08,112.33 Z M 425.04,109.39 L 421.99,105.99 L 425.95,106.53 L 428.53,111.28 L 425.04,109.39 Z M 465.67,113.93 L 470.85,114.30 L 472.72,110.84 L 475.43,115.19 L 477.96,113.12 L 480.86,113.56 L 475.06,116.66 L 476.41,118.97 L 476.14,121.87 L 474.02,122.07 L 475.18,123.84 L 473.93,124.57 L 474.20,127.30 L 470.02,129.17 L 469.58,132.78 L 465.89,134.01 L 459.50,133.03 L 460.80,130.35 L 458.64,128.95 L 456.62,122.46 L 457.19,118.60 L 460.02,119.44 L 462.72,114.60 L 465.67,113.93 Z M 486.39,118.72 L 485.45,117.37 L 487.47,117.69 L 486.39,118.72 Z"/>
<path class="eu" d="M 339.86,81.20 L 335.58,80.53 L 337.45,79.45 L 337.30,77.43 L 339.78,77.04 L 339.39,72.99 L 336.00,73.23 L 336.64,70.04 L 335.04,71.98 L 336.07,68.56 L 334.60,68.64 L 336.51,64.11 L 339.56,63.94 L 337.79,66.55 L 341.36,66.47 L 339.02,69.52 L 340.03,69.79 L 338.26,70.18 L 340.87,70.68 L 344.13,75.05 L 344.48,76.30 L 343.20,76.03 L 344.36,78.02 L 347.11,78.59 L 344.99,81.56 L 346.64,81.83 L 345.88,82.89 L 334.82,85.03 L 339.86,81.20 Z M 334.65,64.61 L 333.22,65.93 L 334.65,64.61 Z M 334.65,66.72 L 334.92,67.85 L 334.65,66.72 Z M 334.20,75.10 L 331.11,74.19 L 334.45,72.32 L 335.43,74.09 L 334.20,75.10 Z M 409.93,91.47 L 405.11,93.19 L 404.94,94.96 L 399.33,93.73 L 400.46,92.87 L 398.82,91.42 L 399.24,92.82 L 394.39,96.41 L 394.30,93.39 L 396.34,93.43 L 394.03,89.67 L 391.15,88.47 L 386.87,90.41 L 381.93,88.40 L 384.59,83.53 L 383.41,80.88 L 395.03,81.49 L 395.40,79.55 L 399.80,78.71 L 403.86,83.51 L 411.77,85.25 L 412.19,89.43 L 409.93,91.47 Z M 360.67,91.25 L 362.30,92.72 L 361.83,94.37 L 354.63,94.61 L 356.37,91.32 L 360.67,91.25 Z M 374.07,65.69 L 372.89,67.97 L 374.07,65.69 Z M 370.51,69.55 L 371.17,67.01 L 370.51,69.55 Z M 361.83,62.89 L 363.60,57.18 L 361.85,52.42 L 364.75,50.23 L 364.78,45.41 L 366.65,41.99 L 368.98,39.46 L 371.49,39.83 L 371.41,38.21 L 376.67,40.74 L 378.44,46.00 L 375.94,45.90 L 374.44,50.84 L 369.99,54.36 L 370.36,58.71 L 373.28,60.80 L 369.37,63.79 L 370.53,64.14 L 369.69,69.72 L 364.93,71.78 L 361.83,62.89 Z M 349.96,110.27 L 349.86,111.47 L 348.56,110.81 L 349.96,110.27 Z M 341.11,101.37 L 349.98,103.78 L 350.08,104.96 L 345.56,107.74 L 343.69,110.93 L 344.65,112.80 L 340.40,117.67 L 333.91,119.51 L 330.69,116.66 L 330.67,110.56 L 333.17,105.97 L 328.50,104.99 L 328.04,101.91 L 330.71,100.46 L 341.11,101.37 Z M 382.45,87.14 L 381.93,88.84 L 379.13,88.54 L 376.33,90.41 L 373.01,88.96 L 377.07,85.94 L 382.45,87.14 Z M 372.82,93.63 L 370.82,96.24 L 368.00,96.19 L 367.43,94.27 L 372.82,93.63 Z M 381.64,97.64 L 384.07,98.13 L 384.15,103.76 L 378.20,101.08 L 376.99,95.20 L 379.30,94.47 L 381.64,97.64 Z M 393.39,95.89 L 396.04,96.31 L 394.62,100.09 L 384.64,100.02 L 379.35,94.49 L 383.78,89.55 L 386.87,90.41 L 389.80,89.01 L 392.58,92.13 L 393.39,95.89 Z M 328.63,104.94 L 333.17,105.97 L 330.67,110.56 L 331.60,114.18 L 329.90,117.08 L 327.77,117.00 L 328.33,111.99 L 327.05,112.83 L 328.63,104.94 Z M 383.46,81.10 L 384.59,83.53 L 382.92,87.27 L 376.33,86.45 L 369.01,82.94 L 367.33,75.42 L 373.41,73.08 L 381.29,74.07 L 383.38,77.39 L 383.46,81.10 Z M 372.08,38.16 L 371.49,39.83 L 369.15,39.39 L 367.31,41.04 L 364.78,45.41 L 364.66,50.42 L 362.05,51.68 L 363.60,57.18 L 362.25,63.16 L 360.48,61.12 L 359.99,62.96 L 355.19,65.42 L 352.81,63.72 L 354.09,61.66 L 352.17,62.49 L 354.90,59.32 L 352.17,61.46 L 351.83,58.04 L 355.71,57.60 L 351.97,57.67 L 351.63,55.98 L 354.31,55.98 L 351.92,55.27 L 356.23,53.84 L 354.21,53.89 L 355.39,52.96 L 356.99,53.57 L 356.79,51.70 L 360.01,52.02 L 360.87,50.62 L 358.27,51.21 L 362.47,47.70 L 362.30,45.51 L 364.02,45.02 L 362.76,44.18 L 365.66,42.76 L 364.29,42.61 L 365.86,42.41 L 364.63,41.28 L 368.17,39.71 L 366.72,39.49 L 368.74,37.15 L 371.29,35.92 L 371.27,37.42 L 374.19,34.82 L 375.27,35.78 L 376.45,33.25 L 377.98,33.56 L 377.66,35.33 L 380.21,32.93 L 381.52,34.99 L 381.96,33.47 L 385.01,34.52 L 382.35,35.21 L 385.50,36.64 L 383.29,37.96 L 381.05,35.46 L 378.12,39.14 L 372.08,38.16 Z M 369.82,35.65 L 368.42,36.83 L 369.82,35.65 Z M 367.68,36.86 L 368.42,37.82 L 366.94,38.16 L 367.68,36.86 Z M 365.69,39.41 L 363.77,40.35 L 365.71,37.60 L 365.69,39.41 Z M 368.51,14.71 L 372.72,16.70 L 368.37,17.52 L 368.93,16.36 L 367.02,15.03 L 368.51,14.71 Z M 366.79,10.68 L 373.80,11.42 L 369.57,13.14 L 364.21,11.67 L 365.29,10.17 L 366.79,10.68 Z M 362.52,11.57 L 368.17,14.37 L 365.86,15.28 L 363.87,19.73 L 360.38,17.49 L 363.55,16.48 L 359.84,16.21 L 363.08,14.62 L 359.15,15.70 L 355.93,11.99 L 359.18,11.72 L 358.04,12.45 L 359.67,12.99 L 360.45,11.94 L 362.44,13.85 L 362.52,11.57 Z M 356.89,14.81 L 358.00,15.72 L 356.89,14.81 Z M 354.31,83.31 L 350.01,81.39 L 351.38,81.54 L 352.10,77.93 L 355.41,76.70 L 354.31,83.31 Z M 353.94,78.86 L 352.59,77.98 L 352.59,79.40 L 353.94,78.86 Z M 378.15,100.86 L 380.34,102.50 L 378.79,104.96 L 377.02,103.36 L 378.15,100.86 Z M 389.65,89.04 L 394.03,89.67 L 396.34,93.43 L 394.30,93.39 L 393.39,95.89 L 392.58,92.13 L 389.65,89.04 Z M 382.65,103.98 L 384.88,104.49 L 385.30,106.14 L 381.49,107.30 L 380.93,104.94 L 382.65,103.98 Z M 354.55,84.86 L 355.00,86.50 L 354.55,84.86 Z M 381.10,74.14 L 378.32,71.95 L 378.62,69.37 L 383.63,69.03 L 387.17,71.78 L 385.87,74.58 L 381.10,74.14 Z M 386.73,70.80 L 383.63,69.03 L 377.76,69.99 L 378.30,66.28 L 381.52,67.70 L 383.73,65.02 L 387.95,66.77 L 388.96,69.59 L 386.73,70.80 Z M 380.34,102.58 L 381.05,101.50 L 382.87,102.97 L 380.98,104.94 L 380.34,102.58 Z M 356.47,95.15 L 358.86,93.88 L 359.96,95.35 L 360.35,93.73 L 361.73,94.39 L 362.30,92.82 L 365.22,92.25 L 367.95,93.63 L 368.42,95.84 L 365.66,96.29 L 366.06,99.28 L 377.49,109.80 L 374.73,108.48 L 375.45,112.06 L 372.99,114.69 L 372.59,109.66 L 364.02,103.76 L 361.95,99.82 L 359.67,98.84 L 357.48,100.46 L 356.47,95.15 Z M 372.67,114.01 L 372.05,117.79 L 366.99,115.04 L 372.67,114.01 Z M 361.56,107.54 L 361.63,111.74 L 359.99,112.36 L 359.05,107.47 L 361.56,107.54 Z M 332.68,72.62 L 331.11,74.19 L 334.25,75.20 L 333.84,79.62 L 327.50,81.17 L 328.40,80.51 L 327.20,79.70 L 329.85,78.54 L 327.96,78.81 L 329.68,77.24 L 327.81,76.72 L 327.99,74.66 L 330.44,74.71 L 330.99,72.49 L 332.68,72.62 Z M 322.41,45.14 L 323.78,44.80 L 324.82,48.11 L 317.00,52.02 L 311.35,50.89 L 313.24,48.95 L 309.85,48.31 L 313.22,46.93 L 309.53,46.66 L 311.27,45.09 L 312.58,45.78 L 312.18,44.48 L 314.15,47.40 L 315.80,45.36 L 318.57,46.32 L 318.52,45.26 L 322.41,45.14 Z M 381.96,88.81 L 383.36,89.92 L 380.70,94.15 L 375.49,95.38 L 372.03,92.72 L 373.58,89.90 L 381.96,88.81 Z M 386.78,112.01 L 389.11,114.30 L 386.78,112.01 Z M 392.11,111.03 L 391.10,111.38 L 392.11,111.03 Z M 388.37,120.44 L 392.99,120.94 L 390.27,121.89 L 388.37,120.44 Z M 391.25,105.16 L 391.15,107.54 L 386.95,107.62 L 387.49,109.53 L 384.98,108.25 L 386.55,111.50 L 385.25,112.26 L 388.25,115.09 L 385.84,115.53 L 386.90,118.21 L 384.19,117.23 L 383.29,113.96 L 386.55,114.05 L 382.87,113.59 L 381.05,111.18 L 381.91,107.42 L 391.25,105.16 Z M 360.01,90.85 L 357.26,91.03 L 358.07,87.66 L 355.69,87.22 L 354.55,85.08 L 354.14,80.73 L 355.86,79.57 L 355.86,76.40 L 360.23,76.38 L 358.24,73.08 L 362.00,75.27 L 366.52,74.85 L 369.28,81.96 L 364.56,84.34 L 367.75,88.10 L 366.08,89.72 L 366.62,91.27 L 360.01,90.85 Z M 361.09,102.80 L 360.72,106.31 L 359.52,103.93 L 361.09,102.80 Z M 357.33,91.05 L 354.63,94.47 L 356.00,93.98 L 357.48,100.46 L 355.12,102.18 L 351.19,100.98 L 349.98,103.78 L 347.89,103.98 L 341.70,102.26 L 342.39,96.16 L 343.32,97.47 L 342.29,94.25 L 341.28,92.01 L 336.17,88.96 L 341.95,88.49 L 341.16,85.96 L 344.99,86.53 L 348.48,82.47 L 351.31,85.27 L 358.07,87.66 L 357.33,91.05 Z M 378.44,46.00 L 376.67,40.74 L 372.08,38.16 L 378.12,39.14 L 379.50,35.85 L 383.11,36.37 L 382.97,39.29 L 385.52,41.23 L 384.74,43.17 L 387.88,50.89 L 390.63,52.91 L 386.36,58.81 L 379.33,60.70 L 376.72,58.85 L 375.86,52.44 L 380.51,48.29 L 378.44,46.00 Z M 387.09,66.20 L 382.23,65.47 L 380.41,62.25 L 387.19,61.39 L 385.89,62.89 L 387.09,66.20 Z M 379.28,63.67 L 380.43,64.06 L 378.59,65.39 L 379.28,63.67 Z M 364.34,70.87 L 363.40,73.35 L 361.80,71.04 L 364.34,70.87 Z M 359.96,73.26 L 358.24,73.08 L 357.21,68.91 L 360.87,66.08 L 361.61,69.28 L 359.96,73.26 Z M 361.29,71.32 L 361.36,72.69 L 360.08,71.95 L 361.29,71.32 Z M 376.06,86.16 L 373.11,88.45 L 369.69,87.49 L 368.42,88.54 L 364.56,84.34 L 369.28,82.55 L 376.06,86.16 Z M 367.92,96.09 L 371.00,96.19 L 372.47,93.53 L 377.09,94.96 L 378.12,96.78 L 371.83,96.88 L 375.42,102.36 L 367.92,96.09 Z M 377.02,103.27 L 374.46,102.18 L 377.02,103.27 Z M 394.20,104.47 L 385.28,106.19 L 383.68,99.70 L 394.62,100.09 L 393.09,103.27 L 394.20,104.47 Z M 377.51,97.59 L 378.64,100.59 L 377.02,103.27 L 371.81,97.91 L 373.77,96.63 L 377.51,97.59 Z M 351.31,81.76 L 353.99,82.40 L 354.09,86.26 L 348.61,83.01 L 351.31,81.76 Z M 396.68,79.40 L 395.03,81.49 L 386.90,80.04 L 383.46,81.10 L 382.40,75.15 L 385.99,74.56 L 386.73,70.80 L 388.91,69.59 L 393.63,70.90 L 393.83,72.84 L 397.59,76.11 L 395.43,77.16 L 396.68,79.40 Z M 360.65,91.84 L 366.62,91.27 L 366.16,89.60 L 369.69,87.49 L 372.96,88.20 L 373.58,89.90 L 371.83,93.19 L 369.45,93.90 L 360.65,91.84 Z M 378.79,104.96 L 379.25,103.02 L 380.80,104.17 L 382.08,107.98 L 380.80,110.39 L 378.79,104.96 Z"/>
<path class="na" d="M 214.24,161.46 L 214.39,162.64 L 212.01,162.55 L 212.23,161.29 L 214.24,161.46 Z M 114.21,32.80 L 116.11,34.13 L 113.89,34.67 L 113.08,33.37 L 114.21,32.80 Z M 109.74,41.21 L 107.80,42.58 L 107.68,41.28 L 109.74,41.21 Z M 118.44,50.18 L 114.19,52.42 L 114.78,50.92 L 118.44,50.18 Z M 144.44,59.49 L 141.20,62.10 L 143.49,58.81 L 140.78,59.86 L 143.02,58.44 L 142.58,55.73 L 144.62,54.09 L 145.21,52.44 L 143.85,52.42 L 145.40,50.01 L 142.92,52.86 L 143.46,50.74 L 140.88,52.56 L 139.90,48.90 L 141.59,47.84 L 135.52,46.89 L 136.58,45.26 L 134.39,44.75 L 135.74,43.84 L 123.68,47.23 L 132.99,42.39 L 125.18,44.38 L 120.33,47.87 L 106.47,53.01 L 96.74,54.77 L 111.76,49.88 L 117.19,46.22 L 112.44,47.43 L 112.59,45.61 L 109.23,46.12 L 115.57,41.50 L 110.58,43.03 L 111.14,41.04 L 114.31,40.64 L 112.62,40.20 L 113.65,38.36 L 120.58,35.31 L 125.89,35.11 L 129.50,32.63 L 123.04,31.97 L 125.32,30.47 L 124.49,29.26 L 131.39,28.08 L 130.56,29.29 L 133.78,29.61 L 134.79,27.74 L 135.38,29.29 L 134.88,23.95 L 155.55,19.60 L 154.20,20.86 L 166.37,25.80 L 140.32,46.86 L 142.90,47.13 L 141.40,50.84 L 146.19,49.10 L 143.51,57.45 L 144.44,59.49 Z M 96.96,54.38 L 93.91,55.07 L 96.96,54.38 Z M 142.01,58.56 L 142.53,57.58 L 142.01,58.56 Z M 142.23,60.28 L 140.46,60.77 L 142.23,60.28 Z M 142.33,56.15 L 140.88,57.48 L 142.33,56.15 Z M 130.44,46.64 L 132.70,45.68 L 130.44,46.64 Z M 140.95,55.02 L 138.69,57.80 L 138.99,55.68 L 140.95,55.02 Z M 143.26,53.13 L 140.98,55.83 L 143.26,53.13 Z M 142.06,52.73 L 141.32,54.73 L 139.90,54.60 L 142.06,52.73 Z M 140.51,57.72 L 139.06,61.93 L 140.51,57.72 Z M 141.10,56.42 L 139.04,58.24 L 141.10,56.42 Z M 86.54,57.16 L 83.62,58.09 L 86.54,57.16 Z M 89.86,56.18 L 86.69,57.26 L 89.86,56.18 Z M 40.68,152.64 L 41.49,148.98 L 42.67,151.29 L 40.68,152.64 Z M 214.71,94.12 L 221.52,93.80 L 226.26,88.49 L 228.33,89.58 L 227.76,95.23 L 221.13,97.83 L 218.64,101.13 L 220.02,102.85 L 212.15,104.81 L 212.60,103.58 L 209.28,109.14 L 208.37,107.84 L 209.60,106.66 L 208.39,107.47 L 208.37,110.56 L 205.76,113.69 L 207.78,107.76 L 205.76,111.30 L 204.54,109.93 L 205.40,112.95 L 204.78,114.05 L 203.53,113.12 L 205.44,114.28 L 205.47,117.08 L 205.35,114.91 L 205.17,116.32 L 203.60,115.95 L 205.08,117.00 L 202.50,117.69 L 203.09,119.46 L 193.33,125.14 L 191.17,128.46 L 191.04,139.52 L 189.32,143.50 L 188.07,143.69 L 187.41,141.51 L 186.15,131.31 L 182.96,131.82 L 182.83,130.25 L 178.31,130.18 L 178.66,129.00 L 174.01,129.86 L 175.58,130.52 L 174.85,133.25 L 170.77,130.84 L 164.82,130.89 L 157.94,136.44 L 157.54,140.57 L 154.64,138.93 L 153.02,130.18 L 151.33,129.76 L 148.87,131.90 L 145.50,124.38 L 136.65,124.99 L 131.39,120.89 L 126.85,121.06 L 126.06,116.98 L 122.94,115.21 L 123.55,107.17 L 125.94,105.99 L 123.31,105.94 L 124.32,99.85 L 127.93,93.21 L 134.52,84.61 L 135.62,84.93 L 134.47,84.46 L 137.19,79.03 L 139.80,79.99 L 138.10,82.60 L 141.30,77.83 L 186.08,81.10 L 185.76,82.65 L 193.06,85.10 L 187.45,88.08 L 193.62,87.12 L 194.95,89.04 L 199.96,89.45 L 200.06,90.80 L 194.88,90.61 L 191.78,93.56 L 192.98,93.43 L 189.59,101.30 L 198.12,91.17 L 200.19,92.89 L 197.65,96.38 L 199.96,96.02 L 196.47,101.45 L 197.83,102.41 L 204.63,99.82 L 205.59,98.03 L 210.73,97.61 L 214.71,94.12 Z M 214.96,104.37 L 211.98,105.11 L 214.96,104.37 Z M 158.60,136.89 L 159.53,135.56 L 158.60,136.89 Z M 194.07,92.13 L 193.03,93.26 L 194.07,92.13 Z M 222.38,182.55 L 220.58,182.70 L 221.22,181.08 L 222.38,180.81 L 222.38,182.55 Z M 189.45,185.94 L 188.14,189.58 L 187.23,187.44 L 188.58,187.27 L 186.08,185.03 L 183.18,187.00 L 183.96,188.84 L 182.61,189.53 L 181.92,187.79 L 178.07,186.63 L 178.78,183.41 L 181.51,185.53 L 186.13,183.66 L 189.45,185.94 Z M 179.57,169.53 L 177.23,180.31 L 173.25,179.53 L 169.96,174.71 L 175.85,170.07 L 179.57,169.53 Z M 126.85,121.06 L 131.39,120.89 L 136.65,124.99 L 145.50,124.38 L 148.87,131.90 L 152.92,130.08 L 154.64,138.93 L 158.01,140.35 L 154.40,149.25 L 156.07,158.96 L 158.60,160.75 L 164.47,160.19 L 168.01,153.67 L 174.60,152.30 L 171.72,160.65 L 171.41,159.40 L 168.82,161.98 L 165.24,161.86 L 164.18,163.28 L 165.56,166.40 L 163.02,166.36 L 161.45,170.26 L 157.91,165.64 L 153.44,167.17 L 141.13,159.77 L 138.08,155.27 L 139.18,148.29 L 134.64,139.81 L 135.52,137.72 L 132.33,130.89 L 132.82,125.11 L 130.14,123.00 L 128.86,127.60 L 131.34,137.01 L 131.12,143.33 L 132.84,145.71 L 131.30,147.21 L 128.84,141.88 L 129.40,138.24 L 125.84,133.94 L 127.51,134.18 L 128.25,132.22 L 126.55,128.53 L 126.85,121.06 Z M 192.42,160.95 L 194.26,162.37 L 191.19,162.40 L 190.28,161.17 L 192.42,160.95 Z M 179.57,169.53 L 175.85,170.07 L 171.18,174.51 L 167.08,170.73 L 170.91,166.97 L 176.32,166.90 L 179.57,169.53 Z M 203.63,158.00 L 203.04,162.25 L 197.88,161.24 L 202.03,160.87 L 200.68,157.58 L 203.63,158.00 Z M 161.45,170.26 L 163.02,166.36 L 165.56,166.40 L 164.18,163.28 L 165.24,161.86 L 168.82,161.98 L 167.89,166.92 L 169.81,167.41 L 167.52,170.26 L 165.41,172.45 L 161.45,170.26 Z M 167.08,170.73 L 170.13,172.30 L 169.76,173.73 L 165.41,172.45 L 167.08,170.73 Z M 203.04,162.25 L 204.12,157.56 L 209.97,160.95 L 204.56,161.69 L 203.55,163.28 L 203.04,162.25 Z M 314.84,2.45 L 318.70,3.26 L 312.28,3.83 L 322.38,4.71 L 313.63,6.14 L 322.38,6.23 L 319.73,9.36 L 323.88,7.29 L 332.34,7.83 L 322.46,11.27 L 323.27,13.34 L 319.43,16.88 L 321.99,16.90 L 320.74,17.54 L 322.92,18.87 L 317.84,19.38 L 320.76,20.81 L 320.71,23.12 L 317.42,23.22 L 320.05,23.61 L 320.61,25.18 L 317.42,24.57 L 316.71,25.80 L 319.04,26.36 L 318.52,27.30 L 312.68,26.24 L 313.36,27.10 L 309.68,27.94 L 314.13,27.35 L 316.48,28.60 L 315.75,30.57 L 313.29,28.26 L 310.56,28.99 L 312.99,28.58 L 312.28,29.93 L 315.99,31.48 L 315.97,34.47 L 313.56,34.62 L 309.33,31.65 L 310.81,32.75 L 306.01,34.47 L 314.71,35.68 L 308.40,38.87 L 301.93,40.25 L 300.36,39.27 L 295.82,44.08 L 290.83,46.03 L 292.03,44.30 L 290.88,44.06 L 290.29,45.71 L 287.41,46.00 L 285.69,47.23 L 286.55,48.63 L 284.41,49.00 L 285.42,50.45 L 281.17,52.81 L 281.71,54.95 L 278.02,57.95 L 278.81,59.30 L 275.54,58.83 L 276.84,57.72 L 274.88,57.77 L 275.64,56.32 L 271.83,57.28 L 269.94,49.17 L 271.95,48.73 L 269.89,48.65 L 272.64,47.55 L 271.95,46.27 L 269.62,48.61 L 269.89,45.88 L 272.34,44.87 L 269.98,45.56 L 269.44,44.06 L 273.30,42.17 L 269.25,43.79 L 271.73,42.09 L 270.40,40.72 L 274.83,40.64 L 270.62,40.40 L 274.88,38.65 L 272.74,37.87 L 276.99,36.66 L 277.90,34.57 L 273.23,32.70 L 277.85,33.66 L 278.09,32.19 L 275.76,31.65 L 277.90,30.49 L 275.69,30.64 L 276.37,28.75 L 274.88,30.91 L 272.93,30.59 L 275.66,27.44 L 275.49,24.35 L 274.26,24.30 L 275.98,23.39 L 274.92,20.49 L 270.40,18.65 L 264.26,18.99 L 263.45,18.18 L 265.44,17.66 L 262.76,16.48 L 268.98,15.62 L 265.44,15.67 L 262.96,13.78 L 272.22,11.86 L 275.54,9.75 L 273.15,8.89 L 282.47,5.62 L 285.44,7.07 L 283.77,5.47 L 289.06,4.81 L 289.01,6.51 L 290.53,4.93 L 293.46,5.99 L 293.73,4.66 L 298.17,6.46 L 298.57,4.12 L 302.75,4.22 L 298.37,3.33 L 314.84,2.45 Z M 274.68,34.65 L 275.37,35.51 L 272.76,36.27 L 271.56,35.06 L 272.98,33.64 L 274.68,34.65 Z M 298.42,5.72 L 296.58,4.42 L 298.86,4.78 L 298.42,5.72 Z M 311.05,33.42 L 307.42,34.40 L 311.05,33.42 Z M 322.63,22.58 L 323.22,23.51 L 321.42,23.39 L 322.63,22.58 Z M 185.61,148.68 L 189.37,149.52 L 199.15,156.75 L 192.07,157.36 L 193.35,155.37 L 190.87,152.89 L 185.12,151.12 L 185.37,149.94 L 179.15,151.90 L 181.09,149.81 L 185.61,148.68 Z M 183.42,152.71 L 182.22,152.62 L 183.42,152.71 Z M 179.25,183.46 L 178.31,187.32 L 174.45,181.99 L 174.16,183.36 L 173.20,182.53 L 172.88,179.95 L 177.40,179.97 L 179.25,183.46 Z M 136.83,63.28 L 135.97,64.48 L 138.28,63.43 L 134.91,65.27 L 136.83,63.28 Z M 136.11,65.74 L 134.69,68.41 L 134.83,65.74 L 136.11,65.74 Z M 137.64,72.91 L 139.63,74.04 L 139.58,79.11 L 137.46,78.32 L 138.57,76.92 L 137.00,77.51 L 137.39,75.54 L 135.62,74.09 L 137.12,73.01 L 136.28,72.35 L 137.64,72.91 Z M 144.44,59.49 L 143.51,57.45 L 146.19,49.10 L 141.40,50.84 L 142.90,47.13 L 140.32,46.86 L 166.37,25.80 L 170.03,28.82 L 173.81,26.76 L 180.60,26.34 L 172.54,29.02 L 183.55,25.72 L 183.06,28.80 L 186.30,27.15 L 184.48,28.94 L 188.29,28.23 L 194.24,31.38 L 191.58,33.71 L 198.19,33.98 L 198.17,38.06 L 200.43,34.67 L 204.88,33.15 L 200.80,33.86 L 201.78,32.78 L 205.13,32.34 L 205.30,34.52 L 207.29,35.56 L 212.65,35.19 L 213.21,36.39 L 213.24,34.50 L 215.05,34.33 L 215.01,35.48 L 216.36,35.09 L 213.36,38.95 L 216.55,35.68 L 220.29,34.47 L 219.21,33.93 L 221.91,32.46 L 219.68,30.42 L 225.77,26.51 L 225.72,31.01 L 223.07,32.07 L 225.75,32.83 L 223.68,35.65 L 226.78,33.42 L 227.49,34.60 L 225.38,38.53 L 231.47,34.99 L 232.63,32.38 L 236.19,33.17 L 236.04,35.41 L 233.86,36.00 L 232.92,39.36 L 229.19,40.86 L 227.83,39.41 L 228.30,41.18 L 225.06,40.15 L 222.01,42.90 L 217.86,41.01 L 222.33,43.30 L 219.13,45.61 L 214.39,46.76 L 211.47,45.07 L 214.05,47.43 L 203.53,53.72 L 200.82,57.16 L 200.46,59.10 L 202.84,58.22 L 200.50,62.66 L 204.27,62.20 L 209.28,66.74 L 209.03,68.05 L 213.60,68.41 L 210.83,75.49 L 212.13,76.75 L 211.05,78.30 L 213.04,79.35 L 216.26,75.74 L 217.22,69.67 L 224.44,65.49 L 225.52,62.37 L 224.30,60.03 L 227.98,56.81 L 229.97,51.24 L 236.53,51.19 L 238.06,54.60 L 240.71,55.12 L 237.74,57.43 L 238.77,59.30 L 236.90,60.55 L 239.53,60.77 L 237.57,62.76 L 242.75,61.73 L 247.10,57.36 L 246.51,60.38 L 247.74,61.39 L 246.37,62.17 L 247.96,61.90 L 246.44,62.98 L 248.33,63.33 L 247.05,64.34 L 248.36,65.59 L 246.34,66.01 L 248.65,68.69 L 247.52,70.43 L 252.17,71.83 L 246.29,74.88 L 250.37,72.72 L 251.75,72.89 L 251.28,74.61 L 253.47,74.71 L 252.85,77.88 L 250.13,79.60 L 244.01,82.33 L 233.41,81.93 L 226.24,86.63 L 224.25,85.89 L 225.50,87.54 L 216.28,93.34 L 198.29,101.08 L 197.53,100.29 L 201.07,97.49 L 203.06,92.84 L 203.75,94.49 L 206.06,93.98 L 205.27,91.17 L 199.67,89.45 L 200.78,85.77 L 199.10,85.45 L 199.13,83.58 L 196.45,82.79 L 192.52,85.08 L 185.76,82.65 L 185.76,81.02 L 140.86,77.83 L 141.84,74.76 L 140.14,74.90 L 141.64,72.77 L 139.04,73.48 L 139.48,72.00 L 137.88,71.56 L 142.31,67.51 L 138.57,69.91 L 142.21,64.73 L 139.43,66.01 L 139.31,64.70 L 144.44,59.49 Z M 225.11,10.14 L 220.73,10.54 L 225.11,10.14 Z M 222.97,11.27 L 219.01,12.72 L 222.97,11.27 Z M 215.74,12.43 L 211.00,14.59 L 211.79,13.39 L 207.02,15.23 L 204.68,14.32 L 215.74,12.43 Z M 219.87,15.94 L 222.43,16.43 L 220.04,18.23 L 211.05,19.14 L 209.87,18.30 L 214.78,17.44 L 207.83,16.73 L 213.92,14.35 L 217.59,17.10 L 218.59,15.01 L 221.27,14.22 L 219.87,15.94 Z M 204.12,22.97 L 207.12,22.31 L 208.10,23.07 L 206.60,23.95 L 210.21,22.63 L 209.43,25.92 L 212.62,22.43 L 214.71,22.53 L 211.98,27.59 L 213.51,30.89 L 210.11,30.93 L 209.48,32.04 L 211.07,32.24 L 208.91,32.95 L 205.69,31.06 L 195.64,32.43 L 196.62,30.76 L 193.82,29.85 L 194.61,28.35 L 201.78,28.48 L 195.59,27.00 L 200.43,25.36 L 196.92,24.27 L 203.01,21.72 L 206.26,21.35 L 204.12,22.97 Z M 202.37,19.01 L 205.10,19.01 L 205.49,20.86 L 190.50,25.26 L 189.81,22.95 L 197.70,17.93 L 202.37,19.01 Z M 275.49,2.74 L 282.22,4.76 L 273.03,6.78 L 277.19,6.58 L 267.38,10.19 L 261.14,10.49 L 262.73,11.69 L 258.48,11.40 L 262.19,12.45 L 255.19,15.35 L 252.04,14.79 L 251.21,15.48 L 254.72,16.58 L 250.42,17.96 L 249.46,16.56 L 241.20,16.58 L 245.73,15.21 L 246.12,13.66 L 248.36,14.94 L 251.70,13.88 L 248.50,14.62 L 250.79,12.28 L 247.08,12.90 L 254.94,11.45 L 252.19,11.22 L 252.81,8.23 L 257.60,10.07 L 256.52,8.30 L 265.04,6.09 L 254.77,7.71 L 258.02,6.41 L 252.49,7.27 L 256.69,6.01 L 251.45,6.31 L 254.60,5.33 L 250.86,4.86 L 259.37,3.41 L 263.40,5.01 L 261.63,3.63 L 265.29,2.52 L 268.19,3.60 L 268.12,2.47 L 275.49,2.74 Z M 237.79,13.19 L 239.98,13.66 L 237.79,13.19 Z M 233.59,19.60 L 230.17,19.33 L 233.44,18.11 L 233.59,19.60 Z M 223.85,21.47 L 226.78,22.11 L 223.41,23.88 L 225.03,24.67 L 219.01,27.47 L 217.98,24.00 L 221.32,23.83 L 222.38,23.17 L 221.05,22.38 L 223.85,21.47 Z M 225.28,43.37 L 229.28,47.35 L 227.66,48.09 L 225.62,46.22 L 221.08,48.46 L 221.52,47.03 L 219.43,47.16 L 225.06,41.90 L 225.28,43.37 Z M 232.28,15.99 L 228.65,19.16 L 226.04,18.99 L 228.84,17.59 L 224.66,17.49 L 227.83,15.67 L 228.65,17.02 L 229.04,15.60 L 232.28,15.99 Z M 233.34,9.21 L 235.33,10.76 L 234.57,12.45 L 229.48,11.22 L 231.89,10.49 L 230.54,10.22 L 231.28,9.09 L 233.34,9.21 Z M 249.44,5.96 L 250.20,8.30 L 251.87,7.91 L 250.47,9.72 L 252.14,10.54 L 245.75,12.77 L 242.14,12.03 L 243.34,11.76 L 242.02,10.58 L 245.85,9.92 L 241.75,9.87 L 243.54,8.91 L 241.92,8.96 L 242.14,7.88 L 244.79,7.91 L 242.95,7.51 L 247.69,5.37 L 249.44,5.96 Z M 237.00,15.25 L 236.78,16.36 L 241.11,17.05 L 238.60,17.05 L 239.71,19.01 L 250.18,19.73 L 245.68,21.84 L 244.69,20.71 L 235.04,20.64 L 237.05,16.61 L 233.81,15.43 L 237.00,15.25 Z M 238.80,11.47 L 239.04,12.58 L 236.22,13.04 L 237.10,10.83 L 238.80,11.47 Z M 232.11,21.62 L 234.59,22.65 L 225.16,26.34 L 228.28,22.46 L 232.11,21.62 Z M 217.39,31.65 L 218.42,33.81 L 216.01,34.50 L 213.41,33.12 L 217.39,31.65 Z M 238.75,92.92 L 240.96,92.97 L 237.99,93.46 L 240.64,90.34 L 238.75,92.92 Z M 227.81,94.37 L 228.33,89.58 L 226.26,88.49 L 221.52,93.80 L 214.71,94.12 L 227.83,86.31 L 234.15,84.34 L 235.92,85.30 L 235.33,86.53 L 231.03,87.34 L 234.13,88.22 L 232.55,89.72 L 233.14,91.94 L 238.38,94.54 L 232.18,96.14 L 229.31,98.62 L 229.04,96.11 L 234.42,94.20 L 231.84,94.10 L 232.73,92.65 L 227.81,94.37 Z M 252.68,79.50 L 248.87,84.14 L 250.35,82.96 L 250.91,85.57 L 253.98,85.10 L 252.46,87.36 L 254.48,86.82 L 252.61,88.30 L 254.38,88.13 L 253.03,91.66 L 251.28,91.10 L 251.94,88.67 L 248.53,91.03 L 250.81,89.11 L 243.22,88.86 L 249.66,80.68 L 252.68,79.50 Z M 233.46,29.53 L 235.67,29.66 L 236.17,27.32 L 239.73,25.55 L 238.89,24.74 L 244.57,23.68 L 244.42,25.97 L 242.06,27.94 L 248.41,26.34 L 249.95,27.30 L 247.84,28.80 L 250.42,28.16 L 248.14,30.05 L 250.47,28.82 L 249.44,29.68 L 250.49,30.05 L 252.81,29.61 L 250.47,31.16 L 253.27,30.79 L 250.86,32.93 L 254.70,31.57 L 252.49,33.25 L 255.43,32.73 L 255.80,34.06 L 252.71,34.57 L 255.71,35.31 L 251.65,36.15 L 254.89,37.77 L 253.96,38.82 L 256.25,38.46 L 257.06,39.66 L 255.63,40.13 L 257.70,40.52 L 256.27,41.48 L 259.32,42.07 L 253.98,46.07 L 252.58,43.91 L 254.60,42.66 L 248.60,42.58 L 251.33,48.97 L 249.02,51.56 L 244.99,48.63 L 247.25,52.51 L 246.34,53.30 L 240.71,49.96 L 240.12,46.12 L 233.41,45.88 L 235.87,43.64 L 237.49,45.29 L 241.06,43.91 L 240.89,42.19 L 245.46,39.76 L 244.94,35.26 L 241.99,35.92 L 244.01,33.66 L 242.04,31.18 L 238.18,33.07 L 229.75,30.47 L 230.07,29.17 L 232.80,29.48 L 230.46,28.11 L 234.47,24.40 L 240.74,23.22 L 236.78,25.43 L 236.04,28.89 L 233.46,29.53 Z M 240.17,85.08 L 236.41,82.89 L 240.17,85.08 Z M 234.57,91.42 L 237.57,91.66 L 234.67,92.01 L 234.77,89.92 L 234.57,91.42 Z M 225.55,49.22 L 222.03,50.30 L 225.55,49.22 Z M 228.18,50.77 L 226.26,52.14 L 228.18,50.77 Z M 242.56,36.91 L 241.82,39.02 L 239.21,38.73 L 242.56,36.91 Z M 246.93,23.93 L 249.41,24.47 L 249.66,26.02 L 245.06,25.87 L 245.51,23.68 L 246.93,23.93 Z M 213.21,74.31 L 211.52,73.43 L 213.14,73.13 L 213.21,74.31 Z M 220.49,65.83 L 218.37,66.60 L 220.49,65.83 Z M 215.42,23.27 L 214.96,21.77 L 217.81,21.77 L 215.42,23.27 Z M 207.90,15.99 L 210.11,14.91 L 207.90,15.99 Z M 140.24,66.96 L 138.72,68.56 L 140.24,66.96 Z M 238.85,35.33 L 240.86,34.33 L 238.85,35.33 Z M 227.37,37.28 L 228.28,35.92 L 227.37,37.28 Z M 221.84,18.62 L 222.85,17.76 L 221.84,18.62 Z M 168.82,161.98 L 171.11,160.97 L 167.89,166.92 L 168.82,161.98 Z M 195.93,142.00 L 195.10,139.42 L 196.57,140.43 L 195.93,142.00 Z M 194.29,145.02 L 192.94,145.17 L 193.75,143.72 L 194.29,145.02 Z M 199.92,151.56 L 200.85,150.26 L 199.92,151.56 Z M 196.79,143.11 L 197.29,145.27 L 196.79,143.11 Z M 199.01,149.79 L 198.44,147.80 L 199.01,149.79 Z"/>
<path class="oc" d="M 673.25,252.74 L 673.27,255.03 L 673.25,252.74 Z M 673.39,256.60 L 673.05,257.98 L 673.39,256.60 Z M 659.78,232.37 L 659.73,233.45 L 658.67,232.39 L 659.78,232.37 Z M 663.24,235.54 L 665.06,237.38 L 663.10,236.99 L 663.24,235.54 Z M 663.86,233.38 L 661.45,230.35 L 663.86,233.38 Z M 659.61,229.67 L 657.79,227.58 L 659.61,229.67 Z M 665.70,232.79 L 666.29,236.67 L 665.70,232.79 Z M 666.54,239.01 L 667.59,240.36 L 666.54,239.01 Z M 3.27,249.35 L 3.79,250.36 L 3.27,249.35 Z M 651.35,221.92 L 647.47,215.53 L 651.59,220.03 L 651.35,221.92 Z M 649.36,220.55 L 649.38,223.94 L 645.94,226.20 L 641.84,224.41 L 644.88,224.04 L 645.52,222.56 L 645.57,224.04 L 647.05,223.87 L 649.36,220.55 Z M 625.96,233.87 L 627.93,215.46 L 634.51,218.97 L 636.73,223.52 L 640.19,225.49 L 639.01,229.25 L 641.15,234.14 L 645.11,237.70 L 643.83,238.86 L 639.06,236.99 L 636.45,231.19 L 631.93,229.30 L 631.59,231.41 L 628.79,231.31 L 630.80,233.55 L 625.96,233.87 Z M 656.78,227.70 L 655.55,227.77 L 654.72,224.01 L 656.78,227.70 Z M 641.03,329.72 L 643.46,329.38 L 641.67,331.29 L 626.16,341.10 L 621.81,342.60 L 619.74,340.16 L 634.10,333.33 L 641.00,328.10 L 642.60,327.66 L 641.03,329.72 Z M 619.84,342.92 L 617.95,343.75 L 619.84,342.92 Z M 655.50,312.47 L 656.58,313.60 L 653.78,318.14 L 654.27,319.35 L 655.75,317.33 L 654.15,320.75 L 655.18,322.03 L 657.86,321.56 L 643.53,331.24 L 646.92,327.19 L 646.65,324.63 L 653.56,318.86 L 655.50,312.47 Z M 49.13,337.12 L 49.63,338.22 L 49.13,337.12 Z M 662.97,268.35 L 665.65,274.91 L 663.12,271.52 L 662.97,268.35 Z M 697.55,258.74 L 696.77,260.49 L 693.99,260.39 L 697.55,258.74 Z M 692.93,262.13 L 692.83,264.37 L 690.30,264.12 L 692.93,262.13 Z M 629.01,242.03 L 628.71,248.84 L 630.19,248.57 L 631.32,250.65 L 630.26,262.18 L 633.60,266.19 L 633.19,272.38 L 634.98,272.31 L 635.42,282.85 L 632.57,290.52 L 627.24,298.01 L 611.85,313.94 L 603.08,317.50 L 603.13,314.92 L 601.70,315.02 L 602.76,313.89 L 598.90,316.05 L 596.15,314.41 L 595.21,311.14 L 597.28,306.08 L 595.02,306.52 L 597.01,302.64 L 593.32,305.29 L 598.73,298.33 L 591.63,304.26 L 592.46,297.65 L 588.28,294.35 L 577.89,295.68 L 571.55,299.61 L 564.96,299.22 L 560.09,301.78 L 555.94,299.29 L 560.04,292.68 L 560.71,277.91 L 561.67,278.82 L 561.72,276.39 L 562.55,278.30 L 562.60,273.31 L 565.72,266.61 L 565.50,268.23 L 571.77,263.58 L 580.79,261.17 L 586.69,252.79 L 587.18,255.79 L 588.06,252.28 L 590.23,252.87 L 590.13,250.36 L 594.13,246.35 L 596.86,246.60 L 597.33,250.21 L 598.66,248.74 L 600.52,249.82 L 603.94,242.45 L 608.22,241.73 L 607.18,239.08 L 612.76,242.10 L 614.73,241.12 L 614.73,242.79 L 615.88,241.54 L 616.47,242.67 L 612.07,249.70 L 620.04,257.71 L 622.96,253.46 L 627.53,239.10 L 628.49,238.56 L 629.01,242.03 Z M 635.55,282.24 L 637.17,279.39 L 635.55,282.24 Z M 615.22,246.70 L 614.24,247.80 L 615.22,246.70 Z M 604.43,239.52 L 606.22,239.77 L 604.82,241.07 L 604.43,239.52 Z M 593.81,306.74 L 591.75,306.96 L 593.81,306.74 Z M 597.84,321.54 L 599.20,322.79 L 602.86,322.40 L 597.97,328.37 L 597.62,327.26 L 594.13,328.96 L 597.84,321.54 Z M 597.23,319.54 L 598.31,318.14 L 597.23,319.54 Z"/>
<path class="sa" d="M 224.15,186.56 L 221.10,193.09 L 222.53,195.75 L 217.98,198.99 L 214.15,197.27 L 216.82,202.46 L 212.45,206.32 L 209.80,204.97 L 207.88,200.98 L 208.91,192.41 L 205.00,192.53 L 203.68,190.42 L 199.94,190.19 L 197.56,184.67 L 202.18,177.93 L 200.16,183.12 L 201.78,184.79 L 201.68,180.22 L 205.10,178.96 L 204.86,177.17 L 208.22,181.49 L 212.03,181.18 L 214.17,182.63 L 220.76,181.00 L 218.67,181.52 L 222.70,184.49 L 220.95,186.41 L 224.15,186.56 Z M 244.92,292.36 L 242.68,295.41 L 236.95,294.38 L 235.53,292.61 L 235.26,283.83 L 243.39,288.21 L 244.92,292.36 Z M 246.91,336.21 L 248.92,337.22 L 246.64,338.64 L 246.91,336.21 Z M 244.72,336.80 L 246.37,336.63 L 245.01,338.62 L 244.72,336.80 Z M 235.58,194.64 L 234.91,201.89 L 230.27,202.95 L 227.69,198.01 L 228.06,195.80 L 229.97,193.02 L 235.21,193.27 L 235.58,194.64 Z M 203.72,218.80 L 197.95,221.09 L 196.01,227.31 L 200.06,233.50 L 203.23,232.03 L 203.33,236.01 L 205.44,235.83 L 207.56,239.74 L 207.29,246.67 L 205.76,248.05 L 207.98,250.21 L 205.79,254.59 L 193.72,245.40 L 186.67,230.11 L 181.48,223.60 L 180.94,220.06 L 182.86,216.74 L 182.64,219.42 L 185.59,220.79 L 186.84,216.76 L 192.32,211.97 L 192.98,208.16 L 197.63,214.16 L 203.38,214.80 L 202.15,217.67 L 203.72,218.80 Z M 230.39,258.69 L 231.42,263.53 L 235.58,263.95 L 236.98,268.06 L 239.26,268.25 L 239.19,274.47 L 237.69,276.71 L 232.14,276.61 L 233.17,271.59 L 222.33,264.05 L 223.19,257.51 L 228.30,256.50 L 230.39,258.69 Z M 222.33,194.96 L 221.10,193.09 L 223.29,190.44 L 222.62,189.09 L 224.15,186.56 L 225.72,187.76 L 226.58,192.01 L 227.39,190.78 L 229.53,192.75 L 227.64,197.76 L 230.71,203.20 L 225.18,204.60 L 223.68,201.30 L 224.34,197.05 L 222.33,194.96 Z M 192.86,208.33 L 192.32,211.97 L 186.84,216.76 L 185.59,220.79 L 182.64,219.42 L 184.01,214.67 L 183.74,213.37 L 182.88,214.99 L 181.58,213.89 L 181.58,210.84 L 183.33,205.92 L 185.71,204.33 L 192.86,208.33 Z M 160.71,207.99 L 161.01,210.72 L 160.71,207.99 Z M 202.18,177.93 L 197.56,184.67 L 199.94,190.19 L 203.68,190.42 L 205.00,192.53 L 208.91,192.41 L 207.88,200.98 L 209.77,204.62 L 208.76,202.70 L 203.82,203.74 L 205.20,206.39 L 203.40,206.59 L 204.71,211.09 L 203.72,218.80 L 202.15,217.67 L 203.38,214.80 L 197.63,214.16 L 193.84,208.58 L 188.63,207.05 L 185.37,203.91 L 189.42,198.06 L 188.14,189.58 L 189.40,185.97 L 190.50,187.81 L 194.97,179.75 L 195.79,180.63 L 201.51,176.51 L 202.18,177.93 Z M 205.79,254.59 L 207.29,252.42 L 208.30,253.80 L 212.42,265.79 L 214.19,266.19 L 211.96,270.69 L 213.48,276.26 L 211.66,279.98 L 211.59,286.93 L 214.74,294.60 L 214.10,301.28 L 215.96,305.51 L 216.92,315.71 L 220.36,320.58 L 219.01,321.17 L 221.37,325.81 L 221.15,333.28 L 226.29,339.01 L 232.28,339.50 L 229.04,340.90 L 229.46,343.68 L 227.10,342.48 L 228.25,342.75 L 228.40,341.05 L 225.97,342.28 L 227.71,340.56 L 225.72,340.51 L 225.67,341.86 L 223.75,340.88 L 222.77,339.57 L 225.72,339.80 L 219.85,336.13 L 222.23,336.65 L 217.86,329.45 L 219.99,329.69 L 217.44,328.71 L 217.09,326.40 L 214.66,326.33 L 216.36,322.94 L 217.66,325.81 L 216.82,323.08 L 218.15,322.96 L 215.72,313.03 L 213.43,313.77 L 212.35,311.85 L 212.25,307.40 L 209.99,302.73 L 210.78,290.79 L 208.42,281.40 L 207.61,262.53 L 205.79,254.59 Z M 232.38,340.41 L 234.69,345.84 L 229.33,345.52 L 231.74,345.18 L 230.39,342.99 L 233.44,345.15 L 229.68,340.83 L 232.38,340.41 Z M 214.78,317.78 L 212.97,313.92 L 214.78,317.78 Z M 219.23,332.28 L 219.95,334.41 L 219.11,332.99 L 218.15,333.97 L 218.10,331.29 L 219.23,332.28 Z M 217.12,331.42 L 216.53,329.57 L 217.12,331.42 Z M 223.48,341.61 L 225.97,342.55 L 223.48,341.61 Z M 218.50,330.90 L 217.29,329.08 L 218.50,330.90 Z M 226.46,342.84 L 227.32,344.44 L 225.06,343.09 L 226.46,342.84 Z M 221.35,338.47 L 222.28,340.04 L 221.35,338.47 Z M 233.12,346.09 L 236.51,347.73 L 233.12,346.09 Z M 229.48,344.07 L 228.20,344.17 L 229.48,344.07 Z M 215.79,320.38 L 216.04,322.74 L 214.51,321.09 L 215.79,320.38 Z M 217.44,321.29 L 216.58,320.23 L 217.44,321.29 Z M 209.80,204.97 L 212.60,206.32 L 216.75,202.63 L 214.15,197.27 L 217.98,198.99 L 222.53,194.91 L 223.83,195.28 L 223.68,201.30 L 225.92,205.04 L 229.43,203.00 L 231.74,203.39 L 231.79,201.75 L 237.79,202.61 L 240.91,197.27 L 243.93,205.16 L 238.38,211.95 L 241.92,210.40 L 242.95,213.10 L 245.11,212.39 L 244.50,214.70 L 247.52,209.91 L 249.22,209.66 L 254.50,212.41 L 254.40,216.05 L 257.06,213.96 L 263.94,215.17 L 273.55,221.85 L 274.26,228.88 L 268.17,239.91 L 266.96,239.79 L 267.11,251.98 L 264.36,262.70 L 262.56,265.08 L 257.55,265.43 L 250.32,271.32 L 251.31,279.31 L 246.64,288.26 L 248.65,284.01 L 247.15,283.05 L 244.92,292.36 L 245.43,288.50 L 244.79,289.71 L 235.31,283.74 L 241.16,275.90 L 241.16,273.66 L 239.09,272.09 L 239.26,268.25 L 236.98,268.06 L 235.67,264.07 L 231.32,263.39 L 231.13,253.78 L 228.94,248.96 L 225.33,248.98 L 224.10,242.77 L 214.78,238.29 L 213.56,232.59 L 207.39,236.20 L 203.33,236.01 L 203.23,232.03 L 200.06,233.50 L 196.01,227.31 L 197.95,221.09 L 203.72,218.97 L 204.71,211.09 L 203.40,206.59 L 205.20,206.39 L 203.82,203.74 L 208.76,202.70 L 209.80,204.97 Z M 244.47,208.63 L 246.96,208.80 L 246.07,211.53 L 242.73,212.54 L 242.43,208.75 L 244.47,208.63 Z M 240.05,211.65 L 241.20,209.41 L 240.05,211.65 Z M 207.29,252.42 L 208.74,249.30 L 206.97,247.36 L 207.56,239.74 L 205.44,235.83 L 207.39,236.20 L 213.56,232.59 L 214.78,238.29 L 224.10,242.77 L 225.33,248.98 L 228.94,248.96 L 231.13,253.78 L 230.51,258.64 L 228.30,256.50 L 223.19,257.51 L 222.33,264.05 L 219.80,263.61 L 219.31,265.62 L 215.25,263.14 L 212.79,265.94 L 207.29,252.42 Z M 235.31,283.74 L 235.67,294.03 L 240.44,300.57 L 238.67,304.33 L 231.42,305.51 L 232.75,310.75 L 227.96,310.72 L 229.06,313.94 L 231.91,315.32 L 229.53,315.34 L 230.88,316.05 L 230.24,321.22 L 228.20,321.95 L 227.76,323.99 L 232.46,328.52 L 230.86,333.75 L 229.14,333.90 L 229.92,337.85 L 232.41,339.55 L 226.29,339.01 L 221.15,333.28 L 221.37,325.81 L 219.01,321.17 L 220.36,320.58 L 217.29,316.74 L 215.72,310.99 L 215.99,305.66 L 214.10,301.28 L 214.74,294.60 L 211.61,287.35 L 211.66,279.98 L 213.48,276.26 L 212.01,270.37 L 213.95,268.82 L 215.25,263.14 L 219.31,265.62 L 219.80,263.61 L 221.89,263.46 L 226.04,267.81 L 233.17,271.59 L 232.14,276.61 L 237.69,276.71 L 239.09,272.09 L 240.25,272.06 L 241.16,275.90 L 235.31,283.74 Z M 234.69,345.84 L 232.38,340.41 L 239.98,345.10 L 234.69,345.84 Z M 234.47,202.24 L 236.07,193.61 L 240.52,197.91 L 238.33,202.14 L 234.47,202.24 Z"/>
</g>
</svg>